<svg width="37" height="36" viewBox="0 0 37 36" fill="none" xmlns="http://www.w3.org/2000/svg">
<g clip-path="url(#clip0_332_5321)">
<path fill-rule="evenodd" clip-rule="evenodd" d="M2.78296 18C2.78296 22.1772 4.44233 26.1832 7.39603 29.1369C10.3497 32.0906 14.3558 33.75 18.533 33.75C22.7101 33.75 26.7162 32.0906 29.6699 29.1369C32.6236 26.1832 34.283 22.1772 34.283 18C34.283 13.8228 32.6236 9.81677 29.6699 6.86307C26.7162 3.90937 22.7101 2.25 18.533 2.25C14.3558 2.25 10.3497 3.90937 7.39603 6.86307C4.44233 9.81677 2.78296 13.8228 2.78296 18ZM36.533 18C36.533 22.7739 34.6365 27.3523 31.2609 30.7279C27.8852 34.1036 23.3069 36 18.533 36C13.7591 36 9.18069 34.1036 5.80504 30.7279C2.42938 27.3523 0.532959 22.7739 0.532959 18C0.532959 13.2261 2.42938 8.64773 5.80504 5.27208C9.18069 1.89642 13.7591 0 18.533 0C23.3069 0 27.8852 1.89642 31.2609 5.27208C34.6365 8.64773 36.533 13.2261 36.533 18ZM10.658 16.875C10.3596 16.875 10.0734 16.9935 9.86246 17.2045C9.65149 17.4155 9.53296 17.7016 9.53296 18C9.53296 18.2984 9.65149 18.5845 9.86246 18.7955C10.0734 19.0065 10.3596 19.125 10.658 19.125H23.6922L18.8615 23.9535C18.7569 24.0581 18.6739 24.1823 18.6173 24.3189C18.5607 24.4556 18.5315 24.6021 18.5315 24.75C18.5315 24.8979 18.5607 25.0444 18.6173 25.1811C18.6739 25.3177 18.7569 25.4419 18.8615 25.5465C18.9661 25.6511 19.0902 25.7341 19.2269 25.7907C19.3636 25.8473 19.51 25.8764 19.658 25.8764C19.8059 25.8764 19.9524 25.8473 20.089 25.7907C20.2257 25.7341 20.3499 25.6511 20.4545 25.5465L27.2045 18.7965C27.3092 18.692 27.3923 18.5679 27.4491 18.4312C27.5058 18.2945 27.535 18.148 27.535 18C27.535 17.852 27.5058 17.7055 27.4491 17.5688C27.3923 17.4321 27.3092 17.308 27.2045 17.2035L20.4545 10.4535C20.3499 10.3489 20.2257 10.2659 20.089 10.2093C19.9524 10.1527 19.8059 10.1236 19.658 10.1236C19.51 10.1236 19.3636 10.1527 19.2269 10.2093C19.0902 10.2659 18.9661 10.3489 18.8615 10.4535C18.7569 10.5581 18.6739 10.6823 18.6173 10.8189C18.5607 10.9556 18.5315 11.1021 18.5315 11.25C18.5315 11.3979 18.5607 11.5444 18.6173 11.6811C18.6739 11.8177 18.7569 11.9419 18.8615 12.0465L23.6922 16.875H10.658Z" fill="#0B78D0"/>
</g>
<defs>
<clipPath id="clip0_332_5321">
<rect width="36" height="36" fill="white" transform="translate(0.532959)"/>
</clipPath>
</defs>
</svg>
