<svg width="329" height="329" viewBox="0 0 329 329" fill="none" xmlns="http://www.w3.org/2000/svg">
<rect x="0.5" y="0.5" width="328" height="328" rx="9.5" fill="#F9FCFF" stroke="#E3F2FD"/>
<mask id="mask0_332_5486" style="mask-type:alpha" maskUnits="userSpaceOnUse" x="0" y="0" width="329" height="329">
<rect width="329" height="329" rx="10" fill="#F2F2F2"/>
</mask>
<g mask="url(#mask0_332_5486)">
<path d="M-0.871277 160.146H34.7658V172.843H-0.871277V160.146Z" fill="#005376"/>
<path d="M34.7657 160.146H70.4028V172.843H34.7657V160.146Z" fill="#00B1FB"/>
<path d="M70.3974 160.146H106.035V172.843H70.3974V160.146Z" fill="white"/>
<path d="M-0.871277 147.45H34.7658V160.147H-0.871277V147.45Z" fill="#FFB601"/>
<path d="M34.7657 147.45H70.4028V160.147H34.7657V147.45Z" fill="#0081B3"/>
<path d="M70.3974 147.45H106.035V160.147H70.3974V147.45Z" fill="#005376"/>
<path d="M-0.871277 134.753H34.7658V147.45H-0.871277V134.753Z" fill="#0081B3"/>
<path d="M34.7657 134.753H70.4028V147.45H34.7657V134.753Z" fill="white"/>
<path d="M41.7009 122.055H72.299V134.752H41.7009V122.055ZM98.1323 109.358H123.554V122.055H98.1323V109.358Z" fill="#FFB601"/>
<path d="M43.4068 109.358H74.0049V122.055H43.4068V109.358Z" fill="#0081B3"/>
<path d="M74.0056 109.358H97.4234V122.055H74.0056V109.358Z" fill="#005376"/>
<path d="M100.717 122.057H131.315V134.754H100.717V122.057Z" fill="white"/>
<path d="M131.316 122.057H144.012V134.754H131.316V122.057Z" fill="#005376"/>
<path d="M72.2366 122.057H102.835V134.754H72.2366V122.057Z" fill="#0081B3"/>
<path d="M70.3974 134.753H106.035V147.45H70.3974V134.753Z" fill="#00B1FB"/>
<path d="M106.036 134.753H118.733V147.45H106.036V134.753Z" fill="#FFB601"/>
<path d="M119.762 134.753H132.459V147.45H119.762V134.753ZM133.49 134.753H146.186V147.45H133.49V134.753Z" fill="#00B1FB"/>
<path d="M147.216 134.753H159.913V147.45H147.216V134.753Z" fill="#FFB601"/>
<path d="M160.944 134.753H173.641V147.45H160.944V134.753Z" fill="#0081B3"/>
<path d="M174.672 134.753H187.369V147.45H174.672V134.753Z" fill="#025273"/>
<path d="M188.398 134.753H201.095V147.45H188.398V134.753Z" fill="#0081B3"/>
<path d="M202.126 134.753H214.823V147.45H202.126V134.753Z" fill="#005376"/>
<path d="M215.854 134.753H228.551V147.45H215.854V134.753Z" fill="#FFB601"/>
<path d="M106.036 148.551H118.733V161.248H106.036V148.551Z" fill="#0081B3"/>
<path d="M119.762 148.551H132.459V161.248H119.762V148.551Z" fill="white"/>
<path d="M133.49 148.551H146.187V161.248H133.49V148.551ZM147.218 148.551H159.914V161.248H147.218V148.551Z" fill="#005376"/>
<path d="M160.944 148.551H173.641V161.248H160.944V148.551Z" fill="white"/>
<path d="M174.672 148.551H187.369V161.248H174.672V148.551Z" fill="#00B1FB"/>
<path d="M188.398 148.551H201.095V161.248H188.398V148.551Z" fill="#FFB601"/>
<path d="M202.126 148.551H214.823V161.248H202.126V148.551Z" fill="white"/>
<path d="M215.855 148.551H228.552V161.248H215.855V148.551ZM106.036 162.35H118.733V175.046H106.036V162.35Z" fill="#005376"/>
<path d="M119.762 162.35H132.459V175.047H119.762V162.35Z" fill="#FFB601"/>
<path d="M133.49 162.35H146.187V175.047H133.49V162.35Z" fill="#0081B3"/>
<path d="M147.216 162.35H159.913V175.047H147.216V162.35Z" fill="white"/>
<path d="M160.944 162.35H173.641V175.047H160.944V162.35Z" fill="#FFB601"/>
<path d="M174.672 162.35H187.369V175.047H174.672V162.35Z" fill="#0081B3"/>
<path d="M188.398 162.35H201.095V175.047H188.398V162.35Z" fill="white"/>
<path d="M202.126 162.35H214.823V175.047H202.126V162.35Z" fill="#00B1FB"/>
<path d="M215.854 162.35H228.551V175.047H215.854V162.35Z" fill="#0081B3"/>
<path d="M274.516 171.855H-108.601V180.363C-107.731 194.28 -95.8381 203.507 -92.7655 204.769H-92.7418C-87.6839 210.541 -78.1117 212.852 -76.1972 212.852H218.699C217.39 211.824 216.278 210.566 215.418 209.141C214.615 207.805 214.098 206.316 213.901 204.769H217.21C226.286 204.769 237.753 201.866 248.38 196.322C256.633 192.015 264.376 186.083 270.124 178.666H270.157C271.795 176.519 273.252 174.241 274.516 171.855Z" fill="#005376"/>
<path d="M-109.499 222.652H92.7707V223.839H-109.499V222.652ZM-6.46869 229.814H160.873V231H-6.46869V229.814ZM124.593 222.652H247.25V223.839H124.593V222.652ZM-121 216.814H281.961V218.001H-121V216.814Z" fill="#005278"/>
</g>
</svg>
