<svg width="65" height="45" viewBox="0 0 65 45" fill="none" xmlns="http://www.w3.org/2000/svg">
<path d="M0.532959 23.1544V44.3964H64.533V0H0.532959V23.1544ZM61.3113 5.45826V41.1676H3.75698V3.21922H61.3113V5.45585V5.45826Z" fill="#0B78D0"/>
<path d="M53.5804 34.7315V15.0847L56.8044 17.0066V34.7315H53.5804ZM21.2393 16.9874H28.5858L29.739 15.3754L28.5858 13.7634H21.2393V16.9874ZM47.4663 34.7315V24.3484L50.6903 26.2703V34.7315H47.4663ZM41.3498 34.7315V18.5586L44.5738 20.4805V34.7315H41.3498ZM35.2357 34.7315V27.3081L38.4597 29.23V34.7315H35.2357Z" fill="#0B78D0"/>
<path d="M32.5833 34.2943H56.8043V37.5183H32.5833V34.2943ZM11.2332 16.9849C11.2332 16.7928 11.2332 16.6006 11.2476 16.4228C11.2956 15.2336 11.6512 14.078 12.2806 13.0666C12.5065 12.7159 12.7707 12.3892 13.0686 12.0961C13.626 11.5507 14.277 11.1111 14.9905 10.7964C15.5887 10.5345 16.2134 10.3351 16.8548 10.2006C17.5107 10.0612 18.1737 9.96753 18.8416 9.91948C19.3725 9.87624 19.9515 9.85462 20.6146 9.84501H21.9839C22.6518 9.85702 23.2356 9.88345 23.7737 9.9315C24.4584 9.98675 25.1359 10.0925 25.8062 10.2462C26.3827 10.3759 26.9473 10.5609 27.4878 10.7988C28.2013 11.1111 28.8524 11.5531 29.4098 12.0985C29.7077 12.3916 29.9695 12.7183 30.1977 13.069C30.8272 14.078 31.1827 15.2336 31.2308 16.4204C31.2428 16.6126 31.2476 16.7928 31.2476 16.9825H34.647C34.647 16.7663 34.647 16.5453 34.6302 16.3075C34.5703 14.8387 34.2046 13.3986 33.5563 12.0792C33.3329 11.6324 33.0734 11.2048 32.7779 10.8012C31.7724 9.44119 30.4246 8.37189 28.8716 7.70207C26.4092 6.60177 23.7521 6.45282 21.2464 6.45282C18.7407 6.45282 16.0788 6.60177 13.6188 7.70207C12.0655 8.37141 10.7175 9.44081 9.71246 10.8012C9.42151 11.2053 9.16438 11.6328 8.94369 12.0792C8.29506 13.3983 7.93006 14.8387 7.87222 16.3075C7.85781 16.5453 7.853 16.7663 7.853 16.9825H11.238L11.2332 16.9849ZM7.83618 29.1195H28.0428V32.3435H7.83618V29.1195ZM7.83618 23.9159H16.7515V27.1399H7.83618V23.9159ZM7.83618 34.3183H24.5521V37.5423H7.83618V34.3183Z" fill="#0B78D0"/>
</svg>
