<?xml version="1.0" encoding="UTF-8" standalone="no"?>
<svg
   xmlns:dc="http://purl.org/dc/elements/1.1/"
   xmlns:cc="http://creativecommons.org/ns#"
   xmlns:rdf="http://www.w3.org/1999/02/22-rdf-syntax-ns#"
   xmlns:svg="http://www.w3.org/2000/svg"
   xmlns="http://www.w3.org/2000/svg"
   xml:space="preserve"
   style="enable-background:new 0 0 24 24;"
   viewBox="0 0 24 24"
   y="0px"
   x="0px"
   id="icons"
   version="1.1"><metadata
     id="metadata15"><rdf:RDF><cc:Work
         rdf:about=""><dc:format>image/svg+xml</dc:format><dc:type
           rdf:resource="http://purl.org/dc/dcmitype/StillImage" /><dc:title>Icons</dc:title></cc:Work></rdf:RDF></metadata><defs
     id="defs13" /><title
     id="title3">Icons</title><g
     id="g5"><path
       id="path7"
       d="M22.8,19.5c-0.2-0.4-0.7-0.5-1-0.3l-0.7,0.4l-3.6-6.1l0,0v0h-6.9V9.6h4.9V8.4h-4.9V5c1.1-0.3,1.8-1.2,1.8-2.4   c0-1.4-1.1-2.5-2.5-2.5c-1.4,0-2.5,1.1-2.5,2.5c0,1.2,0.8,2.1,1.9,2.4v9.8h1.2v0h6.2l3.6,6.1l0,0l0.4,0.7l1.7-1   C22.8,20.3,23,19.9,22.8,19.5z" /><path
       id="path9"
       d="M9.1,22.5c-3.8,0-7-3.1-7-7c0-3.1,2-5.7,4.8-6.6L6.3,7.9C3.2,9,0.9,12,0.9,15.6c0,4.5,3.7,8.2,8.2,8.2c3.4,0,6.3-2.1,7.6-5   l-1.1-0.7C14.6,20.7,12.1,22.5,9.1,22.5z" /></g></svg>