<?xml version="1.0" encoding="UTF-8" standalone="no"?>
<svg
   xmlns:dc="http://purl.org/dc/elements/1.1/"
   xmlns:cc="http://creativecommons.org/ns#"
   xmlns:rdf="http://www.w3.org/1999/02/22-rdf-syntax-ns#"
   xmlns:svg="http://www.w3.org/2000/svg"
   xmlns="http://www.w3.org/2000/svg"
   xmlns:xlink="http://www.w3.org/1999/xlink"
   height="1000"
   width="1000"
   xml:space="preserve"
   viewBox="0 0 1000 1000"
   y="0px"
   x="0px"
   id="icons"
   version="1.1"><metadata
     id="metadata21"><rdf:RDF><cc:Work
         rdf:about=""><dc:format>image/svg+xml</dc:format><dc:type
           rdf:resource="http://purl.org/dc/dcmitype/StillImage" /><dc:title>Icons</dc:title></cc:Work></rdf:RDF></metadata><defs
     id="defs19" /><style
     id="style3"
     type="text/css">
	.st0{clip-path:url(#SVGID_2_);}
</style><title
     id="title5">Icons</title><g
     transform="matrix(41.753653,0,0,41.753653,5.325e-6,-16.701454)"
     id="g7"><defs
       id="defs9"><rect
         x="0"
         height="12.6"
         width="24"
         y="6.0999999"
         id="SVGID_1_" /></defs><clipPath
       id="SVGID_2_"><use
         height="100%"
         width="100%"
         y="0"
         x="0"
         id="use13"
         style="overflow:visible"
         xlink:href="#SVGID_1_" /></clipPath><path
       clip-path="url(#SVGID_2_)"
       id="path15"
       d="M 23.8,7.2 12.5,18.5 c -0.3,0.2 -0.7,0.2 -0.9,0 L 0.2,7.2 C -0.1,7 -0.1,6.6 0.2,6.3 0.5,6 0.8,6 1,6.3 c 0,0 0,0 0,0 L 12,17.2 22.9,6.3 c 0.3,-0.2 0.7,-0.2 0.9,0 0.2,0.3 0.2,0.7 0,0.9"
       class="st0" /></g></svg>