<?xml version="1.0" encoding="utf-8"?>
<!-- Generator: Adobe Illustrator 21.1.0, SVG Export Plug-In . SVG Version: 6.00 Build 0)  -->
<svg version="1.1"
	 id="svg2" xmlns:cc="http://creativecommons.org/ns#" xmlns:dc="http://purl.org/dc/elements/1.1/" xmlns:rdf="http://www.w3.org/1999/02/22-rdf-syntax-ns#" xmlns:svg="http://www.w3.org/2000/svg"
	 xmlns="http://www.w3.org/2000/svg" xmlns:xlink="http://www.w3.org/1999/xlink" x="0px" y="0px" viewBox="0 0 1016.4 1016.4"
	 style="enable-background:new 0 0 1016.4 1016.4;" xml:space="preserve">
<g>
	<polygon points="317.4,280.9 166.2,130.1 131.5,164.4 282.9,316.8 	"/>
	<rect x="483.6" y="0" width="50.4" height="217.1"/>
	<polygon points="886.3,164.2 850,130.2 700.3,280.9 734.7,316.8 	"/>
	<rect x="0" y="483.2" width="216.9" height="50.1"/>
	<polygon points="700.3,733.1 850.2,884 886.2,848.4 734.7,697.2 	"/>
	<rect x="800.7" y="483.2" width="215.7" height="50.1"/>
	<path d="M690.8,325.7c-50-50.3-111.2-75.7-182-75.7c-70.8,0-132.2,25.5-182.6,75.7c-50.4,50.2-75.9,111.6-75.9,182.5
		c0,70.8,25.3,132.2,75.3,182.5c50,50.3,111.4,75.7,182.6,75.7c71.2,0,132.6-25.5,182.6-75.7c49.9-50.2,75.7-111.6,76.5-182.5
		C767.3,437.3,741.6,375.9,690.8,325.7z M508.2,716.3c-32.5,0-62.5-6.6-89.6-19.6v-377c27-13,57.2-19.6,89.6-19.6
		c57,0,106.6,20.4,147.3,60.7c40.7,40.3,61.4,89.9,61.4,147.4S696.5,615.1,656.1,655C615,695.7,565.2,716.3,508.2,716.3z
		 M369.4,353.2v309.9c-2.7-2.4-5.3-4.9-7.9-7.5c-40.3-40.3-60.8-89.9-60.8-147.4s20.4-107.2,60.8-147.4
		C364.1,358.2,366.7,355.7,369.4,353.2z"/>
	<rect x="483.6" y="800.5" width="50.4" height="215.9"/>
	<polygon points="131.6,848.2 166,884.1 317.4,733.1 282.9,697.2 	"/>
</g>
</svg>
