<?xml version="1.0" encoding="UTF-8" standalone="no"?>
<svg
   xmlns:dc="http://purl.org/dc/elements/1.1/"
   xmlns:cc="http://creativecommons.org/ns#"
   xmlns:rdf="http://www.w3.org/1999/02/22-rdf-syntax-ns#"
   xmlns:svg="http://www.w3.org/2000/svg"
   xmlns="http://www.w3.org/2000/svg"
   id="svg2"
   viewBox="0 -143 1000 1000"
   version="1.1">
  <metadata
     id="metadata12">
    <rdf:RDF>
      <cc:Work
         rdf:about="">
        <dc:format>image/svg+xml</dc:format>
        <dc:type
           rdf:resource="http://purl.org/dc/dcmitype/StillImage" />
        <dc:title></dc:title>
      </cc:Work>
    </rdf:RDF>
  </metadata>
  <defs
     id="defs10" />
  <g
     id="g4"
     transform="matrix(1.1367532,0,0,-1.1367532,-79.176437,917.41865)">
    <path
       style="fill:currentColor"
       id="path6"
       d="m 937.475,232.7 -65.5498,133.95 -144.399,-57.9502 12.3496,-30.4004 95.9502,39.9004 Q 802.576,219.4 719.451,155.2748 636.326,91.1496 529.926,87.349 l 0,586.15 q 48.4502,5.7002 81.2256,42.2754 32.7744,36.5742 32.7744,85.9746 0,54.1504 -38.9502,93.0996 -38,38 -91.6748,38 -53.6748,0 -92.625,-38 -38,-38 -38,-93.0996 0,-49.4004 33.25,-85.9746 33.25,-36.5752 81.7002,-42.2754 l 0,-586.15 q -104.5,4.75 -189.05,67.4502 -82.6504,62.7002 -116.851,159.601 l 87.4004,-36.1006 12.3496,30.4004 -143.449,57.9502 -66.5,-133.95 29.4492,-14.25 46.5508,94.0498 q 37.0498,-114 134.899,-186.675 97.8506,-72.6748 221.351,-72.6748 120.649,0 217.55,70.2998 96.8994,70.2998 134.899,180.5 l 42.75,-85.5 z m -521.55,569.525 q 0,40.375 28.5,69.3506 28.5,28.9746 68.875,28.9746 40.375,0 69.3506,-28.9746 28.9746,-28.9756 28.0244,-69.8252 0,-39.9004 -28.5,-68.4004 -28.5,-28.5 -68.3994,-28.5 -39.9004,0 -69.3506,28.5 -28.5,28.5 -28.5,68.875 z" />
  </g>
</svg>
