<?xml version="1.0" encoding="UTF-8" standalone="no"?>
<svg
   xmlns:dc="http://purl.org/dc/elements/1.1/"
   xmlns:cc="http://creativecommons.org/ns#"
   xmlns:rdf="http://www.w3.org/1999/02/22-rdf-syntax-ns#"
   xmlns:svg="http://www.w3.org/2000/svg"
   xmlns="http://www.w3.org/2000/svg"
   id="svg2"
   viewBox="0 -143 1000 1000"
   version="1.1">
  <metadata
     id="metadata12">
    <rdf:RDF>
      <cc:Work
         rdf:about="">
        <dc:format>image/svg+xml</dc:format>
        <dc:type
           rdf:resource="http://purl.org/dc/dcmitype/StillImage" />
        <dc:title></dc:title>
      </cc:Work>
    </rdf:RDF>
  </metadata>
  <defs
     id="defs10" />
  <g
     id="g4"
     transform="matrix(1.2150668,0,0,-1.2150668,-115.43133,967.57107)">
    <path
       style="fill:currentColor"
       id="path6"
       d="m 918,888 -823,0 0,-222 35,0 0,-549 754,0 0,549 34,0 0,222 0,0 z m -68,-737 -686,0 0,515 686,0 0,-515 z m 34,549 -754,0 0,154 754,0 0,-154 z m -501,-258 248,0 q 26,0 46,19 19,18 19,44 l 0,12 q 0,26 -19,44 -19,18 -46,19 l -248,0 q -26,0 -46,-19 -19,-18 -18,-44 l 0,-12 q 0,-46 45,-60 10,-2 19,-3 l 0,0 z m -30,75 q 0,12 9,20.5 9,8.5 21,8.5 l 248,0 q 12,0 22,-9 9,-8 9,-20 l 0,-12 q 0,-12 -9,-20 -9,-8 -22,-8 l -248,0 q -12,0 -21,8 -9,8 -9,20 l 0,12 z" />
  </g>
</svg>
