<?xml version="1.0" encoding="UTF-8" standalone="no"?>
<svg
   xmlns:dc="http://purl.org/dc/elements/1.1/"
   xmlns:cc="http://creativecommons.org/ns#"
   xmlns:rdf="http://www.w3.org/1999/02/22-rdf-syntax-ns#"
   xmlns:svg="http://www.w3.org/2000/svg"
   xmlns="http://www.w3.org/2000/svg"
   id="svg2"
   viewBox="0 -143 1000 1000"
   version="1.1">
  <metadata
     id="metadata12">
    <rdf:RDF>
      <cc:Work
         rdf:about="">
        <dc:format>image/svg+xml</dc:format>
        <dc:type
           rdf:resource="http://purl.org/dc/dcmitype/StillImage" />
        <dc:title></dc:title>
      </cc:Work>
    </rdf:RDF>
  </metadata>
  <defs
     id="defs10" />
  <g
     id="g4"
     transform="matrix(1.1709602,0,0,-1.1709602,-84.89462,920.23186)">
    <path
       style="fill:currentColor"
       id="path6"
       d="m 414,403 0,-20 0,-28 -139,0 224,-254 226,254 -141,0 0,27 q 0,9 -1,18 0,361 -1,477 l -169,-1 q 0,-274 1,-473 l 0,0 0,0 z m 204,-4 0,-16 173,0 0,0 0,0 -292,-329 -291,329 172,0 q 0,11 -1,21 l 0,504 18,0 194,0 26,0 q 0,-312 1,-509 l 0,0 0,0 z M 413,876 Z m 178,32 z m -212,0 z" />
  </g>
</svg>
