<?xml version="1.0" encoding="UTF-8" standalone="no"?>
<svg
   xmlns:dc="http://purl.org/dc/elements/1.1/"
   xmlns:cc="http://creativecommons.org/ns#"
   xmlns:rdf="http://www.w3.org/1999/02/22-rdf-syntax-ns#"
   xmlns:svg="http://www.w3.org/2000/svg"
   xmlns="http://www.w3.org/2000/svg"
   xml:space="preserve"
   style="enable-background:new 0 0 791.9 791.9;"
   viewBox="0 0 791.9 791.9"
   y="0px"
   x="0px"
   id="icons"
   version="1.1"><metadata
     id="metadata9"><rdf:RDF><cc:Work
         rdf:about=""><dc:format>image/svg+xml</dc:format><dc:type
           rdf:resource="http://purl.org/dc/dcmitype/StillImage" /><dc:title>Icons</dc:title></cc:Work></rdf:RDF></metadata><defs
     id="defs7" /><title
     id="title3">Icons</title><path
     d="M199.7,496.3c13.6,10.2,23.9,20.4,37.5,30.7c3.4-3.4,10.2-10.2,13.6-13.6c68.2-78.4,136.3-160.2,204.5-238.5  c20.4-20.4,40.9-30.7,68.2-23.9c44.3,13.6,61.3,64.7,30.7,102.2c-23.9,30.7-51.1,61.3-78.4,88.6c-71.6,85.2-146.5,170.4-218.1,255.6  c-30.7,37.5-71.6,47.7-119.3,37.5c-44.3-10.2-75-40.9-85.2-85.2c-10.2-34.1-3.4-64.7,17-95.4c3.4-6.8,10.2-13.6,13.6-17  c115.9-136.3,235.1-272.6,351-408.9c47.7-57.9,109-81.8,184-64.7C731.3,90.8,775.6,227.1,704,325.9c-6.8,10.2-13.6,17-20.4,27.3  C584.7,469,482.5,584.9,383.7,700.7c-3.4,6.8-10.2,10.2-17,13.6c17,13.6,27.3,23.9,40.9,34.1c0,0,3.4-3.4,6.8-6.8  c105.6-122.7,211.3-245.4,316.9-368c64.7-75,78.4-170.4,37.5-252.2C707.4-1.3,547.2-31.9,438.2,60.1c-10.2,6.8-20.4,17-27.3,27.3  c-126.1,136.3-248.8,279.4-371.4,426c-57.9,68.2-51.1,163.6,13.6,224.9c68.2,68.2,180.6,61.3,245.4-13.6  c61.3-71.6,122.7-143.1,184-214.7c37.5-44.3,75-85.2,112.5-132.9c51.1-64.7,17-160.2-64.7-177.2c-37.5-6.8-71.6,0-98.8,30.7  c-27.3,27.3-51.1,57.9-78.4,88.6C301.9,377,250.8,438.3,199.7,496.3z"
     id="path5" /></svg>