<?xml version="1.0" encoding="UTF-8" standalone="no"?>
<svg
   xmlns:dc="http://purl.org/dc/elements/1.1/"
   xmlns:cc="http://creativecommons.org/ns#"
   xmlns:rdf="http://www.w3.org/1999/02/22-rdf-syntax-ns#"
   xmlns:svg="http://www.w3.org/2000/svg"
   xmlns="http://www.w3.org/2000/svg"
   xml:space="preserve"
   style="enable-background:new 0 0 101.6 101.6;"
   viewBox="0 0 101.6 101.6"
   y="0px"
   x="0px"
   id="svg2"
   version="1.1"><metadata
     id="metadata10"><rdf:RDF><cc:Work
         rdf:about=""><dc:format>image/svg+xml</dc:format><dc:type
           rdf:resource="http://purl.org/dc/dcmitype/StillImage" /><dc:title></dc:title></cc:Work></rdf:RDF></metadata><defs
     id="defs8" /><g
     id="g3"><path
       d="M14.9,15C5,24.8,0,36.7,0,50.2c0,1.5,0.1,3.1,0.2,4.7c1.1,12.4,6,23,14.7,31.8c9.8,9.9,21.9,14.9,35.9,14.9   s26.1-5,36-14.9c9.8-9.8,14.8-21.9,14.8-35.8s-5-26-14.8-35.9C77,5.2,64.9,0.1,50.9,0.1C36.9,0,24.8,5,14.9,15z M50.8,5   c12.6,0,23.5,4.5,32.4,13.4s13.4,19.8,13.4,32.4V51c0,12.6-4.5,23.4-13.4,32.3c-8.9,8.8-19.8,13.3-32.4,13.3s-23.5-4.5-32.4-13.4   C9.5,74.4,5,63.5,5,50.9c0-12.7,4.5-23.6,13.4-32.5C27.2,9.5,38.1,5,50.8,5z"
       id="path5" /><polygon
       points="44,71.5 47.5,68.1 32.4,52.9 73.4,52.9 73.4,48 32.4,48 47.5,32.8 44,29.3 22.9,50.4  "
       id="polygon7" /></g></svg>