<?xml version="1.0" encoding="UTF-8" standalone="no"?>
<svg
   xmlns:dc="http://purl.org/dc/elements/1.1/"
   xmlns:cc="http://creativecommons.org/ns#"
   xmlns:rdf="http://www.w3.org/1999/02/22-rdf-syntax-ns#"
   xmlns:svg="http://www.w3.org/2000/svg"
   xmlns="http://www.w3.org/2000/svg"
   xml:space="preserve"
   style="enable-background:new 0 0 101.6 101.6;"
   viewBox="0 0 101.6 101.6"
   y="0px"
   x="0px"
   id="svg2"
   version="1.1"><metadata
     id="metadata9"><rdf:RDF><cc:Work
         rdf:about=""><dc:format>image/svg+xml</dc:format><dc:type
           rdf:resource="http://purl.org/dc/dcmitype/StillImage" /><dc:title></dc:title></cc:Work></rdf:RDF></metadata><defs
     id="defs7" /><path
     id="path3"
     d="M50.8,0.1C36.8,0,24.9,4.9,15.3,14.4c-1.1,1.1-2.1,2.3-3.2,3.5c-8,9.5-12,20.5-12.1,32.9C0,64.7,5,76.8,14.9,86.7  s22,14.9,36,14.9c13.9,0,26-5,35.8-14.8c9.8-9.8,14.8-21.9,14.9-35.9c0-13.9-4.9-26-14.8-35.9C76.9,5,64.8,0,50.8,0.1z M5,50.8  C4.9,38.2,9.5,27.4,18.4,18.5c9-9,19.9-13.5,32.5-13.5c11.7-0.1,21.9,3.9,30.6,11.7L16.7,81.3C9,72.8,5,62.5,5,50.8z M96.7,50.8  c0,12.6-4.5,23.5-13.4,32.4l-0.1,0.1c-8.9,8.9-19.7,13.4-32.3,13.4c-11.7-0.1-21.9-4-30.5-11.8L85,20.2C92.7,28.8,96.7,39,96.7,50.8  z" /></svg>