<?xml version="1.0" encoding="UTF-8" standalone="no"?>
<svg
   xmlns:dc="http://purl.org/dc/elements/1.1/"
   xmlns:cc="http://creativecommons.org/ns#"
   xmlns:rdf="http://www.w3.org/1999/02/22-rdf-syntax-ns#"
   xmlns:svg="http://www.w3.org/2000/svg"
   xmlns="http://www.w3.org/2000/svg"
   id="svg2"
   viewBox="0 -143 1000 1000"
   version="1.1">
  <metadata
     id="metadata12">
    <rdf:RDF>
      <cc:Work
         rdf:about="">
        <dc:format>image/svg+xml</dc:format>
        <dc:type
           rdf:resource="http://purl.org/dc/dcmitype/StillImage" />
        <dc:title></dc:title>
      </cc:Work>
    </rdf:RDF>
  </metadata>
  <defs
     id="defs10" />
  <g
     id="g4"
     transform="matrix(1.1111111,0,0,-1.1111111,-55.55555,904.77777)">
    <path
       style="fill:currentColor"
       id="path6"
       d="m 81.5,139.3 -31.5,0 0,707.4 31.5,0 0,-707.4 z m 31.5,0 -16.2002,0 0,707.4 16.2002,0 0,-707.4 z m 47.7,0 -16.2002,0 0,707.4 16.2002,0 0,-707.4 z m 78.3,0 -15.2998,0 0,707.4 15.2998,0 0,-707.4 z m 79.2,0 -31.5,0 0,707.4 31.5,0 0,-707.4 z m 63,0 -15.2998,0 0,707.4 15.2998,0 0,-707.4 z m 31.5,0 -15.2998,0 0,707.4 15.2998,0 0,-707.4 z m 31.5,0 -15.2998,0 0,707.4 15.2998,0 0,-707.4 z m 79.2,0 -31.5,0 0,707.4 31.5,0 0,-707.4 z m 79.2,0 -31.5,0 0,707.4 31.5,0 0,-707.4 z m 63,0 -31.5,0 0,707.4 31.5,0 0,-707.4 z m 63,0 -31.5,0 0,707.4 31.5,0 0,-707.4 z m 47.7,0 -31.5,0 0,707.4 31.5,0 0,-707.4 z m 95.4,0 -47.7002,0 0,707.4 47.7002,0 0,-707.4 z m 31.5,0 -16.2002,0 0,707.4 16.2002,0 0,-707.4 z m 46.8,0 -31.5,0 0,707.4 31.5,0 0,-707.4 z" />
  </g>
</svg>
