<?xml version="1.0" encoding="utf-8"?>
<!-- Generator: Adobe Illustrator 21.1.0, SVG Export Plug-In . SVG Version: 6.00 Build 0)  -->
<svg version="1.1"
	 id="svg2" xmlns:cc="http://creativecommons.org/ns#" xmlns:dc="http://purl.org/dc/elements/1.1/" xmlns:rdf="http://www.w3.org/1999/02/22-rdf-syntax-ns#" xmlns:svg="http://www.w3.org/2000/svg"
	 xmlns="http://www.w3.org/2000/svg" xmlns:xlink="http://www.w3.org/1999/xlink" x="0px" y="0px" viewBox="0 0 1003.9 1003.9"
	 style="enable-background:new 0 0 1003.9 1003.9;" xml:space="preserve">
<path d="M980.5,859.8L635.8,345.2V50.6h88.4V0H266.8v2h0c0,0,0,0,0,0v2c-0.9,0-1.6-0.7-1.7-1.1c0.4,1.1,0.9,8.5,0.9,44.6v0.5
	l1.4,2.7h100.5v294.6L24.5,859.8C-2.1,898.4-7,932.4,9.6,961c15.9,28.5,48.7,43,97.5,43h789.4c48.8,0,81.7-14.5,97.5-42.9
	C1010.8,932.4,1006.2,898.4,980.5,859.8z M51.6,925l10.6-23.5l122.1-188.9l627.7,2.3l129.4,180.8l12.9,29.1l-16.1,21.8l-29.8,7.9
	H88.9l-27-5.6L51.6,925z M416.1,345.8l6.1-295.2h163v319.1l13.9,21.5l188.2,275.4H211.6L401,391.2l15.1-21.5L416.1,345.8z"/>
</svg>
