<?xml version="1.0" encoding="utf-8"?>
<!-- Generator: Adobe Illustrator 21.1.0, SVG Export Plug-In . SVG Version: 6.00 Build 0)  -->
<svg version="1.1"
	 id="svg2" xmlns:cc="http://creativecommons.org/ns#" xmlns:dc="http://purl.org/dc/elements/1.1/" xmlns:rdf="http://www.w3.org/1999/02/22-rdf-syntax-ns#" xmlns:svg="http://www.w3.org/2000/svg"
	 xmlns="http://www.w3.org/2000/svg" xmlns:xlink="http://www.w3.org/1999/xlink" x="0px" y="0px" viewBox="0 0 1011 1011"
	 style="enable-background:new 0 0 1011 1011;" xml:space="preserve">
<g>
	<path d="M837.6,696.5V389.3c0-81-26.1-153-77.6-214C709.5,115.6,645,78,568.2,63.8V43.7c0-11.9-4.3-22.3-12.8-30.8
		C546.9,4.3,536.5,0,524.6,0h-38.2c-11.8,0-22.5,4.3-31.8,12.7l-0.2,0.2c-8.6,8.6-12.5,19-11.7,31v20c-76,15-140.3,52.9-191.2,112.7
		c-51.9,61-78.2,132.6-78.2,212.9v307.1L38.7,805.3v71h933.6v-71L837.6,696.5z M920,826H91l131.6-106.4V389.3
		c0-77.4,28.1-144.4,83.7-199.3c54.8-54.8,122-82.8,199.8-83.1l1.5,0c77.1,0,143.8,27.8,198.2,82.6c54.8,55.2,82.6,122.4,82.6,199.8
		v330.3L920,826z"/>
	<path d="M403.5,909c0,28.3,10,52.5,29.7,71.8c19.6,19.2,43.9,29.4,72.2,30.2l0.2,0c28.4,0,52.4-10.4,71.3-30.9
		c19.6-19.6,29.9-43.5,30.7-71l0.2-5.7H403.5V909z"/>
</g>
</svg>
