<?xml version="1.0" encoding="UTF-8" standalone="no"?>
<svg
   xmlns:dc="http://purl.org/dc/elements/1.1/"
   xmlns:cc="http://creativecommons.org/ns#"
   xmlns:rdf="http://www.w3.org/1999/02/22-rdf-syntax-ns#"
   xmlns:svg="http://www.w3.org/2000/svg"
   xmlns="http://www.w3.org/2000/svg"
   id="svg2"
   viewBox="0 -143 1000 1000"
   version="1.1">
  <metadata
     id="metadata12">
    <rdf:RDF>
      <cc:Work
         rdf:about="">
        <dc:format>image/svg+xml</dc:format>
        <dc:type
           rdf:resource="http://purl.org/dc/dcmitype/StillImage" />
        <dc:title></dc:title>
      </cc:Work>
    </rdf:RDF>
  </metadata>
  <defs
     id="defs10" />
  <path
     id="path3340"
     d="m 143.3687,-143 125.02717,261.4915 143.98991,0 12.33715,0 306.10644,0 L 856.6313,-143 l -431.90837,0 -12.33715,0 z m 67.22238,42.44655 201.7947,0 7.22324,0 5.11391,0 364.2679,0 -82.79558,176.596041 -281.47232,0 -5.11391,0 -7.22324,0 -119.50697,0 z M 497.59541,164.54022 C 306.37777,164.54052 151.36569,319.55365 151.36669,510.77128 151.367,701.988 306.3787,856.9997 497.59541,857 688.81211,856.9997 843.8238,701.988 843.8241,510.77128 843.82511,319.55366 688.81304,164.54052 497.59541,164.54022 Z m 0,50.52957 c 163.31026,9.6e-4 295.69842,132.39123 295.69676,295.70149 C 793.29121,674.0797 660.90382,806.4671 497.59541,806.46804 334.28606,806.46839 201.89723,674.08063 201.89627,510.77128 201.8951,347.4601 334.28423,215.06944 497.59541,215.06979 Z m -31.2574,162.30785 0,266.78494 62.51477,0 0,-266.78494 z"
     style="fill:#000000;fill-rule:evenodd;stroke:none;stroke-width:1px;stroke-linecap:butt;stroke-linejoin:miter;stroke-opacity:1" />
</svg>
