<?xml version="1.0" encoding="utf-8"?>
<!-- Generator: Adobe Illustrator 21.1.0, SVG Export Plug-In . SVG Version: 6.00 Build 0)  -->
<svg version="1.1"
	 id="svg2" xmlns:cc="http://creativecommons.org/ns#" xmlns:dc="http://purl.org/dc/elements/1.1/" xmlns:rdf="http://www.w3.org/1999/02/22-rdf-syntax-ns#" xmlns:svg="http://www.w3.org/2000/svg"
	 xmlns="http://www.w3.org/2000/svg" xmlns:xlink="http://www.w3.org/1999/xlink" x="0px" y="0px" viewBox="0 0 1011.3 1011.3"
	 style="enable-background:new 0 0 1011.3 1011.3;" xml:space="preserve">
<path d="M907.3,539.4c-36.6-43.2-92.8-74.6-167.3-93.3c33-12.9,63.2-26.5,89.8-40.5c21.4-10.7,42.3-34.7,64.1-73.4
	c14.4-26.3,21.7-55.5,21.7-86.5c0-28.5-4.8-55.8-14.3-81.2c-9.5-25.4-24-48.8-43.1-69.4l-0.1-0.1c-19.8-20.5-42.6-37.4-67.9-50
	C765.1,31.7,744,23,727.3,19C683.5,7.3,641.1,1.3,601.2,1.3h-74.4L512,0.1l-1.1,0.4c-1.2,0.4-3.5,0.9-7.6,0.9h-9.4l-29.2,1.2
	l-248.2,8.2l-173,3.6l-1.4,36.6l0,0.1v0.2l5.7,0.1l5.3,0.3c-0.2,2.9-2.5,4.6-4.1,4.9c2-0.3,14.9-0.9,79-0.9
	c14.4,0,29.4,0.4,44.6,1.1c1.6,0.6,2.2,4.2,2.4,5.7l0,0.3l0.1,0.3c4.6,19.7,7.3,56.2,8,108.4c2.3,141.4,3.9,229.6,4.7,262.2v322.7
	c-0.9,131-2.2,161.8-3,167.6c-4,5.4-4.5,15.6-1.5,32.8c-29.8,3.6-60.2,6.9-90.5,9.7c-1.2,0-6.6,0.1-44.2,1.2l-5.2,0.1l-1.6,43.8
	l6-0.3c68.1-3.1,127-6.2,174.9-9.3c83.1-5.5,144.4-8.3,182.2-8.3c4.7,0,9.1,0,13.1,0.1l128.2,2.3c12.4,0.3,24.2,0.5,35.1,0.5
	c43.9,0,76.1-2.6,95.7-7.6c79.5-20.5,122.8-32.4,132.4-36.4l0.2-0.1l0.1-0.1c32.3-15.8,63.5-39.7,92.5-71.1
	c22.2-23.8,38.3-49.9,47.8-77.8c12.6-37.7,18.9-73.6,18.9-106.7C968.4,639,947.6,586,907.3,539.4z M692.8,418.8
	c-48.2,15.3-122.9,23.1-222.1,23.1c-2.3,0-80.9,0.8-233.5,2.3l-1.1-66.7l0-64.2c-1.5-106.7-2.7-176.6-3.5-207.6
	c-0.7-18.5-1.1-35.4-1.1-50.3c114.8-0.8,198.1-2.3,247.7-4.6c25.9-1.3,50.6-1.9,73.4-1.9c115.5,0,192.2,16.2,228,48.3
	c54.5,48.4,82.1,96.4,82.1,142.7C862.6,323.9,805.5,384,692.8,418.8z M237.3,708.5l1.2-113.1V497l345.5-10.3
	c14-0.4,27.4-0.6,39.8-0.6c61.7,0,104.4,4.8,126.9,14.1c62.4,25.9,101.7,48.8,116.6,68.1c33.3,46.2,50.2,95.3,50.2,145.9l0,0.1
	c0.7,34.4-8.7,70-28.1,106.1l-76.9,73.5c-61.7,32.6-130.4,49.1-204.2,49.1c-12.2-0.1-25-0.1-37.9-0.1c-89.7,0-198.8,2.4-324.5,7
	c-5.1-12.3-6.2-18.9-6.2-22.4L237.3,708.5z"/>
</svg>
