<?xml version="1.0" encoding="utf-8"?>
<!-- Generator: Adobe Illustrator 21.1.0, SVG Export Plug-In . SVG Version: 6.00 Build 0)  -->
<svg version="1.1"
	 id="svg2" xmlns:cc="http://creativecommons.org/ns#" xmlns:dc="http://purl.org/dc/elements/1.1/" xmlns:rdf="http://www.w3.org/1999/02/22-rdf-syntax-ns#" xmlns:svg="http://www.w3.org/2000/svg"
	 xmlns="http://www.w3.org/2000/svg" xmlns:xlink="http://www.w3.org/1999/xlink" x="0px" y="0px" viewBox="0 0 1093.7 1093.7"
	 style="enable-background:new 0 0 1093.7 1093.7;" xml:space="preserve">
<path d="M1067.2,69.6c-17.6-17.6-38.9-26.5-63.5-26.5H611.6c-25.8,0-47.6,9.6-64.8,28.6c-17.9-19-40.1-28.6-65.9-28.6H90
	c-24.6,0-46,8.9-63.5,26.5C8.9,87.2,0,109,0,134.4V873c0,24.6,8.9,46.3,26.5,64.8C44,955.3,65.4,964.3,90,964.3h392.1
	c10.9,0,20,3.8,27.8,11.6c7.8,7.8,11.6,16.5,11.6,26.6v48.1h50.5v-46.8c0-10.9,3.8-20,11.6-27.8c7.8-7.8,16.9-11.6,27.8-11.6h392.1
	c24.6,0,46-8.9,63.5-26.5c17.6-17.6,26.5-39.4,26.5-64.8V134.4C1093.7,109.9,1084.8,88.1,1067.2,69.6z M572.1,134.4
	c0-11,3.8-20.5,11.7-29.2c7.8-7.8,16.9-11.5,27.8-11.5h392.1c10.9,0,20,3.8,27.8,11.6c7.8,7.8,11.6,17.3,11.6,29.1V873
	c0,11-3.8,20.3-11.7,28.5c-7.8,8.2-16.9,12.2-27.8,12.2H611.6c-10.9,0-20-4-27.8-12.2c-7.9-8.2-11.7-17.6-11.7-28.5V134.4z
	 M50.5,134.4c0-11,3.8-20.3,11.7-28.5C70,97.7,79.1,93.7,90,93.7h390.9c11,0,20.3,3.8,28.5,11.7c8.2,7.8,12.2,17.3,12.2,29V873
	c0,11-3.8,20.5-11.7,29.2c-7.8,7.8-17.3,11.5-29,11.5H90.4c-22.8-4.8-35.8-18.3-39.8-41V134.4z"/>
</svg>
