<?xml version="1.0" encoding="UTF-8" standalone="no"?>
<svg
   xmlns:dc="http://purl.org/dc/elements/1.1/"
   xmlns:cc="http://creativecommons.org/ns#"
   xmlns:rdf="http://www.w3.org/1999/02/22-rdf-syntax-ns#"
   xmlns:svg="http://www.w3.org/2000/svg"
   xmlns="http://www.w3.org/2000/svg"
   version="1.1"
   id="svg3335"
   x="0px"
   y="0px"
   viewBox="0 0 100 100"
   style="enable-background:new 0 0 100 100;"
   xml:space="preserve"><metadata
     id="metadata10"><rdf:RDF><cc:Work
         rdf:about=""><dc:format>image/svg+xml</dc:format><dc:type
           rdf:resource="http://purl.org/dc/dcmitype/StillImage" /><dc:title></dc:title></cc:Work></rdf:RDF></metadata><defs
     id="defs8" /><path
     id="path3361"
     d="M 12.147461,38.050781 C 5.5702301,38.050781 0.19628925,43.422769 0.19628925,50 c 0,6.577233 5.37394095,11.949219 11.95117175,11.949219 6.577232,0 11.949219,-5.371986 11.949219,-11.949219 0,-6.57723 -5.371987,-11.949219 -11.949219,-11.949219 z m 37.853516,0 c -6.57723,0 -11.951172,5.371988 -11.951172,11.949219 0,6.577233 5.373942,11.949219 11.951172,11.949219 6.577232,0 11.949219,-5.371986 11.949219,-11.949219 0,-6.57723 -5.371988,-11.949219 -11.949219,-11.949219 z m 37.853516,0 c -6.57723,0 -11.951172,5.371988 -11.951172,11.949219 0,6.577233 5.373942,11.949219 11.951172,11.949219 6.577232,0 11.949218,-5.371986 11.949218,-11.949219 0,-6.57723 -5.371987,-11.949219 -11.949218,-11.949219 z M 12.145508,43.052735 A 6.947474,6.947474 0 0 1 19.094727,50 6.947474,6.947474 0 0 1 12.145508,56.947266 6.947474,6.947474 0 0 1 5.1982423,50 6.947474,6.947474 0 0 1 12.145508,43.052735 Z m 37.853516,0 A 6.947474,6.947474 0 0 1 56.948243,50 6.947474,6.947474 0 0 1 49.999024,56.947266 6.947474,6.947474 0 0 1 43.051758,50 6.947474,6.947474 0 0 1 49.999024,43.052735 Z m 37.853516,0 A 6.947474,6.947474 0 0 1 94.801758,50 6.947474,6.947474 0 0 1 87.85254,56.947266 6.947474,6.947474 0 0 1 80.905274,50 6.947474,6.947474 0 0 1 87.85254,43.052735 Z" /></svg>