<?xml version="1.0" encoding="UTF-8" standalone="no"?>
<svg
   xmlns:dc="http://purl.org/dc/elements/1.1/"
   xmlns:cc="http://creativecommons.org/ns#"
   xmlns:rdf="http://www.w3.org/1999/02/22-rdf-syntax-ns#"
   xmlns:svg="http://www.w3.org/2000/svg"
   xmlns="http://www.w3.org/2000/svg"
   version="1.1"
   id="svg3335"
   x="0px"
   y="0px"
   viewBox="0 0 100 100"
   style="enable-background:new 0 0 100 100;"
   xml:space="preserve"><metadata
     id="metadata9"><rdf:RDF><cc:Work
         rdf:about=""><dc:format>image/svg+xml</dc:format><dc:type
           rdf:resource="http://purl.org/dc/dcmitype/StillImage" /><dc:title></dc:title></cc:Work></rdf:RDF></metadata><defs
     id="defs7" /><path
     id="path3361"
     d="m 50,8.5085496 c -6.100001,-0.1 -11.000001,4.9000004 -11,11.0000004 0,6.1 4.899999,11 11,11 6.1,0 11,-4.9 11,-11 0,-6.1 -4.9,-11.0000004 -11,-11.0000004 z m 0,5.0546874 c 3.296284,10e-7 5.943359,2.649028 5.943359,5.945313 0,3.296285 -2.647074,5.943359 -5.943359,5.943359 -3.296285,0 -5.94336,-2.647074 -5.94336,-5.943359 0,-3.296285 2.647074,-5.999353 5.94336,-5.945313 z m 0,25.4375 c -6.100001,-0.1 -11.000001,4.900001 -11,11 0,6.1 4.899999,11 11,11 6.1,0 11,-4.9 11,-11 0,-6.099999 -4.9,-11 -11,-11 z m 0,5.054688 c 3.296284,10e-7 5.943359,2.649028 5.943359,5.945312 0,3.296285 -2.647074,5.94336 -5.943359,5.94336 -3.296285,0 -5.94336,-2.647075 -5.94336,-5.94336 0,-3.296284 2.647074,-5.999352 5.94336,-5.945312 z m 0,25.4375 c -6.100001,-0.1 -11.000001,4.900001 -11,11 0,6.1 4.899999,11 11,11 6.1,0 11,-4.9 11,-11 0,-6.099999 -4.9,-11 -11,-11 z m 0,5.054687 c 3.296284,10e-7 5.943359,2.649029 5.943359,5.945313 0,3.296285 -2.647074,5.943359 -5.943359,5.943359 -3.296285,0 -5.94336,-2.647074 -5.94336,-5.943359 0,-3.296284 2.647074,-5.999353 5.94336,-5.945313 z"
     style="fill:#000000" /></svg>