<?xml version="1.0" encoding="UTF-8" standalone="no"?>
<svg
   xmlns:dc="http://purl.org/dc/elements/1.1/"
   xmlns:cc="http://creativecommons.org/ns#"
   xmlns:rdf="http://www.w3.org/1999/02/22-rdf-syntax-ns#"
   xmlns:svg="http://www.w3.org/2000/svg"
   xmlns="http://www.w3.org/2000/svg"
   xml:space="preserve"
   style="enable-background:new 0 0 101 101;"
   viewBox="0 0 101 101"
   y="0px"
   x="0px"
   id="svg2"
   version="1.1"><metadata
     id="metadata19"><rdf:RDF><cc:Work
         rdf:about=""><dc:format>image/svg+xml</dc:format><dc:type
           rdf:resource="http://purl.org/dc/dcmitype/StillImage" /><dc:title></dc:title></cc:Work></rdf:RDF></metadata><defs
     id="defs17" /><g
     id="g3"><rect
       id="rect5"
       height="7.1"
       width="7.1"
       y="10.5"
       x="62.6" /><rect
       id="rect7"
       height="7.1"
       width="7.1"
       y="10.5"
       x="31.3" /><path
       id="path9"
       d="M0,0V101H101V0H0z M5.1,23V5.1h90.8V23H5.1z M5.1,95.8V28h90.8v67.8H5.1z" /><path
       id="path11"
       d="M60.8,51.7c-1.7,0-3.3,0.4-4.8,1.3l1.2-6.3H71v-5H53.2l-3.5,18.5h4.6l0.4-0.6c1.4-2.1,3.3-3.1,5.8-3.1c2,0,3.6,0.6,4.8,1.9   c1.3,1.3,1.9,2.9,1.9,4.9c0,1.9-0.6,3.6-1.7,5.1c-1.1,1.4-2.5,2.1-4.4,2.1c-0.1,0-0.2,0-0.3,0c-1.8,0-3.4-0.6-4.6-1.6   c-1.2-1.1-1.8-2.5-1.8-4.4l-0.2-1.1H49l0,1.3c0.1,3.2,1.2,5.8,3.3,7.7c2.1,1.9,4.9,2.9,8.2,2.9c3.3,0,6.2-1.1,8.6-3.3   c2.4-2.2,3.5-5,3.4-8.3c0-3.5-1.1-6.4-3.2-8.7C67.1,52.8,64.3,51.7,60.8,51.7z" /><path
       id="path13"
       d="M35.8,42.4c-0.3,2.2-0.9,3.5-1.9,4c-1,0.5-3,0.8-5.7,1h-1.3v4.4h8.3v23.1h5.3V41.2H36L35.8,42.4z" /></g></svg>