<?xml version="1.0" encoding="utf-8"?>
<!-- Generator: Adobe Illustrator 21.1.0, SVG Export Plug-In . SVG Version: 6.00 Build 0)  -->
<svg version="1.1"
	 id="svg2" xmlns:cc="http://creativecommons.org/ns#" xmlns:dc="http://purl.org/dc/elements/1.1/" xmlns:rdf="http://www.w3.org/1999/02/22-rdf-syntax-ns#" xmlns:svg="http://www.w3.org/2000/svg"
	 xmlns="http://www.w3.org/2000/svg" xmlns:xlink="http://www.w3.org/1999/xlink" x="0px" y="0px" viewBox="0 0 1000 1000"
	 style="enable-background:new 0 0 1000 1000;" xml:space="preserve">
<g>
	<path d="M378.9,660.3c33.1,33.1,73.8,50.3,121,51h0.1c47.2,0,87.9-17.2,121.1-51.1c33.2-33.2,50-73.5,50-120
		c0-66.3-29.1-116.7-86.6-149.9l-0.1-0.1c-27.2-14.7-55.6-22.2-84.3-22.2c-47.2,0-87.9,17.2-121.1,51.1
		c-33.1,33.1-50.3,73.9-51.1,121.1C327.8,587.4,345,627.8,378.9,660.3z M500,665.6c-34.6,0-64.5-12.6-88.8-37.6
		c-24.2-24.2-36.5-53.7-36.5-87.7c0-34.6,12.3-64.5,36.5-88.8c24.3-24.3,54.1-36.9,88.8-37.6c34.6,0,64.5,12.5,88.7,37.1
		c24.3,24.6,36.6,54.5,36.6,88.8c0,34.3-12.3,64.2-36.6,88.8C564.4,653.1,534.6,665.6,500,665.6z"/>
	<path d="M496.8,804.5c1.1,0,2.2,0,3.2,0c72.6,0,135.5-26,186.8-77.4s77.4-114.2,77.4-186.8c0-47.3-9.9-89.9-29.5-126.7
		c-19.6-36.8-49.3-68.6-88.4-94.7c-45-29.2-94.2-44-146.3-44c-72.6,0-135.5,26-186.8,77.4c-51.3,51.3-77.5,114.4-77.9,187.4
		c-0.4,73,25.6,136.3,77.4,188C363.5,778.7,425.5,804.5,496.8,804.5z M500,324.4c59.1,0,110.3,21.1,151.9,62.8
		c41.7,41.7,62.8,93.2,62.8,153.1c0,78.8-34.2,140.3-101.6,182.8c-34.9,21.2-73,32-113.1,32c-59.1,0-110.5-21.1-152.5-62.8
		c-42.1-41.7-63.4-93-63.4-152.5s21.3-110.8,63.4-152.5C389.5,345.5,440.9,324.4,500,324.4z"/>
	<path d="M980.1,260c-16.4-16.4-36.5-24.8-59.5-24.8H756.7l-95.5-95.5c-16.4-16.4-36.5-24.8-59.5-24.8H401.9
		c-24.6,0-45.8,9.1-63,27.2l-93.2,93.2H79.4c-23,0-43.1,8.3-59.5,24.8C3.5,276.5-4.9,296.5-4.9,319.5v480.1c0,23,8.3,43.2,24.7,60
		c16.5,16.9,36.5,25.4,59.5,25.4h841.1c23,0,43.1-8.3,59.5-24.8c16.4-16.4,24.8-36.9,24.8-60.7V319.5
		C1004.8,296.5,996.5,276.5,980.1,260z M44.6,319.5c0-9.7,3.4-18,10.3-25.3c6.2-6.5,13.3-9.7,21.7-9.7c0.8,0,1.6,0,2.5,0.1l0.2,0
		h188l55.4-56.5l1.3,3.8l51.1-56.4c6.9-7.6,15.7-11.3,26.8-11.3h199.8c9.7,0,17.7,3.4,24.6,10.3l110.1,110.1h184.3
		c9.7,0,17.7,3.4,24.6,10.3c6.9,6.9,10.3,15,10.3,24.6v480.1c0,9.7-3.4,18.2-10.3,25.9c-6.2,6.1-13.2,9.1-21.6,9.1
		c-0.8,0-1.7,0-2.6-0.1l-0.2,0H79.4c-9.7,0-17.8-3-24.7-9.2c-6.8-6.9-10.2-15.3-10.2-25.7V319.5z"/>
</g>
</svg>
