<?xml version="1.0" encoding="UTF-8" standalone="no"?>
<svg
   xmlns:dc="http://purl.org/dc/elements/1.1/"
   xmlns:cc="http://creativecommons.org/ns#"
   xmlns:rdf="http://www.w3.org/1999/02/22-rdf-syntax-ns#"
   xmlns:svg="http://www.w3.org/2000/svg"
   xmlns="http://www.w3.org/2000/svg"
   version="1.1"
   id="svg2"
   x="0px"
   y="0px"
   viewBox="0 0 101.1 101.1"
   style="enable-background:new 0 0 101.1 101.1;"
   xml:space="preserve"><metadata
     id="metadata15"><rdf:RDF><cc:Work
         rdf:about=""><dc:format>image/svg+xml</dc:format><dc:type
           rdf:resource="http://purl.org/dc/dcmitype/StillImage" /><dc:title></dc:title></cc:Work></rdf:RDF></metadata><defs
     id="defs13" /><g
     id="g3"><path
       d="m 40.6,64.5 c 2.7,2.7 6.1,4.1 10,4.2 l 0,0 c 3.9,0 7.2,-1.4 10,-4.2 2.7,-2.7 4.1,-6.1 4.1,-9.9 0,-5.5 -2.4,-9.6 -7.1,-12.4 -2.2,-1.2 -4.6,-1.8 -6.9,-1.8 -3.9,0 -7.2,1.4 -10,4.2 -2.7,2.7 -4.1,6.1 -4.2,10 -0.1,3.9 1.3,7.2 4.1,9.9 z m 9.9,0 c -2.8,0 -5.1,-1 -7.1,-3 -1.9,-1.9 -2.9,-4.3 -2.9,-7 0,-2.8 1,-5.1 2.9,-7.1 1.9,-1.9 4.3,-2.9 7.1,-3 2.7,0 5.1,1 7,2.9 1.9,2 2.9,4.3 2.9,7.1 0,2.7 -1,5.1 -2.9,7.1 -1.8,2 -4.2,3 -7,3 z"
       id="path5" /><path
       d="m 50.213717,79.886044 0.286283,0 c 6.966219,0 12.978162,-2.481119 17.844973,-7.443357 4.866811,-4.866811 7.443358,-10.878754 7.443358,-17.844973 0,-9.065628 -3.817107,-16.222703 -11.260465,-21.184941 -4.294244,-2.767402 -8.9702,-4.198817 -14.027866,-4.198817 -6.966219,0 -12.978162,2.481119 -17.844973,7.443357 -4.866811,4.866811 -7.443358,10.878754 -7.443358,17.844973 0,6.96622 2.48112,13.07359 7.443358,17.940401 4.866811,4.962238 10.783326,7.443357 17.55869,7.443357 z M 50.5,34.080766 c 5.630232,0 10.497043,2.003981 14.409577,6.011943 4.007962,4.007962 6.011943,8.874773 6.011943,14.600432 0,7.538786 -3.244541,13.359873 -9.638194,17.367835 -3.339968,2.003981 -6.966219,3.053685 -10.783326,3.053685 -5.630232,0 -10.497043,-2.003981 -14.505005,-6.011942 -4.007962,-4.007962 -6.011942,-8.874773 -6.011942,-14.505005 0,-5.630232 2.00398,-10.497043 6.011942,-14.505005 C 40.002957,36.084747 44.965196,34.080766 50.5,34.080766 Z"
       id="path7" /><path
       d="M98.6,26.5c-1.7-1.7-3.7-2.5-6-2.5H76.2l-9.5-9.5c-1.7-1.7-3.7-2.5-6-2.5h-20c-2.5,0-4.6,0.9-6.3,2.7L25.1,24H8.5   c-2.3,0-4.3,0.8-6,2.5c-1.7,1.7-2.5,3.7-2.5,6v48c0,2.3,0.8,4.4,2.5,6c1.7,1.7,3.7,2.6,6,2.6h84.1c2.3,0,4.3-0.8,6-2.5   c1.7-1.7,2.5-3.7,2.5-6.1v-48C101.1,30.2,100.3,28.2,98.6,26.5z M5.1,32.5c0-1,0.3-1.8,1-2.5c0.6-0.6,1.3-0.9,2.1-0.9   c0.1,0,0.2,0,0.3,0h18.8l5.5-5.6l0.1,0.4l5.2-5.7c0.7-0.7,1.5-1.1,2.6-1.1h20c0.9,0,1.7,0.3,2.4,1l11,11h18.5c0.9,0,1.7,0.3,2.4,1   c0.7,0.7,1,1.5,1,2.4v48c0,1-0.3,1.8-1,2.5c-0.6,0.6-1.3,0.9-2.1,0.9c-0.1,0-0.2,0-0.3,0H8.5c-1,0-1.8-0.3-2.4-0.9   c-0.7-0.7-1-1.5-1-2.5V32.5z"
       id="path9" /></g></svg>