<?xml version="1.0" encoding="utf-8"?>
<!-- Generator: Adobe Illustrator 21.1.0, SVG Export Plug-In . SVG Version: 6.00 Build 0)  -->
<svg version="1.1"
	 id="svg2" xmlns:cc="http://creativecommons.org/ns#" xmlns:dc="http://purl.org/dc/elements/1.1/" xmlns:rdf="http://www.w3.org/1999/02/22-rdf-syntax-ns#" xmlns:svg="http://www.w3.org/2000/svg"
	 xmlns="http://www.w3.org/2000/svg" xmlns:xlink="http://www.w3.org/1999/xlink" x="0px" y="0px" viewBox="0 0 100.9 100.9"
	 style="enable-background:new 0 0 100.9 100.9;" xml:space="preserve">
<g>
	<path d="M50.4-0.1C36.7,0,24.7,4.8,15,14.5l-0.2,0.2C5,24.6,0,36.6,0,50.3c0,14,4.9,26,14.8,35.9c6.4,6.4,14.1,10.8,22.7,13.1
		s17.4,2.3,26-0.1c8.6-2.3,16.3-6.6,22.7-13.1c9.8-9.8,14.8-21.8,14.8-35.7C101,36.4,96,24.5,86.1,14.7C76.3,5,64.3,0,50.4-0.1z
		 M95.8,50.3c0.1,12.7-4.4,23.5-13.2,32.2S63,95.8,50.4,95.8c-12.6,0-23.4-4.5-32.1-13.2C9.5,73.8,5.1,63,5.2,50.5
		C5.1,37.9,9.6,27,18.3,18.3S37.9,5.1,50.5,5.1c12.6,0,23.3,4.5,32,13.2C91.4,27.1,95.8,37.9,95.8,50.3z"/>
	<polygon points="30.9,27.3 27.3,30.9 46.9,50.4 27.3,70 30.9,73.6 50.4,54 70,73.6 73.6,70 54,50.4 73.6,30.9 70,27.3 50.4,46.9 	
		"/>
</g>
</svg>
