<?xml version="1.0" encoding="UTF-8" standalone="no"?>
<svg
   xmlns:dc="http://purl.org/dc/elements/1.1/"
   xmlns:cc="http://creativecommons.org/ns#"
   xmlns:rdf="http://www.w3.org/1999/02/22-rdf-syntax-ns#"
   xmlns:svg="http://www.w3.org/2000/svg"
   xmlns="http://www.w3.org/2000/svg"
   xml:space="preserve"
   style="enable-background:new 0 0 1000 1000;"
   viewBox="0 0 1000 1000"
   y="0px"
   x="0px"
   id="icons"
   version="1.1"><metadata
     id="metadata10"><rdf:RDF><cc:Work
         rdf:about=""><dc:format>image/svg+xml</dc:format><dc:type
           rdf:resource="http://purl.org/dc/dcmitype/StillImage" /><dc:title>Icons</dc:title></cc:Work></rdf:RDF></metadata><defs
     id="defs8" /><title
     id="title3">Icons</title><path
     id="path4"
     d="M963.4,146H36.6C16.4,146,0,162.4,0,182.6v634.7C0,837.6,16.4,854,36.6,854h926.7c20.2,0,36.6-16.4,36.6-36.6V182.6  C1000,162.4,983.6,146,963.4,146z M83,196.8h834c17.7,0,32.1,14.4,32.1,32.1v53.7H50.8v-53.7C50.8,211.2,65.2,196.8,83,196.8z   M917,803.2H83c-17.7,0-32.1-14.4-32.1-32.1V402.6h898.3v368.5C949.2,788.8,934.8,803.2,917,803.2z" /></svg>