<?xml version="1.0" encoding="UTF-8" standalone="no"?>
<svg
   xmlns:dc="http://purl.org/dc/elements/1.1/"
   xmlns:cc="http://creativecommons.org/ns#"
   xmlns:rdf="http://www.w3.org/1999/02/22-rdf-syntax-ns#"
   xmlns:svg="http://www.w3.org/2000/svg"
   xmlns="http://www.w3.org/2000/svg"
   id="svg2"
   viewBox="0 -143 1000 1000"
   version="1.1">
  <metadata
     id="metadata12">
    <rdf:RDF>
      <cc:Work
         rdf:about="">
        <dc:format>image/svg+xml</dc:format>
        <dc:type
           rdf:resource="http://purl.org/dc/dcmitype/StillImage" />
        <dc:title></dc:title>
      </cc:Work>
    </rdf:RDF>
  </metadata>
  <defs
     id="defs10" />
  <g
     id="g4"
     transform="matrix(1.165324,0,0,-1.1661465,-80.914014,936.805)">
    <path
       style="fill:currentColor"
       id="path6"
       d="m 784,496 81,72 q 26,23 24,32 -4,21 -39,26 l -104,16 36,101 q 13,37 2,45 -10,9 -44,-2 l -98,-37 -19,102 q -6,34 -19,37 -18,2 -38,-21 l -67,-79 -66,75 q -23,27 -36,23 -14,-4 -20,-38 l -20,-99 -95,31 q -31,10 -45,-4 -7,-8 3,-38 L 253,642 152,623 Q 131,619 125,599.5 119,580 136,565 l 78,-69 -80,-65 q -18,-14 -13,-34 5,-20 28,-24 l 104,-23 -34,-92 q -10,-28 1,-38 13,-13 41,-5 l 96,29 18,-99 q 3,-20 24,-25 20,-5 33,10 l 67,74 71,-75 q 9,-9 24,-11 3,0 9,1 17,4 22,30 l 17,95 95,-28 q 36,-11 45,2 8,12 -3,41 l -33,91 92,23 q 33,8 39,26 3,8 -24,33 z m 54,1 77,-75 q 17,-16 11,-39 -7,-23 -29,-29 L 792,328 821,223 q 7,-23 -10,-39 -16,-17 -39,-10 L 668,203 641,98 q -5,-22 -28,-28 -7,-1 -11,-1 -17,0 -28,12 L 499,158 423,81 Q 407,64 384,70 361,76 356,98 L 329,203 225,174 q -23,-7 -39,10 -17,16 -11,39 l 30,105 -105,26 q -22,5 -29,29 -5,23 11,39 l 77,75 -77,76 q -17,16 -11,39 7,23 29,28 l 105,27 -30,103 q -7,23 11,39 16,17 39,11 l 104,-29 27,104 q 5,23 28,29 23,7 39,-11 l 76,-77 75,77 q 16,17 39,11 23,-5 28,-29 l 27,-104 104,29 q 23,7 39,-11 17,-16 10,-39 L 792,667 897,640 q 22,-5 29,-28 5,-23 -11,-39 z" />
  </g>
</svg>
