<?xml version="1.0" encoding="UTF-8" standalone="no"?>
<svg
   xmlns:dc="http://purl.org/dc/elements/1.1/"
   xmlns:cc="http://creativecommons.org/ns#"
   xmlns:rdf="http://www.w3.org/1999/02/22-rdf-syntax-ns#"
   xmlns:svg="http://www.w3.org/2000/svg"
   xmlns="http://www.w3.org/2000/svg"
   width="1000"
   height="1000"
   viewBox="0 0 1000 1000"
   id="svg2"
   version="1.1">
  <defs
     id="defs4" />
  <metadata
     id="metadata7">
    <rdf:RDF>
      <cc:Work
         rdf:about="">
        <dc:format>image/svg+xml</dc:format>
        <dc:type
           rdf:resource="http://purl.org/dc/dcmitype/StillImage" />
        <dc:title></dc:title>
      </cc:Work>
    </rdf:RDF>
  </metadata>
  <path
     id="path3334-0"
     d="M 500,0 A 500.00021,500.00021 0 0 0 0,500 a 500.00021,500.00021 0 0 0 500,500 500.00021,500.00021 0 0 0 500,-500 500.00021,500.00021 0 0 0 -0.7715,-13.2832 l -54.582,6.87305 A 444.78655,444.78655 0 0 1 944.7852,500 444.78655,444.78655 0 0 1 500,944.78516 444.78655,444.78655 0 0 1 55.21485,500 444.78655,444.78655 0 0 1 497.9336,55.28711 L 502.93555,0.06446 A 500.00021,500.00021 0 0 0 500,0 Z m 89.04492,8.49219 -11.25195,54.38086 c 0.21389,0.0482 0.42875,0.098 0.64258,0.14649 L 526.89844,446.43946 935.8379,408.80665 c 0.078,0.30153 0.155,0.60258 0.2324,0.90429 l 55.086,-8.69726 C 950.2738,200.10431 790.8825,44.51409 589.04492,8.49219 Z m 35,61.126955 C 778.80668,97.23924 894.059,209.5769 925.4063,363.62696 L 578.01563,397.14844 624.04492,69.619145 Z"
     style="fill:#000000;fill-opacity:1;fill-rule:evenodd;stroke:none;stroke-width:1px;stroke-linecap:butt;stroke-linejoin:miter;stroke-opacity:1" />
</svg>
