<?xml version="1.0" encoding="UTF-8" standalone="no"?>
<svg
   xmlns:dc="http://purl.org/dc/elements/1.1/"
   xmlns:cc="http://creativecommons.org/ns#"
   xmlns:rdf="http://www.w3.org/1999/02/22-rdf-syntax-ns#"
   xmlns:svg="http://www.w3.org/2000/svg"
   xmlns="http://www.w3.org/2000/svg"
   id="svg2"
   viewBox="0 -143 1000 1000"
   version="1.1">
  <metadata
     id="metadata12">
    <rdf:RDF>
      <cc:Work
         rdf:about="">
        <dc:format>image/svg+xml</dc:format>
        <dc:type
           rdf:resource="http://purl.org/dc/dcmitype/StillImage" />
        <dc:title></dc:title>
      </cc:Work>
    </rdf:RDF>
  </metadata>
  <defs
     id="defs10" />
  <g
     transform="matrix(7.9652279,0,0,7.9652279,-87.515057,-244.35449)"
     id="g5"
     style="fill:#000000">
    <path
       d="M 22.7,137.4 C 40,120.5 57.3,103.5 73,85 85.8,70 101.6,52 97.7,30.7 96.1,22.1 91.3,14.5 82.2,13.1 73,11.8 62.6,13.8 55.7,20.3 c -16.1,15 -0.2,37.9 10.6,50.9 16.7,19.9 39.2,33.8 58.5,51 2.9,2.6 7.1,-1.7 4.2,-4.2 C 114.7,105.3 98.8,94.5 84.6,81.6 77.7,75.3 71.2,68.6 65.8,61 60.8,54 54.1,44.4 54.6,35.3 55.2,24.7 65.7,19.4 75.2,18.9 c 4.6,-0.2 9.7,0 12.7,3.9 3,3.8 4.2,8.8 4.3,13.6 0.5,19.1 -15.5,35.3 -27.2,48.7 -14.7,16.8 -30.6,32.5 -46.6,48.1 -2.7,2.7 1.6,6.9 4.3,4.2 l 0,0 z"
       id="path7"
       style="fill:#000000" />
  </g>
</svg>
