<?xml version="1.0" encoding="UTF-8" standalone="no"?>
<svg
   xmlns:dc="http://purl.org/dc/elements/1.1/"
   xmlns:cc="http://creativecommons.org/ns#"
   xmlns:rdf="http://www.w3.org/1999/02/22-rdf-syntax-ns#"
   xmlns:svg="http://www.w3.org/2000/svg"
   xmlns="http://www.w3.org/2000/svg"
   id="svg2"
   viewBox="0 -143 1000 1000"
   version="1.1">
  <metadata
     id="metadata12">
    <rdf:RDF>
      <cc:Work
         rdf:about="">
        <dc:format>image/svg+xml</dc:format>
        <dc:type
           rdf:resource="http://purl.org/dc/dcmitype/StillImage" />
        <dc:title></dc:title>
      </cc:Work>
    </rdf:RDF>
  </metadata>
  <defs
     id="defs10" />
  <g
     id="g4"
     transform="matrix(1.1968881,0,0,-1.1968881,-112.50749,936.89228)">
    <path
       style="fill:currentColor"
       id="path6"
       d="m 697,847 -453,0 q -43,0 -85,-42 -33,-33 -33,-88 l 0,-464 q 0,-41 38,-86 40,-46 84,-47 l 471,0 q 52,0 90.5,40.5 Q 848,201 848,238 l 0,199 q 0,32 3,42 l 1,6 9,6 q 1,0 6,-2 11,-4 12,-16 l 1,-220 Q 880,187 833,139 786,92 719,92 l -464,0 q -66,0 -114,47 -47,47 -47,114 l 0,464 q 0,66 47.5,113 47.5,47 113.5,47 l 442,0 0,-30 z M 902,815 458,322 289,491 q -19,18 -25,11 -19,-18 0,-36 L 440,290 q 7,-7 18,-8 12,0 18,7 l 445,500 q 17,19 0,37 -5,5 -19,-11 z" />
  </g>
</svg>
