<?xml version="1.0" encoding="UTF-8" standalone="no"?>
<svg
   xmlns:dc="http://purl.org/dc/elements/1.1/"
   xmlns:cc="http://creativecommons.org/ns#"
   xmlns:rdf="http://www.w3.org/1999/02/22-rdf-syntax-ns#"
   xmlns:svg="http://www.w3.org/2000/svg"
   xmlns="http://www.w3.org/2000/svg"
   xml:space="preserve"
   style="enable-background:new 0 0 101.6 101.6;"
   viewBox="0 0 101.6 101.6"
   y="0px"
   x="0px"
   id="svg2"
   version="1.1"><metadata
     id="metadata11"><rdf:RDF><cc:Work
         rdf:about=""><dc:format>image/svg+xml</dc:format><dc:type
           rdf:resource="http://purl.org/dc/dcmitype/StillImage" /><dc:title></dc:title></cc:Work></rdf:RDF></metadata><defs
     id="defs9" /><path
     id="path3"
     d="M78.7,31.6c-1-1-2.6-1.1-3.5-0.1L41.1,64.6l-14.5-14c-1.1-1-2.7-1-3.7,0.1s-0.9,2.7,0.2,3.7l16.1,15.5c0,0,0,0,0,0  c0,0,0,0,0,0c1,1,2.6,1.1,3.5,0.1l36-35C79.7,34.2,79.7,32.6,78.7,31.6z" /><g
     id="g3"><path
       d="M86.6,14.9C76.8,5,64.9,0,51.4,0c-1.5,0-3.1,0.1-4.7,0.2c-12.4,1.1-23,6-31.8,14.7C5,24.7,0,36.8,0,50.8   s5,26.1,14.9,36c9.8,9.8,21.9,14.8,35.8,14.8s26-5,35.9-14.8c9.8-9.8,14.9-21.9,14.9-35.9C101.6,36.9,96.6,24.8,86.6,14.9z    M96.6,50.8c0,12.6-4.5,23.5-13.4,32.4S63.4,96.6,50.8,96.6h-0.2c-12.6,0-23.4-4.5-32.3-13.4C9.5,74.3,5,63.4,5,50.8   s4.5-23.5,13.4-32.4C27.2,9.5,38.1,5,50.7,5c12.7,0,23.6,4.5,32.5,13.4C92.1,27.2,96.6,38.1,96.6,50.8z"
       id="path5" /></g></svg>