<?xml version="1.0" encoding="utf-8"?>
<!-- Generator: Adobe Illustrator 21.1.0, SVG Export Plug-In . SVG Version: 6.00 Build 0)  -->
<svg version="1.1"
	 id="svg2" xmlns:cc="http://creativecommons.org/ns#" xmlns:dc="http://purl.org/dc/elements/1.1/" xmlns:rdf="http://www.w3.org/1999/02/22-rdf-syntax-ns#" xmlns:svg="http://www.w3.org/2000/svg"
	 xmlns="http://www.w3.org/2000/svg" xmlns:xlink="http://www.w3.org/1999/xlink" x="0px" y="0px" viewBox="0 0 1009.5 1009.5"
	 style="enable-background:new 0 0 1009.5 1009.5;" xml:space="preserve">
<path d="M948.3,61.2C906.8,20.6,856.9,0,799.9,0H209.6c-57,0-106.7,20.8-147.8,61.8S0,152.6,0,209.6v590.3
	c0,57.9,20.6,107.8,61.2,148.4c41.4,40.6,91.4,61.2,148.4,61.2h590.3c57.9,0,107.8-20.6,148.4-61.2c40.6-41.4,61.2-91.4,61.2-148.4
	V209.6C1009.5,152.6,988.9,102.7,948.3,61.2z M50.2,826.6l0-643.9c-0.8-25.6,15-54.4,46.9-85.5c32-31.2,60.9-47,85.7-47h643.8
	c26.6,0,56.7,16.2,89.5,48.2c28.6,28.6,43.1,57,43.1,84.4v643.8c0,28.2-14.9,57.5-44.4,86.9c-32,30.3-61.7,45.7-88.3,45.7H182.9
	c-10.3,0-33.9-8-87.5-46.2C65,891,50.2,862.7,50.2,826.6z"/>
</svg>
