<?xml version="1.0" encoding="UTF-8" standalone="no"?>
<svg
   xmlns:dc="http://purl.org/dc/elements/1.1/"
   xmlns:cc="http://creativecommons.org/ns#"
   xmlns:rdf="http://www.w3.org/1999/02/22-rdf-syntax-ns#"
   xmlns:svg="http://www.w3.org/2000/svg"
   xmlns="http://www.w3.org/2000/svg"
   id="svg2"
   viewBox="0 -143 1000 1000"
   version="1.1">
  <metadata
     id="metadata12">
    <rdf:RDF>
      <cc:Work
         rdf:about="">
        <dc:format>image/svg+xml</dc:format>
        <dc:type
           rdf:resource="http://purl.org/dc/dcmitype/StillImage" />
        <dc:title></dc:title>
      </cc:Work>
    </rdf:RDF>
  </metadata>
  <defs
     id="defs10" />
  <g
     id="g4"
     transform="matrix(1.1668611,0,0,-1.1668611,-78.179675,943.93113)">
    <path
       style="fill:currentColor"
       id="path6"
       d="M 924,503 Q 924,681 798,806 673,931 495,932 317,932 192,806 67,681 67,503 67,325 192.5,199.5 318,74 495.5,74 673,74 798,200 924,325 924,503 Z m -823,0 q 0,163 115,278 116,116 279,116 163,0 279,-116 Q 890,665 889,503 889,340 773.5,224 658,108 495,108 332,108 216.5,224 101,340 101,503 l 0,0 z m 292,24 -25,-24 195,-194 24,24 -170,170 169,169 -24,24 -97,-97 z" />
  </g>
</svg>
