<?xml version="1.0" encoding="UTF-8" standalone="no"?>
<svg
   xmlns:dc="http://purl.org/dc/elements/1.1/"
   xmlns:cc="http://creativecommons.org/ns#"
   xmlns:rdf="http://www.w3.org/1999/02/22-rdf-syntax-ns#"
   xmlns:svg="http://www.w3.org/2000/svg"
   xmlns="http://www.w3.org/2000/svg"
   id="svg2"
   viewBox="0 -143 1000 1000"
   version="1.1">
  <metadata
     id="metadata12">
    <rdf:RDF>
      <cc:Work
         rdf:about="">
        <dc:format>image/svg+xml</dc:format>
        <dc:type
           rdf:resource="http://purl.org/dc/dcmitype/StillImage" />
        <dc:title></dc:title>
      </cc:Work>
    </rdf:RDF>
  </metadata>
  <defs
     id="defs10" />
  <g
     id="g4"
     transform="matrix(1.1668611,0,0,-1.1668611,-80.513397,946.26486)">
    <path
       style="fill:currentColor"
       id="path6"
       d="M 498,76 Q 676,76 801,201.5 926,327 926,505 926,683 800.5,808.5 675,934 497.5,934 320,934 194.5,808.5 69,683 69,505 69,327 194.5,201.5 320,76 498,76 l 0,0 z m 0,824 Q 661,900 776.5,784 892,668 892,505 892,342 777,226 661,110 498,110 335,110 219,226 103,342 103,505 q 0,163 116,279 116,116 279,116 l 0,0 z m 24,-293 -24,24 -194,-193 24,-25 170,170 169,-169 24,24 -97,97 z" />
  </g>
</svg>
