<?xml version="1.0" encoding="UTF-8" standalone="no"?>
<svg
   xmlns:dc="http://purl.org/dc/elements/1.1/"
   xmlns:cc="http://creativecommons.org/ns#"
   xmlns:rdf="http://www.w3.org/1999/02/22-rdf-syntax-ns#"
   xmlns:svg="http://www.w3.org/2000/svg"
   xmlns="http://www.w3.org/2000/svg"
   id="svg2"
   viewBox="0 -143 1000 1000"
   version="1.1">
  <metadata
     id="metadata12">
    <rdf:RDF>
      <cc:Work
         rdf:about="">
        <dc:format>image/svg+xml</dc:format>
        <dc:type
           rdf:resource="http://purl.org/dc/dcmitype/StillImage" />
        <dc:title></dc:title>
      </cc:Work>
    </rdf:RDF>
  </metadata>
  <defs
     id="defs10" />
  <g
     id="g4"
     transform="matrix(1.1668611,0,0,-1.1668611,-66.511064,929.9288)">
    <path
       style="fill:currentColor"
       id="path6"
       d="M 57,491 Q 57,313 182.5,187.5 308,62 485.5,62 663,62 788.5,187.5 914,313 914,491 914,669 788.5,794.5 663,920 485.5,920 308,920 182.5,794.5 57,669 57,491 l 0,0 z m 823,0 Q 880,328 764,212 648,96 485,96 322,96 206.5,212 91,328 91,491 91,654 206.5,769.5 322,885 485,885 648,885 764,770 880,654 880,491 l 0,0 z M 588,466 612,490 418,685 393,660 563,490 394,321 l 25,-24 97,97 z" />
  </g>
</svg>
