<?xml version="1.0" encoding="utf-8"?>
<!-- Generator: Adobe Illustrator 21.1.0, SVG Export Plug-In . SVG Version: 6.00 Build 0)  -->
<svg version="1.1"
	 id="svg2" xmlns:cc="http://creativecommons.org/ns#" xmlns:dc="http://purl.org/dc/elements/1.1/" xmlns:rdf="http://www.w3.org/1999/02/22-rdf-syntax-ns#" xmlns:svg="http://www.w3.org/2000/svg"
	 xmlns="http://www.w3.org/2000/svg" xmlns:xlink="http://www.w3.org/1999/xlink" x="0px" y="0px" viewBox="0 0 1002 1003.7"
	 style="enable-background:new 0 0 1002 1003.7;" xml:space="preserve">
<g>
	<path d="M855.5,147.2C758.8,49.5,641.6,0,507.4,0c-14.8,0-30.9,1-46.5,2c-61,5.4-118.4,20.3-170.6,44.5
		c-52.2,24.1-100.6,58-143.8,100.8C48.7,243.9-0.9,363.2-0.9,501.9c0,138.3,49.6,257.9,147.3,355.6c97,97,216.1,146.2,354,146.2
		c137.5,0,257-49.2,355-146.2c97.8-97.7,147.3-217,147.3-354.7C1003.9,364.6,954.3,244.9,855.5,147.2z M501.5,952.7h-2
		c-123.6,0-230.6-44.4-318.3-131.9c-86.9-87.8-131-195.1-131-318.9c0-124.2,44.4-231.5,132.1-318.9C269,95.4,376.1,51,500.6,51
		c124.9,0,232.6,44.4,320.2,132c87.6,86.6,131.9,193.8,131.9,318.9c0,124.2-44.4,231.5-132.1,318.9
		C733.1,908.3,625.7,952.7,501.5,952.7z"/>
	<polygon points="295.9,434.7 330.7,470.6 479.9,322.4 479.9,725.6 529.9,725.6 529.9,322.4 679.2,470.6 714.9,434.7 505.4,225.4 	
		"/>
</g>
</svg>
