<?xml version="1.0" encoding="utf-8"?>
<!-- Generator: Adobe Illustrator 21.1.0, SVG Export Plug-In . SVG Version: 6.00 Build 0)  -->
<svg version="1.1"
	 id="svg2" xmlns:cc="http://creativecommons.org/ns#" xmlns:dc="http://purl.org/dc/elements/1.1/" xmlns:rdf="http://www.w3.org/1999/02/22-rdf-syntax-ns#" xmlns:svg="http://www.w3.org/2000/svg"
	 xmlns="http://www.w3.org/2000/svg" xmlns:xlink="http://www.w3.org/1999/xlink" x="0px" y="0px" viewBox="0 0 1002 1003.7"
	 style="enable-background:new 0 0 1002 1003.7;" xml:space="preserve">
<g>
	<path d="M1000.8,461.8c-5.4-61-20.3-118.4-44.5-170.6c-24.1-52.2-58-100.6-100.8-143.8C758.9,49.6,639.6,0,501,0
		C362.7,0,243.1,49.6,145.4,147.4c-97,97-146.2,216.1-146.2,354c0,137.5,49.2,257,146.2,355c97.7,97.8,217,147.3,354.7,147.3
		c1.4,0,2.7,0,4.1,0c0,0,0,0,0,0c136.4,0,254.7-49.6,351.5-147.4c97.6-96.7,147.2-213.9,147.2-348.1
		C1002.8,493.4,1001.8,477.4,1000.8,461.8z M501,51.1c124.2,0,231.5,44.4,318.9,132.1c87.6,86.7,131.9,193.7,131.9,318.3
		c0,124.9-44.4,232.6-132,320.2C733.3,909.2,626,953.6,501,953.6c-124.2,0-231.5-44.4-318.9-132.1c-87.6-87.6-132-195-132-319.2v-2
		c0-123.6,44.4-230.6,131.9-318.3C269.9,95.2,377.2,51.1,501,51.1z"/>
	<polygon points="532.3,680.1 568.1,715.8 777.4,506.3 568.1,296.8 532.3,331.5 680.5,480.8 277.3,480.8 277.3,530.8 680.5,530.8 	
		"/>
</g>
</svg>
