<?xml version="1.0" encoding="utf-8"?>
<!-- Generator: Adobe Illustrator 21.1.0, SVG Export Plug-In . SVG Version: 6.00 Build 0)  -->
<svg version="1.1"
	 id="svg2" xmlns:cc="http://creativecommons.org/ns#" xmlns:dc="http://purl.org/dc/elements/1.1/" xmlns:rdf="http://www.w3.org/1999/02/22-rdf-syntax-ns#" xmlns:svg="http://www.w3.org/2000/svg"
	 xmlns="http://www.w3.org/2000/svg" xmlns:xlink="http://www.w3.org/1999/xlink" x="0px" y="0px" viewBox="0 0 1002 1003.8"
	 style="enable-background:new 0 0 1002 1003.8;" xml:space="preserve">
<g>
	<path d="M856.7,147.4C758.9,49.6,639.6,0,502,0c-1.4,0-2.7,0-4.1,0C361.4,0,243.1,49.6,146.3,147.4C48.7,244.1-0.9,361.3-0.9,495.5
		c0,14.8,1,30.9,2,46.5c5.4,61,20.3,118.4,44.5,170.6c24.1,52.2,58,100.6,100.8,143.8c96.7,97.8,216,147.4,354.7,147.4
		c138.3,0,257.9-49.6,355.6-147.3c48.2-48.2,85-102.6,109.4-161.8c24.4-59.2,36.8-123.8,36.8-192.2
		C1002.9,364.9,953.7,245.4,856.7,147.4z M951.9,501.4v2c0,123.6-44.4,230.6-131.9,318.3c-87.8,86.9-195.1,131-318.9,131
		c-124.2,0-231.5-44.4-318.9-132.1C94.5,734,50.1,627,50.1,502.4c0-124.9,44.4-232.6,132-320.2c86.5-87.6,193.8-132,318.9-132
		c124.2,0,231.5,44.4,318.9,132.1C907.5,270,951.9,377.4,951.9,501.4z"/>
	<polygon points="469.7,323.7 433.9,288 224.6,497.5 433.9,707 469.7,672.2 321.5,522.9 724.8,522.9 724.8,472.9 321.5,472.9 	"/>
</g>
</svg>
