<?xml version="1.0" encoding="utf-8"?>
<!-- Generator: Adobe Illustrator 21.1.0, SVG Export Plug-In . SVG Version: 6.00 Build 0)  -->
<svg version="1.1"
	 id="svg2" xmlns:cc="http://creativecommons.org/ns#" xmlns:dc="http://purl.org/dc/elements/1.1/" xmlns:rdf="http://www.w3.org/1999/02/22-rdf-syntax-ns#" xmlns:svg="http://www.w3.org/2000/svg"
	 xmlns="http://www.w3.org/2000/svg" xmlns:xlink="http://www.w3.org/1999/xlink" x="0px" y="0px" viewBox="0 0 1002 1003.7"
	 style="enable-background:new 0 0 1002 1003.7;" xml:space="preserve">
<g>
	<path d="M855.5,146.3C758.5,49.2,639.4,0,501.5,0c-137.5,0-257,49.2-355,146.2C48.7,243.9-0.9,363.3-0.9,501
		c-1,138.2,48.6,257.8,147.3,355.6c96.7,97.6,213.9,147.2,348.1,147.2c14.8,0,30.9-1,46.5-2c61-5.4,118.4-20.3,170.6-44.5
		c52.2-24.1,100.6-58,143.8-100.8c97.8-96.7,147.4-216,147.4-354.6C1002.8,363.6,953.3,243.9,855.5,146.3z M500.5,51h2
		C626.1,51,733.1,95.4,820.8,183c86.9,87.8,131,195.1,131,318.9c0,124.2-44.4,231.5-132.1,318.9C733,908.3,625.9,952.7,501.4,952.7
		c-124.9,0-232.6-44.4-320.2-132C93.6,734.2,49.3,626.9,49.3,501.9c0-124.2,44.4-231.5,132.1-318.9C268.9,95.4,376.3,51,500.5,51z"
		/>
	<polygon points="706.1,569 671.3,533.1 522,681.3 522,278.1 472,278.1 472,681.3 322.8,533.2 287.1,569 496.6,778.3 	"/>
</g>
</svg>
