<?xml version="1.0" encoding="UTF-8" standalone="no"?>
<svg
   xmlns:dc="http://purl.org/dc/elements/1.1/"
   xmlns:cc="http://creativecommons.org/ns#"
   xmlns:rdf="http://www.w3.org/1999/02/22-rdf-syntax-ns#"
   xmlns:svg="http://www.w3.org/2000/svg"
   xmlns="http://www.w3.org/2000/svg"
   version="1.1"
   id="icons"
   x="0px"
   y="0px"
   viewBox="0 0 101.6 101.6"
   style="enable-background:new 0 0 101.6 101.6;"
   xml:space="preserve"><metadata
     id="metadata23"><rdf:RDF><cc:Work
         rdf:about=""><dc:format>image/svg+xml</dc:format><dc:type
           rdf:resource="http://purl.org/dc/dcmitype/StillImage" /><dc:title>Icons</dc:title></cc:Work></rdf:RDF></metadata><defs
     id="defs21" /><title
     id="title3">Icons</title><g
     id="g5"><path
       d="M69.1,30.1c0.2,0.5,0.2,0.9,0.3,1.4l5.7-8.5c-1.9-1.6-4-3-6.3-4.2l-5.3,8C65.9,26.3,68.4,27.7,69.1,30.1z"
       id="path7" /><path
       d="M54.6,29.3c1.7,1.1,4,0.7,5.2-1l6.9-10.4c-2.4-1-4.8-1.8-7.4-2.2l-5.8,8.5C52.6,25.8,53,28.1,54.6,29.3z"
       id="path9" /><path
       d="M74,39.6c0.2,0.6,0.2,1.1,0.2,1.7L81.8,30c-1.5-2.1-3.2-4-5.2-5.8l-8,11.9C71,35.9,73.3,37.3,74,39.6z"
       id="path11" /><path
       d="M83.1,32L74,45.6c-1.1,1.7-0.6,4,1.1,5.2c1.7,1.1,4,0.7,5.2-1l6.6-10.1C85.9,37,84.6,34.4,83.1,32z"
       id="path13" /><path
       d="M73.5,52.9c-1.7-1.2-4.1-0.7-5.2,1l-9,13.4c-0.4,0.4-1,0.4-1.4,0c-0.2-0.1-0.4-0.3-0.5-0.6c-0.1-0.2-0.1-0.5,0-0.8l14-20.8   c1.1-1.7,0.6-4-1-5.2c-1.7-1.1-4-0.7-5.2,1l-14,20.9c-0.4,0.4-1,0.4-1.4,0c-0.5-0.3-0.6-0.9-0.4-1.4l16.9-25.4   c0.5-0.8,0.7-1.7,0.5-2.6c-0.3-2.1-2.3-3.5-4.3-3.2c-1,0.2-1.8,0.7-2.3,1.5L43.4,56.2c-0.4,0.4-1,0.4-1.4,0   c-0.2-0.1-0.4-0.3-0.5-0.6c-0.1-0.2-0.1-0.5,0-0.8L54.2,36c1.1-1.7,0.6-4-1-5.2c-1.7-1-3.9-0.5-5,1.1L25.4,65.8l-1.6-13.6   c-0.2-2.1-2-3.6-4.1-3.4c-2.1,0.2-3.6,2-3.4,4.1l1.2,12.7C23.4,80.4,38,89.8,53.9,88.9l20.6-30.8C75.7,56.4,75.2,54.1,73.5,52.9z"
       id="path15" /><path
       d="M50.8,0C22.8,0,0,22.8,0,50.8c0,28,22.7,50.8,50.8,50.8c28,0,50.8-22.7,50.8-50.8C101.6,22.8,78.8,0,50.8,0z M50.8,96.6   c-25.3,0-45.8-20.5-45.8-45.8S25.5,5.1,50.8,5.1s45.8,20.5,45.8,45.8S76.1,96.6,50.8,96.6z"
       id="path17" /></g></svg>