<?xml version="1.0" encoding="UTF-8" standalone="no"?>
<svg
   xmlns:dc="http://purl.org/dc/elements/1.1/"
   xmlns:cc="http://creativecommons.org/ns#"
   xmlns:rdf="http://www.w3.org/1999/02/22-rdf-syntax-ns#"
   xmlns:svg="http://www.w3.org/2000/svg"
   xmlns="http://www.w3.org/2000/svg"
   id="svg2"
   viewBox="0 -143 1000 1000"
   version="1.1">
  <metadata
     id="metadata12">
    <rdf:RDF>
      <cc:Work
         rdf:about="">
        <dc:format>image/svg+xml</dc:format>
        <dc:type
           rdf:resource="http://purl.org/dc/dcmitype/StillImage" />
        <dc:title></dc:title>
      </cc:Work>
    </rdf:RDF>
  </metadata>
  <defs
     id="defs10" />
  <g
     id="g4"
     transform="matrix(1.1366272,0,0,-1.1366272,-107.52708,900.88215)">
    <path
       style="fill:currentColor"
       id="path6"
       d="m 645.223,220.718 20.5195,-20.5195 -130.815,-131.671 -131.669,131.671 21.375,20.5195 95.7598,-95.7607 0,383.896 29.0703,0 0,-383.896 z m 168.434,433.484 0,4.27539 0,3.41992 q 0,94.0508 -66.6895,160.74 -66.6904,66.6895 -159.886,65.835 -66.6895,0 -121.837,-35.4834 -55.1475,-35.4814 -83.3623,-93.6221 -24.7949,12.8252 -52.1553,12.8252 -43.6045,0 -76.0947,-28.2148 -32.4902,-28.2148 -39.3311,-69.2549 -53.0088,-17.9551 -85.5,-64.125 -33.3447,-45.3154 -34.1992,-102.6 0,-72.6748 52.1553,-123.976 51.2998,-51.2998 123.975,-51.2998 l 190.665,0 0,29.0703 -190.665,0 q -60.7051,0 -103.455,43.1768 -42.75,43.1777 -42.75,103.883 0,47.0244 27.3604,85.0723 27.3604,38.0479 71.8193,53.4375 l 16.2451,5.12988 3.4209,17.9561 q 5.12891,31.6338 29.0693,52.1543 24.7949,20.5205 57.2852,20.5205 20.5205,0 39.3301,-9.40527 l 26.5049,-13.6807 12.8252,27.3604 q 24.7949,51.3008 73.1016,81.6523 48.3086,30.3525 105.593,31.208 82.0801,0 139.793,-58.5684 57.7129,-58.5664 57.7129,-139.792 l 0,-1.70996 0,-5.12988 -0.85547,-29.9248 29.9248,0 q 53.8652,0 93.1953,-38.4756 38.4746,-38.4746 38.4746,-93.1943 0,-54.7207 -38.4746,-92.3398 -38.4756,-38.4756 -93.1953,-39.3301 l -206.055,0 0,-29.0703 206.055,0 q 66.6904,0 113.716,47.0254 47.0244,47.0244 47.0244,113.715 0,88.9199 -76.0957,136.8 -40.1846,23.9395 -84.6445,23.9395 l 0,0 z" />
  </g>
</svg>
