<?xml version="1.0" encoding="UTF-8" standalone="no"?>
<svg
   xmlns:dc="http://purl.org/dc/elements/1.1/"
   xmlns:cc="http://creativecommons.org/ns#"
   xmlns:rdf="http://www.w3.org/1999/02/22-rdf-syntax-ns#"
   xmlns:svg="http://www.w3.org/2000/svg"
   xmlns="http://www.w3.org/2000/svg"
   id="svg2"
   viewBox="0 -143 1018 1000"
   version="1.1">
  <metadata
     id="metadata12">
    <rdf:RDF>
      <cc:Work
         rdf:about="">
        <dc:format>image/svg+xml</dc:format>
        <dc:type
           rdf:resource="http://purl.org/dc/dcmitype/StillImage" />
        <dc:title></dc:title>
      </cc:Work>
    </rdf:RDF>
  </metadata>
  <defs
     id="defs10" />
  <g
     id="g4"
     transform="matrix(1.0239441,0,0,-1.0239441,-32.674501,865.39441)">
    <path
       style="fill:currentColor"
       id="path6"
       d="m 406.45,425.725 -23.75,22.8008 146.3,146.3 145.35,-146.3 -22.7998,-22.8008 -106.399,106.4 0,-425.6 -32.3008,0 0,425.6 z m 432.25,201.4 0,3.3252 q 0,0 0.9502,4.27441 0,104.5 -74.1006,178.601 -74.0996,74.0996 -178.6,73.1494 -74.1006,0 -134.9,-38.9492 -60.7998,-39.9004 -93.0996,-104.5 -27.5498,14.25 -57.9502,14.25 -48.4502,0 -83.5996,-31.3506 -36.1006,-31.3496 -44.6504,-76.9502 -58.9004,-19.9492 -95.000005,-70.2998 -37.0498,-50.3496 -37.0498,-114.95 0,-80.75 57,-137.75 57.000005,-57 138.700005,-57 l 211.85,0 0,32.3008 -211.85,0 q -67.4502,0 -115.426,47.9746 -47.974605,47.9746 -47.974605,114.475 0,52.25 30.400405,95 30.3994,42.75 79.7998,59.8506 l 18.0498,5.7002 3.7998,19 q 5.7002,35.1494 33.25,58.4248 27.5498,23.2744 62.7002,23.2744 22.7998,0 43.7002,-10.4492 l 30.3994,-15.2002 14.25,30.3994 q 27.5508,57 81.2256,90.7256 53.6748,33.7246 116.375,33.7246 91.2002,0 155.325,-64.5996 64.125,-64.6006 64.125,-154.851 l 0,-1.89941 0,-5.7002 -0.9502,-33.25 33.25,0 q 59.8496,0 103.075,-43.2246 43.2246,-43.2256 43.2246,-103.075 0,-59.8506 -42.75,-102.601 -42.75,-42.7504 -103.55,-43.6992 l -228,0 0,-33.25 228.95,0 q 74.0996,0 126.35,53.1992 52.25,52.25 51.2998,126.351 0,99.75 -84.5498,152 -44.6504,26.5996 -94.0498,27.5498 l 0,0 z" />
  </g>
</svg>
