<?xml version="1.0" encoding="UTF-8" standalone="no"?>
<svg
   xmlns:dc="http://purl.org/dc/elements/1.1/"
   xmlns:cc="http://creativecommons.org/ns#"
   xmlns:rdf="http://www.w3.org/1999/02/22-rdf-syntax-ns#"
   xmlns:svg="http://www.w3.org/2000/svg"
   xmlns="http://www.w3.org/2000/svg"
   xml:space="preserve"
   style="enable-background:new 0 0 1014.2 1014.2;"
   viewBox="0 0 1014.2 1014.2"
   y="0px"
   x="0px"
   id="svg2"
   version="1.1"><metadata
     id="metadata9"><rdf:RDF><cc:Work
         rdf:about=""><dc:format>image/svg+xml</dc:format><dc:type
           rdf:resource="http://purl.org/dc/dcmitype/StillImage" /><dc:title></dc:title></cc:Work></rdf:RDF></metadata><defs
     id="defs7" /><path
     id="path3"
     d="M1014.2,652.1c0-76.8-30.9-135.6-91.8-174.7c-29-18.9-61.2-29.4-95.9-31.4v-1.6c0-78.9-26.9-147.2-80-203.2  c-53.2-56.1-108.2-84.5-163.4-84.5c-53.2,0-102.5,15-146.4,44.5c-41.8,28.8-74.5,66.5-97.3,112.3c-17.4-8.2-35.5-12.4-54-12.4  c-1.3,0-2.7,0-4.1,0.1c-35.4,0-66.4,12-92.2,35.6c-25.4,23.3-41.8,52.3-48.9,86.4c-41,15.5-74.6,42.1-99.9,79.3  C13.5,541.6,0,585.5,0,633.2c0,61.4,20.9,114.6,62.1,158.3c41.3,43.8,92.4,66,151.8,66h605.5c53.1,0,99.8-20.2,139-60.1l0.1-0.1  C996.2,757.4,1014.9,708.6,1014.2,652.1z M213.8,807.5c-44.9,0-84.2-17.2-116.7-51.1C64.5,722.4,48,681,48,633.2  c0-37,10.6-70.8,31.4-100.3l0.1-0.1c19.5-28.9,46.4-50.4,80-63.8l22.6-8.8l5-24.8c5.3-25.1,16.6-45.8,33.6-61.6  c17.7-15.1,36.6-22.5,57.8-22.5c0.9,0,1.8,0,2.7,0l0.2,0c16.3,0,30.8,3.3,43.1,9.7l38.2,20.4l19.1-39.4c19-40.8,47.1-73.9,83.5-98.4  c36.3-24.4,75.9-36.8,117.9-36.8c41.4,0,84.5,23.4,128.3,69.5c43.9,46.2,66.1,102.8,66.1,168.1v7.3l-1.3,44.1h42.1  c40.7,0,75.8,15.6,104.6,46.3c28.8,30.1,43.4,67.2,43.4,110.1c0,42.2-14.6,78.9-43.4,109c-29.4,30.7-64.6,46.3-104.6,46.3h-217  H213.8z" /></svg>