<?xml version="1.0" encoding="UTF-8" standalone="no"?>
<svg
   xmlns:dc="http://purl.org/dc/elements/1.1/"
   xmlns:cc="http://creativecommons.org/ns#"
   xmlns:rdf="http://www.w3.org/1999/02/22-rdf-syntax-ns#"
   xmlns:svg="http://www.w3.org/2000/svg"
   xmlns="http://www.w3.org/2000/svg"
   id="svg2"
   viewBox="0 -143 1000 1000"
   version="1.1">
  <metadata
     id="metadata12">
    <rdf:RDF>
      <cc:Work
         rdf:about="">
        <dc:format>image/svg+xml</dc:format>
        <dc:type
           rdf:resource="http://purl.org/dc/dcmitype/StillImage" />
        <dc:title></dc:title>
      </cc:Work>
    </rdf:RDF>
  </metadata>
  <defs
     id="defs10" />
  <g
     id="g4"
     transform="matrix(1.0810811,0,0,-1.0810811,-38.378388,878.62163)">
    <path
       style="fill:currentColor"
       id="path6"
       d="m 754,363 138,0 0,274 -788,0 0,-257 q 0,-135 95,-230 95,-95 230,-96 130,0 224,90 94,90 101,219 l 0,0 0,0 z m 1,240 103,0 0,-206 -103,0 0,206 z M 429,88 Q 308,88 223,173.5 138,259 138,380 l 0,223 582,0 0,-223 Q 720,301 682,234 643,167 575,128 508,89 429,88 l 0,0 0,0 z m -325,-68 651,0 0,34 -651,0 0,-34 z m 171,874 34,0 0,-154 -34,0 0,154 z m 274,0 35,0 0,-154 -35,0 0,154 z m -137,51 34,0 0,-205 -34,0 0,205 z" />
  </g>
</svg>
