<?xml version="1.0" encoding="UTF-8" standalone="no"?>
<svg
   xmlns:dc="http://purl.org/dc/elements/1.1/"
   xmlns:cc="http://creativecommons.org/ns#"
   xmlns:rdf="http://www.w3.org/1999/02/22-rdf-syntax-ns#"
   xmlns:svg="http://www.w3.org/2000/svg"
   xmlns="http://www.w3.org/2000/svg"
   xml:space="preserve"
   style="enable-background:new 0 0 1010.8 1010.8;"
   viewBox="0 0 1010.8 1010.8"
   y="0px"
   x="0px"
   id="svg2"
   version="1.1"><metadata
     id="metadata13"><rdf:RDF><cc:Work
         rdf:about=""><dc:format>image/svg+xml</dc:format><dc:type
           rdf:resource="http://purl.org/dc/dcmitype/StillImage" /><dc:title></dc:title></cc:Work></rdf:RDF></metadata><defs
     id="defs11" /><g
     id="g3"><path
       id="path5"
       d="M1010.8,610.6V400.2H898.7c-9.1-34.8-22.3-68.4-39.5-99.8l78-78L788.4,73.6l-76.7,76.7c-31.5-18.6-65.5-33-101.1-42.8V0   H400.2v107.5c-35.6,9.8-69.6,24.2-101.1,42.8l-76.7-76.7L73.6,222.4l77.9,77.9c-17.1,30.8-30.1,64.4-38.4,99.9H0v210.3h116.9   c9.7,32.6,23.3,64.2,40.5,94.1l-83.7,83.7l148.8,148.8l84.9-84.9c29.2,16.4,60.4,28.8,92.9,37.2v121.4h210.3V889.3   c32.5-9,63.7-21.5,92.8-37.1l85,85l148.8-148.8l-83.7-83.7c17.2-29.9,31.1-61.5,41.5-94.1H1010.8z M847.3,593.3   c-8.4,31.2-21.5,61.3-39,89.4l-18.7,29.3l76.3,76.3l-77.5,77.5l-76.1-77.3l-30.5,17.2c-27.4,16-56.8,28-87.4,35.6l-34.3,9.2v109.6   H450.7V850.8l-33.1-9.3l-0.2,0c-31.2-7.6-61-19.6-88.4-35.6l-29.3-17.3l-77.3,77.3l-77.5-77.5l76.3-76.3l-18.6-29.3   c-16.8-28.2-29.9-58.3-39.1-89.6l-8-33.2h-105V450.7h102.7l8-34.5c7.6-32.8,20-64.1,36.8-93.1l17.2-30.4l-70.2-70.2l77.5-76.5   l69.2,68.1l30.4-18.5c29.8-17.5,61.9-31.1,95.4-40.3l33.2-8V51.6h109.4v95.7l34.4,7.9c33.5,8.4,65.2,21.9,94.2,40.2l30.4,18.5   l69.2-68.1l77.5,76.5l-70.2,70.2l17.2,30.5c16.8,29,29.1,60.3,36.8,93l8,34.5h102.7v109.4h-105L847.3,593.3z" /><path
       id="path7"
       d="M506,319.7c-51,0-95.5,18.2-132.2,54.1c-35.9,35.9-54.1,80.4-54.1,132.2c0,51,18.2,95.1,54.1,131   c36.7,35.9,81.1,54,132.1,54c51,0,95.1-18.2,131-54.1s54.1-80,54.1-131c0-51-18.4-95.3-54.7-131.6   C600.1,338.1,556.2,319.7,506,319.7z M506,639.4c-37.3,0-69.4-12.8-95.4-38.1c-26.1-26-39.3-58.1-39.3-95.4s13.2-69.3,39.3-95.4   c26-26.1,58.1-39.3,95.4-39.3c37.2,0,68.9,13.2,94.2,39.3c26,26,39.3,58.1,39.3,95.4c0,37.2-13.2,69.3-39.3,95.4   C574.9,626.6,543.2,639.4,506,639.4z" /></g></svg>