<?xml version="1.0" encoding="UTF-8" standalone="no"?>
<svg
   xmlns:dc="http://purl.org/dc/elements/1.1/"
   xmlns:cc="http://creativecommons.org/ns#"
   xmlns:rdf="http://www.w3.org/1999/02/22-rdf-syntax-ns#"
   xmlns:svg="http://www.w3.org/2000/svg"
   xmlns="http://www.w3.org/2000/svg"
   xml:space="preserve"
   style="enable-background:new 0 0 1000 1000;"
   viewBox="0 0 1000 1000"
   y="0px"
   x="0px"
   id="svg2"
   version="1.1"><metadata
     id="metadata21"><rdf:RDF><cc:Work
         rdf:about=""><dc:format>image/svg+xml</dc:format><dc:type
           rdf:resource="http://purl.org/dc/dcmitype/StillImage" /><dc:title></dc:title></cc:Work></rdf:RDF></metadata><defs
     id="defs19" /><g
     id="g3"><path
       id="path5"
       d="M420.1,425.8c-24.1-24.1-53.1-36.3-86.4-36.3s-62.1,12-85.9,35.8C224.1,449,212,478.1,212,511.7s11.9,62.5,35.3,85.9   c24.1,24.1,53.3,36.3,86.8,36.3c33.6,0,62.5-12.2,85.9-36.3c24.1-24.1,35.9-53,35.3-85.9C455.4,478.1,443.5,449.2,420.1,425.8z    M391.6,570L391.6,570c-15.8,16.4-35.4,24.7-58.4,24.7c-22.4,0-42-8.3-58.4-24.6c-15.7-15.7-24-35.4-24.6-58.4   c0-23,8.3-42.6,24.6-58.4c15.8-15.8,34.6-23.7,55.9-23.7c0.8,0,1.6,0,2.5,0c23,0,42.7,8,58.4,23.7c15.7,15.7,24,35.4,24.6,58.4   C416.3,534.7,408,554.3,391.6,570z" /><path
       id="path7"
       d="M591.6,580.4H668V442.9h-73.6c-6.1-23.9-15.2-46.6-27.1-67.7l51.9-51.9l-97.8-96.8l-50,51c-21.6-12.4-44.7-22.2-68.6-28.9   v-71.7H265.4v71.7c-24.5,6.2-47.6,15.9-68.7,28.9l-50.9-50.9L49,323.4l51.9,51.9c-11.8,21-20.9,43.8-27.1,67.7H-0.7v137.5h76.4   c6.1,22.7,15.5,44.2,27.9,64L49,700l96.8,96.8l56.6-56.6c19.8,11.2,40.9,20,63,26.1v80.2h137.5v-80.2c22-6.1,43.2-14.9,63-26.1   l55.6,56.6l97.8-96.8l-55.6-55.6C576.1,624,585.5,602.5,591.6,580.4z M568,696.3l-52.2,52.2l-53-49.3l-18.3,10.2   c-17.2,9.9-36.6,17.7-57.6,23.2l-20.4,6.1l-0.9,72.5h-73.3v-74.5l-21.4-5.1c-19.7-4.9-39-12.7-57.5-23.2l-18.3-11.2l-49.3,50.3   l-52.1-52.1L143,646l-11.2-18.4c-11.7-19.1-20.4-38.7-26-58.4l-5.1-21.3H32.8v-72.4h66.1l5.1-22.3c6.2-24,14.3-44.3,24.1-60.3   l12.1-20.2l-45.6-46.5l51.2-50.3l44.7,45.6l19.3-12.2c20.9-12.9,41.5-21.7,61.1-25.9l24.3-5.1v-65.2h70.5l0.9,63.2l21.3,5.1   c22.2,6.2,43.1,14.9,62.2,26l18.3,11.2l47.5-46.5l52.2,51.3l-44.7,49.3l11.2,18.3c11.1,19.7,18.9,40.3,23.2,61.2l0,0.1l6.1,22.3   l68.8,0.9v73.4l-73.5,1.9l-5.1,20.3c-6.2,20.9-14.6,40.6-25,58.4l-11.2,18.4L568,696.3z" /><path
       id="path9"
       d="M811.8,126.5c-18.8,0-35.1,6.8-48.5,20.2c-13.4,13.4-20.2,29.8-20.2,48.8c0,19,6.7,35.3,19.9,48.5   c13.6,13.6,30.1,20.5,49,20.5c19,0,35.3-6.9,48.5-20.5c13.6-13.6,20.3-29.9,19.9-48.5c0-19-6.7-35.3-19.9-48.5   C847,133.4,830.6,126.5,811.8,126.5z M844.6,228.4L844.6,228.4c-8.9,9.3-20,13.9-33,13.9c-12.6,0-23.7-4.7-33-13.9   c-8.9-8.9-13.6-20-13.9-33c0-13,4.7-24.1,13.9-33c8.9-8.9,19.5-13.4,31.6-13.4c0.5,0,0.9,0,1.4,0c13,0,24.1,4.5,33,13.4   c8.9,8.9,13.6,20,13.9,33C858.5,208.5,853.8,219.5,844.6,228.4z" /><path
       id="path11"
       d="M959.1,156.6c-3.5-13.5-8.6-26.3-15.3-38.2l29.3-29.3l-55.2-54.7l-28.2,28.8c-12.2-7-25.2-12.5-38.7-16.3V6.4h-77.6v40.5   c-13.8,3.5-26.9,9-38.8,16.3l-28.8-28.8l-54.7,54.7l29.3,29.3c-6.7,11.9-11.8,24.7-15.3,38.2H623v77.6h43.1   c3.5,12.8,8.8,24.9,15.8,36.1l-30.9,31.4l54.7,54.7l32-32c11.2,6.3,23.1,11.3,35.6,14.7v45.3h77.6v-45.3   c12.4-3.4,24.4-8.4,35.6-14.7l31.4,32l55.2-54.7l-31.4-31.4c7-11.5,12.3-23.6,15.8-36.1h43.2v-77.6H959.1z M980.7,216.5l-41.5,1.1   l-2.9,11.5c-3.5,11.8-8.2,22.9-14.1,33l-6.3,10.4l28.4,27.3l-29.5,29.5l-29.9-27.8l-10.3,5.7c-9.7,5.6-20.7,10-32.5,13.1l-11.5,3.5   l-0.5,40.9h-41.4v-42.1l-12.1-2.9c-11.1-2.8-22-7.2-32.5-13.1l-10.4-6.3l-27.9,28.4l-29.4-29.4l27.9-27.9l-6.3-10.4   c-6.6-10.8-11.5-21.9-14.7-33l-2.9-12.1H642V175h37.3l2.9-12.6c3.5-13.6,8.1-25,13.6-34.1l6.8-11.4l-25.7-26.3l28.9-28.4L731,88.1   l10.9-6.9c11.8-7.3,23.4-12.2,34.5-14.7l13.7-2.9V26.9h39.8l0.5,35.7l12,2.9c12.5,3.5,24.3,8.4,35.1,14.7l10.4,6.3l26.8-26.3   l29.5,29L919,117l6.3,10.3c6.2,11.1,10.6,22.7,13.1,34.5l0,0l3.4,12.6l38.9,0.5V216.5z" /><path
       id="path13"
       d="M811.8,735.6c-18.8,0-35.1,6.8-48.5,20.2c-13.4,13.4-20.2,29.8-20.2,48.8c0,19,6.7,35.3,19.9,48.5   c13.6,13.6,30.1,20.5,49,20.5c19,0,35.3-6.9,48.5-20.5c13.6-13.6,20.3-29.9,19.9-48.5c0-19-6.7-35.3-19.9-48.5   C847,742.4,830.6,735.6,811.8,735.6z M844.6,837.5L844.6,837.5c-8.9,9.3-20,13.9-33,13.9c-12.6,0-23.7-4.7-33-13.9   c-8.9-8.9-13.6-20-13.9-33c0-13,4.7-24.1,13.9-33c8.9-8.9,19.5-13.4,31.6-13.4c0.5,0,0.9,0,1.4,0c13,0,24.1,4.5,33,13.4   c8.9,8.9,13.6,20,13.9,33C858.5,817.5,853.8,828.6,844.6,837.5z" /><path
       id="path15"
       d="M943.8,727.5l29.3-29.3l-55.2-54.7l-28.2,28.8c-12.2-7-25.2-12.5-38.7-16.3v-40.5h-77.6v40.5c-13.8,3.5-26.9,9-38.8,16.3   l-28.8-28.8l-54.7,54.7l29.3,29.3c-6.7,11.9-11.8,24.7-15.3,38.2H623v77.6h43.1c3.5,12.8,8.8,24.9,15.8,36.1l-30.9,31.4l54.7,54.7   l32-32c11.2,6.3,23.1,11.3,35.6,14.7v45.3h77.6v-45.3c12.4-3.4,24.4-8.4,35.6-14.7l31.4,32l55.2-54.7l-31.4-31.4   c7-11.5,12.3-23.6,15.8-36.1h43.2v-77.6h-41.5C955.7,752.2,950.5,739.4,943.8,727.5z M980.7,825.5l-41.5,1.1l-2.9,11.5   c-3.5,11.8-8.2,22.9-14.1,33l-6.3,10.4l28.4,27.3l-29.5,29.5l-29.9-27.8l-10.3,5.7c-9.7,5.6-20.7,10-32.5,13.1l-11.5,3.5l-0.5,40.9   h-41.4v-42.1l-12.1-2.9c-11.1-2.8-22-7.2-32.5-13.1l-10.4-6.3l-27.9,28.4l-29.4-29.4l27.9-27.9l-6.3-10.4   c-6.6-10.8-11.5-21.9-14.7-33l-2.9-12.1H642v-40.9h37.3l2.9-12.6c3.5-13.6,8.1-25,13.6-34.1l6.8-11.4l-25.7-26.3l28.9-28.4   l25.2,25.7l10.9-6.9c11.8-7.3,23.4-12.2,34.5-14.7l13.7-2.9V636h39.8l0.5,35.7l12,2.9c12.5,3.5,24.3,8.4,35.1,14.7l10.4,6.3   l26.8-26.3l29.5,29L919,726.1l6.3,10.3c6.2,11.1,10.6,22.7,13.1,34.5l0,0l3.4,12.6l38.9,0.5V825.5z" /></g></svg>