<?xml version="1.0" encoding="UTF-8" standalone="no"?>
<svg
   xmlns:dc="http://purl.org/dc/elements/1.1/"
   xmlns:cc="http://creativecommons.org/ns#"
   xmlns:rdf="http://www.w3.org/1999/02/22-rdf-syntax-ns#"
   xmlns:svg="http://www.w3.org/2000/svg"
   xmlns="http://www.w3.org/2000/svg"
   version="1.1"
   id="svg2"
   x="0px"
   y="0px"
   viewBox="0 0 1017.7 1017.7"
   style="enable-background:new 0 0 1017.7 1017.7;"
   xml:space="preserve"><metadata
     id="metadata9"><rdf:RDF><cc:Work
         rdf:about=""><dc:format>image/svg+xml</dc:format><dc:type
           rdf:resource="http://purl.org/dc/dcmitype/StillImage" /><dc:title></dc:title></cc:Work></rdf:RDF></metadata><defs
     id="defs7" /><path
     d="M949,224.4c-45.4-61.7-107.7-111-185.4-146.7C686.1,42.2,600.4,24,508.9,23.6c-1,0-1.9,0-2.8,0c-90.5,0-175.2,18-251.9,53.6  C176.4,113.2,114.1,163,68.7,225C23.1,287.4,0,356.3,0,429.7c0,63.6,17.3,123.9,51.3,179.1l0.1,0.1c33.5,52.6,79.1,98,135.6,134.9  c-3.1,14.3-7.1,27.9-11.9,40.5c-5.5,14.4-10.6,26.5-15.1,35.8c-4.5,8.6-10.4,18.8-17.5,30.3c-7.7,11.4-13.5,19.2-17.1,23.3  c-4.2,4.7-10.5,12.4-19.4,23.8l-0.2,0.2c-10.5,14.4-14.7,19.6-16.4,21.5l-0.3,0.4l-12.3,17.1l-0.2,0.2c-1.9,2.8-4.9,7.3-3.9,12.2  c-0.1,0.5-0.2,1.3-0.5,2.7c-0.8,4.2-0.9,7.5-0.2,10.3v0.6l0.2,0.9c1.7,8.5,5.6,15.6,11.6,21.3c6.3,6,13.4,9.1,21.1,9.1h3.7l0.7-0.1  c24.9-3.7,46.9-8.7,65.2-14.7c97-26.6,183.3-76.4,256.7-148.1c26.7,2.7,52.9,4.1,77.8,4.1c91.5,0,177.2-18.2,254.7-54.1  c77.7-35.3,140.1-84.9,185.5-147.3c45.6-62,68.7-130.7,68.7-204.1C1017.7,356.3,994.6,287.2,949,224.4z M366.2,814.9  c-39.1,44.1-114.1,83.6-223,117.7l56.5-78.7l45.8-123l-33.6-24c-53.4-37.6-93.5-79.3-119.5-123.9c-27.7-47.3-41.8-97.4-41.8-148.9  c0-63,20.6-122.9,61.3-178.1c40.9-55.6,97-100.2,166.6-132.8c69.8-32.6,145.9-49.2,226.3-49.2c87,0,165.8,16.2,234.3,48.1l0.1,0  c65.6,29.6,120.6,74.2,163.5,132.7C945.4,313.8,967,373.7,967,433c0,62.2-21.3,122.5-63.3,179.2c-35.6,48.2-93.7,91-172.6,127.2  c-65.8,30.4-140,45.9-220.3,45.9c-18.9,0-45.1-1.8-78-5.5l-31.5-3.9L366.2,814.9z"
     id="path3" /></svg>