<?xml version="1.0" encoding="UTF-8" standalone="no"?>
<svg
   xmlns:dc="http://purl.org/dc/elements/1.1/"
   xmlns:cc="http://creativecommons.org/ns#"
   xmlns:rdf="http://www.w3.org/1999/02/22-rdf-syntax-ns#"
   xmlns:svg="http://www.w3.org/2000/svg"
   xmlns="http://www.w3.org/2000/svg"
   xml:space="preserve"
   style="enable-background:new 0 0 1022 1022;"
   viewBox="0 0 1022 1022"
   y="0px"
   x="0px"
   id="svg2"
   version="1.1"><metadata
     id="metadata13"><rdf:RDF><cc:Work
         rdf:about=""><dc:format>image/svg+xml</dc:format><dc:type
           rdf:resource="http://purl.org/dc/dcmitype/StillImage" /><dc:title></dc:title></cc:Work></rdf:RDF></metadata><defs
     id="defs11" /><g
     id="g3"><path
       id="path5"
       d="M979.3,389.7l-0.1-0.2c-29.4-44.8-69.2-82.9-118.3-113.2L837,261.6l7.5,27.1c8.3,30,12.6,60.7,12.6,91.4l0,0.1   c0.6,53.4-11.4,104.7-35.8,152.5l-0.1,0.1c-23.8,47.9-58.8,90.8-103.9,127.3c-42.1,33.8-90.5,60.1-144,78.1   c-53.6,18-110.4,27.2-168.8,27.2h-0.7l-0.7,0.1c-6.2,0.8-18.4,2.6-37.3,5.6l-27.1,4.3l22.6,15.6c64.6,44.6,150.9,69.9,256.3,75.2   c5.8,0.5,12,0.7,18.4,0.7c22.2,0,48.6-3,78.5-8.8c47.1,36.1,99.1,62.2,154.5,77.6c20.3,6.2,36.8,9.6,50.4,10.4l0.3,0h0.3   c7.3,0,14-2.5,19.3-7.2l0.2-0.2c5.8-5.4,9.3-11.9,10.4-19.4l1.5-6.8l-1.7-5.7l-1-4.4l-3.5-11.5h-2.5c-0.4-0.6-0.8-1.1-1.3-1.7   c-0.1-0.1-0.2-0.4-0.4-0.7l-0.7-1.6l-3.5-3.9c-1.5-2.3-4.7-6.3-13.1-15.7c-6.6-7.4-11.3-13.1-14-17.1c-3-4.5-7.2-10.5-12.5-17.8   c-5-7.6-9.4-15.3-13.1-22.9c-2.7-6-5.3-12.3-7.7-18.6c43.7-29.5,79-65.6,105-107.4l0.1-0.1c26.9-44.4,40.5-93,40.5-144.4   C1022.7,485.9,1008.3,435.7,979.3,389.7z M851.1,751.6l-21.2,13.8l-4,31.2l12.6,31.7l49.6,67l-2.2-0.6l-45.7-20.5l-49.1-29.5   l-51-35.1l-18.2-5.8l-42.1,8.2l-25.9,2.1h-46.1l-50-3.3l-34.5-5.7l40.3-11.7l36.4-11.2l68.5-25l35.4-24.3l33-25.5l24.4-16.9   l39.3-36.8l36.9-51.2l26.6-44.4l14.3-34.2l13.4-34.4l8.3-44l2-45.4v-32.1l15.6,15.8l18.1,24.3L952,438l19.3,49.2l5.7,39v47.2   l-19.1,53l-29,54.7l-41.1,45.7L851.1,751.6z" /><path
       id="path7"
       d="M398.6,699.6c71.2,0,138.6-14.1,200.3-42c60.7-27.3,109.4-65,144.7-112.2c35.6-47.6,53.6-100.6,53.6-157.5   c0-56.2-18-109.1-53.6-157.5c-35.3-48-84.1-86.1-145.2-113.4C537.6,89.8,470.4,76,398.6,76c-71.2,0-138.1,14-198.8,41.5   c-61,27.7-110,65.6-145.6,112.8C18.2,278.6,0,331.6,0,387.8l0,0.2c0.7,49.2,14.7,95.6,41.6,137.8C67,566.2,101.8,600.6,145,628.1   c-2.7,9.2-5.8,18-9.3,26.3l-0.2,0.4l-0.1,0.4c-3.7,11.1-7.2,19.8-10.2,26c-3.8,6.4-8.7,13.9-14.4,22.4l-0.2,0.2l-0.2,0.3   c-6.3,10.5-9.8,15.3-11.6,17.6c-2.9,3.5-8,9.4-15.1,17.3l-0.2,0.3l-0.2,0.3c-4.5,5.7-8.7,10.7-12.5,15l-0.5,0.6l-9.6,14.2l-0.1,0.3   c-2,3.3-3.3,6.2-3.5,9.3c-0.1,0.3-0.2,0.9-0.6,2.1l-0.1,0.4l-0.1,0.4c-0.5,2.2-1.6,7.2,0.4,11.9c1.9,7.4,5.4,13.5,10.5,18.1   c5.7,5.2,12.1,7.9,18.9,7.9h2.8l0.8-0.1c19.8-3,37.1-6.9,51.6-11.5c79.2-24.9,146.2-62.6,199.2-112.1   C360.3,698.3,379.9,699.6,398.6,699.6z M286.7,670c-26.7,28.4-77.6,55.3-151.4,80l35.3-47.1l35.5-96.2L174,585.1   c-46.3-31.4-76.7-60-90.4-85l-0.2-0.3C61.9,463.3,51,426.7,51,391.2c0.6-46.2,16.3-89.9,46.7-129.9c30.7-39.1,73.3-71.2,126.7-95.5   l0.1,0c52.2-24.4,109.8-36.7,171.2-36.7h0c66.1,0,126.1,11.6,178.3,34.6c49.4,22.1,90.9,54.9,123.6,97.7   c32.9,42.9,49.7,86.2,49.7,128.6c-0.6,46.1-17,90.2-48.7,131c-26.7,34.6-70.6,65.6-130.6,92.1l-0.1,0.1   c-50.3,22.9-106.5,34.5-167.3,34.5c-14.8,0-34.9-1.5-59.7-4.4l-26.5-2.8L286.7,670z" /></g></svg>