<?xml version="1.0" encoding="UTF-8" standalone="no"?>
<svg
   xmlns:dc="http://purl.org/dc/elements/1.1/"
   xmlns:cc="http://creativecommons.org/ns#"
   xmlns:rdf="http://www.w3.org/1999/02/22-rdf-syntax-ns#"
   xmlns:svg="http://www.w3.org/2000/svg"
   xmlns="http://www.w3.org/2000/svg"
   id="svg2"
   viewBox="0 -143 1000 1000"
   version="1.1">
  <metadata
     id="metadata12">
    <rdf:RDF>
      <cc:Work
         rdf:about="">
        <dc:format>image/svg+xml</dc:format>
        <dc:type
           rdf:resource="http://purl.org/dc/dcmitype/StillImage" />
        <dc:title></dc:title>
      </cc:Work>
    </rdf:RDF>
  </metadata>
  <defs
     id="defs10" />
  <g
     id="g4"
     transform="matrix(1.0964907,0,0,-1.0964907,-59.210367,901.9561)">
    <path
       style="fill:currentColor"
       id="path6"
       d="m 570.8,818.1 q 19.9502,22.8008 19.9502,53.2002 0,34.2002 -23.75,57.9502 -23.75,23.75 -57.4746,23.75 -33.7256,0 -57.4756,-23.75 -23.75,-23.75 -23.75,-57.9502 0,-30.3994 20.9004,-53.2002 Q 308.5994,796.2504 213.5994,687 119.5496,577.75 119.5496,432.4 q 0,-161.5 114,-276.45 Q 348.4996,41 509.9996,41 q 161.5,0 275.975,114.95 114.476,114.95 114.476,276.45 0,145.35 -94.0498,254.6 -94.0508,109.25 -235.601,131.1 l 0,0 z m -61.275,102.6 q 20.4248,0 34.6748,-14.25 14.25,-14.25 14.25,-35.1504 0,-19.9502 -14.25,-34.2002 -14.25,-14.25 -34.2002,-14.25 -19.9502,0 -34.2002,14.25 -14.25,14.25 -15.2002,34.2002 0,19.9502 15.2002,35.1504 13.2998,14.25 33.7256,14.25 z m 0,-846.45 q -147.726,0 -253.176,104.5 -104.5,104.5 -104.5,252.7 0,148.2 104.5,253.649 104.5,104.5 253.65,105.45 148.2,0 252.7,-105.45 104.5,-104.5 105.45,-252.699 0,-148.2 -105.45,-253.65 Q 657.249,74.25 509.524,74.25 Z M 314.3,236.7 579.35,362.099 704.75,627.15 438.75,502.7 Z M 456.8,461.85 539.4504,379.2006 382.7004,305.1 Z M 562.25,402 478.6504,485.5996 636.3494,558.75 Z" />
  </g>
</svg>
