<?xml version="1.0" encoding="UTF-8" standalone="no"?>
<svg
   xmlns:dc="http://purl.org/dc/elements/1.1/"
   xmlns:cc="http://creativecommons.org/ns#"
   xmlns:rdf="http://www.w3.org/1999/02/22-rdf-syntax-ns#"
   xmlns:svg="http://www.w3.org/2000/svg"
   xmlns="http://www.w3.org/2000/svg"
   version="1.1"
   viewBox="0 -143 1000 1000"
   id="svg2">
  <metadata
     id="metadata12">
    <rdf:RDF>
      <cc:Work
         rdf:about="">
        <dc:format>image/svg+xml</dc:format>
        <dc:type
           rdf:resource="http://purl.org/dc/dcmitype/StillImage" />
        <dc:title></dc:title>
      </cc:Work>
    </rdf:RDF>
  </metadata>
  <defs
     id="defs10" />
  <path
     id="path3334"
     d="M 500.00001,-143 A 500.00021,500.00021 0 0 0 2e-5,357.00001 500.00021,500.00021 0 0 0 500.00001,857 500.00021,500.00021 0 0 0 999.99998,357.00001 500.00021,500.00021 0 0 0 500.00001,-143 Z m 0,55.21427 A 444.78655,444.78655 0 0 1 944.78578,357.00001 444.78655,444.78655 0 0 1 500.00001,801.78573 444.78655,444.78655 0 0 1 55.21429,357.00001 444.78655,444.78655 0 0 1 500.00001,-87.78573 Z"
     style="fill:#5555ff;fill-opacity:1;fill-rule:evenodd;stroke:none;stroke-width:1px;stroke-linecap:butt;stroke-linejoin:miter;stroke-opacity:1" />
  <text
     xml:space="preserve"
     style="font-style:normal;font-weight:normal;font-size:655.05664063px;line-height:125%;font-family:sans-serif;letter-spacing:0px;word-spacing:0px;fill:#5555ff;fill-opacity:1;stroke:none;stroke-width:1px;stroke-linecap:butt;stroke-linejoin:miter;stroke-opacity:1"
     x="313.68628"
     y="599.92749"
     id="text3335"><tspan
       id="tspan3337"
       x="313.68628"
       y="599.92749">?</tspan></text>
</svg>
