<?xml version="1.0" encoding="UTF-8" standalone="no"?>
<svg
   xmlns:dc="http://purl.org/dc/elements/1.1/"
   xmlns:cc="http://creativecommons.org/ns#"
   xmlns:rdf="http://www.w3.org/1999/02/22-rdf-syntax-ns#"
   xmlns:svg="http://www.w3.org/2000/svg"
   xmlns="http://www.w3.org/2000/svg"
   xml:space="preserve"
   style="enable-background:new 0 0 1014 1014;"
   viewBox="0 0 1014 1014"
   y="0px"
   x="0px"
   id="svg2"
   version="1.1"><metadata
     id="metadata9"><rdf:RDF><cc:Work
         rdf:about=""><dc:format>image/svg+xml</dc:format><dc:type
           rdf:resource="http://purl.org/dc/dcmitype/StillImage" /><dc:title></dc:title></cc:Work></rdf:RDF></metadata><defs
     id="defs7" /><path
     id="path3"
     d="M956.3,806.5c-3.2-15.1-10.2-27.3-20.7-36.2l-0.6-0.5l-2.5-1.2L777.1,662.8c-19.8-13-39.6-19.5-59-19.5  c-19.7,0-35.8,5.3-47.8,15.8l-1.1,0.9l-1.2,2.4c-4.5,4.4-13.9,12.7-28,24.8c-8.5,7.3-16.8,10.9-25.6,10.9  c-10.9,0-22.8-5.8-35.3-17.2c-13.4-12.7-49.6-55.4-107.4-126.8c-58-71.7-100.9-126.1-127.3-161.8c-8.3-11.4-11.8-22.1-10.6-31.7  c1.3-9.4,10-25.6,44.4-49.1l5.5-3.3l0.3-0.2c32.2-24.3,41-56.5,26.1-95.6c-14.4-38.2-40.7-95.2-78.1-169.3  C317.7,14.5,295.7,0.1,266.3,0c-1.3,0-2.7,0-4,0c-40.7,0-76.8,11-107.1,32.7l-7.5,5.4C86.8,80.3,56,131,56,188.7  c0,52.7,20.4,120.2,60.7,200.4c40,79.6,100.8,174.4,180.6,281.5C376,777.4,461.7,862,552,922c45.2,30.4,85.9,53.5,121.1,68.7  c35.7,15.4,66.8,23.3,92.5,23.3c35.6,0,71-16.6,105.3-49.5c35-32.1,61-64.4,77.1-96l0.2-0.4l0.1-0.4  C957.6,842.5,960.2,822.4,956.3,806.5z M902.2,844.8l-0.1,0.2c-13.3,26.5-33.9,53.4-61.3,79.7c-26.6,25.6-51.9,38.6-75.1,38.6  c-41-0.7-104.1-29.2-187.5-84.8c-84-55.9-164.9-135.9-240.4-237.8c-153.3-205.4-231-357.4-231-452c0-39.9,23.3-76.1,69.4-107.7  l0.1-0.1l8.7-6.5c22.4-15.6,49.7-23.5,81-23.5c7.7,0.6,14.7,5.5,21.2,14.9c35.7,73.5,61,129.2,75.2,165.5c6,15.6,3.4,26.7-8.1,34.9  l-5.3,3.2l-0.2,0.1c-39,26.2-61.1,54-65.7,82.5c-3.9,24.2,2.7,48.1,19.7,71.3c25.9,34.5,69.2,89.1,128.8,162.4  c60.5,74.4,97.5,117.4,113.1,131.5c18.4,17.6,39.9,27.6,64.1,30c3.2,0.3,6.3,0.5,9.4,0.5c20.7,0,39.1-6.9,54.8-20.6  c12.8-11.4,23.3-21.1,31.2-29c3.8-2.6,8.3-3.8,13.9-3.8c9.3,0,19.6,3.9,30.6,11.7l0.2,0.1c19.3,12.9,71.1,47.6,154,103.4  C908,814.6,913.2,824.3,902.2,844.8z" /></svg>