<?xml version="1.0" encoding="UTF-8" standalone="no"?>
<svg
   xmlns:dc="http://purl.org/dc/elements/1.1/"
   xmlns:cc="http://creativecommons.org/ns#"
   xmlns:rdf="http://www.w3.org/1999/02/22-rdf-syntax-ns#"
   xmlns:svg="http://www.w3.org/2000/svg"
   xmlns="http://www.w3.org/2000/svg"
   xml:space="preserve"
   style="enable-background:new 0 0 1013.2 1013.2;"
   viewBox="0 0 1013.2 1013.2"
   y="0px"
   x="0px"
   id="svg2"
   version="1.1"><metadata
     id="metadata17"><rdf:RDF><cc:Work
         rdf:about=""><dc:format>image/svg+xml</dc:format><dc:type
           rdf:resource="http://purl.org/dc/dcmitype/StillImage" /><dc:title></dc:title></cc:Work></rdf:RDF></metadata><defs
     id="defs15" /><g
     id="g3"><path
       id="path5"
       d="M753.4,723.3c8.4,8,18.7,12.1,30.5,12.1h75.7c11.9,0,22-4.1,30.1-12.2c8.1-8.1,12.2-18.2,12.2-30.1v-2.2   c0-11.9-4.1-22-12.2-30.1c-8.1-8.1-18.2-12.2-30.1-12.2h-75.7c-11.8,0-22,4.1-30.5,12.1c-8.5,8.1-12.9,18.3-12.9,30.2v2.2   C740.5,705,744.9,715.2,753.4,723.3z" /><rect
       id="rect7"
       height="51"
       width="234.8"
       y="574.1"
       x="111.4" /><rect
       id="rect9"
       height="50"
       width="382.9"
       y="685.4"
       x="111.4" /><path
       id="path11"
       d="M995.2,184.8l-0.1-0.2c-12-12-26.7-18.1-43.6-18.1H61.7c-16.9,0-31.5,6.1-43.6,18.1C6.1,196.7,0,211.7,0,229.3V785   c0,16.9,6.1,31.5,18.1,43.6c12,12,26.7,18.1,43.6,18.1h889.7c16.9,0,31.5-6.1,43.6-18.1c12-12,18.1-26.7,18.1-43.6V229.3   C1013.2,212.5,1007.1,197.5,995.2,184.8z M50,439.1h913.3V785c0,8.6-3.2,11.8-11.8,11.8H61.7c-8.6,0-11.8-3.2-11.8-11.8V439.1z    M963.2,327.8v61.4H50v-61.4H963.2z M61.7,217.5h889.7c8.6,0,11.8,3.2,11.8,11.8v48.5H50v-48.5C50,220.7,53.1,217.5,61.7,217.5z" /></g></svg>