<?xml version="1.0" encoding="UTF-8" standalone="no"?>
<svg
   xmlns:dc="http://purl.org/dc/elements/1.1/"
   xmlns:cc="http://creativecommons.org/ns#"
   xmlns:rdf="http://www.w3.org/1999/02/22-rdf-syntax-ns#"
   xmlns:svg="http://www.w3.org/2000/svg"
   xmlns="http://www.w3.org/2000/svg"
   id="svg2"
   viewBox="0 -143 1000 1000"
   version="1.1">
  <metadata
     id="metadata12">
    <rdf:RDF>
      <cc:Work
         rdf:about="">
        <dc:format>image/svg+xml</dc:format>
        <dc:type
           rdf:resource="http://purl.org/dc/dcmitype/StillImage" />
        <dc:title></dc:title>
      </cc:Work>
    </rdf:RDF>
  </metadata>
  <defs
     id="defs10" />
  <g
     id="g4"
     transform="matrix(1.1682243,0,0,-1.1682243,-70.093458,946.36916)">
    <path
       style="fill:currentColor"
       id="path6"
       d="m 779,230 0,557 63,62 -25,24 -60,-60 -560,0 0,103 -34,0 0,-103 -103,0 0,-35 103,0 0,-582 582,0 0,-103 34,0 0,103 137,0 0,34 -137,0 0,0 0,0 z m -56,548 -526,-524 0,524 526,0 z m -502,-548 524,523 0,-523 -524,0 z" />
  </g>
</svg>
