<?xml version="1.0" encoding="utf-8"?>
<!-- Generator: Adobe Illustrator 21.1.0, SVG Export Plug-In . SVG Version: 6.00 Build 0)  -->
<svg version="1.1" id="Layer_1" xmlns="http://www.w3.org/2000/svg" xmlns:xlink="http://www.w3.org/1999/xlink" x="0px" y="0px"
	 viewBox="0 0 1000 1000" style="enable-background:new 0 0 1000 1000;" xml:space="preserve">
<g>
	<path d="M999,478H781.8V351.3h0.2V324v-43L502.9,1.9L501,3.8V0h-50.5l0,0h-400H0v50.5v898.9V998v2h731.2H781h0.8V846H999V478z
		 M501,71.5l229.2,229.2H501V71.5z M731.2,949.5H50.5v-899h400v250.2V328v23.3h280.7V478H307v368h424.2V949.5z M948.4,794H357.6V530
		h590.9L948.4,794L948.4,794z"/>
	<g>
		<path d="M529.5,693.3l0.2,0.7c0.3,18.7-5.4,33.6-17.2,44.6c-11.8,11-28.1,16.5-48.9,16.5c-21,0-38-6.7-51-20.2
			c-13.1-13.5-19.6-30.8-19.6-52v-34.5c0-21.1,6.4-38.4,19.1-52c12.7-13.5,29.3-20.3,49.7-20.3c21.5,0,38.3,5.5,50.4,16.6
			c12.1,11,18,26.1,17.7,45.1l-0.2,0.7h-33.9c0-11.5-2.7-20.3-8.2-26.4c-5.5-6.1-14.1-9.1-25.7-9.1c-10.4,0-18.7,4.2-24.9,12.7
			c-6.1,8.5-9.2,19.3-9.2,32.4v34.7c0,13.3,3.2,24.2,9.7,32.7c6.5,8.5,15.2,12.7,26.2,12.7c10.9,0,19-2.9,24.2-8.8
			c5.2-5.9,7.8-14.6,7.8-26.1H529.5z"/>
		<path d="M683.8,707.2c0-6.7-2.4-12.1-7.1-16.1c-4.7-4.1-13-7.9-24.9-11.5c-20.7-6-36.4-13.1-47-21.3
			c-10.6-8.2-15.9-19.4-15.9-33.7c0-14.3,6.1-25.9,18.2-35c12.2-9,27.7-13.6,46.6-13.6c19.1,0,34.7,5.1,46.7,15.2
			c12,10.2,17.8,22.7,17.5,37.6l-0.2,0.7h-33.8c0-8-2.7-14.6-8.1-19.5c-5.4-5-12.9-7.5-22.6-7.5c-9.3,0-16.5,2.1-21.6,6.2
			c-5.1,4.1-7.6,9.4-7.6,15.9c0,5.9,2.7,10.7,8.2,14.5c5.5,3.8,14.9,7.8,28.3,12c19.2,5.3,33.7,12.4,43.6,21.2
			c9.9,8.8,14.8,20.3,14.8,34.5c0,14.9-5.9,26.7-17.6,35.3c-11.8,8.6-27.3,12.9-46.6,12.9c-19,0-35.5-4.9-49.6-14.6
			c-14.1-9.8-21-23.4-20.6-41.1l0.2-0.7h33.9c0,10.4,3.2,17.9,9.5,22.8c6.3,4.8,15.2,7.2,26.5,7.2c9.5,0,16.7-2,21.8-5.9
			C681.3,719,683.8,713.7,683.8,707.2z"/>
		<path d="M839.4,706.4l2.2,9.4h0.7l2-9.2l37.9-128H919l-59.2,174H824l-59-174h36.8L839.4,706.4z"/>
	</g>
</g>
</svg>
