<?xml version="1.0" encoding="utf-8"?>
<!-- Generator: Adobe Illustrator 21.1.0, SVG Export Plug-In . SVG Version: 6.00 Build 0)  -->
<svg version="1.1"
	 id="svg2" xmlns:cc="http://creativecommons.org/ns#" xmlns:dc="http://purl.org/dc/elements/1.1/" xmlns:rdf="http://www.w3.org/1999/02/22-rdf-syntax-ns#" xmlns:svg="http://www.w3.org/2000/svg"
	 xmlns="http://www.w3.org/2000/svg" xmlns:xlink="http://www.w3.org/1999/xlink" x="0px" y="0px" viewBox="0 0 1024.8 1024.8"
	 style="enable-background:new 0 0 1024.8 1024.8;" xml:space="preserve">
<g>
	<rect x="251.8" y="798.2" width="122.3" height="49.9"/>
	<rect x="107.9" y="798.2" width="122.3" height="49.9"/>
	<rect x="682.4" y="798.2" width="122.3" height="49.9"/>
	<rect x="826.3" y="798.2" width="122.3" height="49.9"/>
	<path d="M518,817.4v-19.2h-11.4c-20.1-40.5-32.6-86.1-37.1-135.8l92.2,135.8h-23.3v49.9h122.3v-49.9h-37.6L485.2,594.5l539.6,4.3
		l-43.2-44.7c-6.6-6.6-16.1-14.7-28.3-24c-12.7-10.4-37-24.1-74.4-41.9c-37.1-17.6-76.3-29.8-116.5-36.3
		c-13.4-2.2-27.9-3.3-43.3-3.3c-30.6,0-65.7,4.4-104.4,13c-56.8,13.2-113.3,39-168,76.8l-88.1-130.2c11.2-10.2,20.5-22,27.7-35.1
		c17.2-32.2,20.5-66.4,9.6-101.6c-10.8-35.2-32.7-61.7-64.8-78.9c-19.7-10.6-40.3-15.9-61.1-15.9c-13.1,0-26.5,2.1-40,6.3
		c-34.8,10.8-61.2,32.7-78.4,64.8c-17.2,32.2-20.6,66.2-10.1,101c10.5,34.8,32.1,61.2,64.4,78.5c20.6,10.7,41.8,16.2,63,16.2
		c15.3,0,30.8-2.8,46.3-8.4l74,107.4H264.5c-6.7-42.4-29.8-74.7-69-96.1c-19.7-10.6-40.3-15.9-61.1-15.9c-13.1,0-26.5,2.1-40,6.3
		c-34.8,10.8-61.2,32.7-78.4,64.8C-1.1,533.7-4.5,567.8,5.9,603c10.5,35.2,32.1,61.8,64.3,79c19.7,10.6,40.3,15.9,61.3,15.9
		c13.2,0,26.7-2.1,40.3-6.3c35.2-10.8,61.7-32.7,78.9-64.9c5.8-10.9,9.9-22.4,12.4-34.4l154.6,1c-2.3,75.8,9.3,144.6,34.7,204.9
		h-56.9v49.9H518v-18.1 M229.6,382.9c-20.4-10.9-33.5-26.7-40.1-48.4c-6.6-21.7-4.5-42.2,6.4-62.6c10.9-20.4,26.7-33.5,48.4-40.1
		c8.1-2.5,16.2-3.7,24.1-3.7c13,0,25.9,3.4,38.5,10.1c20.4,10.9,33.5,26.7,40.1,48.4c6.6,21.7,4.5,42.2-6.4,62.6
		c-10.9,20.4-26.7,33.5-48.4,40.1c-8.1,2.5-16.2,3.7-24.1,3.7C255.1,393,242.2,389.6,229.6,382.9z M885.2,546.5l-350.4-2.8
		c59.8-30.6,118.9-46.1,176.1-46.1c55,0,109.9,14.4,163,42.7C877.7,542.3,881.5,544.3,885.2,546.5z M60,525.5
		c11.2-20.4,27.2-33.5,48.9-40.1c8.3-2.5,16.6-3.8,24.6-3.8c12.8,0,25.6,3.2,38,9.6c20.4,11.2,33.5,27.2,40.1,48.9
		c6.6,21.7,4.7,42.2-5.9,62.6c-11.2,20.4-27.2,33.5-48.9,40.1c-8.1,2.5-16.2,3.7-24.1,3.7c-13,0-25.9-3.4-38.5-10.1
		c-20.4-10.9-33.5-26.7-40.1-48.4C47.5,566.4,49.4,545.9,60,525.5z"/>
</g>
</svg>
