<?xml version="1.0" encoding="UTF-8" standalone="no"?>
<svg
   xmlns:dc="http://purl.org/dc/elements/1.1/"
   xmlns:cc="http://creativecommons.org/ns#"
   xmlns:rdf="http://www.w3.org/1999/02/22-rdf-syntax-ns#"
   xmlns:svg="http://www.w3.org/2000/svg"
   xmlns="http://www.w3.org/2000/svg"
   xml:space="preserve"
   style="enable-background:new 0 0 1018 1018;"
   viewBox="0 0 1018 1018"
   y="0px"
   x="0px"
   id="svg2"
   version="1.1"><metadata
     id="metadata23"><rdf:RDF><cc:Work
         rdf:about=""><dc:format>image/svg+xml</dc:format><dc:type
           rdf:resource="http://purl.org/dc/dcmitype/StillImage" /><dc:title></dc:title></cc:Work></rdf:RDF></metadata><defs
     id="defs21" /><g
     id="g3"><path
       id="path5"
       d="M755,590.8c0,21.7,7.9,40.6,23.6,56.3c15,15.7,34.3,23.7,57.4,23.7c21.8,0,40.4-8,55.4-23.7c15.6-15.7,23.6-34.6,23.6-56.3   s-7.9-40.6-23.6-56.3c-15-15.7-33.8-23.7-55.9-23.7c-22,0-41.2,8-56.9,23.6S755,569.1,755,590.8z M860.2,614.9l-0.3,0.2l-0.3,0.3   c-7,7-14.9,10.4-24.1,10.4c-9.4,0-17.5-3.3-24.9-10.1c-7-6.5-10.1-14.1-9.6-23.4l0-0.2v-0.3c0-10.2,3-18.2,9.3-24.5   c7.6-7.1,15.7-10.5,24.8-10.5c9.6,0,17.7,3.4,24.6,10.4c7,7,10.4,15,10.4,24.6C870,601.8,866.8,609.3,860.2,614.9z" /><path
       id="path7"
       d="M731,468.8c21.7,0,40.7-8,56.4-23.6c15.7-15.7,23.6-34.8,23.6-56.9c0-22.1-8-40.9-23.7-55.9   c-15.7-15.6-34.6-23.6-56.3-23.6c-21.7,0-40.7,8-56.4,23.6C659,348.1,651,367.1,651,388.8c0,21.7,7.9,40.6,23.6,56.3   C689.6,460.8,708.6,468.8,731,468.8z M754.6,364.1c7,7,10.4,15,10.4,24.6c0,10.1-3.3,18.1-10.1,24.4c-7,6.5-15,9.6-24.4,9.6   c-9.3,0-17.3-3.3-24.3-10c-6.9-6.6-10.2-14.5-10.2-24c0-10.1,3.3-18.1,10.1-24.4c7-6.5,14.4-9.7,22.5-9.7c0.6,0,1.3,0,1.9,0.1   l0.3,0h0.3C740.6,354.8,748.3,357.8,754.6,364.1z" /><path
       id="path9"
       d="M307,440.8c21.7,0,40.7-8,56.4-23.6c15.7-15.7,23.6-34.6,23.6-56.4c0-21.6-7.9-40.9-23.5-57.2l-0.1-0.2l-0.2-0.1   c-15.7-14.9-34.6-22.5-56.2-22.5c-21.6,0-40.5,7.6-56.2,22.5l-0.2,0.2c-15.7,15.7-23.6,35-23.6,57.4c0,21.7,7.9,40.6,23.6,56.3   C265.6,432.8,284.6,440.8,307,440.8z M331.8,336.3c6.7,6.8,9.8,14.7,9.3,24l0,0.2v0.2c0,10.2-3,18.2-9.2,24.5   c-7.6,7.1-15.9,10.5-25.3,10.5c-9.3,0-17.2-3.4-24.1-10.4c-7-7-10.4-15-10.4-24.6c0-10.1,3.3-18.1,10.1-24.4   c7-6.5,14.4-9.7,22.5-9.7c0.6,0,1.3,0,1.9,0.1l0.3,0h0.3C316.7,326.8,324.8,329.9,331.8,336.3z" /><path
       id="path11"
       d="M132,590.8c0,21.7,7.9,40.6,23.6,56.3c15,15.7,34,23.7,56.4,23.7c21.7,0,40.7-8,56.4-23.6c15.7-15.7,23.6-34.6,23.6-56.4   s-8-40.7-23.6-56.4c-15.7-15.7-34.6-23.6-56.4-23.6c-21.7,0-40.7,8-56.4,23.6C140,550.1,132,569.1,132,590.8z M235.4,566.9l0.1,0.1   l0.1,0.1c7.1,7,10.8,15.2,11.4,24.9c-0.1,9.7-3.5,17.1-10.6,22.7L236,615l-0.4,0.4c-7,7-14.9,10.4-24.1,10.4   c-9.3,0-17.3-3.3-24.3-10c-6.9-6.6-10.2-14.5-10.2-24c0-10.1,3.3-18.1,10.1-24.4c7.7-7.1,15.8-10.6,24.9-10.6   C221.5,556.8,229.1,560.1,235.4,566.9z" /><path
       id="path13"
       d="M530,349.8c21.7,0,40.7-8,56.4-23.6c15.7-15.7,23.6-34.6,23.6-56.4s-8-40.7-23.6-56.4c-15.7-15.7-34.6-23.6-56.4-23.6   c-21.7,0-40.7,8-56.4,23.6C458,229.1,450,248.1,450,269.8c0,21.7,7.9,40.6,23.6,56.3C488.6,341.8,507.6,349.8,530,349.8z    M564,269.3l0,0.3v0.3c0,10.3-3.1,18.3-9.4,24.6c-7,7-15,10.4-24.6,10.4c-9.6,0-17.7-3.4-24.6-10.4c-6.8-6.8-9.9-14.7-9.4-24.1   l0-0.2v-0.3c0-10.1,3-17.8,9.1-23.4c7.8-7.2,16-11,25.1-11.6c9.4,0.1,17.4,3.6,24.3,10.7C561.4,252.7,564.5,260.5,564,269.3z" /><path
       id="path15"
       d="M977.3,393.3c-26.3-62.3-62.6-116.8-108-161.9c-45.5-45-100.1-81.4-162.3-108.4c-62.3-26.3-128.7-40-197.5-40.7l-0.6,0   c-68.4,0-134.9,13.5-197.5,40.3c-62.5,27.2-117.3,63.9-162.7,108.9c-45.4,45.1-81.8,99.7-108.4,162.4C13.5,456.4,0,523.1,0,591.8   c0,177,11,280.5,33.6,316.4l0.1,0.2c12.1,18.1,25.8,27.3,40.8,27.3h868.9c17.2,0,30.9-7.3,40.8-21.7l0.1-0.1   c22.7-34.4,33.7-139.8,33.7-322.1C1018,523.1,1004.3,456.3,977.3,393.3z M508,129.8c61.4,0.3,121.1,12.5,177.5,36.3   c56.4,23.9,105.6,56.6,146.1,97c40.4,41.2,73.1,90.4,97.1,146.2c23.7,56.3,35.9,116,36.3,177.5c-0.5,209.8-11.9,272.1-21.4,287.4   c-5,7.8-12.5,11.4-23.5,11.4H102.3c-11.8,0-19.6-3.6-24.7-11.4l-0.1-0.1C65.1,855.2,50.2,790.2,50,586.8   c0.1-61.5,12.4-121.2,36.3-177.5c23.8-56.5,56.5-105.7,97-146.1c41.1-40.5,90.4-73.2,146.7-97.1C386.6,142.2,446.5,130,508,129.8z" /><path
       id="path17"
       d="M482.8,798c8,2.1,16.1,3.1,23.9,3.1c0,0,0,0,0,0c15.7,0,31.1-4.2,45.8-12.5l0.2-0.1c20.6-12.5,34.4-31.1,41-55.2   c6-19.6,3.7-39.4-6.7-58.7c-10.6-19.9-21.9-33.8-34.5-42.1l41.3-156.4l4.9-19.5c2.4-6.8-3.2-13.1-11.2-21.2   c-3.7-3.7-8.3-5.6-13.4-5.6c-4.3,0-8.9,1.4-13.6,4.3l-0.1,0.1c-7.3,4.6-12.3,11.7-14.9,21.3l-43.4,165c-16.6,2.4-33.1,9-48.9,19.8   c-17.8,11.9-29.5,27.7-34.7,47.1c-6.6,24.3-3.6,47.5,8.9,68.9C439.8,777.7,458.5,791.7,482.8,798z M481.4,687.1   c7-7,15-10.4,24.6-10.4c10.3,0,18.7,3.4,25.6,10.4c7,7,10.4,15,10.4,24.6c0,10.4-3.4,19.1-10.5,26.8c-6.3,6.3-13.5,9.3-22,9.3   c-0.7,0-1.4,0-2-0.1l-0.2,0H507c-10.4,0-18.8-3.1-25.8-9.5c-6.9-6.9-10.2-15.3-10.2-25.5C471,702.5,474.4,694.1,481.4,687.1z" /></g></svg>