<?xml version="1.0" encoding="UTF-8" standalone="no"?>
<svg
   xmlns:dc="http://purl.org/dc/elements/1.1/"
   xmlns:cc="http://creativecommons.org/ns#"
   xmlns:rdf="http://www.w3.org/1999/02/22-rdf-syntax-ns#"
   xmlns:svg="http://www.w3.org/2000/svg"
   xmlns="http://www.w3.org/2000/svg"
   width="1000"
   height="1000"
   viewBox="0 0 1000 1000"
   id="svg2"
   version="1.1">
  <defs
     id="defs4" />
  <metadata
     id="metadata7">
    <rdf:RDF>
      <cc:Work
         rdf:about="">
        <dc:format>image/svg+xml</dc:format>
        <dc:type
           rdf:resource="http://purl.org/dc/dcmitype/StillImage" />
        <dc:title></dc:title>
      </cc:Work>
    </rdf:RDF>
  </metadata>
  <path
     id="rect4167"
     d="m 155.40428,0 0,91.544924 -155.4043,0 L -2e-5,1000 1000,1000 l 0,-908.455076 -160.47268,0 0,-91.544924 -172.29882,0 0,91.544924 -339.5254,0 L 327.7031,0 155.40428,0 Z m -94.68946,159.28711 878.5684,0 0,772.96875 -878.5684,0 0,-772.96875 z m 114.53711,150.79688 0,70.58789 70.94727,0 0,-70.58789 -70.94727,0 z m 197.63672,0 0,70.58789 70.94531,0 0,-70.58789 -70.94531,0 z m 197.63477,0 0,70.58789 70.94531,0 0,-70.58789 -70.94531,0 z m 197.63476,0 0,70.58789 70.94534,0 0,-70.58789 -70.94534,0 z m -592.90625,202.9414 0,70.58789 70.94727,0 0,-70.58789 -70.94727,0 z m 197.63672,0 0,70.58789 70.94531,0 0,-70.58789 -70.94531,0 z m 197.63477,0 0,70.58789 70.94531,0 0,-70.58789 -70.94531,0 z m 197.63476,0 0,70.58789 70.94534,0 0,-70.58789 -70.94534,0 z m -592.90625,202.94141 0,70.58789 70.94727,0 0,-70.58789 -70.94727,0 z m 197.63672,0 0,70.58789 70.94531,0 0,-70.58789 -70.94531,0 z m 197.63477,0 0,70.58789 70.94531,0 0,-70.58789 -70.94531,0 z m 197.63476,0 0,70.58789 70.94534,0 0,-70.58789 -70.94534,0 z"
     style="color:#000000;clip-rule:nonzero;display:inline;overflow:visible;visibility:visible;opacity:1;isolation:auto;mix-blend-mode:normal;color-interpolation:sRGB;color-interpolation-filters:linearRGB;solid-color:#000000;solid-opacity:1;fill:#000000;fill-opacity:1;fill-rule:nonzero;stroke:none;stroke-width:1;stroke-linecap:butt;stroke-linejoin:miter;stroke-miterlimit:4;stroke-dasharray:none;stroke-dashoffset:0;stroke-opacity:1;color-rendering:auto;image-rendering:auto;shape-rendering:auto;text-rendering:auto;enable-background:accumulate" />
</svg>
