<?xml version="1.0" encoding="utf-8"?>
<!-- Generator: Adobe Illustrator 21.1.0, SVG Export Plug-In . SVG Version: 6.00 Build 0)  -->
<svg version="1.1"
	 id="svg2" xmlns:cc="http://creativecommons.org/ns#" xmlns:dc="http://purl.org/dc/elements/1.1/" xmlns:rdf="http://www.w3.org/1999/02/22-rdf-syntax-ns#" xmlns:svg="http://www.w3.org/2000/svg"
	 xmlns="http://www.w3.org/2000/svg" xmlns:xlink="http://www.w3.org/1999/xlink" x="0px" y="0px" viewBox="0 0 1000 1000"
	 style="enable-background:new 0 0 1000 1000;" xml:space="preserve">
<g>
	<path d="M917.8,541.4C866.2,490.3,803.6,464,731,464h-1.6c-73.1,0-135.8,26.3-187.3,77.4c-52.1,52.1-78.4,115.2-78.4,188.4
		c0,47.9,12.1,93.1,35.8,133.7c23.7,40.5,56.3,73.1,96.8,96.8C636.8,983.9,682,996,729.4,996c73.1,0,136.3-26.3,188.4-77.9
		c52.1-51.6,77.9-114.7,77.4-187.9C995.1,656.6,968.8,593.5,917.8,541.4z M884.5,883.9c-42.9,42.9-94.9,64.5-154.6,64.5
		c-59.7,0-111.7-21.7-154.6-64.5c-42.9-42.9-64.5-94.4-64.5-154.1c0-60.2,21.7-111.7,64.5-154.1c42.9-42.9,94.4-64.5,154.6-64.5
		c60.2,0,111.7,21.7,154.6,64.5s64,94.4,63.6,154.1C948,790,926.4,841.5,884.5,883.9z"/>
	<polygon points="716.6,737 593.1,737 593.1,787.5 716.6,787.5 753.6,787.5 767.1,787.5 767.1,553.6 716.6,553.6 	"/>
</g>
<path d="M393.5,758.3H51.7v-599h706.6v236.4c17.7,1.8,35,4.9,51.7,9.3V91.5H679.5V0H507.2v91.5H287.7V0H115.4v91.5H0V810h402.4
	C398.1,793.2,395.1,775.9,393.5,758.3z"/>
<g>
	<rect x="142" y="252" width="102.2" height="98"/>
	<rect x="356.9" y="252" width="102.2" height="98"/>
	<rect x="573.8" y="252" width="102.2" height="98"/>
	<rect x="142" y="430" width="102.2" height="98"/>
	<rect x="356.9" y="430" width="102.2" height="98"/>
	<rect x="142" y="602" width="102.2" height="98"/>
	<rect x="356.9" y="602" width="102.2" height="98"/>
	<path d="M652.1,430h-78.3v40.9C597.9,454.2,624.1,440.4,652.1,430z"/>
</g>
</svg>
