<?xml version="1.0" encoding="UTF-8" standalone="no"?>
<svg
   xmlns:dc="http://purl.org/dc/elements/1.1/"
   xmlns:cc="http://creativecommons.org/ns#"
   xmlns:rdf="http://www.w3.org/1999/02/22-rdf-syntax-ns#"
   xmlns:svg="http://www.w3.org/2000/svg"
   xmlns="http://www.w3.org/2000/svg"
   xml:space="preserve"
   style="enable-background:new 0 0 101 101;"
   viewBox="0 0 101 101"
   y="0px"
   x="0px"
   id="svg2"
   version="1.1"><metadata
     id="metadata17"><rdf:RDF><cc:Work
         rdf:about=""><dc:format>image/svg+xml</dc:format><dc:type
           rdf:resource="http://purl.org/dc/dcmitype/StillImage" /><dc:title></dc:title></cc:Work></rdf:RDF></metadata><defs
     id="defs15" /><g
     id="g3"><polygon
       id="polygon5"
       points="30.8,25.9 35.3,87.4 40.5,87.1 36.1,25.6  " /><rect
       id="rect7"
       height="61.6"
       width="5.2"
       y="25.6"
       x="48" /><polygon
       id="polygon9"
       points="60.7,87.1 65.9,87.4 70.3,25.8 65,25.5  " /><path
       id="path11"
       d="M70.2,12V8.5c0-2.4-0.9-4.4-2.6-6C65.8,0.8,63.7,0,61.2,0H39.9c-2.4,0-4.6,0.8-6.4,2.5c-1.8,1.7-2.7,3.7-2.7,6V12H9.4v5   h4.5l4.2,75.5c0,2.4,0.9,4.4,2.6,6c1.7,1.7,3.9,2.5,6.4,2.5h47c2.4,0,4.6-0.8,6.3-2.5c1.7-1.7,2.7-3.7,2.8-5.9L87.4,17h4.1v-5H70.2   z M39.9,5h21.4c1,0,1.9,0.3,2.6,1C64.6,6.7,65,7.5,65,8.5V12H36.2V8.5c0-1,0.3-1.8,1-2.5C37.8,5.3,38.8,5,39.9,5z M77.9,92.3v0.1   c0,1-0.3,1.8-1,2.5c-0.7,0.7-1.7,1-2.8,1.1h-47c-1,0-1.9-0.4-2.8-1.1c-0.7-0.6-1-1.4-1-2.4l0-0.3L19.2,17h62.9L77.9,92.3z" /></g></svg>