<?xml version="1.0" encoding="utf-8"?>
<!-- Generator: Adobe Illustrator 21.1.0, SVG Export Plug-In . SVG Version: 6.00 Build 0)  -->
<svg version="1.1" id="Layer_1" xmlns="http://www.w3.org/2000/svg" xmlns:xlink="http://www.w3.org/1999/xlink" x="0px" y="0px"
	 viewBox="0 0 1000 1000" style="enable-background:new 0 0 1000 1000;" xml:space="preserve">
<g>
	<path d="M565.4,144.4V0L0,102.7v794.6L565.4,1000V855.6H1000V144.4H565.4z M515,944.4L44.3,864.2V136.8L515,55.6V944.4z
		 M949.7,803.3H566.9V196.7h382.8V803.3z"/>
	<rect x="613" y="263.4" width="283.4" height="47.9"/>
	<rect x="613" y="401" width="283.4" height="47.9"/>
	<rect x="613" y="538.5" width="283.4" height="47.9"/>
	<rect x="613" y="676.1" width="283.4" height="47.9"/>
	<polygon points="224.3,692.8 266,462.9 312.8,698.7 375.3,704.6 443,345 385.7,345 344.1,610.3 302.4,356.8 239.9,356.8 
		198.3,598.5 167,362.7 109.7,362.7 167,692.8 	"/>
</g>
</svg>
