<?xml version="1.0" encoding="UTF-8" standalone="no"?>
<svg
   xmlns:dc="http://purl.org/dc/elements/1.1/"
   xmlns:cc="http://creativecommons.org/ns#"
   xmlns:rdf="http://www.w3.org/1999/02/22-rdf-syntax-ns#"
   xmlns:svg="http://www.w3.org/2000/svg"
   xmlns="http://www.w3.org/2000/svg"
   xml:space="preserve"
   style="enable-background:new 0 0 1000 1000;"
   viewBox="0 0 1000 1000"
   y="0px"
   x="0px"
   id="icons"
   version="1.1"><metadata
     id="metadata20"><rdf:RDF><cc:Work
         rdf:about=""><dc:format>image/svg+xml</dc:format><dc:type
           rdf:resource="http://purl.org/dc/dcmitype/StillImage" /><dc:title>Icons</dc:title></cc:Work></rdf:RDF></metadata><defs
     id="defs18" /><title
     id="title3">Icons</title><g
     id="g4"><path
       id="path6"
       d="M812.3,0H187.7c-22.3,0-41.1,18.9-41.1,41.4v917.3c0,22.4,18.8,41.4,41.1,41.4h624.5c22.3,0,41.1-18.9,41.1-41.4V41.4   C853.4,18.9,834.6,0,812.3,0z M196.9,915.8V84.2c0-20.4,13.1-33.6,33.4-33.6h542.9c20.3,0,33.4,13.2,33.4,33.6v829.5h-3.5v2.1   c0,20.4-13.1,33.6-33.4,33.6H230.3C210,949.4,196.9,936.2,196.9,915.8z" /><rect
       id="rect8"
       height="47.1"
       width="426.5"
       y="167.7"
       x="292.1" /><rect
       id="rect10"
       height="47.1"
       width="284.5"
       y="296.2"
       x="292.1" /><rect
       id="rect12"
       height="47.1"
       width="351.9"
       y="421.2"
       x="292.1" /><rect
       id="rect14"
       height="47.1"
       width="210"
       y="546.1"
       x="292.1" /></g></svg>