<?xml version="1.0" encoding="UTF-8" standalone="no"?>
<svg
   xmlns:dc="http://purl.org/dc/elements/1.1/"
   xmlns:cc="http://creativecommons.org/ns#"
   xmlns:rdf="http://www.w3.org/1999/02/22-rdf-syntax-ns#"
   xmlns:svg="http://www.w3.org/2000/svg"
   xmlns="http://www.w3.org/2000/svg"
   version="1.1"
   id="svg2"
   viewBox="0 0 1000 1000"
   height="1000"
   width="1000">
  <defs
     id="defs4" />
  <metadata
     id="metadata7">
    <rdf:RDF>
      <cc:Work
         rdf:about="">
        <dc:format>image/svg+xml</dc:format>
        <dc:type
           rdf:resource="http://purl.org/dc/dcmitype/StillImage" />
        <dc:title></dc:title>
      </cc:Work>
    </rdf:RDF>
  </metadata>
  <path
     style="fill:#000000;fill-opacity:1;fill-rule:evenodd;stroke:none;stroke-width:1px;stroke-linecap:butt;stroke-linejoin:miter;stroke-opacity:1"
     d="m 475.79222,0 0,114.76518 c -63.7576,7.96968 -114.56516,28.88885 -152.42123,62.7601 -37.45759,33.47273 -56.18459,74.91453 -56.18459,124.32667 0,34.26971 6.376,63.36053 19.12753,87.26961 12.75152,23.90912 33.07363,44.63227 60.96759,62.16561 27.89394,17.53336 70.73037,35.06625 128.5107,52.59959 l 0,303.64444 c -35.46518,0 -74.11777,-4.9814 -115.95869,-14.9435 -41.44243,-9.96213 -77.10527,-22.1171 -106.99166,-36.46256 l 0,61.56657 c 25.50304,11.95455 59.77127,22.11789 102.80765,30.48606 43.43489,7.9697 83.48206,12.34954 120.1427,13.14652 l 0,138.67571 48.41556,0 0,-141.06271 c 69.73487,-8.76667 124.32974,-29.88637 163.77975,-63.3591 39.45002,-33.47273 59.17059,-76.71019 59.17059,-129.70869 0,-50.20912 -15.93778,-90.85334 -47.81658,-121.93519 -31.8788,-31.08184 -90.25645,-59.77612 -175.13376,-86.07612 l 0,-290.49343 c 70.53185,3.98484 133.89089,18.33197 190.07728,43.03805 L 734.0116,156.60523 C 672.64492,131.50068 602.70932,117.15355 524.20778,113.56717 L 524.20778,0 Z m 0,170.94975 0,270.77141 c -50.20912,-15.14244 -86.66953,-33.67341 -109.38318,-55.59008 -22.71363,-21.91666 -34.07105,-50.00942 -34.07105,-84.27913 0,-33.07425 11.95447,-61.56353 35.86355,-85.47261 24.30759,-23.90912 60.17095,-39.05383 107.59068,-45.42959 z m 48.41556,351.46552 c 54.59244,15.93941 94.43911,35.06744 119.54369,57.3826 25.10454,21.91667 37.66055,49.8089 37.66055,83.68012 0,39.05154 -14.14661,70.93159 -42.43907,95.63765 -27.89394,24.70606 -66.15,39.65026 -114.76517,44.83057 z"
     id="path3334" />
</svg>
