<?xml version="1.0" encoding="UTF-8" standalone="no"?>
<svg
   xmlns:dc="http://purl.org/dc/elements/1.1/"
   xmlns:cc="http://creativecommons.org/ns#"
   xmlns:rdf="http://www.w3.org/1999/02/22-rdf-syntax-ns#"
   xmlns:svg="http://www.w3.org/2000/svg"
   xmlns="http://www.w3.org/2000/svg"
   version="1.1"
   id="svg2"
   viewBox="0 0 1000 1000"
   height="1000"
   width="1000">
  <defs
     id="defs4" />
  <metadata
     id="metadata7">
    <rdf:RDF>
      <cc:Work
         rdf:about="">
        <dc:format>image/svg+xml</dc:format>
        <dc:type
           rdf:resource="http://purl.org/dc/dcmitype/StillImage" />
        <dc:title></dc:title>
      </cc:Work>
    </rdf:RDF>
  </metadata>
  <path
     style="fill:#000000;fill-opacity:1;fill-rule:evenodd;stroke:none;stroke-width:1px;stroke-linecap:butt;stroke-linejoin:miter;stroke-opacity:1"
     d="m 500,1e-5 C 223.85768,1.3e-4 1.3e-4,223.85767 1e-5,500 1.3e-4,776.14232 223.85768,999.99987 500,999.99999 776.14233,999.99988 999.99989,776.14232 999.99999,500 999.99989,223.85767 776.14233,1.1e-4 500,10e-6 Z m 0,55.21425 C 745.64821,55.21471 944.78529,254.35179 944.78579,500 944.78529,745.6482 745.64821,944.78529 500,944.78574 254.35181,944.78529 55.21473,745.64819 55.21428,500 55.21473,254.35181 254.35181,55.21471 500,55.21426 Z m -16.26618,108.81552 0,77.11536 c -42.84131,5.35516 -76.98096,19.41159 -102.41799,42.17105 -25.16926,22.49168 -37.7527,50.3381 -37.7527,83.54012 0,23.0272 4.28431,42.57451 12.85258,58.63999 8.56825,16.06549 22.2235,29.99022 40.96658,41.77158 18.74307,11.78136 47.5266,23.56243 86.35153,35.34379 l 0,204.03098 c -23.83048,0 -49.80272,-3.3472 -77.91732,-10.04115 -27.84686,-6.69396 -51.81016,-14.86137 -71.89203,-24.50066 l 0,41.36907 c 17.13652,8.03275 40.16273,14.8619 69.08062,20.48482 29.18565,5.35516 56.09497,8.29815 80.72873,8.83367 l 0,93.18181 32.53238,0 0,-94.78574 c 46.85768,-5.89068 83.54218,-20.08185 110.05023,-42.57353 26.50807,-22.49168 39.75912,-51.54468 39.75912,-87.15652 0,-33.73754 -10.70924,-61.04804 -32.12989,-81.93318 C 612.525,508.6361 573.2987,489.35525 516.2662,471.68321 l 0,-195.19428 c 47.3932,2.67757 89.9667,12.318 127.72062,28.91901 l 13.25505,-36.14877 C 616.00711,252.39041 569.01456,242.74998 516.2662,240.34015 l 0,-76.31037 -32.53238,0 z m 0,114.86805 0,181.94226 c -33.73753,-10.17482 -58.23676,-22.62653 -73.49897,-37.35323 -15.26222,-14.72669 -22.89372,-33.60335 -22.89372,-56.63055 0,-22.22392 8.03269,-41.36703 24.09817,-57.43251 16.33325,-16.06549 40.43129,-26.24184 72.29452,-30.52597 z m 32.53238,236.1639 c 36.68287,10.71033 63.45746,23.56322 80.32623,38.55769 16.86876,14.72669 25.30565,33.46861 25.30565,56.22805 0,26.24031 -9.50568,47.6618 -28.51652,64.2628 -18.74307,16.601 -44.44887,26.64261 -77.11536,30.12348 l 0,-189.17202 z"
     id="path3334" />
</svg>
