<?xml version="1.0" encoding="UTF-8" standalone="no"?>
<svg
   xmlns:dc="http://purl.org/dc/elements/1.1/"
   xmlns:cc="http://creativecommons.org/ns#"
   xmlns:rdf="http://www.w3.org/1999/02/22-rdf-syntax-ns#"
   xmlns:svg="http://www.w3.org/2000/svg"
   xmlns="http://www.w3.org/2000/svg"
   xml:space="preserve"
   style="enable-background:new 0 0 1000 1000;"
   viewBox="0 0 1000 1000"
   y="0px"
   x="0px"
   id="svg2"
   version="1.1"><metadata
     id="metadata9"><rdf:RDF><cc:Work
         rdf:about=""><dc:format>image/svg+xml</dc:format><dc:type
           rdf:resource="http://purl.org/dc/dcmitype/StillImage" /><dc:title></dc:title></cc:Work></rdf:RDF></metadata><defs
     id="defs7" /><path
     id="path3"
     d="M991.7,254.2l-17.8-17.2c-5.1-5-12.1-6-15.6-2.4L506.6,700.3L40.7,248.5c-3.6-3.5-10.6-2.2-15.5,2.9L8,269.2  c-5,5.1-6,12.1-2.4,15.6L478,743c0.7,1,1.5,2,2.4,2.9l17.8,17.2c0.9,0.9,1.9,1.7,2.9,2.3l0.3,0.3c1.6,1.5,3.7,2.1,6.1,1.9  c2.5,0.2,4.8-0.5,6.3-2.1l0.4-0.5c0.9-0.6,1.8-1.4,2.7-2.3l17.2-17.8c0.8-0.9,1.6-1.8,2.2-2.8l458.3-472.5  C998.1,266.1,996.8,259.1,991.7,254.2z" /></svg>