<?xml version="1.0" encoding="utf-8"?>
<!-- Generator: Adobe Illustrator 21.1.0, SVG Export Plug-In . SVG Version: 6.00 Build 0)  -->
<svg version="1.1"
	 id="svg2" xmlns:cc="http://creativecommons.org/ns#" xmlns:dc="http://purl.org/dc/elements/1.1/" xmlns:rdf="http://www.w3.org/1999/02/22-rdf-syntax-ns#" xmlns:svg="http://www.w3.org/2000/svg"
	 xmlns="http://www.w3.org/2000/svg" xmlns:xlink="http://www.w3.org/1999/xlink" x="0px" y="0px" viewBox="0 0 100 100"
	 style="enable-background:new 0 0 100 100;" xml:space="preserve">
<g id="g3">
	<polygon id="polygon5" points="77.6,94.9 5.1,94.9 5.1,22.3 65.3,22.3 70.3,17.3 5.1,17.3 0,17.3 0,22.3 0,94.9 0,99.9 0,100 
		82.6,100 82.6,99.9 82.7,99.9 82.7,29.1 77.6,34.1 	"/>
	<path id="path7" d="M96.9,3.3c-3.4-3.5-8.6-3.9-11.6-0.9L32.9,54L33,66l12.2,0.6L97.6,15C100.7,11.9,100.4,6.7,96.9,3.3z
		 M92.5,12.8l-49.8,49L37.2,62l0.3-5.4l49.8-49c1.6-1.6,4-1.6,5.5-0.2S94.1,11.3,92.5,12.8z"/>
</g>
</svg>
