<?xml version="1.0" encoding="UTF-8" standalone="no"?>
<svg
   xmlns:dc="http://purl.org/dc/elements/1.1/"
   xmlns:cc="http://creativecommons.org/ns#"
   xmlns:rdf="http://www.w3.org/1999/02/22-rdf-syntax-ns#"
   xmlns:svg="http://www.w3.org/2000/svg"
   xmlns="http://www.w3.org/2000/svg"
   xml:space="preserve"
   style="enable-background:new 0 0 1011 1011;"
   viewBox="0 0 1011 1011"
   y="0px"
   x="0px"
   id="svg2"
   version="1.1"><metadata
     id="metadata9"><rdf:RDF><cc:Work
         rdf:about=""><dc:format>image/svg+xml</dc:format><dc:type
           rdf:resource="http://purl.org/dc/dcmitype/StillImage" /><dc:title></dc:title></cc:Work></rdf:RDF></metadata><defs
     id="defs7" /><path
     id="path3"
     d="M0,180.3v650.4h1011V180.3H0z M333.4,537.8l107,107c17.4,17.4,38.4,26.2,62.6,26.2c1.1,0,2.1,0,3.2-0.1  c25.5,0,47.2-8.8,64.5-26.1l107-108.1L919.9,780H91.1L333.4,537.8z M534.9,607.8c-7.6,7.6-17,11.2-28.8,11.2  c-11.9,0-21.7-3.7-30-11.3L99.3,231h812.4L534.9,607.8z M297.6,502L51.8,747.8V255.1L297.6,502z M713.4,502l246.9-246.9v492.7  L713.4,502z" /></svg>