<?xml version="1.0" encoding="utf-8"?>
<!-- Generator: Adobe Illustrator 21.1.0, SVG Export Plug-In . SVG Version: 6.00 Build 0)  -->
<svg version="1.1"
	 id="svg2" xmlns:cc="http://creativecommons.org/ns#" xmlns:dc="http://purl.org/dc/elements/1.1/" xmlns:rdf="http://www.w3.org/1999/02/22-rdf-syntax-ns#" xmlns:svg="http://www.w3.org/2000/svg"
	 xmlns="http://www.w3.org/2000/svg" xmlns:xlink="http://www.w3.org/1999/xlink" x="0px" y="0px" viewBox="0 0 1010.6 1010.6"
	 style="enable-background:new 0 0 1010.6 1010.6;" xml:space="preserve">
<path d="M0,180.3v650h1010.6v-650H0z M333.2,537.3l107.1,107.1c17.3,17.3,38.3,26.1,62.5,26.1c1.1,0,2.1,0,3.2-0.1
	c25.4,0,47.1-8.8,64.4-26.1l107.1-108.2L920.2,780H90.4L333.2,537.3z M534.8,607.7c-7.6,7.6-17.1,11.3-28.9,11.3
	c-11.9,0-21.8-3.7-30.2-11.4L98.6,230.6H912L534.8,607.7z M297.7,501.8L51.4,748V254.4L297.7,501.8z M712.9,501.8l247.4-247.4v493.7
	L712.9,501.8z"/>
</svg>
