<?xml version="1.0" encoding="UTF-8" standalone="no"?>
<svg
   xmlns:dc="http://purl.org/dc/elements/1.1/"
   xmlns:cc="http://creativecommons.org/ns#"
   xmlns:rdf="http://www.w3.org/1999/02/22-rdf-syntax-ns#"
   xmlns:svg="http://www.w3.org/2000/svg"
   xmlns="http://www.w3.org/2000/svg"
   id="svg2"
   viewBox="0 -143 1000 1000"
   version="1.1">
  <metadata
     id="metadata12">
    <rdf:RDF>
      <cc:Work
         rdf:about="">
        <dc:format>image/svg+xml</dc:format>
        <dc:type
           rdf:resource="http://purl.org/dc/dcmitype/StillImage" />
        <dc:title></dc:title>
      </cc:Work>
    </rdf:RDF>
  </metadata>
  <defs
     id="defs10" />
  <path
     style="fill:#ff2a2a;fill-opacity:1;fill-rule:evenodd;stroke:none;stroke-width:1px;stroke-linecap:butt;stroke-linejoin:miter;stroke-opacity:1"
     d="M 500.00001,-143 A 500.00021,500.00021 0 0 0 2e-5,357.00001 500.00021,500.00021 0 0 0 500.00001,857 500.00021,500.00021 0 0 0 999.99998,357.00001 500.00021,500.00021 0 0 0 500.00001,-143 Z m 0,55.21427 A 444.78655,444.78655 0 0 1 944.78578,357.00001 444.78655,444.78655 0 0 1 500.00001,801.78573 444.78655,444.78655 0 0 1 55.21429,357.00001 444.78655,444.78655 0 0 1 500.00001,-87.78573 Z"
     id="path3334" />
  <path
     id="rect4136"
     d="M 344.47858,159.69489 302.69489,201.47555 458.21783,356.99848 302.69489,512.52142 344.47858,554.30511 500.00151,398.78217 655.52446,554.30511 697.30511,512.52142 541.78219,356.99848 697.30511,201.47555 655.52446,159.69489 500.00151,315.21783 344.47858,159.69489 Z"
     style="fill:#ff2a2a;fill-opacity:1" />
</svg>
