<?xml version="1.0" encoding="utf-8"?>
<!-- Generator: Adobe Illustrator 21.1.0, SVG Export Plug-In . SVG Version: 6.00 Build 0)  -->
<svg version="1.1"
	 id="svg2" xmlns:cc="http://creativecommons.org/ns#" xmlns:dc="http://purl.org/dc/elements/1.1/" xmlns:rdf="http://www.w3.org/1999/02/22-rdf-syntax-ns#" xmlns:svg="http://www.w3.org/2000/svg"
	 xmlns="http://www.w3.org/2000/svg" xmlns:xlink="http://www.w3.org/1999/xlink" x="0px" y="0px" viewBox="0 0 101 101"
	 style="enable-background:new 0 0 101 101;" xml:space="preserve">
<g>
	<rect x="48" y="25.2" width="7.2" height="31.6"/>
	<path d="M51.6,63.8c-1.5,0-2.8,0.5-3.9,1.5c-1,0.9-1.5,2.2-1.5,3.7c0,1.5,0.5,2.7,1.5,3.7c1.1,1,2.4,1.5,3.9,1.5
		c1.5,0,2.7-0.5,3.8-1.5c1-1,1.6-2.2,1.6-3.7c0-1.4-0.5-2.6-1.6-3.7C54.4,64.3,53.1,63.8,51.6,63.8z"/>
	<path d="M86.3,14.7C76.5,5,64.6,0,50.8,0h-0.3C36.6,0,24.7,5,14.9,14.7C5,24.6,0,36.6,0,50.5c0,9.1,2.3,17.7,6.8,25.4
		s10.7,13.9,18.4,18.4c7.7,4.5,16.3,6.8,25.3,6.8c13.9,0,25.9-5,35.8-14.8s14.8-21.8,14.7-35.7C101,36.6,96,24.6,86.3,14.7z
		 M82.7,82.5C73.8,91.4,63,95.9,50.6,95.9s-23.2-4.5-32.1-13.4c-8.9-8.9-13.4-19.6-13.4-32c0-12.5,4.5-23.2,13.4-32
		C27.4,9.6,38.1,5.1,50.6,5.1s23.2,4.5,32.1,13.4c8.9,8.9,13.3,19.6,13.2,32C95.9,63,91.4,73.7,82.7,82.5z"/>
</g>
</svg>
