<?xml version="1.0" encoding="UTF-8" standalone="no"?>
<svg
   xmlns:dc="http://purl.org/dc/elements/1.1/"
   xmlns:cc="http://creativecommons.org/ns#"
   xmlns:rdf="http://www.w3.org/1999/02/22-rdf-syntax-ns#"
   xmlns:svg="http://www.w3.org/2000/svg"
   xmlns="http://www.w3.org/2000/svg"
   xml:space="preserve"
   style="enable-background:new 0 0 101.5 101.5;"
   viewBox="0 0 101.5 101.5"
   y="0px"
   x="0px"
   id="svg2"
   version="1.1"><metadata
     id="metadata13"><rdf:RDF><cc:Work
         rdf:about=""><dc:format>image/svg+xml</dc:format><dc:type
           rdf:resource="http://purl.org/dc/dcmitype/StillImage" /><dc:title></dc:title></cc:Work></rdf:RDF></metadata><defs
     id="defs11" /><g
     id="g3"><path
       id="path5"
       d="M79.8,78.1C79.8,85.3,74,91,66.9,91H17.7c-7.1,0-12.9-5.8-12.9-12.9V27c0-7.1,5.8-12.9,12.9-12.9H62v-5H17.6   C7.9,9.1,0,17,0,26.7v51.7C0,88.1,7.9,96,17.6,96h49.5c9.7,0,17.6-7.9,17.6-17.6v-23h-4.9V78.1z" /><path
       id="path7"
       d="M96.5,5.5H73.3v5.1h19.4l-39,39l3.6,3.6l39.2-39.2v19.8h5.1V10.6V5.5H96.5z M96.5,10.8l-0.2-0.2h0.2V10.8z" /></g></svg>