<?xml version="1.0" encoding="utf-8"?>
<!-- Generator: Adobe Illustrator 21.1.0, SVG Export Plug-In . SVG Version: 6.00 Build 0)  -->
<svg version="1.1"
	 id="svg2" xmlns:cc="http://creativecommons.org/ns#" xmlns:dc="http://purl.org/dc/elements/1.1/" xmlns:rdf="http://www.w3.org/1999/02/22-rdf-syntax-ns#" xmlns:svg="http://www.w3.org/2000/svg"
	 xmlns="http://www.w3.org/2000/svg" xmlns:xlink="http://www.w3.org/1999/xlink" x="0px" y="0px" viewBox="0 0 1000 1000"
	 style="enable-background:new 0 0 1000 1000;" xml:space="preserve">
<g>
	<path d="M566.1,334.3l23.5-46.3l-8.1-3.6c-15-6.7-37-10-67.3-10c-59.3,0-110.7,21.6-152.5,64.1c-42.5,42.5-64.1,93.8-64.1,152.5
		c0,67,21.8,118.6,64.9,153.1c8.1,6.4,16.2,13.2,24.1,20.4l8.3,7.5l23.4-46.1l-5.8-4.3c-3.7-2.7-8.4-7.4-14-14l-0.2-0.3l-0.3-0.3
		c-31.9-31.9-48-71-48-116.2s16.2-84.4,48-116.2c31.9-31.9,71-48,116.2-48c21.3,0,36.3,1.6,44.8,4.9L566.1,334.3z"/>
	<path d="M514.8,412.5c1.5-0.1,3.2-0.6,10.8-3.4l3-1.1l16.2-30.3l-15-8l-15.7-8.5c-35.9,0-66.8,12.9-91.9,38.4
		c-25.1,25.4-37.8,56.2-37.8,91.3c0,31.6,12.6,62.3,37.4,91.4l0.5,0.5c0.9,0.9,1.9,2,2.9,3.2l8.3,9.8l25.6-50.5l-3.8-4.3
		c-12.6-14.4-19-30.8-19.5-50.2c0-20.7,7.8-38.9,23.8-55.5C471.6,423.3,490.1,415.7,514.8,412.5z"/>
	<path d="M1006.5,480.4c-84.3-99.8-167.1-177.1-246.2-229.9l-8.1-5.4l-22.6,46.8l6.2,4.1c65.5,43.4,134.6,106.6,205.3,187.6
		c-67.4,71.3-83.8,88.5-85.4,90.1c-20.5,19.9-54.9,47.8-102.1,83.1c-41.5,31-85.3,54.7-130,70.5c-41.4,14.4-84.6,22.1-128.6,22.8
		l-5.2,0.1l-25.4,52.3h13.6c32.2,0,66.6-4.3,102.5-12.9c35.5-8.4,66.2-17.2,91.3-26l0.2-0.1c25.5-9.6,54.3-25.6,85.6-47.4
		c31.6-21.5,55.5-38.2,71-49.7c23.2-17,47-38.1,70.8-62.5c23.6-24.3,41.1-43.1,51.9-56c7.2-8.5,25.7-27.3,55-56l5.7-5.5
		L1006.5,480.4z"/>
	<path d="M650.1,481.6v0.3c0,45.3-16.2,84.4-48,116.2l-0.1,0.1c-14.6,15.3-31,26.8-48.7,34.4l-2.8,1.2L517.4,697l17.8-3.9
		c38.5-8.4,73.2-27.9,103.2-57.8c42.5-42.5,64.1-94.2,64.1-153.5c0-29.2-5-56.5-14.8-80.9l-6.9-17.4l-33.1,64.7l0.5,2.9
		c1.9,10,2.5,20.2,1.9,30.2L650.1,481.6z"/>
	<polygon points="733.7,78.4 321.9,896.8 368.5,919.4 780.1,102.4 	"/>
	<path d="M342.9,781.6l19.3-37.8l-3.3-9.6l-4.1-1.3c-4-1.2-8.1-2.2-12.5-2.8c-16.6-5.3-45.4-23.5-85.7-54l-0.2-0.1
		c-23.1-16.5-55.1-44.1-95-82.1c-24.9-23.7-59-58.3-101.2-102.9c87.8-91.1,166.6-159.2,234.3-202.5c68.3-43.7,142.2-65.8,219.7-65.8
		c41.7,0,72.5,2.3,91.8,6.9l-1.3,2.5l18.2,2.1l23.4-45.8l-8.9-3.4c-24.5-9.3-61.2-13.7-112.4-13.7c-3.5,0-7.2,0-10.9,0.1
		c-90.1,0-176.3,26-256,77.1C188.4,293,99.5,372.6-6.2,485.1l-5.5,5.8l5.5,5.8c35.6,37.6,58.4,61.4,67.8,70.9l61.6,61.6
		c54.1,54.1,63.1,61.3,66.4,63c54.9,37.8,64.3,44,66.5,45.3l0.1,0.1l0.1,0.1c74.7,40.9,77.8,41.7,79.8,42.2L342.9,781.6z"/>
</g>
</svg>
