<?xml version="1.0" encoding="utf-8"?>
<!-- Generator: Adobe Illustrator 21.1.0, SVG Export Plug-In . SVG Version: 6.00 Build 0)  -->
<svg version="1.1"
	 id="svg2" xmlns:cc="http://creativecommons.org/ns#" xmlns:dc="http://purl.org/dc/elements/1.1/" xmlns:rdf="http://www.w3.org/1999/02/22-rdf-syntax-ns#" xmlns:svg="http://www.w3.org/2000/svg"
	 xmlns="http://www.w3.org/2000/svg" xmlns:xlink="http://www.w3.org/1999/xlink" x="0px" y="0px" viewBox="0 0 1023.1 1023.1"
	 style="enable-background:new 0 0 1023.1 1023.1;" xml:space="preserve">
<g>
	<path d="M422.8,599.8c24.2,24.2,54.1,36.5,88.7,36.5c34.6,0,64.5-12.3,88.7-36.5c24.2-24.2,36.5-54.1,36.5-88.7
		c0-51.9-23.9-89.9-70.9-112.7l-0.1-0.1c-17.9-8.3-36.1-12.5-54.1-12.5c-34.6,0-64.5,12.5-88.7,37.1c-24.2,24.6-36.5,54.2-36.5,88.2
		C386.3,545.7,398.6,575.5,422.8,599.8z M459.2,457.7c14.7-14.7,32-21.8,52.8-21.8c20.9,0,38.2,7.1,52.8,21.8
		c14.7,14.7,21.8,32.1,21.8,53.3c0,34-15.7,56.8-47.9,69.8c-9.5,2.9-18.8,4.7-27.6,5.4c-20.9-0.1-37.9-7.4-51.8-22.6l-0.1-0.1
		l-0.1-0.1c-14.7-14.7-22.2-31.9-22.8-52.5c0-21.1,7.4-38.4,22.7-53.1L459.2,457.7z"/>
	<path d="M511.5,719c57.2,0,106.7-20.5,147.1-60.9c40.4-40.4,61.2-89.8,61.8-147l0-0.1c0-57.2-20.8-106.7-61.8-147.1
		c-40.4-41-89.9-61.8-147.1-61.8c-57.2,0-106.7,20.8-147.1,61.8c-40.4,40.4-61.2,89.8-61.8,147l0,0.1c0,57.2,20.8,106.7,61.8,147.1
		C404.9,698.5,454.3,719,511.5,719z M511.5,353.2c43.5,0,81.3,15.5,112.2,46.2c30.9,30.6,46.6,68.2,46.6,111.7
		c0,43.5-15.7,81-46.6,111.7c-30.9,30.6-68.7,46.2-112.2,46.2c-43.5,0-81.1-15.5-111.7-46.1c-30.6-30.6-46.1-68.2-46.1-111.7
		c0-43.5,15.5-81.1,46.1-111.7C430.5,368.7,468,353.2,511.5,353.2z"/>
	<path d="M1018.1,508.5c-84.9-101.1-170.3-178-253.7-228.7c-84-51-168.6-76.9-251.2-76.9l-1.6,0c-86.9,0-169.9,25-246.8,74.3
		C188.6,326,101.3,402.7,5.3,505.2l-5.5,5.8l5.5,5.8c34.2,36.1,55.7,59,64.1,68l0.2,0.2c9.1,9.1,29.4,29.1,60.4,59.4
		c31.1,30.4,53.4,50.1,68.2,60.2c13.6,9.7,35.3,24.5,64.3,43.8c29.7,20.5,55.7,34.3,77.2,41c21.5,6.5,47.7,13.3,77.9,20.1
		c30.6,6.9,62.2,10.4,93.8,10.4c31.1,0,63-4.2,95-12.4c31.6-8.1,59.5-16.6,83-25l0.2-0.1c23.8-9.3,51.6-24.6,82.5-45.7
		c29.7-20.7,52.9-36.7,69-47.6l0.1-0.1c15.9-11.2,38.8-31.5,68.1-60.1c29.5-28.2,47.6-45.8,55.2-53.8c7.5-7.8,25.1-26.3,53-55.5
		l5.3-5.5L1018.1,508.5z M511.5,253c143.6,0,292.9,87.4,443.8,259.7c-33.8,35.4-63,64.4-87.1,86.4c-25.3,23-58.6,50-99.1,80.2
		c-40,29.8-82.1,52.6-125.1,67.8c-43,14.5-87.6,21.9-132.4,21.9c-46.3,0-89.9-6.3-129.8-18.6c-39.7-12.3-79.5-33.1-118.1-61.9
		c-39.1-29.2-72-55.7-97.6-78.7c-24.5-22.7-57.2-55.9-97.1-98.7c84.5-87.6,161.2-153.1,228.2-194.7C364.9,274.4,437,253,511.5,253z"
		/>
</g>
</svg>
