<?xml version="1.0" encoding="UTF-8" standalone="no"?>
<svg
   xmlns:dc="http://purl.org/dc/elements/1.1/"
   xmlns:cc="http://creativecommons.org/ns#"
   xmlns:rdf="http://www.w3.org/1999/02/22-rdf-syntax-ns#"
   xmlns:svg="http://www.w3.org/2000/svg"
   xmlns="http://www.w3.org/2000/svg"
   xml:space="preserve"
   style="enable-background:new 0 0 101.5 101.5;"
   viewBox="0 0 101.5 101.5"
   y="0px"
   x="0px"
   id="svg2"
   version="1.1"><metadata
     id="metadata9"><rdf:RDF><cc:Work
         rdf:about=""><dc:format>image/svg+xml</dc:format><dc:type
           rdf:resource="http://purl.org/dc/dcmitype/StillImage" /><dc:title></dc:title></cc:Work></rdf:RDF></metadata><defs
     id="defs7" /><path
     id="path3"
     d="M59.1,32.8l0-7.8c0.1-1.3,0.1-2.3,0.2-3c0.1-0.6,0.3-1.2,0.7-1.8c0.3-0.5,0.9-0.9,1.6-1.1c0.9-0.3,2.1-0.4,3.6-0.4h9.3V0  H60.1C52,0,46,2,42.4,5.9C38.8,9.8,37,15.6,37,23.2v9.6H26.6v18.8H37v49.9h22.2V51.6h13.7l2-18.8H59.1z M54.1,46.9v49.6H41.8V46.9  h-9.9v-9.7h10.3l0.6-18.7c0.1-2.1,0.4-3.8,1.1-5.1c0.8-1.5,1.9-2.9,3.3-4.4c1.2-1.3,2.7-2.4,4.8-3.2c1.9-0.8,4-1.2,6.4-1.2l11.1-0.1  V14h-8.2l-1.7,0.5l-1.3,0.6l-1.2,0.6l-1,1.1l-0.9,1.4l-0.6,1.5l-0.5,2v15.4h15L68,46.9H54.1z" /></svg>