<?xml version="1.0" encoding="UTF-8" standalone="no"?>
<svg
   xmlns:dc="http://purl.org/dc/elements/1.1/"
   xmlns:cc="http://creativecommons.org/ns#"
   xmlns:rdf="http://www.w3.org/1999/02/22-rdf-syntax-ns#"
   xmlns:svg="http://www.w3.org/2000/svg"
   xmlns="http://www.w3.org/2000/svg"
   version="1.1"
   viewBox="0 -143 1000 1000"
   id="svg2">
  <metadata
     id="metadata12">
    <rdf:RDF>
      <cc:Work
         rdf:about="">
        <dc:format>image/svg+xml</dc:format>
        <dc:type
           rdf:resource="http://purl.org/dc/dcmitype/StillImage" />
        <dc:title></dc:title>
      </cc:Work>
    </rdf:RDF>
  </metadata>
  <defs
     id="defs10" />
  <g
     transform="translate(-121.08472,116.32203)"
     id="g3335">
    <g
       id="g4"
       transform="matrix(1.1668611,0,0,-1.1627907,44.07191,806.95704)">
      <path
         style="fill:currentColor"
         id="path6"
         d="m 668,701 -4,-10 -3,-14 0,-114 118,0 -9,-64 -109,0 0,-361 -83,0 0,361 -72,0 0,64 75,0 4,130 q 1,27 11,50 8,17 16,25 8,8 34,19 21,9 48,10 l 78,1 0,-61 -55,0 -11,-3 -9,-4 -11,-8 -6,-5 -7,-7 z m 27,-108 0,62 q 0,14 1.5,22 1.5,8 6,15.5 4.5,7.5 14.5,10.5 7,3 28,3 l 62,0 0,125 -100,0 q -87,0 -124,-41 -38,-42 -38,-122 l 0,-75 -75,0 0,-125 75,0 0,-363 150,0 0,363 108,0 13,125 -121,0 0,0 z m 228,162 0,-536 0,-157 q 0,-3 -161,-3 L 227,59 Q 66,59 66,57 l 0,162 0,536 0,160 q 0,1 161,1 l 535,0 q 161,0 161,1 l 0,-162 z" />
    </g>
  </g>
</svg>
