<?xml version="1.0" encoding="utf-8"?>
<!-- Generator: Adobe Illustrator 21.1.0, SVG Export Plug-In . SVG Version: 6.00 Build 0)  -->
<svg version="1.1"
	 id="svg2" xmlns:cc="http://creativecommons.org/ns#" xmlns:dc="http://purl.org/dc/elements/1.1/" xmlns:rdf="http://www.w3.org/1999/02/22-rdf-syntax-ns#" xmlns:svg="http://www.w3.org/2000/svg"
	 xmlns="http://www.w3.org/2000/svg" xmlns:xlink="http://www.w3.org/1999/xlink" x="0px" y="0px" viewBox="0 0 1016 1016"
	 style="enable-background:new 0 0 1016 1016;" xml:space="preserve">
<path d="M914.4,281.7L695.6,405.1v-133c0-16.4-6.4-30.3-19.1-41.2c-12.4-11.5-26.8-17.3-42.9-17.3H60.8c-16.1,0-30.6,5.9-43,17.4
	C6,241.9,0,255.7,0,272.1v471.8c0,16.3,6,30.3,17.7,41.6c11.7,11.2,26.2,16.9,43.1,16.9h572.8c17,0,31.5-5.9,43.2-17.6
	c11.6-11.6,17.9-25.1,18.8-40.4l0-0.2V607.4l224.6,126.9h95.8V281.7H914.4z M933.8,684.3l-238.2-134v-86.9l233.6-132.8h35.7v353.7
	H933.8z M51.2,272.1c0-5.7,1.4-8.4,9.6-8.4h572.8c8.2,0,9.6,2.7,9.6,8.4v471.5c-0.5,6.5-3,8.7-9.6,8.7H60.8c-8.2,0-9.6-2.7-9.6-8.4
	V272.1z"/>
</svg>
