<?xml version="1.0" encoding="UTF-8" standalone="no"?>
<svg
   xmlns:dc="http://purl.org/dc/elements/1.1/"
   xmlns:cc="http://creativecommons.org/ns#"
   xmlns:rdf="http://www.w3.org/1999/02/22-rdf-syntax-ns#"
   xmlns:svg="http://www.w3.org/2000/svg"
   xmlns="http://www.w3.org/2000/svg"
   xml:space="preserve"
   style="enable-background:new 0 0 101.6 101.6;"
   viewBox="0 0 101.6 101.6"
   y="0px"
   x="0px"
   id="svg2"
   version="1.1"><metadata
     id="metadata9"><rdf:RDF><cc:Work
         rdf:about=""><dc:format>image/svg+xml</dc:format><dc:type
           rdf:resource="http://purl.org/dc/dcmitype/StillImage" /><dc:title></dc:title></cc:Work></rdf:RDF></metadata><defs
     id="defs7" /><path
     id="path3"
     d="M101.6,39.6c0-1.4-0.7-3.2-4.1-3.7l-29.7-4.5L54.5,3c-1-2-2.3-3-3.7-3c-1.5,0-2.7,1-3.6,3.1L33.8,31.4L4,35.8  c-3.3,0.6-4,2.3-4,3.7c0,1.3,0.6,2.5,1.7,3.6l21.6,22l-5.1,31.1c-0.1,0.6-0.1,1.1-0.1,1.5c0,1,0.2,1.9,0.7,2.6  c0.4,0.6,1.1,1.3,2.5,1.3c0,0,0,0,0,0c0.1,0,0.2,0,0.4,0c0.8,0,1.7-0.3,2.6-0.8l26.5-14.7l26.6,14.7c1,0.5,1.9,0.8,2.7,0.8  c0,0,0.2,0,0.2,0c1.2,0,3.1-0.5,3.1-4c-0.1-0.7-0.1-1-0.1-1.1v-0.1l-5.1-31.3l21.6-22C101,42,101.6,40.7,101.6,39.6z M28.5,63  L5.9,40.5l31.3-4.9L50.6,6.4L64.3,36l31.3,4.1L73,63l5.5,32.8L51,80.2L23,96L28.5,63z" /></svg>