<?xml version="1.0" encoding="UTF-8" standalone="no"?>
<svg
   xmlns:dc="http://purl.org/dc/elements/1.1/"
   xmlns:cc="http://creativecommons.org/ns#"
   xmlns:rdf="http://www.w3.org/1999/02/22-rdf-syntax-ns#"
   xmlns:svg="http://www.w3.org/2000/svg"
   xmlns="http://www.w3.org/2000/svg"
   xml:space="preserve"
   style="enable-background:new 0 0 1010 1010;"
   viewBox="0 0 1010 1010"
   y="0px"
   x="0px"
   id="svg2"
   version="1.1"><metadata
     id="metadata13"><rdf:RDF><cc:Work
         rdf:about=""><dc:format>image/svg+xml</dc:format><dc:type
           rdf:resource="http://purl.org/dc/dcmitype/StillImage" /><dc:title></dc:title></cc:Work></rdf:RDF></metadata><defs
     id="defs11" /><g
     id="g3"><path
       id="path5"
       d="M399.8,675L695.9,505L399.8,333.8V675z M595.2,505l-145.1,82.8V421.1L595.2,505z" /><path
       id="path7"
       d="M0,80.1v849.9h1010V80.1H0z M50.3,279.4V129.2h109.8v150.1H50.3z M50.3,479.8V329.7h109.8v150.1H50.3z M50.3,680.3V529   h109.8v151.3H50.3z M50.3,879.6V729.5h109.8v150.1H50.3z M210.5,879.6V129.2h590.2v750.4H210.5z M849.9,279.4V129.2h109.8v150.1   H849.9z M849.9,479.8V329.7h109.8v150.1H849.9z M849.9,680.3V529h109.8v151.3H849.9z M849.9,879.6V729.5h109.8v150.1H849.9z" /></g></svg>