<?xml version="1.0" encoding="UTF-8" standalone="no"?>
<svg
   xmlns:dc="http://purl.org/dc/elements/1.1/"
   xmlns:cc="http://creativecommons.org/ns#"
   xmlns:rdf="http://www.w3.org/1999/02/22-rdf-syntax-ns#"
   xmlns:svg="http://www.w3.org/2000/svg"
   xmlns="http://www.w3.org/2000/svg"
   version="1.1"
   id="svg2"
   viewBox="0 0 1000 1000"
   height="1000"
   width="1000">
  <defs
     id="defs4" />
  <metadata
     id="metadata7">
    <rdf:RDF>
      <cc:Work
         rdf:about="">
        <dc:format>image/svg+xml</dc:format>
        <dc:type
           rdf:resource="http://purl.org/dc/dcmitype/StillImage" />
        <dc:title></dc:title>
      </cc:Work>
    </rdf:RDF>
  </metadata>
  <g
     transform="translate(0,-52.3622)"
     id="layer1">
    <g
       transform="matrix(1.8750012,0,0,1.8750012,-5.0062147e-4,52.362193)"
       id="g4248">
      <g
         id="g4208">
        <path
           d="m 165.494,533.333 c -35.545,-73.962 -16.616,-116.343 10.703,-156.272 29.917,-43.728 37.627,-87.013 37.627,-87.013 0,0 23.518,30.573 14.11,78.39 41.548,-46.25 49.389,-119.938 43.115,-148.159 93.914,65.63 134.051,207.737 79.96,313.054 287.695,-162.776 71.562,-406.339 33.934,-433.775 12.543,27.435 14.922,73.88 -10.416,96.42 C 331.635,33.333 225.583,0 225.583,0 238.126,83.877 180.117,175.596 124.179,244.13 122.214,210.684 120.126,187.605 102.538,155.599 98.59,216.357 52.157,265.884 39.583,326.76 22.551,409.2 52.341,469.562 165.494,533.333 Z"
           id="path4210" />
      </g>
      <g
         id="g4212" />
      <g
         id="g4214" />
      <g
         id="g4216" />
      <g
         id="g4218" />
      <g
         id="g4220" />
      <g
         id="g4222" />
      <g
         id="g4224" />
      <g
         id="g4226" />
      <g
         id="g4228" />
      <g
         id="g4230" />
      <g
         id="g4232" />
      <g
         id="g4234" />
      <g
         id="g4236" />
      <g
         id="g4238" />
      <g
         id="g4240" />
    </g>
  </g>
</svg>
