<?xml version="1.0" encoding="UTF-8" standalone="no"?>
<svg
   xmlns:dc="http://purl.org/dc/elements/1.1/"
   xmlns:cc="http://creativecommons.org/ns#"
   xmlns:rdf="http://www.w3.org/1999/02/22-rdf-syntax-ns#"
   xmlns:svg="http://www.w3.org/2000/svg"
   xmlns="http://www.w3.org/2000/svg"
   xml:space="preserve"
   style="enable-background:new 0 0 1004.9 1004.9;"
   viewBox="0 0 1004.9 1004.9"
   y="0px"
   x="0px"
   id="svg2"
   version="1.1"><metadata
     id="metadata9"><rdf:RDF><cc:Work
         rdf:about=""><dc:format>image/svg+xml</dc:format><dc:type
           rdf:resource="http://purl.org/dc/dcmitype/StillImage" /><dc:title></dc:title></cc:Work></rdf:RDF></metadata><defs
     id="defs7" /><path
     id="path3"
     d="M880.3,24C825.1,42.4,754,52.2,668.9,53.1c-43.8,0-107.5-8.9-189.1-26.5C396.9,8.9,332,0,286.9,0  c-92,0-154.5,10.9-185.8,32.3l-10.3,7.4v965.2h50V569.1C174,556.4,223.1,550,286.9,550c41.2,0,102.6,8.5,182.5,25.1  C555,593.7,622.1,603,668.9,603c92.7,0,169.3-10.3,227.6-30.6l17.6-5.9V13.7L880.3,24z M140.8,69.1C174,56.4,223.1,50,286.9,50  c41.2,0,102.6,8.5,182.5,25.1C555,93.7,622.1,103,668.9,103c70.3,0,135.5-7.4,193.8-21.9v448.6c-57.4,15.5-122.6,23.3-193.8,23.3  c-43.8,0-107.5-8.9-189.1-26.5C396.9,508.9,332,500,286.9,500c-59.3,0-108.4,5.5-146.1,16.4V69.1z" /></svg>