<?xml version="1.0" encoding="UTF-8" standalone="no"?>
<svg
   xmlns:dc="http://purl.org/dc/elements/1.1/"
   xmlns:cc="http://creativecommons.org/ns#"
   xmlns:rdf="http://www.w3.org/1999/02/22-rdf-syntax-ns#"
   xmlns:svg="http://www.w3.org/2000/svg"
   xmlns="http://www.w3.org/2000/svg"
   xml:space="preserve"
   style="enable-background:new 0 0 1007.9 1007.9;"
   viewBox="0 0 1007.9 1007.9"
   y="0px"
   x="0px"
   id="svg2"
   version="1.1"><metadata
     id="metadata9"><rdf:RDF><cc:Work
         rdf:about=""><dc:format>image/svg+xml</dc:format><dc:type
           rdf:resource="http://purl.org/dc/dcmitype/StillImage" /><dc:title></dc:title></cc:Work></rdf:RDF></metadata><defs
     id="defs7" /><path
     id="path3"
     d="M982.4,201.9c-16.9-16.9-37.5-25.5-61.2-25.5H382.6v-16.7c0-23.7-8.6-44.3-25.5-61.2C340.2,81.6,319.6,73,295.9,73H86.7  C63,73,42.4,81.6,25.5,98.5C8.6,115.4,0,136,0,159.7v688.6c0,23.7,8.6,44.3,25.5,61.2c16.9,16.9,37.5,25.5,61.2,25.5h834.6  c23.7,0,44.3-8.6,61.2-25.5c16.9-16.9,25.5-37.5,25.5-61.2V264.3C1007.9,240.6,999.3,219.7,982.4,201.9z M49.3,352.2h909.4v496  c0,10.4-3.6,19-11,26.4c-7.4,7.4-16,11-26.4,11H86.7c-10.4,0-19-3.6-26.4-11c-7.4-7.4-11-16-11-26.4V352.2z M921.2,225.7  c10.3,0,18.9,4,26.3,12.1l0.1,0.1c7.4,7.4,11,16,11,26.4v37.4H49.3v-142c0-10.4,3.6-19,11-26.4c7.4-7.4,16-11,26.4-11h209.2  c10.4,0,19,3.6,26.4,11c7.4,7.4,11,16,11,26.4v66H921.2z" /></svg>