<?xml version="1.0" encoding="utf-8"?>
<!-- Generator: Adobe Illustrator 21.1.0, SVG Export Plug-In . SVG Version: 6.00 Build 0)  -->
<svg version="1.1"
	 id="svg2" xmlns:cc="http://creativecommons.org/ns#" xmlns:dc="http://purl.org/dc/elements/1.1/" xmlns:rdf="http://www.w3.org/1999/02/22-rdf-syntax-ns#" xmlns:svg="http://www.w3.org/2000/svg"
	 xmlns="http://www.w3.org/2000/svg" xmlns:xlink="http://www.w3.org/1999/xlink" x="0px" y="0px" viewBox="0 0 1026.3 1026.3"
	 style="enable-background:new 0 0 1026.3 1026.3;" xml:space="preserve">
<path d="M746.9,1020.3h243.8l-3.3-53h-98.2L785,691.4c-28.9-80.2-49.6-133.5-61.7-158.5l-0.1-0.2l-0.1-0.2
	c-2.2-3.9-17.4-41.6-77.8-199l-0.1-0.1L498.3-5.9l-372,974.5H36.1v50.5h243.8l-3.3-51.8h-90.3l128.4-342.3l384-5.9l131.9,349.4
	h-83.5V1020.3z M601.7,370.1c25.6,62.3,44.9,111.3,57.4,145.5c11.8,32.3,15.8,46.7,17,53.1l-341.6,3.4l167-443L601.7,370.1z"/>
</svg>
