<?xml version="1.0" encoding="utf-8"?>
<!-- Generator: Adobe Illustrator 21.1.0, SVG Export Plug-In . SVG Version: 6.00 Build 0)  -->
<svg version="1.1"
	 id="svg2" xmlns:cc="http://creativecommons.org/ns#" xmlns:dc="http://purl.org/dc/elements/1.1/" xmlns:rdf="http://www.w3.org/1999/02/22-rdf-syntax-ns#" xmlns:svg="http://www.w3.org/2000/svg"
	 xmlns="http://www.w3.org/2000/svg" xmlns:xlink="http://www.w3.org/1999/xlink" x="0px" y="0px" viewBox="0 0 1009.2 1009.2"
	 style="enable-background:new 0 0 1009.2 1009.2;" xml:space="preserve">
<g>
	<polygon points="342.9,630.9 50,925 50,688.6 0.6,688.6 0.6,1009.2 320,1009.2 320,958.6 84.9,958.6 377.6,667.1 	"/>
	<polygon points="320,50.6 320,0 0.6,0 0.6,320.7 50,320.7 50,85.4 342.8,378.3 377.7,343.4 84.8,50.6 	"/>
	<polygon points="959.2,925 666.4,630.9 631.6,667.1 924.4,958.6 688,958.6 688,1009.2 1008.6,1009.2 1008.6,688.6 959.2,688.6 	"/>
	<polygon points="688,0 688,50.6 924.4,50.6 631.6,343.4 666.4,378.3 959.2,85.4 959.2,320.7 1008.6,320.7 1008.6,0 	"/>
</g>
</svg>
