<?xml version="1.0" encoding="UTF-8" standalone="no"?>
<svg
   xmlns:dc="http://purl.org/dc/elements/1.1/"
   xmlns:cc="http://creativecommons.org/ns#"
   xmlns:rdf="http://www.w3.org/1999/02/22-rdf-syntax-ns#"
   xmlns:svg="http://www.w3.org/2000/svg"
   xmlns="http://www.w3.org/2000/svg"
   version="1.1"
   viewBox="0 -143 1000 1000"
   id="svg2">
  <metadata
     id="metadata12">
    <rdf:RDF>
      <cc:Work
         rdf:about="">
        <dc:format>image/svg+xml</dc:format>
        <dc:type
           rdf:resource="http://purl.org/dc/dcmitype/StillImage" />
        <dc:title></dc:title>
      </cc:Work>
    </rdf:RDF>
  </metadata>
  <defs
     id="defs10" />
  <g
     transform="matrix(1.0582011,0,0,-1.0582011,-34.920656,871.81484)"
     id="g4">
    <path
       d="m 733,592 q -33,0 -102,-31 -69,-31 -108,-35 l 0,33 q 0,66 46,117 46,51 119,51 l 20,0 q 75,0 135,56 60,56 68,146 l -33,0 Q 871,853 820,807 770,761 708,761 l -20,0 q -87,0 -142,-62 -56,-62 -57,-139 l 0,-1 0,-1 0,-32 q -39,4 -108,35 -69,31 -102,31 -28,0 -68,-27 Q 171,538 130.5,490.5 90,443 61.5,361.5 33,280 33,185 33,146 44,119 54,91 66.5,77 79,63 96,55 q 17,-8 26,-9 9,-1 15,-2 83,0 178,94 50,50 77.5,67 27.5,17 62.5,16 l 49,0 3,0 49,0 q 35,0 63,-16 27,-17 78,-67 49,-49 91,-72 42,-22 85,-22 8,0 16,2 9,1 26,9 17,8 30,21.5 13,13.5 23,42.5 10,28 10,66 0,95 -28.5,176.5 Q 921,443 881,491 840,539 800.5,565.5 761,592 733,592 l 0,0 z m 141,-514 -1,0 q -68,0 -153,84 -53,53 -85.5,73 -32.5,20 -78.5,20 l -101,0 Q 410,255 377,235 344,215 291,162 208,79 139,78 l -2,0 q -9,0 -18,3 -9,3 -22,13 -13,9 -21.5,32.5 Q 67,150 67,185 q 0,90 27,166 26,76 63,118.5 37,42.5 70,65.5 33,23 52,23 25,0 87,-27 87,-39 140,-40 52,0 139,40 62,28 88,27 19,0 52,-23 33,-23 69,-65 37,-42 64,-119 26,-76 26,-166 0,-35 -8.5,-58.5 Q 927,103 915,94 902,85 892.5,81.5 883,78 874,78 l 0,0 z m -571,379 -33,0 0,-67 -68,0 0,-34 68,0 0,-68 33,0 0,68 68,0 0,34 -68,0 0,67 z m 354,-33 q -21,0 -35,-15 -15,-15 -15,-36 0,-21 15,-36 15,-15 35.5,-14.5 20.5,0.5 35.5,15 15,14.5 15,35.5 0,21 -15,36 -15,15 -36,15 z m 0.5,-68 q -17.5,0 -17.5,17 0,17 17.5,17 17.5,0 16.5,-17 1,-17 -16.5,-17 z M 792,390 q -21,0 -35,-15 -15,-15 -15,-36 0,-21 14.5,-35.5 Q 771,289 792,289 q 21,0 35.5,14.5 14.5,14.5 15.5,35.5 0,21 -15,36 -15,15 -36,15 z m 0,-67 q -17,0 -16,16 0,17 16,17 17,0 17,-17 0,-16 -17,-16 z"
       id="path6"
       style="fill:currentColor" />
  </g>
</svg>
