<?xml version="1.0" encoding="utf-8"?>
<!-- Generator: Adobe Illustrator 21.1.0, SVG Export Plug-In . SVG Version: 6.00 Build 0)  -->
<svg version="1.1"
	 id="svg2" xmlns:cc="http://creativecommons.org/ns#" xmlns:dc="http://purl.org/dc/elements/1.1/" xmlns:rdf="http://www.w3.org/1999/02/22-rdf-syntax-ns#" xmlns:svg="http://www.w3.org/2000/svg"
	 xmlns="http://www.w3.org/2000/svg" xmlns:xlink="http://www.w3.org/1999/xlink" x="0px" y="0px" viewBox="0 0 1012.7 1012.7"
	 style="enable-background:new 0 0 1012.7 1012.7;" xml:space="preserve">
<path d="M758.5,268.2c28.7-29.9,43.2-66.6,43.2-109.2c0-44.2-15.9-82.2-47.4-112.8C722.9,15.5,684.6,0,640.5,0
	c-59.1,0-104.3,24.3-134.6,72.4C476,24.3,431.9,0,374.7,0c-0.9,0-1.7,0-2.5,0c-44.2,0-82.7,15.7-114.5,46.8
	c-31,31-46.8,68.8-46.8,112.2c0,42.6,14.5,79.3,43.2,109.2H38.2v744.5h936.4V268.2H758.5z M480.4,665.9v294.8H89V665.9H480.4z
	 M371.7,50.9c29.9,0,56,10.7,77.5,31.8c21.7,21.4,31.9,46.3,31.2,76.1l0,0.2c0,29.6-10.7,55.6-31.8,77.5
	c-21.1,21.1-47,31.8-76.8,31.8c-29.9,0-55.8-10.7-76.9-31.8s-31.8-47-31.8-76.9c0-29.9,10.7-55.8,31.8-76.9S341.8,50.9,371.7,50.9z
	 M326.5,459.9l44.7,25.3l95.6-166.1h13.5V615H89V319.1h318.3L326.5,459.9z M495.3,268.2l10.6-19l11.2,19H495.3z M641,268.2
	c-29.9,0-56-10.7-77.5-31.8c-21.7-21.4-31.9-46.6-31.2-77.3l0-0.1c0-29.5,10.7-55.2,31.8-76.3c21.1-21.1,47-31.8,76.9-31.8
	c29.9,0,55.8,10.7,76.9,31.8s31.8,46.8,31.8,76.3c0,29.6-10.7,55.4-31.8,76.9C696.5,257.7,671.3,268.2,641,268.2z M605.4,319.1
	h318.3V615H532.3V319.1h13.5l95.6,166.1l44.7-25.3L605.4,319.1z M923.7,665.9v294.8H532.3V665.9H923.7z"/>
</svg>
