<?xml version="1.0" encoding="UTF-8" standalone="no"?>
<svg
   xmlns:dc="http://purl.org/dc/elements/1.1/"
   xmlns:cc="http://creativecommons.org/ns#"
   xmlns:rdf="http://www.w3.org/1999/02/22-rdf-syntax-ns#"
   xmlns:svg="http://www.w3.org/2000/svg"
   xmlns="http://www.w3.org/2000/svg"
   id="svg2"
   viewBox="0 -143 1000 1000"
   version="1.1">
  <metadata
     id="metadata12">
    <rdf:RDF>
      <cc:Work
         rdf:about="">
        <dc:format>image/svg+xml</dc:format>
        <dc:type
           rdf:resource="http://purl.org/dc/dcmitype/StillImage" />
        <dc:title></dc:title>
      </cc:Work>
    </rdf:RDF>
  </metadata>
  <defs
     id="defs10" />
  <g
     id="g4"
     transform="matrix(1.52207,0,0,-1.52207,-242.33528,1120.3181)">
    <path
       style="fill:currentColor"
       id="path6"
       d="m 590,417 q 7,0 32,7 22,6 45,19 23,13 39,32 2,2 7,8 5,5 7.5,8 2.5,3 5.5,9 3,6 5,14 10,27 11,72 0,58 -38,99 18,44 -4,98 -14,4 -39,-5 -43,-17 -44,-17 l -18,-12 q -44,12 -93,13 -47,0 -92,-13 -17,11 -21,13 -4,1 -40,15 -30,10 -41,6 -21,-54 -3,-98 -38,-41 -38,-99 0,-38 10,-72 2,-7 6,-13 3,-6 5,-9 2,-3 7,-9 5,-5 7,-8 16,-19 39,-32 23,-13 45,-19 19,-5 38,-7 l 11,-2 6,0 7,-1 9,0 9,1 9,0 3,1 -5,-10 -7,-12 -6,-7 -5,-9 -4,-8 -4,-8 -2,-6 -2,-5 -2,-6 q 9,-34 -9,-34 l -3,0 q -3,0 -4,-1 l -12,-2 -18,-3 -19,-2 -16,-1 -11,1 -11,0 -19,1 -14,8 -15,9 -7,8 -11,13 -8,14 -7,13 -12,11 -12,9 -18,10 -4,0 0,-3 6,-5 8,-6 13,-10 7,-10 7,-11 7,-10 7,-16 9,-15 9,-10 12,-6 12,-5 18,-5 12,0 19,-1 23,3 28,1 18,1 5,0 0,-50 0,-21 0,-11 145,0 0,11 0,81 q 0,35 -12,51 l -5,10 -3,6 -2,5 -4,7 -4,7 -6,11 -6,9 -4,10 5,0 8,0 10,-1 6,0 11,0 z m -187,-244 0,18 q 0,1 -0.5,29.5 Q 402,249 402,271 l -13,-3 q -13,-2 -31,-2 -19,0 -39,4 -20,3 -37,17 -14,11 -25,35 l -5,12 q -5,13 -18,29 -12,16 -24,21 l -4,3 q -4,3 -7,6 -3,4 -5,8 -2,4 3,7 8,4 16,2 l 11,-2 q 9,-1 27,-13 17,-11 28,-29 14,-23 30,-35 18,-12 37,-12 19,0 32,3 13,3 25,8 5,38 28,58 -32,3 -57.5,10 -25.5,7 -52.5,22 -27,15 -45,37.5 -18,22.5 -29.5,58.5 -11.5,36 -11.5,83 0,67 44,116 -21,51 4,113 16,5 48,-7.5 32,-12.5 47,-21.5 15,-9 23,-15 52,15 108,15 55,0 107,-15 l 21,14 q 18,11 51,24 28,12 45,6 25,-63 5,-113 44,-47 44,-116 0,-47 -12,-84 -11,-37 -29,-58.5 -18,-21.5 -45,-36.5 -27,-15 -53,-22 -25,-7 -57,-10 29,-25 29,-79 l 0,-118 0,-17 z" />
  </g>
</svg>
