<?xml version="1.0" encoding="UTF-8" standalone="no"?>
<svg
   xmlns:dc="http://purl.org/dc/elements/1.1/"
   xmlns:cc="http://creativecommons.org/ns#"
   xmlns:rdf="http://www.w3.org/1999/02/22-rdf-syntax-ns#"
   xmlns:svg="http://www.w3.org/2000/svg"
   xmlns="http://www.w3.org/2000/svg"
   id="svg2"
   viewBox="0 -143 1000 1000"
   version="1.1">
  <metadata
     id="metadata12">
    <rdf:RDF>
      <cc:Work
         rdf:about="">
        <dc:format>image/svg+xml</dc:format>
        <dc:type
           rdf:resource="http://purl.org/dc/dcmitype/StillImage" />
        <dc:title></dc:title>
      </cc:Work>
    </rdf:RDF>
  </metadata>
  <defs
     id="defs10" />
  <path
     id="path6"
     d="m -2e-5,-144.84165 0,189.28603 0,626.27968 0,188.11759 188.11759,-1.16843 625.11125,0 c 114.9614,0.71404 177.1917,0.1173 186.77118,-1.78688 l 0,-997.5787 c -9.21328,-1.31908 -71.37208,-1.98086 -186.77118,-1.98086 l -625.11125,0 c -125.41172,0 -188.11759,-0.38947 -188.11759,-1.16843 z M 769.17983,9.9026 c 4.97497,0 9.53154,0.60855 13.66975,1.82567 20.25283,49.074164 22.20021,93.47459 5.84216,133.20128 34.27401,37.38983 51.41102,82.17973 51.41102,134.3697 0,36.61088 -4.28426,69.32699 -12.85276,98.14831 -9.34745,28.04238 -21.03178,50.63207 -35.05296,67.76908 -14.80014,17.13701 -32.71611,31.74241 -53.74788,43.8162 -21.03178,12.0738 -41.2846,20.83704 -60.75849,26.28973 -19.47386,5.45268 -41.67407,9.34745 -66.60063,11.68432 22.58969,19.47387 33.88454,50.2426 33.88454,92.30615 l 0,136.70657 0,19.86335 -248.87607,-1.16844 0,-18.69491 0,-35.05296 0,-57.25318 -15.18963,2.33686 c -10.12641,1.55791 -22.20021,2.33687 -36.22139,2.33687 -14.80014,-0.77896 -29.98977,-2.33687 -45.56886,-4.67373 -15.57909,-3.11583 -29.98976,-9.73694 -43.23199,-19.86335 -11.68432,-8.5685 -21.42126,-21.81074 -29.2108,-39.7267 l -7.0106,-15.18962 c -3.89477,-10.12641 -10.51588,-21.42126 -19.86335,-33.88454 -9.34746,-12.46327 -18.69491,-20.25281 -28.04237,-23.36864 l -4.67373,-3.5053 c -3.11582,-2.33685 -5.84217,-5.0632 -8.17902,-8.17902 -3.11583,-3.11582 -5.25795,-6.23163 -6.42639,-9.34746 -1.16843,-3.11583 -0.19474,-5.45268 2.92109,-7.0106 5.45268,-3.11581 11.68432,-4.28424 18.69491,-3.50528 l 14.02119,2.33685 c 6.23163,0.77896 16.74753,5.84217 31.54767,15.18963 12.46328,8.5685 22.97917,19.86334 31.54767,33.88454 11.68432,18.69491 24.14761,32.32662 37.38983,40.89512 13.24223,9.34745 27.26341,14.02118 42.06357,14.02118 14.80014,0 27.26341,-1.16843 37.38983,-3.50529 10.12642,-2.33687 19.86334,-5.45269 29.2108,-9.34746 3.89477,-28.82133 14.41067,-51.02154 31.54768,-66.60064 -24.92656,-3.11582 -47.12677,-7.40007 -66.60065,-12.85275 -20.25282,-5.45269 -40.89512,-14.02118 -61.9269,-25.70551 -21.03178,-10.90537 -38.55827,-25.1213 -52.57945,-42.64778 -14.0212,-17.52648 -25.31604,-40.31091 -33.88454,-68.35329 -8.56849,-28.82132 -12.85275,-61.53743 -12.85275,-98.14831 0,-52.96892 17.13701,-97.75882 51.41102,-134.3697 -15.5791,-39.7267 -14.0212,-84.127116 4.67373,-133.20128 12.46328,-3.89477 30.96345,-0.97369 55.50053,8.76324 24.53707,9.736944 42.64778,18.1107 54.33209,25.121299 11.68433,7.010598 21.03178,12.852755 28.04238,17.526482 40.50565,-11.684326 82.17973,-17.526482 125.02225,-17.526482 42.84252,0 84.51659,5.842156 125.02225,17.526482 L 670.68009,47.949679 C 683.92232,38.60221 703.78567,28.865283 730.27014,18.73887 745.26501,12.84802 758.2349,9.9026 769.17983,9.9026 Z M 303.53676,68.470264 c -5.18491,-0.146047 -9.38397,0.803304 -12.59715,2.848054 -13.24224,28.042381 -12.07379,58.811092 3.50529,92.306142 -32.7161,34.27401 -49.07415,77.8955 -49.07415,130.86442 0,27.26341 4.67373,55.30579 14.02118,84.12711 1.55792,5.4527 3.5053,10.5159 5.84217,15.18963 l 5.84216,11.68432 c 1.5579,2.33686 4.47899,5.45269 8.76324,9.34746 4.28426,3.89477 7.20534,7.01059 8.76324,9.34746 12.46329,14.80014 25.70551,26.09498 39.7267,33.88453 22.58969,11.68433 40.50566,19.47387 53.74789,23.36864 14.80014,3.89477 29.21081,6.62113 43.23199,8.17903 l 12.85275,1.16843 8.17903,1.16844 8.17903,0 10.51588,0 10.51589,0 10.51589,-1.16844 3.5053,0 -5.84217,15.18962 -9.34745,12.85276 -5.84216,9.34745 -5.84217,9.34746 -4.67373,9.34747 -4.67372,9.34745 -2.33686,7.01059 -3.5053,5.84217 -2.33687,7.01058 c 7.0106,26.48447 4.28425,39.72671 -8.17902,39.72671 l -4.67374,0 -4.67372,1.16843 -14.02119,2.33686 -22.20021,3.50529 -22.20021,2.33688 -17.52648,2.33685 -12.85276,-1.16843 -12.85275,0 -22.20021,-2.33687 -16.35806,-9.34745 -17.52648,-10.51589 -9.34745,-9.34745 -11.68433,-15.18963 -8.17903,-15.18961 -9.34745,-16.35805 -12.85276,-12.85276 -15.18962,-10.5159 -21.03178,-10.51588 -4.67373,-1.16843 0,4.67373 5.84217,5.84216 10.51588,5.84215 15.18963,12.85276 9.34745,10.51589 7.01059,12.85276 7.0106,12.85275 9.34745,17.52649 9.34746,18.69491 10.51589,11.68432 15.18962,5.84216 14.02119,5.84217 19.86334,5.84216 14.02119,0 23.36865,1.16843 26.87394,-2.33686 31.54766,-1.16843 22.20023,-2.33687 5.84215,0 0,58.42162 1.16843,24.53706 0,14.02119 168.25424,-1.16843 0,-12.85276 0,-93.47457 c 0,-27.26342 -4.67372,-47.51624 -14.02118,-60.75848 l -5.84216,-11.68432 -3.50529,-5.84217 -2.33688,-7.01058 -4.67372,-8.17903 -4.67373,-7.0106 -8.17903,-14.02118 -4.67373,-11.68433 -5.84215,-12.85275 5.84215,0 9.34746,0 10.5159,1.16843 8.17902,0 12.85276,0 18.69491,-1.16843 c 5.45269,0 17.91596,-2.72633 37.38984,-8.17903 17.13701,-4.67373 34.66349,-12.0738 52.57944,-22.20021 14.80015,-8.5685 28.82134,-19.86334 42.06357,-33.88454 1.5579,-1.5579 3.89477,-5.0632 7.01058,-10.51588 3.89477,-3.89477 6.81586,-7.0106 8.76324,-9.34746 1.9474,-2.33687 4.08952,-6.03691 6.42639,-11.10011 2.33686,-5.0632 4.67373,-9.93167 7.0106,-14.6054 9.34745,-26.48446 14.02118,-54.91631 14.02118,-85.29555 0,-55.30579 -14.41067,-98.53778 -43.23199,-129.69598 14.02118,-28.04238 12.46328,-58.81109 -4.67373,-92.306153 -10.12643,-3.115814 -23.75812,-0.778957 -40.89513,7.010598 -0.77896,0 -17.91596,7.789556 -51.41102,23.368645 l -25.70551,11.68432 c -34.27401,-9.34745 -70.10593,-14.41065 -107.49577,-15.189611 -36.61087,0 -72.4428,5.063201 -107.49577,15.189611 -21.81074,-13.24223 -33.88453,-20.252824 -36.22139,-21.031781 -1.55791,0 -13.63171,-5.0632 -36.22141,-15.189612 -14.11855,-6.32902 -25.4986,-9.615229 -34.14013,-9.858653 z"
     style="fill:currentColor" />
</svg>
