<?xml version="1.0" encoding="utf-8"?>
<!-- Generator: Adobe Illustrator 21.1.0, SVG Export Plug-In . SVG Version: 6.00 Build 0)  -->
<svg version="1.1"
	 id="svg2" xmlns:cc="http://creativecommons.org/ns#" xmlns:dc="http://purl.org/dc/elements/1.1/" xmlns:rdf="http://www.w3.org/1999/02/22-rdf-syntax-ns#" xmlns:svg="http://www.w3.org/2000/svg"
	 xmlns="http://www.w3.org/2000/svg" xmlns:xlink="http://www.w3.org/1999/xlink" x="0px" y="0px" viewBox="0 0 1000 1000"
	 style="enable-background:new 0 0 1000 1000;" xml:space="preserve">
<path d="M841.5,160.5V-3.3L155-4.5l2.4,324.7c0,47.6,8.4,91.9,25,131.9c16.6,40,41.8,76.7,74.9,109.1
	c60.6,60.6,133.9,94.5,217.9,100.8l-2.3,288.3H236.1l1.4,54.2h526.3v-48.4H523.7l1.1-289.4c84-5.5,157.4-39.1,217.9-99.6
	c33.1-32.8,58.4-69.8,75-110c16.6-40.2,25-84.7,25-132.2v-155 M500.6,619.6c-28.3,0-59.8-5.1-93.6-15l387.2-387.2v107.5
	c0,78.8-29.2,148.2-86.9,206.2C649.7,589.1,580.1,618.9,500.6,619.6z M204.6,45.1h588.4v101.5L358.2,581.5
	c-26-14.1-48.5-30.8-66.8-49.8c-57.6-57.6-86.8-127.6-86.8-208V45.1z"/>
</svg>
