<?xml version="1.0" encoding="UTF-8" standalone="no"?>
<svg
   xmlns:dc="http://purl.org/dc/elements/1.1/"
   xmlns:cc="http://creativecommons.org/ns#"
   xmlns:rdf="http://www.w3.org/1999/02/22-rdf-syntax-ns#"
   xmlns:svg="http://www.w3.org/2000/svg"
   xmlns="http://www.w3.org/2000/svg"
   xml:space="preserve"
   style="enable-background:new 0 0 101 101;"
   viewBox="0 0 101 101"
   y="0px"
   x="0px"
   id="svg2"
   version="1.1"><metadata
     id="metadata9"><rdf:RDF><cc:Work
         rdf:about=""><dc:format>image/svg+xml</dc:format><dc:type
           rdf:resource="http://purl.org/dc/dcmitype/StillImage" /><dc:title></dc:title></cc:Work></rdf:RDF></metadata><defs
     id="defs7" /><path
     id="path3"
     d="M86.3,14.8C76.3,5,64.3,0,50.4,0h-0.2l-0.1,0.1c-13.8,0-25.7,5-35.4,14.7C5,24.6,0,36.6,0,50.5c0,13.9,5,25.9,14.7,35.7  c9.8,9.8,21.7,14.8,35.6,14.8h0.1c13.8,0,25.9-5,35.8-14.7C96,76.5,101,64.5,101,50.6C101,36.7,96,24.7,86.3,14.8z M75,53h20.9  c-0.5,9.7-3.9,18.4-10,26c-4.3-2.3-8.9-4.3-13.5-5.8C73.9,66.9,74.8,60.1,75,53z M72.4,27.7c4.6-1.4,9.2-3.3,13.5-5.7  c6.1,7.6,9.4,16.4,10,26.1H75C74.8,40.9,73.9,34,72.4,27.7z M52.9,70.1V53H70c-0.2,6.8-1,13.2-2.4,19C62.8,70.9,57.8,70.2,52.9,70.1  z M52.9,48.1V31c4.9-0.2,9.8-0.8,14.7-2c1.4,5.9,2.2,12.3,2.4,19.1H52.9z M82.5,18.2c-3.7,1.9-7.5,3.5-11.4,4.6  c-2.2-6.8-5-12.2-8.4-16.1C70.2,8.8,76.9,12.7,82.5,18.2z M52.9,26V5.5c2.4,0.9,4.7,2.9,7,6c2.4,3.3,4.5,7.6,6.2,12.7  C61.9,25.2,57.4,25.8,52.9,26z M66.1,76.8c-1.7,5.1-3.7,9.4-6.1,12.8c-2.3,3.1-4.7,5-7.2,5.9V75.1C57.3,75.3,61.8,75.9,66.1,76.8z   M62.7,94.4c3.4-4,6.2-9.4,8.4-16.2c3.9,1.2,7.8,2.8,11.4,4.8C76.9,88.4,70.2,92.3,62.7,94.4z M48,31v17.1H30.9  c0.2-6.8,1-13.2,2.4-19.1C38.1,30.1,43.1,30.8,48,31z M48,53v17.1c-5,0.2-9.9,0.8-14.7,1.9c-1.4-5.9-2.2-12.3-2.4-19H48z M18.6,18.2  c5.7-5.5,12.3-9.3,19.6-11.4c-3.3,4-6.2,9.4-8.4,16.1C25.9,21.6,22.1,20.1,18.6,18.2z M29.8,78.1c2.2,6.8,5,12.2,8.4,16.2  c-7.5-2.1-14.1-5.9-19.6-11.5C22.2,81,26,79.4,29.8,78.1z M48,75.1v20.5c-2.4-0.8-4.7-2.8-7-5.9c-2.4-3.3-4.5-7.6-6.2-12.8  C39.1,75.9,43.5,75.3,48,75.1z M34.8,24.2C38.2,13.8,42.7,7.5,48,5.5V26C43.5,25.8,39,25.2,34.8,24.2z M5.1,48.1  c0.5-9.7,3.9-18.4,10-26c4.3,2.3,8.8,4.2,13.4,5.7C27,34,26.1,40.9,25.9,48.1H5.1z M25.9,53c0.2,7.2,1,14.1,2.6,20.4  c-4.6,1.4-9.1,3.3-13.4,5.7C9,71.5,5.7,62.7,5.1,53H25.9z" /></svg>