<?xml version="1.0" encoding="UTF-8" standalone="no"?>
<svg
   xmlns:dc="http://purl.org/dc/elements/1.1/"
   xmlns:cc="http://creativecommons.org/ns#"
   xmlns:rdf="http://www.w3.org/1999/02/22-rdf-syntax-ns#"
   xmlns:svg="http://www.w3.org/2000/svg"
   xmlns="http://www.w3.org/2000/svg"
   xml:space="preserve"
   style="enable-background:new 0 0 101.5 101.5;"
   viewBox="0 0 101.5 101.5"
   y="0px"
   x="0px"
   id="svg2"
   version="1.1"><metadata
     id="metadata10"><rdf:RDF><cc:Work
         rdf:about=""><dc:format>image/svg+xml</dc:format><dc:type
           rdf:resource="http://purl.org/dc/dcmitype/StillImage" /><dc:title></dc:title></cc:Work></rdf:RDF></metadata><defs
     id="defs8" /><path
     id="path3"
     d="M28.1,101.3c-2.4,0-4.9-0.2-7.3-0.7c-2.5-0.4-5-1-7.4-2c-2.5-0.9-4.7-2.2-6.7-3.6c-2-1.4-3.6-3.3-4.7-5.5  C0.6,87.4,0,84.8,0,82c0-2.5,0.8-5.3,2.3-8.3c1.3-2.7,3.3-5,5.9-6.9c2.6-1.9,5.7-3.4,9-4.4c3.3-1,6.5-1.7,9.4-2.2  c2.7-0.4,5.4-0.6,8.1-0.7c-2.3-3.1-3.4-6-3.3-8.6c0-0.5,0-1,0.1-1.5c0.1-0.4,0.1-0.8,0.2-1.2c0.1-0.3,0.3-0.8,0.5-1.4  c0.1-0.2,0.2-0.4,0.2-0.5c-1.3,0.2-2.5,0.2-3.5,0.2c-6.1,0-11.4-2-15.8-6c-4.4-4-6.6-9.1-6.6-15.2c0-5.7,2-10.9,5.9-15.5  c4-4.6,8.8-7.5,14.5-8.6c3.8-0.9,7.6-1.3,11.3-1.3h25.5l0.5,0.6L62,9.9l-0.5,0.4L54,9.9c1.2,1.5,2.1,3.2,2.7,5.1  c0.7,2.1,1.1,4.8,1.1,7.9c0,3.1-0.5,5.8-1.4,8.2c-0.9,2.4-2.1,4.3-3.5,5.7c-1.4,1.4-2.7,2.8-4,3.9c-1.3,1.2-2.5,2.4-3.3,3.6  c-0.8,1.2-1.3,2.4-1.3,3.8c0,1,0.3,1.9,0.9,2.7c0.6,1,1.5,1.9,2.5,2.8c1.1,0.9,2.3,1.9,3.5,2.9c1.3,1,2.6,2.2,3.8,3.4  c1.3,1.2,2.5,2.6,3.6,4.1c1.1,1.5,2,3.2,2.7,5.2c0.7,2.1,1,4.3,1,6.6c0,6.5-2.9,12.4-8.6,17.4C47.5,98.6,38.9,101.3,28.1,101.3z   M34.9,63.2c-1.8,0-4.3,0.2-7.6,0.6c-2.4,0.3-5.1,0.9-8,1.9c-3,0.9-5.6,2.1-7.9,3.6C9,71,7.2,72.9,6,75.1c-1.4,2.7-2.1,5-2.1,6.7  c0,1.6,0.6,3.6,1.7,5.9c0.6,1.4,2.2,2.9,4.7,4.6c1.2,0.8,3.2,1.7,6,2.9c1.6,0.6,3.7,1.2,6.2,1.7c1.6,0.3,3.3,0.4,4.9,0.4  c0.3,0,0.7,0,1,0c9.2,0,16.5-2.3,21.5-6.7c5.3-4.7,8-9.5,8-14.2c0-2.6-0.1-4.4-0.4-5.4c-0.3-1.2-1.1-2.6-2.4-4.2  c-1.2-1.6-2.3-2.8-3-3.5c-1.1-1.1-2.1-2-3.2-2.8c-1-0.8-2-1.6-2.9-2.3l-1.9-2l-1.1-1.2l-1.5-1.5l-0.1-0.1l-0.9-1.7l0-0.2l-0.3-2.2  l-0.1-1.2l0.1-1.7l0.1-1.4l0-0.1l0.5-1.5l1.7-2.9c0.5-0.8,1.4-1.9,2.9-3.3c1.9-1.6,3.1-2.7,3.6-3.2c1.5-1.5,2.5-3,3-4.6  c0.8-2.1,1.3-4.3,1.3-6.5c0-2.9-0.6-5.8-1.9-8.4c-1.6-3.2-3.7-5.7-6.1-7.5l0.3-0.9l12.9,0.2l0.4-2L37.1,4.1c-2.5,0-5.6,0.4-9.4,1.2  c-4.8,1.1-8.8,3.4-11.9,7.1c-3.4,3.9-5.1,8.1-5.2,12.4c0,5,1.8,9.1,5.2,12.3c3.6,3.3,8.1,5,13.4,5c2.8,0,3.3-0.1,3.4-0.1l2.1-0.2  l1.2-0.3l0.6,0.5l-0.1,1.7l-0.4,3l0,0.1l-0.8,1.7L34.9,50l0.1,2.1l0.7,1.8L37,56l1.5,2.4l1.2,2.1l0.7,1.3l0.4,0.6l-0.4,0.8H38  L34.9,63.2z M33.9,91.8c-2,0-4-0.3-5.9-0.8c-1.9-0.4-3.8-1.1-5.6-2.1c-1.8-1-3.3-2.3-4.4-4c-1.1-1.7-1.7-3.6-1.8-5.8  c0-1.9,0.4-3.6,1.3-5.1c0.9-1.5,1.9-2.7,3.2-3.6c1.3-0.9,2.9-1.6,4.6-2.1c1.7-0.5,3.4-0.9,5-1.2c1.6-0.2,3.2-0.3,4.8-0.3  c1,0,1.8,0,2.3,0.1l0.2,0c0.1,0.1,0.4,0.2,1.4,1c0.9,0.7,1.3,1,1.5,1c0.3,0.2,0.8,0.5,1.5,1.1c0.6,0.5,1.1,0.9,1.4,1.1  c0.3,0.2,0.8,0.6,1.4,1.2c0.5,0.5,0.9,1,1.2,1.4c0.2,0.4,0.6,0.8,0.9,1.3c0.4,0.6,0.7,1.1,0.9,1.7c0.1,0.5,0.3,1.1,0.4,1.6  c0.1,0.7,0.1,1.4,0.1,2.1c0,2-0.4,3.7-1.3,5.1c-0.9,1.5-2.1,2.7-3.6,3.5c-1.4,0.8-3,1.4-4.7,1.8C37.4,91.6,35.7,91.8,33.9,91.8z   M34.8,70.4c-1.3,0-2.6,0.1-3.8,0.2c-1.3,0.1-2.5,0.4-3.8,0.8c-1.2,0.4-2.4,1-3.5,1.7c-0.9,0.6-1.7,1.5-2.3,2.5  c-0.6,1.1-0.9,2.3-0.9,3.6c0,1.5,0.4,2.9,1.2,4c0.8,1.2,1.9,2.2,3.2,2.9c1.3,0.7,2.8,1.3,4.3,1.6c1.5,0.4,3,0.5,4.4,0.5  c1.4,0,2.7-0.1,4-0.4c1.2-0.3,2.4-0.7,3.5-1.4c1-0.6,1.9-1.4,2.5-2.5c0.7-1.1,1-2.3,1-3.8c0-0.5-0.1-0.9-0.2-1.4  c-0.1-0.5-0.2-0.9-0.3-1.2c-0.1-0.3-0.3-0.7-0.6-1.1l-0.8-1.2c-0.2-0.3-0.5-0.6-0.9-0.9l-1-1c-0.1-0.1-0.4-0.4-1.1-0.8  c-0.7-0.6-1-0.8-1.1-0.9c-0.2-0.1-0.6-0.4-1.3-0.9c-0.6-0.4-0.8-0.6-1-0.7H34.8z M75.4,39.4l-0.5-0.5V26.5H62.3L61.8,26V13.6  l0.5-0.5h12.6V0.3l0.5-0.5h12.4l0.5,0.5v12.8H101l0.5,0.5V26l-0.5,0.5H88.3v12.5l-0.5,0.5H75.4z M84.5,35.6V22.8l0.5-0.5h12.7v-4.8  H85L84.5,17V3.6h-5.6V17l-0.5,0.5H65.8v4.8h12.6l0.5,0.5v12.8H84.5z M34.3,38.1c-1.6,0-3.1-0.4-4.6-1.2c-1.4-0.8-2.7-1.9-3.7-3.2  c-1-1.3-1.8-2.8-2.5-4.3c-0.7-1.5-1.3-3.1-1.7-4.8c-0.4-1.6-0.6-3.2-0.6-4.7c0-3,0.8-5.6,2.5-7.8c1.6-2.2,3.9-3.3,6.9-3.3  c2.1,0,4.1,0.7,5.8,1.9c1.7,1.3,3,2.9,3.9,5c0.9,1.9,1.7,3.9,2.2,5.9c0.5,2.1,0.8,4.1,0.8,6c0,3.1-0.7,5.7-2,7.5  C39.8,37.2,37.4,38.1,34.3,38.1z M31,13.5c-1.9,0-3.4,0.7-4.6,2.2c-1.1,1.4-1.6,3.2-1.5,5.2c0,1.1,0.1,2.2,0.4,3.3  c0.2,1.1,0.6,2.3,1.1,3.5c0.5,1.1,1.1,2.1,1.8,3c0.7,0.9,1.6,1.7,2.5,2.3c0.8,0.5,1.8,0.7,2.7,0.7c0.1,0,0.2,0,0.4,0  c2,0,3.5-0.6,4.4-1.9c0.9-1.3,1.4-3,1.4-5.1c0-1.3-0.2-2.7-0.6-4.2c-0.4-1.5-0.9-2.9-1.5-4.4c-0.7-1.3-1.6-2.5-2.7-3.3  C33.7,13.9,32.4,13.5,31,13.5z" /><path
     d="M98.2,17H85V3.1h-6.6V17H65.3v5.8h13.1v13.3H85V22.8h13.2V17z M45.1,80.4c0-0.5-0.1-1-0.2-1.5  c-0.1-0.4-0.2-0.8-0.3-1.2c-0.1-0.4-0.3-0.8-0.7-1.2c-0.3-0.4-0.5-0.8-0.8-1.1s-0.5-0.7-1-1l-1-1C41,73,40.6,72.7,40,72.4  c-0.5-0.4-0.9-0.7-1.1-0.9c-0.2-0.1-0.6-0.4-1.2-0.9c-0.6-0.4-1-0.7-1.1-0.8h-1.7c-1.3,0-2.6,0.1-3.9,0.2c-1.3,0.1-2.6,0.4-3.9,0.9  c-1.3,0.4-2.5,1-3.6,1.7c-1,0.6-1.8,1.6-2.5,2.7c-0.6,1.2-1,2.5-1,3.9c0,1.7,0.4,3.1,1.3,4.3c0.9,1.3,2,2.3,3.4,3.1  c1.4,0.8,2.8,1.3,4.4,1.7c1.5,0.4,3,0.5,4.5,0.5c1.4,0,2.8-0.1,4.1-0.4c1.3-0.3,2.5-0.8,3.6-1.4c1.1-0.6,2-1.6,2.7-2.7  C44.7,83.2,45.1,81.9,45.1,80.4L45.1,80.4z M40.1,26.6c0-1.4-0.2-2.8-0.6-4.3c-0.4-1.5-0.9-3-1.6-4.4c-0.7-1.4-1.7-2.6-2.9-3.5  C33.9,13.4,32.5,13,31,13c-2.1,0-3.8,0.8-5,2.4c-1.2,1.5-1.7,3.4-1.6,5.5c0,1.1,0.1,2.2,0.4,3.4c0.3,1.2,0.6,2.3,1.1,3.6  c0.5,1.2,1.1,2.2,1.9,3.1c0.8,0.9,1.6,1.7,2.7,2.4c1.1,0.6,2.2,0.8,3.4,0.8c2.2,0,3.8-0.7,4.8-2.1C39.6,30.7,40.1,28.8,40.1,26.6  L40.1,26.6z M48.1,80.7c0,1.9-0.4,3.5-1.2,4.9c-0.9,1.4-2,2.6-3.4,3.4c-1.4,0.8-2.9,1.4-4.5,1.8c-1.6,0.4-3.3,0.6-5,0.6  c-1.9,0-3.9-0.3-5.7-0.8c-1.9-0.4-3.7-1.1-5.5-2.1c-1.7-0.9-3.1-2.2-4.2-3.8c-1-1.6-1.6-3.4-1.7-5.5c0-1.8,0.4-3.4,1.2-4.8  c0.8-1.4,1.9-2.5,3.1-3.4c1.3-0.9,2.8-1.6,4.5-2.1c1.7-0.5,3.3-0.9,4.9-1.2c1.6-0.2,3.2-0.3,4.8-0.3c1,0,1.8,0,2.3,0.1  c0.1,0.1,0.6,0.4,1.4,1c0.8,0.6,1.3,0.9,1.5,1.1c0.3,0.1,0.7,0.5,1.5,1.1c0.6,0.5,1.1,0.9,1.4,1.1c0.3,0.2,0.7,0.6,1.3,1.2  c0.5,0.5,0.9,1,1.1,1.4c0.3,0.4,0.6,0.8,1,1.4c0.4,0.5,0.7,1,0.8,1.5c0.1,0.5,0.3,1,0.4,1.6C48.1,79.4,48.1,80.1,48.1,80.7  L48.1,80.7z M42.7,27.7c0,3-0.6,5.4-1.9,7.2c-1.3,1.8-3.5,2.7-6.5,2.7c-1.5,0-3-0.4-4.3-1.1c-1.4-0.8-2.6-1.8-3.6-3.1  c-0.9-1.3-1.8-2.7-2.5-4.2c-0.7-1.5-1.3-3.1-1.6-4.7c-0.4-1.6-0.5-3.1-0.5-4.5c0-2.9,0.8-5.4,2.4-7.5c1.5-2.1,3.7-3.1,6.5-3.1  c2,0,3.8,0.6,5.5,1.8c1.6,1.2,2.9,2.8,3.7,4.8c0.9,1.9,1.7,3.8,2.2,5.8C42.4,23.9,42.7,25.9,42.7,27.7L42.7,27.7z M101,13.6V26H87.8  v13H75.4V26H62.3V13.6h13.1V0.3h12.4v13.3H101z M46.4,57.9l-1.8-1.9l-1.1-1.2l-1.5-1.5l-0.9-1.7l-0.3-2.2l-0.1-1.2l0.1-1.6l0.1-1.4  l0.5-1.5l1.6-2.8c0.4-0.8,1.4-1.8,2.8-3.1c1.9-1.7,3.1-2.7,3.6-3.2c1.5-1.5,2.6-3.1,3.1-4.8c0.9-2.2,1.3-4.4,1.3-6.7  c0-3-0.6-5.9-1.9-8.7c-1.7-3.3-3.8-5.9-6.3-7.7l13.3,0.2l0.5-3L37.1,3.6c-2.5,0-5.7,0.4-9.5,1.2c-4.9,1.1-9,3.5-12.2,7.2  c-3.5,4-5.2,8.3-5.3,12.8c0,5.2,1.8,9.4,5.4,12.7c3.8,3.4,8.3,5.1,13.7,5.1c2.1,0,3.3,0,3.6-0.1l2.1-0.2l1.3-0.3L36,43.6l-0.4,2.9  l-0.8,1.7L34.4,50l0.1,2.3l0.8,1.8l1.3,2.2l1.5,2.4l1.2,2.1l0.6,1.3l0.4,0.6H38l-3.1,0.1c-1.8,0-4.4,0.2-7.7,0.6  c-2.5,0.3-5.2,0.9-8.1,1.9c-3,0.9-5.7,2.2-8,3.7c-2.5,1.6-4.3,3.5-5.5,5.8c-1.4,2.8-2.2,5.1-2.2,6.9c0,1.7,0.6,3.8,1.7,6.2  c0.6,1.4,2.3,3,4.9,4.8c1.2,0.8,3.2,1.8,6.1,2.9c1.7,0.6,3.8,1.2,6.3,1.7c2,0.4,4,0.5,6.1,0.4c9.4,0,16.7-2.3,21.9-6.8  c5.5-4.8,8.2-9.7,8.2-14.6c0-2.7-0.1-4.5-0.4-5.5c-0.4-1.2-1.2-2.7-2.4-4.3s-2.3-2.8-3.1-3.6c-1.1-1.1-2.2-2-3.2-2.8  C48.3,59.4,47.3,58.6,46.4,57.9L46.4,57.9L46.4,57.9z M38.3,0.3h25.5l-2.3,9.4l-8.7-0.4c1.5,1.7,2.6,3.6,3.4,5.8  c0.7,2.1,1.1,4.7,1.1,7.8c0,3-0.5,5.7-1.4,8c-0.9,2.3-2,4.1-3.4,5.5c-1.4,1.4-2.7,2.7-4,3.9c-1.4,1.2-2.5,2.5-3.4,3.7  s-1.4,2.6-1.4,4.1c0,1.1,0.3,2.1,1,3c0.6,1,1.5,2,2.6,2.9c1.1,0.9,2.3,1.9,3.6,2.9c1.3,1,2.6,2.1,3.8,3.4c1.3,1.2,2.5,2.6,3.6,4  c1.1,1.4,1.9,3.1,2.6,5.1c0.6,2,1,4.2,1,6.5c0,6.4-2.8,12.1-8.4,17c-6.1,5.3-14.6,7.9-25.3,7.9c-2.4,0-4.8-0.2-7.2-0.6  c-2.5-0.4-4.9-1-7.4-1.9c-2.5-0.9-4.6-2.1-6.5-3.5s-3.4-3.2-4.6-5.4c-1.2-2.2-1.8-4.6-1.8-7.4c0-2.5,0.8-5.2,2.3-8.1  c1.3-2.6,3.2-4.8,5.7-6.7c2.6-1.9,5.5-3.3,8.8-4.3c3.3-1,6.4-1.7,9.4-2.2c3-0.4,6-0.7,9-0.8c-2.6-3.3-3.9-6.3-3.8-9.1  c0-0.5,0-1,0.1-1.4c0.1-0.4,0.1-0.8,0.2-1.2c0.1-0.3,0.2-0.7,0.5-1.2c0.3-0.5,0.4-1,0.5-1.4c-1.6,0.2-3,0.3-4.2,0.3  c-6,0-11.1-2-15.4-5.9c-4.3-3.9-6.4-8.9-6.4-14.9c0-5.6,1.9-10.7,5.7-15.1c3.9-4.5,8.6-7.4,14.2-8.4C30.8,0.8,34.5,0.3,38.3,0.3  L38.3,0.3z"
     id="path6" /></svg>