<?xml version="1.0" encoding="UTF-8" standalone="no"?>
<svg
   xmlns:dc="http://purl.org/dc/elements/1.1/"
   xmlns:cc="http://creativecommons.org/ns#"
   xmlns:rdf="http://www.w3.org/1999/02/22-rdf-syntax-ns#"
   xmlns:svg="http://www.w3.org/2000/svg"
   xmlns="http://www.w3.org/2000/svg"
   version="1.1"
   viewBox="0 -143 1000 1000"
   id="svg2">
  <metadata
     id="metadata12">
    <rdf:RDF>
      <cc:Work
         rdf:about="">
        <dc:format>image/svg+xml</dc:format>
        <dc:type
           rdf:resource="http://purl.org/dc/dcmitype/StillImage" />
        <dc:title></dc:title>
      </cc:Work>
    </rdf:RDF>
  </metadata>
  <defs
     id="defs10" />
  <g
     transform="matrix(1.1668611,0,0,-1.1668611,-81.680258,936.92997)"
     id="g4">
    <path
       d="m 441,280 q 0,3 -1,6 0,3 -2,6 -1,2 -3,5 -2,3 -3,5 -1,2 -4,5 -3,3 -4.5,4 -1.5,1 -4.5,4 -3,3 -5,3 -1,1 -5.5,4 -4.5,3 -5.5,4 l -7,0 q -8,0 -16.5,-1 -8.5,-1 -17.5,-4 -9,-3 -15.5,-7.5 Q 340,309 336,302 q -4,-7 -5,-17 0,-11 6,-20 6,-8 14,-13 9,-5 19,-7 10,-2 21,-2 9,0 17.5,1.5 8.5,1.5 15.5,6.5 7,4 12,11 5,8 5,18 z m 43,-4 q 0,-18 -8,-31 -8,-13 -21,-20.5 -13,-7.5 -29,-11.5 -15,-3 -32,-3 -18,0 -35.5,4.5 Q 341,219 324,227 q -16,9 -26,24 -10,15 -10,34 0,17 8,30 8,13 19.5,21 11.5,8 27.5,13 16,5 31,7 15,2 29,2 l 15,0 q 1,-1 8,-6 7,-5 10,-6 2,-1 8,-7 6,-5 9,-7 2,-2 8,-7 5,-5 7.5,-8.5 2.5,-3.5 5.5,-9.5 3,-5 6,-9 1,-5 2,-11 2,-5 2,-11 z m -66,382 q 0,9 -2.5,19 -2.5,10 -7,19 -4.5,9 -12.5,15 -8,6 -18,7 -14,0 -21,-11 -7,-10 -8,-24 0,-7 1.5,-14.5 1.5,-7.5 5.5,-15.5 3,-8 8,-14 5,-6 12,-10 7,-4 14,-4 14,0 21,9 7,9 7,24 z m 31,-13 q 0,-28 -13,-45 -12,-17 -39,-17 -15,0 -28,8 -13,7 -22,19 -9,12 -15,26 -7,15 -10.5,29.5 -3.5,14.5 -3.5,27.5 0,27 14.5,47 14.5,20 40.5,20 19,0 34,-12 15,-12 24,-29.5 9,-17.5 13,-36.5 5,-20 5,-37 z m 411,76 -110,0 0,111 -47,0 0,-111 -99,0 0,-47 99,0 0,-110 47,0 0,110 110,0 0,47 z m 67,44 0,-536 0,-157 q 0,-3 -161,-3 L 231,69 Q 70,69 70,67 l 0,162 0,536 0,160 q 0,1 161,1 l 535,0 q 161,0 161,1 l 0,-162 z m -461,-333 -12,12 -9,8 -8,13 -7,12 -2,15 -1,9 2,11 1,10 6,13 15,28 q 5,9 20,22 21,17 23,22 16,32 16,33 11,21 10,36 -3,29 -21,63 -21,38 -54,59 l 111,-1 0,0 -139,0 q -19,0 -66,-11 -45,-9 -71,-39 -36,-41 -35,-85 0,-47 25,-70 40,-37 92,-36 l 25,0 15,2 20,1 2,-16 -2,-31 -6,-12 -2,-12 1,-15 6,-14 8,-15 11,-16 9,-15 7,-8 4,-22 -25,-1 -32,0 q -26,-4 -54,-4 -28,0 -59,-14 -21,-9 -49,-26 -20,-12 -31,-34 -8,-16 -9,-31 0,-20 8,-31 7,-13 27,-32 1,-1 36,-15 21,-8 43,-13 21,-3 43,-3 95,0 141,41 48,42 49,91 0,19 -5,32 -8,22 -13,26 -6,8 -19,24 -10,11 -25,22 -20,16 -20,17 z m -41,400 q -39,0 -78,-8 -58,-12 -98,-59 -40,-46 -40,-105 0,-62 45,-103.5 45,-41.5 107,-41.5 13,0 29,2 -1,-3 -3,-8 l -3,-9 q 0,0 -2,-8 -2,-8 -1,-10 0,-27 27,-63 -32,-1 -63,-5.5 Q 314,409 280,399 246,389 219.5,369 193,349 179,323 q -16,-31 -15,-57 0,-28 12.5,-51 12.5,-23 32.5,-37 20,-15 45,-24 26,-10 51,-14.5 25,-4.5 50,-3.5 112,0 176,54 59,51 59,118 0,23 -7,44.5 -7,21.5 -18.5,36 Q 553,403 540,416 q -14,13 -27,23 -14,10 -24,20 -11,10 -18,20.5 -7,10.5 -7,21.5 0,15 9.5,28 9.5,13 23.5,25.5 14,12.5 28,27.5 14,15 23.5,38.5 9.5,23.5 9.5,55.5 0,61 -11.5,76.5 Q 535,768 514,785 l 75,0 14,47 -178,0 z"
       id="path6"
       style="fill:currentColor" />
  </g>
</svg>
