<?xml version="1.0" encoding="UTF-8" standalone="no"?>
<svg
   xmlns:dc="http://purl.org/dc/elements/1.1/"
   xmlns:cc="http://creativecommons.org/ns#"
   xmlns:rdf="http://www.w3.org/1999/02/22-rdf-syntax-ns#"
   xmlns:svg="http://www.w3.org/2000/svg"
   xmlns="http://www.w3.org/2000/svg"
   xml:space="preserve"
   style="enable-background:new 0 0 101.6 101.6;"
   viewBox="0 0 101.6 101.6"
   y="0px"
   x="0px"
   id="svg2"
   version="1.1"><metadata
     id="metadata35"><rdf:RDF><cc:Work
         rdf:about=""><dc:format>image/svg+xml</dc:format><dc:type
           rdf:resource="http://purl.org/dc/dcmitype/StillImage" /><dc:title></dc:title></cc:Work></rdf:RDF></metadata><defs
     id="defs33" /><g
     id="g3"><path
       id="path5"
       d="M0,0v101.6h101.6V0H0z M96.5,96.5H5.1V5.1h91.5V96.5z" /><rect
       id="rect7"
       height="5.6"
       width="19.4"
       y="20.8"
       x="13.2" /><rect
       id="rect9"
       height="5.6"
       width="19.4"
       y="20.8"
       x="41.1" /><rect
       id="rect11"
       height="5.6"
       width="19.4"
       y="20.8"
       x="69" /><rect
       id="rect13"
       height="5.6"
       width="19.4"
       y="38.9"
       x="13.2" /><rect
       id="rect15"
       height="5.6"
       width="19.4"
       y="38.9"
       x="41.1" /><rect
       id="rect17"
       height="5.6"
       width="19.4"
       y="38.9"
       x="69" /><rect
       id="rect19"
       height="5.6"
       width="19.4"
       y="57.1"
       x="13.2" /><rect
       id="rect21"
       height="5.6"
       width="19.4"
       y="57.1"
       x="41.1" /><rect
       id="rect23"
       height="5.6"
       width="19.4"
       y="57.1"
       x="69" /><rect
       id="rect25"
       height="5.6"
       width="19.4"
       y="75.2"
       x="13.2" /><rect
       id="rect27"
       height="5.6"
       width="19.4"
       y="75.2"
       x="41.1" /><rect
       id="rect29"
       height="5.6"
       width="19.4"
       y="75.2"
       x="69" /></g></svg>