<?xml version="1.0" encoding="utf-8"?>
<!-- Generator: Adobe Illustrator 21.1.0, SVG Export Plug-In . SVG Version: 6.00 Build 0)  -->
<svg version="1.1"
	 id="svg2" xmlns:cc="http://creativecommons.org/ns#" xmlns:dc="http://purl.org/dc/elements/1.1/" xmlns:rdf="http://www.w3.org/1999/02/22-rdf-syntax-ns#" xmlns:svg="http://www.w3.org/2000/svg"
	 xmlns="http://www.w3.org/2000/svg" xmlns:xlink="http://www.w3.org/1999/xlink" x="0px" y="0px" viewBox="0 0 1055 1055"
	 style="enable-background:new 0 0 1055 1055;" xml:space="preserve">
<g>
	<path d="M1038.6,368.4c-11.9-37.6-30.9-56.7-56.5-56.7c-0.3,0-0.6,0-0.9,0c-3.1,0-6.6,1-26.1,12.7l-0.2,0.1l-0.2,0.1
		c-12.1,8-28.9,16.3-50.2,24.4c-20,7.2-39.5,10.9-57.8,10.9c-20.9,0-43.4-4.1-66.9-12.2l-15.9-5.5l11.8,44.9l4.4,1.6
		c23.7,8.8,50.4,13.3,79.3,13.3c17.1,0,34.6-3.4,52.1-10.1c16.9-6.5,30.9-13.4,41.5-20.4c9.7-5.6,13.1-7.2,14.2-7.6
		c0.4,0,0.7,0,1.1,0c5.2,0,9.5,1.9,13.5,6c11.7,11.8,25.4,46.2,24.6,143.7c0,21.1-6,36.7-18.3,47.7c-13.5,10.6-29,15.8-47.2,15.8
		c-1.2,0-2.5,0-3.7-0.1l-83.3-1.7l43.5,47.6h47.1c32.5,0,58.8-8.4,78.1-25c21.5-17.8,32.4-43.2,32.4-75.4
		C1055,454.5,1049.5,402.7,1038.6,368.4z"/>
	<path d="M846.8,329.6c38.8,0,72.7-15.5,100.6-46.1C975,253.2,989,216.4,989,174.1s-14-79.1-41.7-109.5
		C919.4,34,885.6,18.5,846.8,18.5c-38.8,0-72.7,15.5-100.6,46.1c-26.8,29.5-40.4,66.1-40.4,108.8c-0.9,42.8,12.7,79.8,40.4,110.2
		C774.1,314.1,807.9,329.6,846.8,329.6z M915,98.9c18.9,20.9,28.1,45.5,28.1,75.2c0,29.6-9.2,54-28,74.4
		c-20.4,21.2-42.3,31.4-67.1,31.4c-26.3,0-48.2-10-66.9-30.7c-19-20.9-28.4-45.6-28.8-75.3c-0.4-29.6,8.6-54.4,27.5-75.7
		c19.5-21,41.8-31.3,68.1-31.3C874.3,67.8,896.2,78.2,915,98.9z"/>
	<path d="M207.6,329.6c38.4,0,72-15.5,99.9-46.1c27.7-30.3,41.7-67.2,41.7-109.5c0-42.3-14-79.1-41.6-109.4
		c-27-30.6-60.5-46.1-99.3-46.1c-38.8,0-72.7,15.5-100.6,46.1C80,94.9,66,131.8,66,174.1s14,79.1,41.7,109.5
		C135.6,314.1,169.2,329.6,207.6,329.6z M275.9,99c19.3,20.9,28.7,45.5,28.7,75.1c0,29.7-9.4,54.5-28.8,75.8
		c-19.1,21.1-41,31.3-66.9,31.3c-25.9,0-47.8-10.2-66.9-31.3c-19.3-21.3-28.8-45.9-28.8-75.2c0-30.1,9.4-54.9,28.7-75.7
		c19.1-20.7,41-30.7,67-30.7C234.8,68.2,256.7,78.3,275.9,99z"/>
	<path d="M208,577.9l-92.5,1.5c-22.6,0-39.2-5.5-49.2-16.2l-0.2-0.2c-14.5-14.5-21.5-29.8-21.5-46.9c0.4-51.8,4.6-91,12.5-116.5
		c6.8-22.1,16.1-33.3,27.6-33.3c0.3,0,0.7,0,1.1,0c1.4,0.7,4.9,2.5,13.9,7.8c13.1,7.8,27.2,14.5,42,19.7
		c17.8,7.1,35.1,10.7,51.4,10.7c28,0,56.8-5.3,85.6-15.8l5.6-2l2.3-43.7l-12.8,4.8c-21.7,8-44.2,12.1-66.7,12.1h-0.2l-0.2,0
		c-1.5,0.1-3.1,0.1-4.7,0.1c-16,0-33.6-3.7-52.5-10.9c-18-7.4-34.7-15.7-49.4-24.7l-0.3-0.2c-22.1-12.4-24.6-12.6-27.2-12.6
		c-0.3,0-0.6,0-0.9,0c-25.2,0-43.9,19.1-55.6,56.8C5.4,402.7,0,454.6,0,522.4c0,32.3,10.9,57.7,32.5,75.5
		c20.2,16.5,46,24.9,76.8,24.9h75.2L208,577.9z"/>
	<path d="M384.4,555.1c40.5,44.9,88.7,67.7,143.1,67.7s102.6-22.8,143.1-67.7c40.3-44.6,60.7-98.8,60.7-160.8
		c0-62.9-20.4-117.5-60.7-162.1c-40.5-44.9-88.7-67.7-143.1-67.7c-54.4,0-102.6,22.8-143.1,67.7c-40.3,44.6-60.7,99.2-60.7,162.1
		C323.7,456.3,344.1,510.4,384.4,555.1z M416.9,265.6c31.5-36.3,68.7-54,113.7-54c40.3,0.8,76.5,19,107.6,54.1
		c31.3,35.4,47.2,78.6,47.2,128.5c0,49.9-16.3,93.1-48.4,128.5l-0.1,0.1c-31.5,35.5-67.3,52.8-109.4,52.8
		c-42.2,0-78.4-17.3-110.7-52.9l-0.1-0.1c-32.9-35.3-49.6-78.5-49.6-128.3c0.8-49.9,17.5-93.2,49.7-128.5L416.9,265.6z"/>
	<path d="M887.3,782.4l0-0.2l0-0.2c-4.2-22.1-9-43.2-14.1-62.8c-5.2-20-12.7-39.5-22.3-57.7l-0.1-0.1c-11.4-21-22.6-37-33.3-47.8
		l-0.2-0.2c-15.9-15.1-31.8-25.9-47.1-32.2c-18.6-8-39.1-12-61.1-12.1c-0.6-0.1-1.2-0.1-1.9-0.1c-4.2,0-10.6,1.5-26.3,12.5
		c-11.5,8.1-24.4,17.5-38.3,28.1c-13.1,10-31.1,18.9-53.3,26.6c-22.2,7.7-43,11.6-61.8,11.6c-18.8,0-40.2-4.1-63.6-12.2
		c-20.2-7.3-37.8-16.3-52.4-26.8c-14.4-10.1-27.2-19.1-38.1-26.7c-16.5-11.4-22.6-13-26.7-13c-23.2,0-44.1,4.1-62.1,12.2
		c-17.8,8-33.7,18.9-47.1,32.3c-12.5,12.5-23.7,28.4-33.4,47.3c-9.5,18.6-17.4,37.8-23.4,57.3c-6,19.4-10.8,41-14.3,64.1
		c-3.4,22-5.7,38.8-7,49.8c-1.3,11.3-2,27.4-2,48c0,47,13.6,85.4,40.5,114l0.1,0.1c27,27.9,63.4,42.1,108,42.1h442.8
		c1.3,0,2.6,0,3.9,0c42.9,0,77.6-14.2,103-42.3c26.8-28.7,40.5-67,40.5-114c0-20.5-0.7-36.7-2-48C893,821.2,890.7,804.4,887.3,782.4
		z M203.3,873.9c-0.5-3.5-0.7-10.7,1.3-25.5l0-0.2l0-0.2c1.7-18.3,4.2-37.2,7.5-56.4l0-0.1c3.3-20.8,7.3-40.1,11.9-57.5
		c4.4-16.9,11.2-33.2,20-48.5l0.2-0.4l0.2-0.4c6.3-14.1,15.5-27.3,27.3-39.2c11-11,24.1-19.7,39-26l0.3-0.1l0.3-0.1
		c4.2-2.1,8.7-3.1,13.8-3.1c1.2,0,2.4,0.1,3.6,0.2c2.4,0.6,8.9,2.7,26.8,10.7c8.7,4,15.5,7.5,20.1,10.6c10.1,7.5,21.5,16,34.1,25.2
		c15.1,11.5,33,20.9,53.2,27.9l0.2,0.1l0.2,0.1c23.5,7,45,10.7,63.9,11.2c1,0,2,0,3.1,0c0,0,0,0,0,0c18.3,0,38.3-3.8,59.2-11.4
		l0.3-0.1c21.8-8.7,39.5-18,52.7-27.7l0.2-0.1l0.1-0.1c3.9-3.1,10-7.2,18-12c10.2-6.1,14.1-9,16.1-10.7c5.8-3.6,8.3-4.4,8.8-4.5h1.8
		l9.9-4.9l0.3-0.2c19.9-12.3,25.5-14.7,26.8-15.2c1-0.1,2.1-0.1,3.1-0.1c5.1,0,9.7,1.3,13.9,3.9l0.1,0.1
		c18.6,11.3,31.1,20.6,37.3,27.5l0.2,0.2l0.2,0.2c14.3,14.3,23.9,27.1,28.5,37.8l0.1,0.2l0.1,0.2c9.9,20.5,16.5,37.1,19.7,49.2
		l0,0.2c5,17.3,9.1,36.4,12.5,56.7c3.4,20.5,5.7,35.4,7,44.2c1.2,8.4,1.8,21.8,1.8,39.8c-0.8,18.1-3.5,32.8-8.1,43.5
		c-4.7,10-13.1,21.6-25,34.3c-21.3,22.8-49.4,33.9-86,33.9H322.6c-36.6,0-64.8-11.1-86-33.9l-0.2-0.2
		c-11.9-11.9-20.5-23.4-25.5-34.2c-4.9-10.6-7.4-25.1-7.4-43.2v-0.6L203.3,873.9z"/>
</g>
</svg>
