<?xml version="1.0" encoding="utf-8"?>
<!-- Generator: Adobe Illustrator 21.1.0, SVG Export Plug-In . SVG Version: 6.00 Build 0)  -->
<svg version="1.1"
	 id="svg2" xmlns:cc="http://creativecommons.org/ns#" xmlns:dc="http://purl.org/dc/elements/1.1/" xmlns:rdf="http://www.w3.org/1999/02/22-rdf-syntax-ns#" xmlns:svg="http://www.w3.org/2000/svg"
	 xmlns="http://www.w3.org/2000/svg" xmlns:xlink="http://www.w3.org/1999/xlink" x="0px" y="0px" viewBox="0 0 1000 1018"
	 style="enable-background:new 0 0 1000 1018;" xml:space="preserve">
<path d="M901.4,655.7c26.3-72.7,39.6-134.4,39.6-183.2c0-54.2-16-98.5-47.5-131.8c-31.1-32.8-73.6-49.7-126.5-50.3
	c-29.6-22.6-64-34.1-102.2-34.1h-0.4l-21.7,1.8c-19.2-10.3-44.7-17-76-20.1v-85.8c0-41.7-15.2-77.9-45.2-107.5
	C491.4,15,460.8,0,430.4,0c-29.7,0-60,15.2-89.9,45.2c-30,30-45.2,66-45.2,107V365c-20.7-5.7-46.9-8.7-78.1-8.7
	c-48.4,0-87.3,15.3-115.7,45.4c-28.2,30-42.5,64.2-42.5,101.8c0,15.5,3.7,30,11.1,43.3c6.6,12.4,16.5,23.7,29.5,33.4
	c12.7,9.5,26.3,16.9,40.5,21.8c13,4.5,27.2,10.5,42.1,17.6c26.5,12.8,32.2,16.2,33.4,17c27.1,23.1,51.3,42,72,56
	c0.9,0.9,3.1,2.8,8.7,7.7l0.3,0.2l0.3,0.2c4.8,3.6,8.4,6.5,10.7,8.9c2.9,3.5,6.8,7.5,12,12l31.1,43.3l7.7,69.9l-2,30.6l1,72.3
	c-0.3,23.2-0.5,41-0.5,52.8c0,19.8,0,21.5,3.1,24.6l2.7,2.7h508l2.6-2.6c3.1-3.1,3.1-4.8,3.1-24.6c0-11.8-0.2-29.6-0.5-52.8l1-85.3
	l-8.6-29.1l-9.3-18.6l1.8-37.3L901.4,655.7z M662.7,967H414.4V864.8h248.3V967z M707.7,964.9v-98h117.2l0.8,97.2L707.7,964.9z
	 M835.2,688.1l-24.3,94l-2.1,21.2v10.5l-386.4,1V802l-17.8-43l-15.7-31.3l-60.2-70.4l-0.5-0.4C296.7,629.3,266,606.1,237,588
	l-0.2-0.1c-16.8-10.1-30.8-17.9-41.6-23.4c-66.2-33.1-82.8-44.7-87-48.4c1.2-18.8,9.4-39.5,24.3-61.6c25.7-37.7,41.1-43.8,48-44.1
	c21.1-0.9,36.1-1.3,44.6-1.3c4.7,0,6.2,0.1,6.5,0.2c6.8,1.4,27.4,5.1,61.1,11l53.6,10l2.1-306.1c0-4.6,4.2-19.5,43.3-58.6
	c9-8.4,20.1-12.5,33.8-12.5c20.8,0,36.5,5.2,46.7,15.4c39,39,42.3,52.3,42.4,55.6l-5.5,195.7l45.7-28.2l32.4,2.6l18.4,9.2l33.4,17.3
	l4.3-2.5c11.2-6.5,24.2-9.8,38.5-9.8c5.9,0,18,2.4,42.1,14.1l0.3,0.1c15.5,6.9,25.3,14.5,28.3,22.1l2.7,6.8l7.2-1.3
	c11.2-2,20.5-3.1,27.9-3.1c1.7,0,3.4,0.1,4.9,0.2c28.5,2.1,50.2,14,66.2,36.1c16.5,22.7,26.8,56.7,30.6,100.9
	c1.9,19.9-7.1,57.7-26.5,112.2L835.2,688.1z"/>
</svg>
