<?xml version="1.0" encoding="utf-8"?>
<!-- Generator: Adobe Illustrator 21.1.0, SVG Export Plug-In . SVG Version: 6.00 Build 0)  -->
<svg version="1.1"
	 id="svg2" xmlns:cc="http://creativecommons.org/ns#" xmlns:dc="http://purl.org/dc/elements/1.1/" xmlns:rdf="http://www.w3.org/1999/02/22-rdf-syntax-ns#" xmlns:svg="http://www.w3.org/2000/svg"
	 xmlns="http://www.w3.org/2000/svg" xmlns:xlink="http://www.w3.org/1999/xlink" x="0px" y="0px" viewBox="0 0 1018 1000"
	 style="enable-background:new 0 0 1018 1000;" xml:space="preserve">
<path d="M1008.6,358.3c-0.9-0.1-2.2-0.1-3.8-0.2c-3-0.1-7.6-0.1-13.6-0.1c-11.8,0-29.7,0.2-53.2,0.5l-73.2-1l-29.6,2l-69.9-7.7
	l-44.2-31c-4.5-5.1-8-8.9-10.7-11.6c-2.5-2.5-6.1-6.4-10.6-11.6c-4.8-5.5-6.8-7.7-7.7-8.7c-14-20.6-32.5-44.8-54.9-71.9
	c-0.9-1.3-4.5-7.3-18-33.5c-7.1-14.9-13-29-17.6-42c-4.9-14.1-12.1-27.6-21.2-40.3c-9.4-13-20.6-23.3-33.3-30.5
	c-13-7.4-27.4-11.2-43-11.2c-37.6,0-71.9,14.6-102.2,43.5c-29.7,28.3-45.1,66.8-45.8,114.4l0,0.1c0,31.3,3.2,57.8,9.4,79H153
	c-40.9,0-77,15.2-107.3,45.1C15.4,371.6,0,401.8,0,431.5c0,30.3,15,60.9,44.6,90.8c29.6,30,66.1,45.2,108.4,45.2h85.7
	c3,31.2,9.4,56.7,19.1,75.9c-0.5,7.4-0.8,14.8-0.8,22.1c0,38.1,11.1,72.4,33,102c0.6,52.9,17.5,95.3,50.3,126
	c33.2,31.1,77.9,46.9,132.7,46.9c48.8,0,110.4-13,183.1-38.5l111.7-40.5l36.3-1.8l18.6,9.3l29.1,8.6l86.2-1
	c23.2,0.3,41,0.5,52.8,0.5c19.9,0,21.5,0,24.6-3.1l2.6-2.6V367.5C1018,367.2,1017.9,359.1,1008.6,358.3z M964.9,708.5l-0.9,117H866
	v-117H964.9z M865,662.6V415.4l101-0.8v248.8L865,662.6z M490.1,892.8c-1.9,0-3.6-0.1-5.3-0.2c-44.1-3.8-78-14.1-100.8-30.6
	c-22.1-16-33.9-37.6-36.1-66.2c-0.6-7.9,0.4-19.2,2.9-33.8l1.3-7.2l-6.8-2.7c-7.7-3.1-15.8-12.6-23.3-27.6
	c-11.5-23.8-13.5-35.7-13.1-41.4l0-0.3v-0.3c0-14.3,3.3-27.3,9.8-38.5l2.5-4.3L304,606.4l-9.3-18.5l-3.5-32.4l28-46.6l-194.3,6.6
	c-3.3-0.1-16.7-3.5-55.5-42.4C59.2,462.9,54,446.9,54,425.5c0-13.6,4-24.3,12.4-32.6c39.1-39.1,54-43.4,58.7-43.4l306-2.1
	l-11.2-53.6c-6-34.2-9.6-54.1-11-61c-0.2-1.7-0.6-10.1,1.1-50.9c0.3-6.9,6.4-22.3,44-47.9c22.1-14.9,43.1-23.1,62.5-24.3
	c3.7,4.2,15.1,20.9,47.4,86.9c5.4,10.8,13.3,24.8,23.3,41.6l0.1,0.2c18.2,29,41.7,59.6,69.9,91.2l0.4,0.5l70.3,59.1l31.1,15.6
	l41.9,18.9H814l-1,386h-10.5l-21.1,2.1l-93,23.2L596,866C546.3,883.8,510.6,892.8,490.1,892.8z"/>
</svg>
