<?xml version="1.0" encoding="utf-8"?>
<!-- Generator: Adobe Illustrator 21.1.0, SVG Export Plug-In . SVG Version: 6.00 Build 0)  -->
<svg version="1.1"
	 id="svg2" xmlns:cc="http://creativecommons.org/ns#" xmlns:dc="http://purl.org/dc/elements/1.1/" xmlns:rdf="http://www.w3.org/1999/02/22-rdf-syntax-ns#" xmlns:svg="http://www.w3.org/2000/svg"
	 xmlns="http://www.w3.org/2000/svg" xmlns:xlink="http://www.w3.org/1999/xlink" x="0px" y="0px" viewBox="0 0 1018 1000"
	 style="enable-background:new 0 0 1018 1000;" xml:space="preserve">
<path d="M972.8,341.5c-30-30-66-45.2-107-45.2H653.9c5.8-21.2,8.7-47.8,8.7-79.1l0-0.1c-0.7-47.7-16.1-86.2-45.8-114.5
	c-30.3-28.9-64.7-43.5-102.3-43.5c-15.5,0-30,3.8-43,11.2c-12.7,7.3-24,17.6-33.4,30.6c-9.1,12.7-16.3,26.2-21.2,40.3
	c-4.5,13-10.5,27.2-17.6,42.1c-13.5,27.8-16.5,32.7-17.1,33.6c-21.1,28.3-39.7,52.3-55.5,71.4c-0.7,0.7-2.2,2.5-7.8,9.3
	c-4,4.9-7.4,8.6-10,11c-3.2,2.8-7,6.7-11.6,12l-43.3,31.1l-69.9,7.7l-29.6-2l-73.3,1C57.2,358,39,357.9,27,357.9
	c-6.1,0-10.7,0-13.8,0.1c-1.7,0-3,0.1-3.9,0.2C0.1,359,0,367,0,367.4v506.1l5,2.5c2.2,1.1,2.9,1.5,23,1.5c12,0,29.8-0.2,53.1-0.5
	l85.3,1l29.1-8.6l18.6-9.3l36.3,1.8l111.8,40.6c70.5,25.6,132.2,38.6,183.2,38.6c54.8,0,99.5-15.8,132.8-47
	c32.8-30.7,49.7-73.1,50.4-126.1c22.6-29.6,34.1-64,34.1-102.2v-0.4l-1.8-21.7c10.3-19.2,17-44.7,20.1-76h84.8
	c41.7,0,77.9-15.2,107.5-45.2c29.6-30,44.6-60.6,44.6-90.9C1018,401.7,1002.8,371.5,972.8,341.5z M894.6,515.5l-0.3,0L699.5,509
	l28,46.7l-2.6,32.4l-9.2,18.4l-17.3,33.3l2.5,4.3c6.5,11.2,9.8,24.2,9.8,38.5c0,5.9-2.4,18-14.1,42.1l-0.1,0.1
	c-6.9,14.9-14.6,24.4-22.2,27.4l-6.8,2.7l1.3,7.2c2.5,14.5,3.5,25.9,2.9,33.8c-2.1,28.5-14,50.2-36.1,66.2
	c-22.7,16.5-56.7,26.8-100.9,30.6l-0.2,0c-1.4,0.1-2.9,0.2-4.6,0.2c0,0,0,0,0,0c-19.2,0-55.4-9-107.6-26.8l-91.5-31.2l-94.1-23.3
	l-20.1-2.1h-11.5V423.4h13l42-18.9l31.2-15.6l69.4-59.2l0.4-0.5c28.2-31.6,51.8-62.3,69.9-91.2c10.8-16.9,19-31,24.5-41.9
	c31.7-63.4,43.1-81.8,47.1-87c19.9,1.3,41,9.5,62.9,24.3c36.8,25.6,42.8,41.1,43.1,48c1.7,40.9,1.4,49.3,1.1,51
	c-1.4,6.8-5.1,27.4-11,61.1l-10,53.6l305,2.1c4.6,0,19.7,4.3,58.8,43.4c8.3,8.3,12.4,19,12.4,32.7c0,21.4-5.2,37.5-15.4,47.7
	C910.2,512.5,897.5,515.5,894.6,515.5z M152.2,708.7v117.1H54V708.7H152.2z M52,663.6V414.5l102.1,0.9v247.4L52,663.6z"/>
</svg>
