<?xml version="1.0" encoding="utf-8"?>
<!-- Generator: Adobe Illustrator 21.1.0, SVG Export Plug-In . SVG Version: 6.00 Build 0)  -->
<svg version="1.1"
	 id="svg2" xmlns:cc="http://creativecommons.org/ns#" xmlns:dc="http://purl.org/dc/elements/1.1/" xmlns:rdf="http://www.w3.org/1999/02/22-rdf-syntax-ns#" xmlns:svg="http://www.w3.org/2000/svg"
	 xmlns="http://www.w3.org/2000/svg" xmlns:xlink="http://www.w3.org/1999/xlink" x="0px" y="0px" viewBox="0 0 1000 1018"
	 style="enable-background:new 0 0 1000 1018;" xml:space="preserve">
<path d="M901.3,362.3l-40.6-111.8l-1.8-37.3l9.3-18.6l8.6-29.1l-1-85.3c0.3-23.2,0.5-41,0.5-52.8c0-19.9,0-21.5-3.1-24.6L870.6,0
	H366.4l-3.8,0l-2.6,2.7c-3.1,3.1-3.1,4.7-3.1,24.6c0,11.8,0.2,29.6,0.5,52.8l-1,73.3l2,29.6l-7.7,70l-31.1,44.3
	c-5.1,4.5-8.9,8-11.6,10.7c-2.4,2.4-6.1,5.4-11,9.2l-0.3,0.2l-0.3,0.2c-5.5,4.8-7.7,6.8-8.7,7.7c-20.7,14-44.9,32.9-72,56
	c-1.4,1-7.5,4.6-33.5,18c-14.9,7.1-28.9,12.8-41.8,17c-14.2,4.6-27.9,11.8-40.7,21.4c-13,9.7-22.9,21-29.5,33.4
	c-7.4,13.3-11.1,27.9-11.1,43.3c0,37.6,14.3,71.8,42.5,101.8c28.3,30.1,67.3,45.4,115.7,45.4c31.2,0,57.4-2.9,78.1-8.7v213.9
	c0,41,15.2,77,45.2,107c29.3,29.3,59,44.2,88.1,44.2c0.7,0,1.3,0,2,0c30.3,0,60.9-15.1,90.8-44.6c30-29.6,45.2-65.5,45.2-106.5V780
	c31.3-3.1,56.8-9.8,76-20.1l21.7,1.8h0.4c38.2,0,72.5-11.1,102.1-33c53-0.6,95.6-17.7,126.6-50.9c31.5-33.6,47.5-78.1,47.5-132.3
	C940.9,496.7,927.6,435,901.3,362.3z M707.7,53.1L825.7,54l-0.8,97.2H707.7V53.1z M414.4,51h248.3v102.1H414.4V51z M891.9,533.7
	c-3.8,44.2-14.1,78.1-30.6,100.9c-16,22.1-37.7,33.9-66.2,36.1c-1.5,0.1-3.1,0.2-4.9,0.2c-7.3,0-16.7-1-27.9-3.1l-7.2-1.3l-2.7,6.8
	c-3,7.6-12.8,15.3-28.3,22.1l-0.3,0.1c-24,11.6-36.3,14.6-42.4,15.1c-14.3,0-26.7-3.5-37.9-10.6l-4.4-2.8l-33.6,17.4l-18.5,9.3
	l-32.4,3.5l-45.6-28.2l5.5,194.7c-0.1,3.3-3.4,16.6-42.4,55.6c-10.2,10.2-25.9,15.4-46.7,15.4c-13.7,0-24.8-4.1-33.8-12.5
	c-39.1-39.1-43.3-54-43.3-58.7l-2.1-306l-53.5,10c-34.3,6-54.3,9.7-61.2,11c-0.3,0-1.7,0.2-6.5,0.2c-8.4,0-23.4-0.4-44.5-1.3
	c-6.9-0.3-22.4-6.3-48-43.1c-14.9-22.1-23.1-43.1-24.3-62.5c4.2-3.7,20.9-15.1,87-47.5c10.8-5.4,24.8-13.3,41.6-23.4l0.2-0.1
	c29-18.2,59.7-41.7,91.3-70l0.5-0.4l60.2-70.4l15.6-31.3l17.8-42v-12.9h386.4v11.5l2.1,20.2l24.3,94l30.1,91.4l0.1,0.2
	C884.9,476,893.8,513.7,891.9,533.7z"/>
</svg>
