<?xml version="1.0" encoding="utf-8"?>
<!-- Generator: Adobe Illustrator 21.1.0, SVG Export Plug-In . SVG Version: 6.00 Build 0)  -->
<svg version="1.1"
	 id="svg2" xmlns:cc="http://creativecommons.org/ns#" xmlns:dc="http://purl.org/dc/elements/1.1/" xmlns:rdf="http://www.w3.org/1999/02/22-rdf-syntax-ns#" xmlns:svg="http://www.w3.org/2000/svg"
	 xmlns="http://www.w3.org/2000/svg" xmlns:xlink="http://www.w3.org/1999/xlink" x="0px" y="0px" viewBox="0 0 1009.7 1009.7"
	 style="enable-background:new 0 0 1009.7 1009.7;" xml:space="preserve">
<g>
	<path d="M669.9,673c-10.2-11-23.6-16.6-39.6-16.6c-16,0-29.8,5.6-40.8,16.6c-11,11-16.6,24.5-16.6,40.2c0,15.7,5.6,29.2,16.6,40.2
		c11,11,24.5,16.6,40.2,16.6c15.6,0,29.3-5.6,40.7-16.5c11.4-11,17.2-24.6,17.2-40.3C687.6,697.5,681.7,684,669.9,673z"/>
	<path d="M796.6,656.4c-15.7,0-29.2,5.6-40.2,16.6c-11,11-16.6,24.5-16.6,40.2c0,15.7,5.6,29.2,16.6,40.2c11,11,24.7,16.6,40.8,16.6
		c15.3,0,28.6-5.6,39.6-16.6c11-11,16.6-24.5,16.6-40.2c0-15.7-5.6-29.2-16.6-40.2C825.7,662,812.2,656.4,796.6,656.4z"/>
	<path d="M999,558.2L870.6,163.9c-11.3-37-22.1-59.2-33.1-67.7c-10.4-8.6-35.8-12.7-77.7-12.7l-509.8,0c-4-0.1-7.9-0.1-11.6-0.1
		c-34.4,0-56,3.4-66,10.3l-0.1,0.1c-6.1,4.4-16.1,16.5-33.3,70.1L10.7,558.3C3.5,580.7,0,597.3,0,608.8v240.4
		c0,34,3.8,53.6,11.9,61.8l0.1,0.1c11.1,10.3,32.5,15.3,65.1,15.3H901c70.8,0,87.2-8.1,93.3-14.3c6.6-6.6,15.4-23.6,15.4-94.4V608.8
		C1009.7,596.5,1006.2,579.9,999,558.2z M52.6,874.5c0.2-3.6,0.3-9,0.3-16v-266c0-4.1,1.6-7.8,5-11.2c3.4-3.4,7-5,11.2-5h870.5
		c4.1,0,7.8,1.6,11.2,5c3.4,3.4,5,7,5,11.2v266c0,9.1-0.3,13.3-0.4,15.2c-1.8,0.4-6.1,0.9-15.7,0.9H52.6
		C52.6,874.6,52.6,874.5,52.6,874.5z M199.4,130.3c5.5-0.6,11.1-1,16.6-1h573.2l0.2,0c3.7-0.4,7.4-0.6,10.9-0.6
		c2.6,0,5.2,0.1,7.6,0.3c0.7,2.1,2,6.7,4.3,16.4l0,0.2l120.6,380.1H79l113.6-379.8C196.5,135.6,198.5,131.7,199.4,130.3z"/>
</g>
</svg>
