<?xml version="1.0" encoding="utf-8"?>
<!-- Generator: Adobe Illustrator 21.1.0, SVG Export Plug-In . SVG Version: 6.00 Build 0)  -->
<svg version="1.1"
	 id="svg2" xmlns:cc="http://creativecommons.org/ns#" xmlns:dc="http://purl.org/dc/elements/1.1/" xmlns:rdf="http://www.w3.org/1999/02/22-rdf-syntax-ns#" xmlns:svg="http://www.w3.org/2000/svg"
	 xmlns="http://www.w3.org/2000/svg" xmlns:xlink="http://www.w3.org/1999/xlink" x="0px" y="0px" viewBox="0 0 1025 1025"
	 style="enable-background:new 0 0 1025 1025;" xml:space="preserve">
<path d="M966.6,459.1c0-62.2-11.2-120.8-33.4-174.1c-22.2-53.3-55.8-102.8-100.1-147c-43.9-43.9-93.2-77.4-146.4-99.5
	C633.5,16.5,574.9,5.2,512.5,5L511,5C449,5,390.6,16.2,337.4,38.3C284.3,60.3,235,93.9,190.9,138c-43.9,43.9-77.3,93.2-99.3,146.5
	c-22,53.3-33.1,112-33.1,174.6V649h1v6c0,60.8,21.8,113.8,64.7,157.4c42.3,43,93.6,64.8,152.6,64.8c1,0,1.9,0,2.9,0l7.4-0.1V433.9
	h-7.5c-71.8,0-129.2,26.8-170.7,79.8v-54.6c0-110.7,39.8-206.7,118.2-285.5C305.5,94.8,401.3,54.9,512,54.9
	c110.7,0,206.7,39.9,285.5,118.7c78.8,78.8,118.3,174.8,117.7,285.5v55c-17.4-21.5-39-39.5-64.4-53.7
	c-31.4-17.6-65.1-26.5-100.2-26.5c-1.4,0-2.7,0-4.1,0h-9.5v443.3h9.6c8.7,0,17.1-0.5,25.1-1.5c-46.3,38.9-100.1,66.5-160.4,82.4
	v-74.4H414.9V1030h194.3v-18.7c56.7-12.2,108.2-33.4,153.2-63.2c46.3-30.6,87.1-71,121-120.2c54.5-44.9,82.5-103.1,83.2-172.9
	L966.6,459.1z M466.3,979.6v-44.4h92.3v44.4H466.3z M915.1,655c0,41.1-13.1,77.7-39,108.9c-23.2,28.7-53.1,47.8-88.8,56.8V489.3
	c35.7,9,65.6,28.1,88.9,56.9C902,577.3,915.1,613.9,915.1,655z M236.6,489.3v331.3c-35.2-9-65-28.1-88.9-56.9
	c-26.4-31.1-39.5-67.6-38.9-108.6l0-0.1c0-40.4,13.1-77,38.9-108.8C171.6,517.5,201.5,498.4,236.6,489.3z"/>
</svg>
