<?xml version="1.0" encoding="utf-8"?>
<!-- Generator: Adobe Illustrator 21.1.0, SVG Export Plug-In . SVG Version: 6.00 Build 0)  -->
<svg version="1.1"
	 id="svg2" xmlns:cc="http://creativecommons.org/ns#" xmlns:dc="http://purl.org/dc/elements/1.1/" xmlns:rdf="http://www.w3.org/1999/02/22-rdf-syntax-ns#" xmlns:svg="http://www.w3.org/2000/svg"
	 xmlns="http://www.w3.org/2000/svg" xmlns:xlink="http://www.w3.org/1999/xlink" x="0px" y="0px" viewBox="0 0 1010.7 1010.7"
	 style="enable-background:new 0 0 1010.7 1010.7;" xml:space="preserve">
<path d="M927.5,134.6c-55.2-55.2-122.9-83.2-201-83.2c-46.5,0-89,9.3-126.3,27.7c-35.5,17.5-67.1,43.5-94.2,77.5
	c-27.4-34-59.4-60.1-95.1-77.5c-37.5-18.4-80.1-27.7-126.6-27.7c-78.1,0-145.7,28-201,83.2C28,189.8,0,257.4,0,335.6
	C0,411.3,26.8,477.7,79.7,533l426.3,428.6l418-421.5c57.6-55.2,86.8-124,86.8-204.5C1010.7,257.4,982.7,189.8,927.5,134.6z
	 M888.4,504.4L505.9,889.2L116.5,497.5c-43.1-45.4-65-99.9-65-162c0-64.4,22.6-120,67.3-165.4c45.4-45.4,101.1-68.4,165.4-68.4
	c47.7,0,91.8,13.4,131.2,39.9c38.6,26.5,67.4,61.8,85.6,105l5,11.9l4.9-11.9c17.4-42.4,46.2-77.7,85.6-105
	c38.6-26.5,82.3-39.9,130-39.9c64.3,0,120,23,165.4,68.4c45.4,45.4,68.4,101.1,68.4,165.4C960.3,401.4,936.1,458.2,888.4,504.4z"/>
</svg>
