<?xml version="1.0" encoding="UTF-8" standalone="no"?>
<svg
   xmlns:dc="http://purl.org/dc/elements/1.1/"
   xmlns:cc="http://creativecommons.org/ns#"
   xmlns:rdf="http://www.w3.org/1999/02/22-rdf-syntax-ns#"
   xmlns:svg="http://www.w3.org/2000/svg"
   xmlns="http://www.w3.org/2000/svg"
   id="svg2"
   viewBox="0 -143 1000 1000"
   version="1.1">
  <metadata
     id="metadata12">
    <rdf:RDF>
      <cc:Work
         rdf:about="">
        <dc:format>image/svg+xml</dc:format>
        <dc:type
           rdf:resource="http://purl.org/dc/dcmitype/StillImage" />
        <dc:title></dc:title>
      </cc:Work>
    </rdf:RDF>
  </metadata>
  <defs
     id="defs10" />
  <g
     id="g4"
     transform="matrix(1.1827314,0,0,-1.1827314,-115.02086,933.5816)">
    <path
       style="fill:currentColor"
       id="path6"
       d="m 520,125.203 q -12.6826,0 -20.292,7.60938 l -295.079,284.088 q -4.22754,3.38184 -12.6826,12.6826 -8.45508,8.45508 -26.2109,30.8604 -17.7549,22.4062 -32.1289,46.0801 -14.373,23.6738 -25.3652,57.4941 -10.9912,33.8203 -10.9912,64.2578 0,103.997 60.0303,162.759 60.0312,58.7627 165.719,58.7627 29.5928,0 59.1846,-10.1465 30.4375,-10.1455 56.6484,-27.4785 26.2109,-17.332 45.6562,-32.5518 18.6016,-15.2188 35.5117,-32.1289 16.9102,16.9102 35.9336,32.1289 19.0234,15.2197 45.2344,32.1289 26.2109,17.7559 56.6484,27.9014 30.4375,10.1465 59.1846,10.1465 105.688,0 165.719,-58.7627 60.0303,-58.7617 60.0303,-162.759 0,-104.842 -108.224,-212.221 l -294.234,-283.242 q -7.60938,-7.60938 -20.292,-7.60938 z" />
  </g>
</svg>
