<?xml version="1.0" encoding="utf-8"?>
<!-- Generator: Adobe Illustrator 21.1.0, SVG Export Plug-In . SVG Version: 6.00 Build 0)  -->
<svg version="1.1"
	 id="svg2" xmlns:cc="http://creativecommons.org/ns#" xmlns:dc="http://purl.org/dc/elements/1.1/" xmlns:rdf="http://www.w3.org/1999/02/22-rdf-syntax-ns#" xmlns:svg="http://www.w3.org/2000/svg"
	 xmlns="http://www.w3.org/2000/svg" xmlns:xlink="http://www.w3.org/1999/xlink" x="0px" y="0px" viewBox="0 0 1009.9 1009.9"
	 style="enable-background:new 0 0 1009.9 1009.9;" xml:space="preserve">
<path d="M788.7,159.5H222.4L0,403.1v447.3h1009.9V403.2L788.7,159.5z M766.8,209.1l173.3,191H640.2v5c0,35.8-13.4,66.8-39.9,92.2
	c-26.6,25.4-58.6,38.3-95.3,38.3c-35.9,0-67.8-13.1-94.7-38.9c-26.9-25.8-40.5-56.6-40.5-91.6v-5H69.9l174.4-191H766.8z
	 M390.9,545.6c33.5,26.3,71.8,39.6,114,39.6c42.2,0,80.6-13.3,114-39.6c32.4-25.4,54.2-57.7,65-95.9h276.3v349.9H49.6V449.7h276.2
	C335.9,488,357.8,520.2,390.9,545.6z"/>
</svg>
