<?xml version="1.0" encoding="UTF-8" standalone="no"?>
<svg
   xmlns:dc="http://purl.org/dc/elements/1.1/"
   xmlns:cc="http://creativecommons.org/ns#"
   xmlns:rdf="http://www.w3.org/1999/02/22-rdf-syntax-ns#"
   xmlns:svg="http://www.w3.org/2000/svg"
   xmlns="http://www.w3.org/2000/svg"
   id="svg2"
   viewBox="0 -143 1000 1000"
   version="1.1">
  <metadata
     id="metadata12">
    <rdf:RDF>
      <cc:Work
         rdf:about="">
        <dc:format>image/svg+xml</dc:format>
        <dc:type
           rdf:resource="http://purl.org/dc/dcmitype/StillImage" />
        <dc:title></dc:title>
      </cc:Work>
    </rdf:RDF>
  </metadata>
  <defs
     id="defs10" />
  <g
     id="g4"
     transform="matrix(1.1668611,0,0,-1.1668611,-93.348869,937.50342)">
    <path
       style="fill:currentColor"
       id="path6"
       d="m 477,714 0,-285 63,0 0,285 -63,0 z m 33,-345 q -19,0 -33,-12 -13,-12 -13,-31 0,-19 13,-31 14,-13 33,-13 19,0 32,13 13,13 14,31 0,18 -14,31 -13,12 -32,12 z M 937,497 Q 937,380 880,282 822,183 723.5,125.5 625,68 509,69 392,69 293,126 194,184 138,282 80,381 80,497 80,614 137.5,712.5 195,811 293,868 q 99,58 215.5,58 116.5,0 215.5,-58 99,-58 156,-156 57,-98 57,-215 z" />
  </g>
</svg>
