<?xml version="1.0" encoding="utf-8"?>
<!-- Generator: Adobe Illustrator 21.1.0, SVG Export Plug-In . SVG Version: 6.00 Build 0)  -->
<svg version="1.1"
	 id="svg2" xmlns:cc="http://creativecommons.org/ns#" xmlns:dc="http://purl.org/dc/elements/1.1/" xmlns:rdf="http://www.w3.org/1999/02/22-rdf-syntax-ns#" xmlns:svg="http://www.w3.org/2000/svg"
	 xmlns="http://www.w3.org/2000/svg" xmlns:xlink="http://www.w3.org/1999/xlink" x="0px" y="0px" viewBox="0 0 1003.8 1003.8"
	 style="enable-background:new 0 0 1003.8 1003.8;" xml:space="preserve">
<path d="M857.6,149.3C759.8,51.5,640.5,1.9,502.9,1.9c-1.4,0-2.7,0-4.1,0C362.3,1.9,244,51.5,147.2,149.3C49.6,246,0,363.2,0,497.4
	c0,14.8,1,30.9,2,46.5c5.4,61,20.3,118.4,44.5,170.6c24.1,52.2,58,100.6,100.8,143.8c96.7,97.8,216,147.4,354.7,147.4
	c138.3,0,257.9-49.6,355.6-147.3c48.2-48.2,85-102.6,109.4-161.8s36.8-123.8,36.8-192.2C1003.8,366.8,954.6,247.3,857.6,149.3z
	 M952.8,505.3c0,123.6-44.4,230.6-131.9,318.3c-87.8,86.9-195.1,131-318.9,131c-124.2,0-231.5-44.4-318.9-132.1
	C95.4,735.9,51,628.9,51,504.3c0-124.9,44.4-232.6,132-320.2c86.5-87.6,193.8-132,318.9-132c124.2,0,231.5,44.4,318.9,132.1
	c87.6,87.7,132,195.1,132,319.1V505.3z"/>
<g id="g4" transform="matrix(1.1682243,0,0,-1.1682243,-71.261683,928.84579)">
	<path id="path6" d="M493.1,521c14.3,0,26.5,5,36.5,15s15,22,15,36s-5,26.2-15,36.5S507.5,624,493.1,624c-14.3,0-26.5-5-36.5-15
		s-15-22.2-15-36.5s5-26.5,15-36.5S478.8,521,493.1,521z M527.6,453v34h-103v-34h35V161h-35v-34h137v34h-34V453z"/>
</g>
</svg>
