<?xml version="1.0" encoding="UTF-8" standalone="no"?>
<svg
   xmlns:dc="http://purl.org/dc/elements/1.1/"
   xmlns:cc="http://creativecommons.org/ns#"
   xmlns:rdf="http://www.w3.org/1999/02/22-rdf-syntax-ns#"
   xmlns:svg="http://www.w3.org/2000/svg"
   xmlns="http://www.w3.org/2000/svg"
   version="1.1"
   viewBox="0 -143 1000 1000"
   id="svg2">
  <metadata
     id="metadata12">
    <rdf:RDF>
      <cc:Work
         rdf:about="">
        <dc:format>image/svg+xml</dc:format>
        <dc:type
           rdf:resource="http://purl.org/dc/dcmitype/StillImage" />
        <dc:title></dc:title>
      </cc:Work>
    </rdf:RDF>
  </metadata>
  <defs
     id="defs10" />
  <path
     id="path3334"
     d="M 500.00001,-143 A 500.00021,500.00021 0 0 0 2e-5,357.00001 500.00021,500.00021 0 0 0 500.00001,857 500.00021,500.00021 0 0 0 999.99998,357.00001 500.00021,500.00021 0 0 0 500.00001,-143 Z m 0,55.21427 A 444.78655,444.78655 0 0 1 944.78578,357.00001 444.78655,444.78655 0 0 1 500.00001,801.78573 444.78655,444.78655 0 0 1 55.21429,357.00001 444.78655,444.78655 0 0 1 500.00001,-87.78573 Z"
     style="fill:#0074a6;fill-opacity:1;fill-rule:evenodd;stroke:none;stroke-width:1px;stroke-linecap:butt;stroke-linejoin:miter;stroke-opacity:1" />
  <path
     style="font-style:normal;font-weight:normal;font-size:320.77474976px;line-height:125%;font-family:sans-serif;letter-spacing:0px;word-spacing:0px;fill:#0074a6;fill-opacity:1;stroke:none;stroke-width:1px;stroke-linecap:butt;stroke-linejoin:miter;stroke-opacity:1"
     d="m 457.66759,113.26689 0,61.32446 55.89417,0 0,-61.32446 z m 2.64003,131.39385 0,48.2933 0.52274,0 0,307.77907 49.56863,0 0,-307.77907 31.93342,0 0,-48.2933 z"
     id="text3334" />
</svg>
