<?xml version="1.0" encoding="utf-8"?>
<!-- Generator: Adobe Illustrator 21.1.0, SVG Export Plug-In . SVG Version: 6.00 Build 0)  -->
<svg version="1.1"
	 id="svg2" xmlns:cc="http://creativecommons.org/ns#" xmlns:dc="http://purl.org/dc/elements/1.1/" xmlns:rdf="http://www.w3.org/1999/02/22-rdf-syntax-ns#" xmlns:svg="http://www.w3.org/2000/svg"
	 xmlns="http://www.w3.org/2000/svg" xmlns:xlink="http://www.w3.org/1999/xlink" x="0px" y="0px" viewBox="0 0 1012.4 1012.4"
	 style="enable-background:new 0 0 1012.4 1012.4;" xml:space="preserve">
<path d="M735.3,3l-44.3,2.3l-0.2,0c-17.9,1.6-38.3,3.5-60.8,5.8c-2.4,0.2-5.8,0.4-10,0.4c-8.7,0-21.1-0.5-37-1.5L455.4,0.4l-16,36.7
	l6.7,1.3c4.2,0.8,12.4,1.6,25.2,2.4c37.4,2.9,69,8.2,94.2,15.7l-5.7,20.8l-5.9,33l-14,97.9l-10.5,40.9l-17.5,117.8
	c-1.6,5.1-2.8,11.8-3.6,20.5c-0.7,5.9-2.2,13-4.5,21.2c-3.1,9.4-6.3,20-9.4,31.7c-3.1,11.7-6.7,26.3-10.6,43.4l0,0.2
	c-2.3,12.4-5.9,30.9-10.5,54.9l-8.2,42l-36.2,182.4l-17.5,115.7c-5.6,34.5-9,57.9-10.2,71l-87.1,15.6c-3.7,0.8-20.5,3.1-49.9,7
	l-3.1,0.4l-16.4,39.3l9-0.7c10.1-0.8,31.4-2.7,63.1-5.8c63.9-5.3,99.4-8.1,105.6-8.2l40.1,4.6l29.5,8.3h0.8c3,0,9.1,0.4,18.2,1.1
	l0.2,0h0.2c2.4,0,11.3-0.4,27-1.2h19.3l1-4.2c0.5-1.9,1.8-5.9,5.5-14.2l7.9-15.8l-7.3-1.3c-13.3-2.3-27.8-4.7-43.4-7l-0.1,0
	c-29.1-3.6-53.6-7.7-73.1-12c-0.8-4.8-1-8.8-0.4-12l7-40.9l29.2-172.8l24.5-110.8l39.8-203.5l43.3-233.9l0-0.3
	c1.5-16.8,4.3-34.7,8.1-53.1l0-0.2l9.9-72.9c25.3-2.2,47.8-4,66.8-5.5l0.2,0c27.3-3.1,51.4-6.7,71.7-10.6l1.9-0.4l1.2-1.4
	c7.9-9,9.3-11.3,9.5-13.4L766,0L735.3,3z"/>
</svg>
