<?xml version="1.0" encoding="UTF-8" standalone="no"?>
<svg
   xmlns:dc="http://purl.org/dc/elements/1.1/"
   xmlns:cc="http://creativecommons.org/ns#"
   xmlns:rdf="http://www.w3.org/1999/02/22-rdf-syntax-ns#"
   xmlns:svg="http://www.w3.org/2000/svg"
   xmlns="http://www.w3.org/2000/svg"
   xml:space="preserve"
   style="enable-background:new 0 0 1013 1013;"
   viewBox="0 0 1013 1013"
   y="0px"
   x="0px"
   id="svg2"
   version="1.1"><metadata
     id="metadata13"><rdf:RDF><cc:Work
         rdf:about=""><dc:format>image/svg+xml</dc:format><dc:type
           rdf:resource="http://purl.org/dc/dcmitype/StillImage" /><dc:title></dc:title></cc:Work></rdf:RDF></metadata><defs
     id="defs11" /><g
     id="g3"><rect
       id="rect5"
       height="160.2"
       width="50.3"
       y="148.8"
       x="481.3" /><path
       id="path7"
       d="M724.9,417.1c31.4-44.8,47.3-95.6,47.3-150.9c0-73.2-26.1-136.5-77.7-188C643,26.7,579.7,0.4,506.5,0L505,0   c-72.6,0-135.3,26.1-186.5,77.7c-51.5,51.9-77.7,115.3-77.7,188.5c0,55.3,15.9,106.1,47.3,150.9c30.5,43.6,70.4,75.5,118.5,95.1   V1013h198.6V879.6l58.7-57.6l-58.7-59.9v-67.1l96.1-96.1l-89.9-88.8C657.3,490.4,695.5,459.2,724.9,417.1z M584.3,466.7l-29.4,11.5   v45.6l75.3,75.3l-75.3,75.3V784l37.9,37.9l-37.9,37.9v102.7H457V478.3l-28.3-11.6c-41.8-16.3-75.5-42.8-100.2-78.9   c-24.8-36.1-37.7-77-38.4-121.6c0-58.7,21.5-110,64-152.4c41.7-41.7,93.1-63.3,152.5-64c58.7,0,110,21.5,152.5,64   c42.4,41.7,63.6,93,62.9,152.4c0,44.6-12.5,85.5-37.3,121.5C659.8,423.8,626.1,450.4,584.3,466.7z" /></g></svg>