<?xml version="1.0" encoding="UTF-8" standalone="no"?>
<svg
   xmlns:dc="http://purl.org/dc/elements/1.1/"
   xmlns:cc="http://creativecommons.org/ns#"
   xmlns:rdf="http://www.w3.org/1999/02/22-rdf-syntax-ns#"
   xmlns:svg="http://www.w3.org/2000/svg"
   xmlns="http://www.w3.org/2000/svg"
   version="1.1"
   id="svg2"
   viewBox="0 0 1000 1000"
   height="1000"
   width="1000">
  <defs
     id="defs4" />
  <metadata
     id="metadata7">
    <rdf:RDF>
      <cc:Work
         rdf:about="">
        <dc:format>image/svg+xml</dc:format>
        <dc:type
           rdf:resource="http://purl.org/dc/dcmitype/StillImage" />
        <dc:title></dc:title>
      </cc:Work>
    </rdf:RDF>
  </metadata>
  <g
     transform="translate(0,-52.3622)"
     id="layer1">
    <path
       id="path4205"
       d="m 76.040586,1048.5248 c -26.989972,-12.4973 -31.257635,-46.6023 -7.562944,-60.44023 4.649129,-2.70488 13.209426,-4.22588 31.844238,-5.6136 30.2664,-2.27366 42.98213,-4.3866 66.01,-11.05078 49.37962,-14.28878 111.12698,-45.79076 186.34362,-95.07042 l 33.77097,-22.12508 -8.88739,-1.68564 C 308.16057,839.49685 235.89245,782.07121 200.40349,711.76803 182.89982,677.09076 175.96366,647.3254 175.84461,606.36813 c -0.12936,-43.95224 8.07804,-78.19829 29.33482,-122.42493 40.73751,-84.76054 112.40751,-162.58249 195.8465,-212.65793 57.43932,-34.47341 104.6296,-53.9093 223.00584,-91.85593 80.08773,-25.67278 107.54177,-35.77097 140.44894,-51.667 37.80547,-18.25986 66.85169,-39.581318 86.8315,-63.733093 5.95425,-7.197316 11.40539,-12.411057 12.11371,-11.579995 2.2819,2.665673 21.91552,71.800668 34.06545,119.951338 34.15832,135.36519 49.56857,248.04473 49.51397,362.04142 -0.0273,56.86507 -1.6045,84.38421 -7.1455,124.67899 -25.70327,186.92243 -115.01631,316.72107 -241.46208,350.9201 -16.96321,4.5865 -22.85834,5.1784 -51.02979,5.1392 -29.08696,0 -33.8377,-0.588 -54.74394,-6.1153 -56.33432,-14.93171 -95.93417,-38.07602 -120.05478,-70.16601 l -9.04636,-12.03473 36.25679,-36.32762 C 628.67674,761.38873 724.92476,596.05041 782.77024,404.416 c 5.93191,-19.65149 10.50358,-36.01401 10.15931,-36.35506 -0.34497,-0.39201 -5.39351,10.35692 -11.22048,23.78328 C 739.535,489.02366 679.89685,588.88053 613.75595,673.05698 569.4288,729.47123 494.26496,808.48097 444.31782,851.16309 366.19575,917.92642 240.03028,998.12396 153.48993,1036.0392 c -37.54623,16.4488 -60.7787,20.1886 -77.449344,12.4699 z"
       style="fill:#000000" />
  </g>
</svg>
