<?xml version="1.0" encoding="utf-8"?>
<!-- Generator: Adobe Illustrator 21.1.0, SVG Export Plug-In . SVG Version: 6.00 Build 0)  -->
<svg version="1.1"
	 id="svg2" xmlns:cc="http://creativecommons.org/ns#" xmlns:dc="http://purl.org/dc/elements/1.1/" xmlns:rdf="http://www.w3.org/1999/02/22-rdf-syntax-ns#" xmlns:svg="http://www.w3.org/2000/svg"
	 xmlns="http://www.w3.org/2000/svg" xmlns:xlink="http://www.w3.org/1999/xlink" x="0px" y="0px" viewBox="0 0 1021 1021"
	 style="enable-background:new 0 0 1021 1021;" xml:space="preserve">
<path d="M982.6,451.4l-25.3,26.3L542.2,63.7l27.6-26.5L534,1.4l-32.9,30.3L221,314.1l35.8,35.8l18.1-18.1l190.3,189.3L0.1,984
	l37.1,35.6l463.8-463.8l189.3,189.3l-18,18l35.8,35.8l313.1-312L982.6,451.4z M597.5,189.6l232.8,233.8L635.7,618L401.9,385.2
	L597.5,189.6z M867.2,459.3l52.4,53.3L724.9,709.3l-53.4-53.4L867.2,459.3z M312.7,296L506.3,98.4l53.4,54.3L366.1,349.4L312.7,296z
	"/>
</svg>
