<?xml version="1.0" encoding="utf-8"?>
<!-- Generator: Adobe Illustrator 21.1.0, SVG Export Plug-In . SVG Version: 6.00 Build 0)  -->
<svg version="1.1"
	 id="svg2" xmlns:cc="http://creativecommons.org/ns#" xmlns:dc="http://purl.org/dc/elements/1.1/" xmlns:rdf="http://www.w3.org/1999/02/22-rdf-syntax-ns#" xmlns:svg="http://www.w3.org/2000/svg"
	 xmlns="http://www.w3.org/2000/svg" xmlns:xlink="http://www.w3.org/1999/xlink" x="0px" y="0px" viewBox="0 0 1016 1016"
	 style="enable-background:new 0 0 1016 1016;" xml:space="preserve">
<g>
	<path d="M423.1,565.4c3.8,4.6,9.1,7,15.2,7c1,0,1.9-0.1,2.9-0.2c6.8-0.1,12.4-2.3,16.7-6.5c4-4,6.6-9.5,7.5-16.1l0.1-0.6v-0.6
		c0-12,3.7-21.9,11.4-30.2c8.3-8.3,18.1-12.3,30-12.3c6.9,0,12.6-2.1,16.9-6.2c5.2-4.3,7.9-10.4,7.9-17.5c0-7-2.6-13.3-7.6-18.3
		c-4.3-4.3-10.1-6.6-17.2-6.6c-25.2,0-47,8.9-64.6,26.6c-18.4,18.4-27,40.2-25.5,64.9C416.9,555.6,419,561.2,423.1,565.4z"/>
	<path d="M507,750.5c55.3,0,103.3-19.8,142.6-58.8c39.4-39,59.3-86.8,59.3-142.2c0-55.3-20.1-103.5-59.9-143.2
		c-39.7-39-87.5-58.7-142.1-58.7c-55.3,0-103.1,19.8-142.1,58.7c-39.7,39-59.5,87.2-58.8,143.3c0,55.3,19.8,103.1,58.8,142.1
		C403.8,730.7,451.6,750.5,507,750.5z M617.5,438.9c29.9,30.5,45,67.6,45,110.1c0,42.5-15.1,79.2-45,109
		c-29.8,29.8-66.7,45-109.5,45c-42.9,0-79.9-15.1-110.1-45c-30.2-29.8-45.5-66.5-45.5-109c0-42.5,15.5-79.5,46-110.1
		c29.9-29.9,66.7-45.3,109.6-46C550.8,393,587.6,408.5,617.5,438.9z"/>
	<rect x="107.4" y="806.8" width="796" height="50.7"/>
	<path d="M991.6,73.5c-15.5-16.3-35.2-24.5-58.4-24.5H82.7c-22.5,0-42.1,8.2-58.3,24.4C8.2,89.6,0,109.6,0,132.7v751.6
		c0,22.4,8.2,42,24.4,58.2c15.5,16.3,35.2,24.5,58.4,24.5h850.5c22.4,0,42-8.2,58.2-24.4c16.3-15.5,24.5-35.2,24.5-58.4V132.7
		C1016,109.6,1007.8,89.7,991.6,73.5z M52.8,162.2c0-16.2,5.8-30.2,17.7-42.8c11.9-11.8,25.8-17.6,42.7-17.6h789.5
		c16.3,0,30.3,5.8,42.9,17.8c12.5,11.9,18.6,25.8,18.6,42.6v692.6c0,15.6-6.2,29.6-18.9,42.9c-11.9,12.5-25.8,18.6-42.6,18.6H113.3
		c-15.5,0-29.5-6.1-42.8-18.8c-11.8-11.9-17.6-25.8-17.6-42.7V162.2z"/>
	<polyline points="910.7,230.6 910.7,183.8 487.2,183.8 450.4,259.6 104.2,259.6 104.2,309.3 475.8,309.3 521,230.3 902.7,231.4 	
		"/>
	<rect x="144.2" y="157.4" width="211.8" height="49.7"/>
</g>
</svg>
