<?xml version="1.0" encoding="UTF-8" standalone="no"?>
<svg
   xmlns:dc="http://purl.org/dc/elements/1.1/"
   xmlns:cc="http://creativecommons.org/ns#"
   xmlns:rdf="http://www.w3.org/1999/02/22-rdf-syntax-ns#"
   xmlns:svg="http://www.w3.org/2000/svg"
   xmlns="http://www.w3.org/2000/svg"
   id="svg2"
   viewBox="0 -143 1000 1000"
   version="1.1">
  <metadata
     id="metadata12">
    <rdf:RDF>
      <cc:Work
         rdf:about="">
        <dc:format>image/svg+xml</dc:format>
        <dc:type
           rdf:resource="http://purl.org/dc/dcmitype/StillImage" />
        <dc:title></dc:title>
      </cc:Work>
    </rdf:RDF>
  </metadata>
  <defs
     id="defs10" />
  <g
     id="g4"
     transform="matrix(1.1178075,0,0,-1.1178075,-52.750873,923.73356)">
    <path
       style="fill:currentColor"
       id="path6"
       d="m 802.75,646.5 q 0,127.8 -90,217.8 -90.9004,90.9004 -218.7,90 -127.8,0 -217.8,-90 -90.9004,-90.8994 -90,-217.8 0,-73.7998 32.4004,-138.15 32.3994,-64.3496 89.0996,-107.55 2.7002,-1.7998 4.5,-3.59961 l 0.90039,0 q 57.5996,-45.9004 57.5996,-120.601 l 0,-216.899 247.5,0 0,216.899 q 0,42.3008 18.9004,74.7002 18.8994,33.2998 42.2998,48.6006 56.7002,43.1992 90,107.1 33.2998,64.7998 33.2998,139.5 z m -401.4,-556.2002 0,93.6006 185.4,0 0,-93.6006 -185.4,0 z M 494.05,615.9 q -12.5996,0 -21.5996,8.09961 -9,9 -9,22.5 0,12.5996 9,21.5996 9,9 21.5996,9 12.6006,0 21.6006,-9 9,-9 9,-21.5996 0,-12.5996 -9,-22.5 -9,-8.09961 -21.6006,-8.09961 z m 166.5,-191.7 q -0.89941,0 -0.89941,-0.90039 -29.7002,-20.7002 -51.3008,-59.3994 -21.5996,-38.7002 -21.5996,-87.3008 l 0,-62.0996 -77.4004,0 0,372.6 q 19.8008,5.40039 34.2002,21.6006 13.5,17.0996 12.6006,37.7998 0,25.2002 -18,43.2002 -18,18 -43.6504,18 -25.6504,0 -43.6504,-18 -18,-18 -18.8994,-43.2002 0,-20.7002 13.5,-37.7998 13.5,-17.1006 33.2998,-21.6006 l 0,-372.6 -77.4004,0 0,62.0996 q 0,45.9004 -20.6992,83.7002 -20.7002,38.7002 -48.6006,61.2002 l 0,0 q -1.7998,0.90039 -3.59961,2.7002 -0.9004,0.89941 -1.7998,0.89941 -109.801,83.7002 -109.801,221.4 0,114.3 81,195.75 81,81.45 196.2,81.4502 114.3,0 196.2,-81.9004 81,-81 81.9004,-195.3 0,-138.6 -111.601,-222.3 l 0,0 0,0 z" />
  </g>
</svg>
