<?xml version="1.0" encoding="UTF-8" standalone="no"?>
<svg
   xmlns:dc="http://purl.org/dc/elements/1.1/"
   xmlns:cc="http://creativecommons.org/ns#"
   xmlns:rdf="http://www.w3.org/1999/02/22-rdf-syntax-ns#"
   xmlns:svg="http://www.w3.org/2000/svg"
   xmlns="http://www.w3.org/2000/svg"
   xml:space="preserve"
   style="enable-background:new 0 0 101 101;"
   viewBox="0 0 101 101"
   y="0px"
   x="0px"
   id="svg2"
   version="1.1"><metadata
     id="metadata15"><rdf:RDF><cc:Work
         rdf:about=""><dc:format>image/svg+xml</dc:format><dc:type
           rdf:resource="http://purl.org/dc/dcmitype/StillImage" /><dc:title></dc:title></cc:Work></rdf:RDF></metadata><defs
     id="defs13" /><g
     id="g3"><path
       id="path5"
       d="M0.4,97.3h23V31.5h-23V97.3z M18,36.7v55.8H5.5V36.7H18z" /><path
       id="path7"
       d="M17,4.8c-1.7-0.8-3.4-1.2-5.2-1.2c-3.3,0-6.1,1.2-8.3,3.4C1.2,9.3,0,12.1,0,15.4c0,3.3,1.1,6.1,3.4,8.4   c2.3,2.3,5.1,3.4,8.3,3.4c3.2,0,6-1.2,8.3-3.4c2.3-2.3,3.5-5.1,3.4-8.3C23.5,10.5,21.3,7,17,4.8z M7,10.7c1.3-1.3,2.7-2,4.5-2   c0.1,0,0.2,0,0.3,0c1.8,0,3.4,0.6,4.7,2c1.3,1.3,2,2.9,2,4.7c0,3.3-1.4,5.3-4.3,6.4c-0.9,0.3-1.7,0.4-2.4,0.4c-1.9,0-3.4-0.6-4.8-2   c-1.3-1.3-2-2.9-2-4.8C5,13.5,5.7,11.9,7,10.7z" /><path
       id="path9"
       d="M94,37.4c-4.6-5-10.8-7.6-18.4-7.6c-0.3,0-0.6,0-0.8,0c-2.5,0-4.8,0.3-6.9,1c-2.3,0.7-4.3,1.7-5.9,3   c-1.6,1.3-2.9,2.4-3.8,3.5c-0.5,0.6-1.1,1.4-1.6,2.1v-8.1H33.9l0.1,3.3v19.7c0,10.7,0,25-0.1,42.5l0,0.5h22.6V60.6   c0-2.1,0.2-3.9,0.7-5.1c0.8-2,2.1-3.9,4-5.4c1.9-1.4,4.1-2.1,6.8-2.1c3.6,0,6.1,1.2,7.8,3.7c1.7,2.5,2.6,6,2.6,10.6v35.2H101V59.7   C101,50,98.6,42.5,94,37.4z M70,43.2l-3.7-0.4l-3.6,0.7l-3.1,1.7l-2.7,2.2l-2.2,2.7c-0.1,0.1-0.2,0.2-0.5,0.8   c-0.2,0.4-0.5,0.8-0.8,1.4c-0.3,0.6-0.8,1.2-1.2,1.8c-0.3,0.3-0.6,1-0.6,3.6v34.5H38.8c0.1-4.9,0.1-11.2,0.1-18.9V52.9   c-0.1-4.1-0.1-8.4-0.1-12.7v-3.8h12.8v12.1h-0.8l0.8,0.8l0.2,0.2h0.2c0.2,0,0.4-0.1,1.1-0.5c0.3-0.2,0.6-0.4,0.9-0.8l2.3-2.3   l1.4-1.7l4.3-4.3l3.3-2.7l3.1-1.6l2.6-0.9l2.2-0.5l3.3,0.1l2.4,0.2l2.3,0.5l3,0.9l3,2l2.2,2l2.5,2.6c2.8,3,4.2,7.6,4.2,13.7v35.8   H83.2l0-34.6c0.1-1.9-0.5-4.4-1.7-7.2l0-0.1L79.4,48l-1.9-1.8l-2.7-1.6l-2.7-0.8L70,43.2z" /></g></svg>