<?xml version="1.0" encoding="utf-8"?>
<!-- Generator: Adobe Illustrator 21.1.0, SVG Export Plug-In . SVG Version: 6.00 Build 0)  -->
<svg version="1.1"
	 id="svg2" xmlns:cc="http://creativecommons.org/ns#" xmlns:dc="http://purl.org/dc/elements/1.1/" xmlns:rdf="http://www.w3.org/1999/02/22-rdf-syntax-ns#" xmlns:svg="http://www.w3.org/2000/svg"
	 xmlns="http://www.w3.org/2000/svg" xmlns:xlink="http://www.w3.org/1999/xlink" x="0px" y="0px" viewBox="0 0 1010.7 1010.7"
	 style="enable-background:new 0 0 1010.7 1010.7;" xml:space="preserve">
<g>
	<path d="M345.8,917.6c-28.4,28.4-62.8,42.8-102.4,42.8c-40.3,0-75.2-14.4-103.5-42.7l-46.7-47.9C65.5,842.1,51.3,807.8,51,767.8
		c-0.4-39.9,13.8-74.6,42.2-102.9l252-252c28.4-28.4,63-42.8,103-42.8s74.6,14.4,103,42.8l50.5,50.5l35.6-35.6l-50.5-50.5
		c-38.2-38.2-84.8-57.6-138.6-57.6c-53.7,0-100.4,19.4-138.6,57.6l-252,252C19.4,666.7,0,713.2,0,767.3
		c0,54.1,19.4,100.9,57.6,139.1l46.7,46.7c38.2,38.2,85,57.6,139.1,57.6h0h0c52.5-0.8,98.9-20.1,137.8-57.5l172-172l-36.9-35.4
		L345.8,917.6z"/>
	<path d="M953.1,104.3l-46.6-46.6C869.1,19.4,822.6,0,768.5,0c-54.1,0-100.9,19.4-139.1,57.6L448.2,238.7l35.6,35.6L664.9,93.1
		c28.4-28.4,63.2-42.8,103.6-42.8c39.6,0,74,14.4,102.4,42.8l46.7,46.7c28.3,27.6,42.7,62,42.7,102.4c0,39.6-14.4,74-42.8,102.4
		L665.5,596.7c-27.6,28.3-62,42.7-102.4,42.7c-39.6,0-74-14.4-102.4-42.8l-3.8-3.8l-36.8,36.8l3.9,3.8c38.2,37.4,85,56.4,139.1,56.4
		c52.5,0,98.9-19,137.9-56.3l252.1-252.1c38.2-38.2,57.6-84.8,57.6-138.6S991.3,142.5,953.1,104.3z"/>
</g>
</svg>
