<?xml version="1.0" encoding="UTF-8" standalone="no"?>
<svg
   xmlns:dc="http://purl.org/dc/elements/1.1/"
   xmlns:cc="http://creativecommons.org/ns#"
   xmlns:rdf="http://www.w3.org/1999/02/22-rdf-syntax-ns#"
   xmlns:svg="http://www.w3.org/2000/svg"
   xmlns="http://www.w3.org/2000/svg"
   version="1.1"
   viewBox="0 -143 1000 1000"
   id="svg2">
  <metadata
     id="metadata12">
    <rdf:RDF>
      <cc:Work
         rdf:about="">
        <dc:format>image/svg+xml</dc:format>
        <dc:type
           rdf:resource="http://purl.org/dc/dcmitype/StillImage" />
        <dc:title></dc:title>
      </cc:Work>
    </rdf:RDF>
  </metadata>
  <defs
     id="defs10" />
  <g
     transform="matrix(1.1668611,0,0,-1.1668611,-81.680258,937.5134)"
     id="g4">
    <path
       d="m 239,242 63,0 0,319 -63,0 0,-319 z m 74,473 q 0,16 -11,26.5 -11,10.5 -29,10.5 -18,0 -29,-10 -11,-11 -11,-27 0,-16 11,-26.5 11,-10.5 28,-10.5 l 1,0 q 19,0 29.5,10.5 Q 313,699 313,715 Z m 388,-473 67,0 0,190 q 0,68 -33,104 -32,35 -86,36 -34,0 -81,-22 -35,-17 -62,-59 l 1,28 0,44 -62,0 q 1,-31 0,-321 l 62,0 0,181 q 0,19 4,29 6,15 13,23 l 4,5 q 3,5 6,8.5 3,3.5 10,9 7,5.5 17,8.5 9,3 24,7 15,2 33,2 30,0 55,-27 28,-29 28,-73 l 0,-173 0,0 z m -494,-34 129,0 0,388 -129,0 0,-388 z m 137,507 q 0,29 -19.5,48 -19.5,19 -52,19 -32.5,0 -53,-19 -20.5,-19 -20.5,-48 0,-28 20,-48 20,-19 52,-19 l 1,0 q 33,0 52,19 20,20 20,48 z m 325,-507 131,0 0,222 q 0,86 -41,130 -41,44 -107,44 -84,0 -117,-53 l 1,0 0,45 -129,0 q 1,-37 0,-388 l 131,0 0,198 q 0,21 4,31 8,20 24,33.5 16,13.5 40,13.5 62,0 63,-88 l 0,-188 z m 258,557 0,-536 0,-159 q 0,-1 -161,-1 L 231,69 Q 70,69 70,67 l 0,162 0,536 0,160 q 0,1 161,1 l 535,0 q 161,0 161,2 l 0,-163 z"
       id="path6"
       style="fill:currentColor" />
  </g>
</svg>
