<?xml version="1.0" encoding="utf-8"?>
<!-- Generator: Adobe Illustrator 21.1.0, SVG Export Plug-In . SVG Version: 6.00 Build 0)  -->
<svg version="1.1"
	 id="svg2" xmlns:cc="http://creativecommons.org/ns#" xmlns:dc="http://purl.org/dc/elements/1.1/" xmlns:rdf="http://www.w3.org/1999/02/22-rdf-syntax-ns#" xmlns:svg="http://www.w3.org/2000/svg"
	 xmlns="http://www.w3.org/2000/svg" xmlns:xlink="http://www.w3.org/1999/xlink" x="0px" y="0px" viewBox="0 0 1015.7 1015.7"
	 style="enable-background:new 0 0 1015.7 1015.7;" xml:space="preserve">
<g>
	<path d="M190,732.6c-22.2-21.5-48.8-32.3-79.3-32.3c-30.5,0-56.8,10.9-78.3,32.4C10.9,754.2,0,780.4,0,810.5
		c0,30.1,10.9,56.6,32.3,78.8l0.1,0.1c21.5,21.5,47.9,32.4,78.3,32.4c30.4,0,57-10.9,78.8-32.4c21.9-21.5,33-47.9,33-78.4
		C222.5,780.5,211.6,754.2,190,732.6L190,732.6z M153.9,854.1c-12,12-25.9,17.8-42.6,17.8c-16.7,0-30.7-5.8-42.6-17.8
		c-12-12-17.8-26.2-17.8-43.6c0-16.7,5.8-30.7,17.8-42.6c12-12,25.9-17.8,42.6-17.8s30.7,5.8,42.6,17.8c12,12,17.8,26.1,17.8,43.1
		C171.7,828.1,165.9,842.2,153.9,854.1z"/>
	<path d="M190.1,429.5c-21.5-21.5-47.9-32.4-78.3-32.4c-30.5,0-57,11.1-78.8,32.9S0,478.4,0,508.9c0,30.5,11.1,56.9,33,78.4
		c21.8,21.5,48.2,32.4,78.3,32.4c30.1,0,56.6-10.9,78.8-32.3l0.1-0.1c21.5-21.5,32.4-48,32.4-78.8
		C222.5,478.3,211.7,451.8,190.1,429.5L190.1,429.5z M154.9,551c-12,12-26.1,17.8-43.1,17.8c-17.1,0-31.2-5.8-43.1-17.8
		c-12-12-17.8-25.9-17.8-42.6c0-16.7,5.8-30.7,17.8-42.6c12-12,26-18.2,42.8-18.8c16.7,0,30.9,6.2,43.5,18.8
		c12,12,17.8,25.9,17.8,42.6C172.7,525.1,166.9,539,154.9,551z"/>
	<path d="M111.8,97.9c-30.4,0-57,10.9-78.8,32.4C11.1,151.8,0,178,0,208.2c0,30.1,11.1,56.5,32.9,78.3
		c21.8,21.8,48.4,32.9,78.8,32.9c30.5,0,56.8-10.9,78.3-32.4l0.1-0.1c21.5-22.2,32.3-48.7,32.3-78.8c0-30.1-10.9-56.3-32.4-77.8
		C168.6,108.8,142.2,97.9,111.8,97.9z M154.9,251.8c-12,12-26.1,17.8-43.1,17.8c-17.1,0-31.2-5.8-43.1-17.8
		c-12-12-17.8-26.2-17.8-43.6c0-16.7,5.8-30.7,17.8-42.6c12-12,25.9-17.8,42.6-17.8c16.8,0,30.9,5.8,43.2,17.8
		c12.3,12,18.2,26,18.2,43.1C172.7,225.8,166.9,239.9,154.9,251.8z"/>
	<rect x="316.9" y="792.6" width="698.8" height="49.8"/>
	<rect x="316.9" y="183.3" width="698.8" height="50.8"/>
	<rect x="316.9" y="483.4" width="698.8" height="50.8"/>
</g>
</svg>
