<?xml version="1.0" encoding="utf-8"?>
<!-- Generator: Adobe Illustrator 21.1.0, SVG Export Plug-In . SVG Version: 6.00 Build 0)  -->
<svg version="1.1"
	 id="svg2" xmlns:cc="http://creativecommons.org/ns#" xmlns:dc="http://purl.org/dc/elements/1.1/" xmlns:rdf="http://www.w3.org/1999/02/22-rdf-syntax-ns#" xmlns:svg="http://www.w3.org/2000/svg"
	 xmlns="http://www.w3.org/2000/svg" xmlns:xlink="http://www.w3.org/1999/xlink" x="0px" y="0px" viewBox="0 0 1017 1017"
	 style="enable-background:new 0 0 1017 1017;" xml:space="preserve">
<g>
	<rect x="146" y="652" width="89" height="49"/>
	<rect x="146" y="497" width="89" height="48"/>
	<rect x="146" y="343" width="89" height="50"/>
	<path d="M868.9,343.7c-1.1-0.2-2.4-0.3-4.2-0.4c-3-0.2-7.4-0.3-13.2-0.3H289v50h588v-40.5C877,349.1,874.9,344.7,868.9,343.7z"/>
	<path d="M868.9,652.7c-1.1-0.2-2.4-0.3-4.2-0.4c-3-0.2-7.4-0.3-13.2-0.3H289v49h588v-39.5C877,658.1,874.9,653.7,868.9,652.7z"/>
	<path d="M0,107v803h1017V107H0z M49,182h919v678H49V182z"/>
	<path d="M868.9,497.7c-1.1-0.2-2.4-0.3-4.2-0.4c-3-0.2-7.4-0.3-13.2-0.3H289v48h588v-38.5C877,503.1,874.9,498.7,868.9,497.7z"/>
</g>
</svg>
