<?xml version="1.0" encoding="UTF-8" standalone="no"?>
<svg
   xmlns:dc="http://purl.org/dc/elements/1.1/"
   xmlns:cc="http://creativecommons.org/ns#"
   xmlns:rdf="http://www.w3.org/1999/02/22-rdf-syntax-ns#"
   xmlns:svg="http://www.w3.org/2000/svg"
   xmlns="http://www.w3.org/2000/svg"
   id="svg2"
   viewBox="0 -143 1000 1000"
   version="1.1">
  <metadata
     id="metadata12">
    <rdf:RDF>
      <cc:Work
         rdf:about="">
        <dc:format>image/svg+xml</dc:format>
        <dc:type
           rdf:resource="http://purl.org/dc/dcmitype/StillImage" />
        <dc:title></dc:title>
      </cc:Work>
    </rdf:RDF>
  </metadata>
  <defs
     id="defs10" />
  <path
     id="rect3341"
     d="m 1.2856405,-143 0,1000 997.4287195,0 0,-480.72006 0,-48.84268 0,-470.43726 -997.4287195,0 z m 41.0814095,41.18805 915.26591,0 0,429.24921 -433.20925,0 0,-240.111192 92.98357,89.850622 33.94104,-35.12597 -153.43616,-148.265146 -0.92425,0.955052 -0.0687,-0.06636 -148.26515,153.436174 35.12359,33.94105 91.80103,-95.002701 0,240.388471 -433.211611,0 0,-429.24921 z m 0,478.09189 433.21161,0 0,237.09674 -92.98359,-89.85063 -33.94103,35.12597 153.43617,148.26515 0.92423,-0.95505 0.0687,0.0664 148.26514,-153.43617 -35.1236,-33.94105 -91.80101,95.00269 0,-237.37401 433.20929,0 0,439.53201 -915.265951,0 0,-439.53201 z"
     style="fill:#000000;fill-rule:evenodd;stroke:none;stroke-width:0.99871868px;stroke-linecap:butt;stroke-linejoin:miter;stroke-opacity:1" />
</svg>
