<?xml version="1.0" encoding="UTF-8" standalone="no"?>
<svg
   xmlns:dc="http://purl.org/dc/elements/1.1/"
   xmlns:cc="http://creativecommons.org/ns#"
   xmlns:rdf="http://www.w3.org/1999/02/22-rdf-syntax-ns#"
   xmlns:svg="http://www.w3.org/2000/svg"
   xmlns="http://www.w3.org/2000/svg"
   xml:space="preserve"
   style="enable-background:new 0 0 1020.5 1020.5;"
   viewBox="0 0 1020.5 1020.5"
   y="0px"
   x="0px"
   id="svg2"
   version="1.1"><metadata
     id="metadata13"><rdf:RDF><cc:Work
         rdf:about=""><dc:format>image/svg+xml</dc:format><dc:type
           rdf:resource="http://purl.org/dc/dcmitype/StillImage" /><dc:title></dc:title></cc:Work></rdf:RDF></metadata><defs
     id="defs11" /><g
     id="g3"><path
       id="path5"
       d="M833.9,218.6c-16.9-41.1-42.6-79.3-76.4-113.4c-33.8-33.8-71.5-59.5-112.2-76.4C604.6,11.8,559.9,3.2,512.5,3.2   c-0.9,0-1.9,0-2.8,0c-48,0-93.1,8.6-134,25.5c-41,16.9-78.9,42.6-112.7,76.5c-33.8,34.1-59.5,72.3-76.4,113.4   c-16.9,41.1-25.5,86.3-25.5,134.3c0,64.9,15.8,123.7,47,174.5l301.7,496.3l302.7-496.3c31.2-51.5,47-110.2,47-174.5   C859.4,304.9,850.8,259.7,833.9,218.6z M509.7,927.9L250,503.1c-27.1-44-40.9-94.5-40.9-150.2c0-82.3,29.7-153.9,88.4-212.8   c58.6-59,130.1-88.8,212.3-88.8c82.9,0,154.9,29.9,213.8,88.9c58.9,58.9,88.5,130.5,87.9,212.8c0,55.7-13.8,106.2-40.9,150.2   L509.7,927.9z" /><path
       id="path7"
       d="M510.2,226c-34.7,0-64.8,12.5-89.4,37c-24.6,24.6-37,54.8-37,89.9c0,35.1,12.5,65,37,88.9c24.6,24.5,54.6,37,89.3,37   c34.7,0,64.8-12.5,89.4-37c24.6-24.6,37-54.5,37-88.9c0-35.1-12.5-65.3-37-89.9C575,238.5,545,226,510.2,226z M565.7,407.9   c-15.4,15.4-33.6,22.9-55.5,22.9c-21.9,0-40.1-7.5-55.5-22.9c-15.4-15.4-22.9-33.6-22.9-55.5s7.5-40.1,22.9-55.5s33.4-22.9,55-22.9   c22.2,0,40.6,7.5,56,22.9s22.9,33.7,22.9,56c0,22.2-7.5,40.1-22.8,54.9L565.7,407.9z" /></g></svg>