<?xml version="1.0" encoding="utf-8"?>
<!-- Generator: Adobe Illustrator 21.1.0, SVG Export Plug-In . SVG Version: 6.00 Build 0)  -->
<svg version="1.1"
	 id="svg2" xmlns:cc="http://creativecommons.org/ns#" xmlns:dc="http://purl.org/dc/elements/1.1/" xmlns:rdf="http://www.w3.org/1999/02/22-rdf-syntax-ns#" xmlns:svg="http://www.w3.org/2000/svg"
	 xmlns="http://www.w3.org/2000/svg" xmlns:xlink="http://www.w3.org/1999/xlink" x="0px" y="0px" viewBox="0 0 1012 1012"
	 style="enable-background:new 0 0 1012 1012;" xml:space="preserve">
<path id="path3" d="M761.7,481.5V256.3c0-70.2-25.3-131.1-75.3-181C636.5,25.3,576,0,506.6,0C436.4,0,375.3,25.1,325,74.7
	c-49.6,49.6-75.1,110.6-75.8,181.6v225.2H115.6V1012h780.8V481.5H761.7z M506,51.3c56.8,0,105.8,20.2,145.6,60s60,88.6,60,145v225.2
	H300.4V256.3c0-56.4,20.2-105.2,60-145S449.2,51.3,506,51.3z M165.8,961.8V531.6h680.5v430.2H165.8z"/>
</svg>
