<?xml version="1.0" encoding="utf-8"?>
<!-- Generator: Adobe Illustrator 21.1.0, SVG Export Plug-In . SVG Version: 6.00 Build 0)  -->
<svg version="1.1"
	 id="svg2" xmlns:cc="http://creativecommons.org/ns#" xmlns:dc="http://purl.org/dc/elements/1.1/" xmlns:rdf="http://www.w3.org/1999/02/22-rdf-syntax-ns#" xmlns:svg="http://www.w3.org/2000/svg"
	 xmlns="http://www.w3.org/2000/svg" xmlns:xlink="http://www.w3.org/1999/xlink" x="0px" y="0px" viewBox="0 0 1011 1011"
	 style="enable-background:new 0 0 1011 1011;" xml:space="preserve">
<path d="M700.7,0v564.4c0,53.5-19.3,99.9-57.3,137.9c-38,38-84.6,57.3-138.5,57.3c-53.8,0-99.8-19.1-136.7-56.7
	c-37.7-37.7-57.1-84.3-57.9-138.5V0H60.1v565.6c0,61.1,11,118.6,32.8,170.7c21.8,52.2,54.9,100.5,98.3,143.5
	c43.1,43.1,91.4,76,143.5,97.7c52.2,21.8,109.6,33,170.7,33.4h0c61.1,0,118.6-11,170.9-32.7c52.3-21.7,100.7-54.6,144-97.9
	c43.3-43.3,76.2-91.7,97.9-144c21.7-52.3,32.7-109.7,32.7-170.9V0H700.7z M751.4,199.9V50.7h148.9v149.2H751.4z M505.5,960.3
	c-108.4,0-202.3-39.1-279.1-116.2C149.7,767,110.8,673.3,110.8,565.6V251.7h148.9v312.7c0,67.3,24.3,125.9,72.2,174.2
	c47.2,47.5,104.5,71.7,170.5,71.7c1.1,0,2.2,0,3.2,0c67.3,0,125.9-24.1,174.3-71.6c48.3-48.3,72.4-107,71.6-174.3V251.7h148.9v313.9
	c0,108.4-39.1,202.1-116.2,278.5C706.9,921.2,613.2,960.3,505.5,960.3z M110.8,199.9V50.7h148.9v149.2H110.8z"/>
</svg>
