<?xml version="1.0" encoding="utf-8"?>
<!-- Generator: Adobe Illustrator 21.1.0, SVG Export Plug-In . SVG Version: 6.00 Build 0)  -->
<svg version="1.1"
	 id="svg2" xmlns:cc="http://creativecommons.org/ns#" xmlns:dc="http://purl.org/dc/elements/1.1/" xmlns:rdf="http://www.w3.org/1999/02/22-rdf-syntax-ns#" xmlns:svg="http://www.w3.org/2000/svg"
	 xmlns="http://www.w3.org/2000/svg" xmlns:xlink="http://www.w3.org/1999/xlink" x="0px" y="0px" viewBox="0 0 1021.9 1021.9"
	 style="enable-background:new 0 0 1021.9 1021.9;" xml:space="preserve">
<g>
	<path d="M511,226.2c-34.9,0-65.1,12.5-89.7,37.2c-24.7,24.7-37.2,55-37.2,90.2c0,35.2,12.5,65.3,37.2,89.3
		c24.7,24.6,54.8,37.1,89.7,37.1c34.9,0,65.1-12.5,89.7-37.2c24.7-24.7,37.2-54.7,37.2-89.2c0-35.2-12.5-65.6-37.2-90.2
		C576,238.7,545.8,226.2,511,226.2z M566.1,408.3C550.8,423.6,532.7,431,511,431c-21.8,0-39.8-7.5-55.1-22.8
		c-15.3-15.3-22.8-33.4-22.8-55.1s7.5-39.8,22.8-55.1s33.2-22.8,54.6-22.8c22.1,0,40.3,7.5,55.6,22.8s22.8,33.5,22.8,55.6
		c0,22-7.4,39.9-22.7,54.5L566.1,408.3z"/>
	<path d="M835.1,219.2c-16.9-41.2-42.7-79.4-76.6-113.6C724.7,71.7,686.9,46,646.1,29c-40.7-17-85.4-25.6-132.9-25.6
		c-0.9,0-1.9,0-2.8,0c-48.1,0-93.2,8.6-134.2,25.5c-41,17-79,42.7-112.9,76.6c-33.8,34.2-59.6,72.4-76.5,113.6
		c-16.9,41.2-25.5,86.4-25.5,134.5c0,65,15.8,123.8,47,174.7l302.1,497l303.1-497c31.2-51.6,47-110.3,47-174.7
		C860.6,305.6,852,260.3,835.1,219.2z M510.5,927.7L251.1,503.5c-27.1-43.9-40.8-94.3-40.8-149.9c0-82.1,29.7-153.6,88.2-212.5
		c58.5-58.9,129.8-88.7,212-88.7c82.8,0,154.6,29.8,213.5,88.7c58.8,58.8,88.4,130.3,87.7,212.5c0,55.6-13.7,106-40.9,149.9
		L510.5,927.7z"/>
</g>
</svg>
