<?xml version="1.0" encoding="UTF-8" standalone="no"?>
<svg
   xmlns:dc="http://purl.org/dc/elements/1.1/"
   xmlns:cc="http://creativecommons.org/ns#"
   xmlns:rdf="http://www.w3.org/1999/02/22-rdf-syntax-ns#"
   xmlns:svg="http://www.w3.org/2000/svg"
   xmlns="http://www.w3.org/2000/svg"
   id="svg2"
   viewBox="0 -143 1000 1000"
   version="1.1">
  <metadata
     id="metadata12">
    <rdf:RDF>
      <cc:Work
         rdf:about="">
        <dc:format>image/svg+xml</dc:format>
        <dc:type
           rdf:resource="http://purl.org/dc/dcmitype/StillImage" />
        <dc:title></dc:title>
      </cc:Work>
    </rdf:RDF>
  </metadata>
  <defs
     id="defs10" />
  <g
     id="g4"
     transform="matrix(1.1637714,0,0,-1.1637714,-74.320779,925.5025)">
    <path
       style="fill:currentColor"
       id="path6"
       d="m 493.073,304.248 q 66.6895,0 113.714,47.0244 47.0254,47.0254 47.0254,113.715 l 0,292.41 q 0,66.6904 -47.0254,113.715 -47.0244,47.0254 -113.714,47.0254 -66.6904,0 -113.716,-47.0254 -47.0254,-47.0244 -47.0254,-113.715 l 0,-292.41 q 0,-66.6895 47.0254,-113.715 47.0254,-47.0244 113.716,-47.0244 z M 361.402,757.397 q 0,53.8652 38.4746,93.1953 38.4756,38.4746 93.1963,38.4746 53.8643,0 93.1943,-38.4746 38.4746,-38.4756 38.4746,-93.1953 l 0,-292.41 q 0,-53.8643 -38.4746,-93.1943 -38.4746,-38.4756 -93.1943,-38.4756 -53.8662,0 -93.1963,38.4756 -38.4746,38.4746 -38.4746,93.1943 l 0,292.41 0,0 z m 350.55,-146.205 0,-146.205 q 0,-90.6299 -64.125,-155.61 -64.125,-64.125 -154.754,-64.125 -90.6309,0 -154.756,64.125 -64.125,64.9805 -64.125,155.61 l 0,146.205 -29.0693,0 0,-146.205 q 0,-99.1797 68.3994,-171 68.4004,-71.8193 166.726,-76.9502 l -1.71094,0 0,-129.104 -131.67,0 0,-29.0703 292.41,0 0,29.0703 -131.67,0 0,129.104 -1.70996,0 q 98.3252,5.13086 167.58,76.9502 68.3994,71.8203 68.3994,171 l 0,146.205 -29.9248,0 z" />
  </g>
</svg>
