<?xml version="1.0" encoding="UTF-8" standalone="no"?>
<svg
   xmlns:dc="http://purl.org/dc/elements/1.1/"
   xmlns:cc="http://creativecommons.org/ns#"
   xmlns:rdf="http://www.w3.org/1999/02/22-rdf-syntax-ns#"
   xmlns:svg="http://www.w3.org/2000/svg"
   xmlns="http://www.w3.org/2000/svg"
   xml:space="preserve"
   style="enable-background:new 0 0 101.6 101.6;"
   viewBox="0 0 101.6 101.6"
   y="0px"
   x="0px"
   id="svg2"
   version="1.1"><metadata
     id="metadata13"><rdf:RDF><cc:Work
         rdf:about=""><dc:format>image/svg+xml</dc:format><dc:type
           rdf:resource="http://purl.org/dc/dcmitype/StillImage" /><dc:title></dc:title></cc:Work></rdf:RDF></metadata><defs
     id="defs11" /><g
     id="g3"><path
       id="path5"
       d="M86.6,14.9c-1.7-1.7-3.6-3.3-5.4-4.8c-0.2-0.1-0.4-0.3-0.5-0.4c-0.5-0.3-0.9-0.7-1.4-1c-0.3-0.2-0.5-0.4-0.8-0.5   c-0.4-0.3-0.9-0.6-1.3-0.9c-0.3-0.2-0.5-0.3-0.8-0.5C75.9,6.5,75.5,6.3,75,6c-0.2-0.1-0.5-0.3-0.7-0.4c-0.5-0.3-1-0.5-1.5-0.8   c-0.2-0.1-0.4-0.2-0.6-0.3C71.6,4.3,71,4,70.4,3.7c0,0-0.1,0-0.1,0c-2.7-1.2-5.6-2-8.5-2.6c-0.2,0-0.4-0.1-0.7-0.1   c-0.5-0.1-1-0.2-1.6-0.3c-0.3-0.1-0.7-0.1-1-0.2c-0.5-0.1-0.9-0.1-1.4-0.2c-0.4,0-0.9-0.1-1.3-0.1c-0.4,0-0.8-0.1-1.2-0.1   c-0.5,0-1-0.1-1.5-0.1c-0.4,0-0.8,0-1.1,0c-0.2,0-0.4,0-0.5,0c-0.3,0-0.6,0-0.8,0c-1.3,0-2.6,0.1-3.9,0.2c-12.4,1.1-23,6-31.8,14.7   c-0.2,0.2-0.4,0.4-0.6,0.7C4.8,25.2,0,37.1,0,50.8c0,1.1,0,2.2,0.1,3.4c0.6,10,3.8,18.8,9.6,26.7c1.5,2.1,3.3,4.1,5.2,6   c2.3,2.3,4.8,4.4,7.4,6.2c8.1,5.6,17.3,8.5,27.7,8.6c0.2,0,0.5,0,0.7,0c0,0,0,0,0,0c0,0,0,0,0,0c14,0,26-4.9,35.9-14.8   c9.9-9.9,14.9-21.9,14.9-35.9C101.6,36.8,96.6,24.9,86.6,14.9z M96.6,50.8c0,12.6-4.5,23.5-13.4,32.4c-8.9,8.9-19.8,13.4-32.4,13.4   h-0.2c-12.6,0-23.4-4.5-32.3-13.4C9.5,74.3,5,63.4,5,50.8s4.5-23.5,13.4-32.4C27.2,9.5,38.1,5,50.7,5c12.7,0,23.6,4.5,32.5,13.4   C92.1,27.2,96.6,38.1,96.6,50.8z" /><rect
       id="rect7"
       height="5.0999999"
       width="53.550846"
       y="48.5"
       x="23.974577" /></g></svg>