<?xml version="1.0" encoding="UTF-8" standalone="no"?>
<svg
   xmlns:dc="http://purl.org/dc/elements/1.1/"
   xmlns:cc="http://creativecommons.org/ns#"
   xmlns:rdf="http://www.w3.org/1999/02/22-rdf-syntax-ns#"
   xmlns:svg="http://www.w3.org/2000/svg"
   xmlns="http://www.w3.org/2000/svg"
   id="svg2"
   viewBox="0 -143 1000 1000"
   version="1.1">
  <metadata
     id="metadata12">
    <rdf:RDF>
      <cc:Work
         rdf:about="">
        <dc:format>image/svg+xml</dc:format>
        <dc:type
           rdf:resource="http://purl.org/dc/dcmitype/StillImage" />
        <dc:title></dc:title>
      </cc:Work>
    </rdf:RDF>
  </metadata>
  <defs
     id="defs10" />
  <g
     id="g4"
     transform="matrix(1.0810811,0,0,-1.0810811,-54.054064,905.64866)">
    <path
       style="fill:currentColor"
       id="path6"
       d="m 740,970 -455,0 Q 266,970 252,956.5 238,943 238,924 L 238,91 Q 238,72 252,58.5 266,45 285,45 l 455,0 q 19,0 33,13.5 14,13.5 14,32.5 l 0,833 q 0,19 -14,32.5 Q 759,970 740,970 Z M 752,91 q 0,-12 -12,-12 l -455,0 q -12,0 -13,12 l 0,160 480,0 0,-160 z m 0,194 -480,0 0,548 480,0 0,-548 z m 0,582 -480,0 0,57 q 0,12 13,12 l 455,0 q 12,0 12,-12 l 0,-57 z m -291,-685 103,0 0,-34 -103,0 0,34 z" />
  </g>
</svg>
