<?xml version="1.0" encoding="UTF-8" standalone="no"?>
<svg
   xmlns:dc="http://purl.org/dc/elements/1.1/"
   xmlns:cc="http://creativecommons.org/ns#"
   xmlns:rdf="http://www.w3.org/1999/02/22-rdf-syntax-ns#"
   xmlns:svg="http://www.w3.org/2000/svg"
   xmlns="http://www.w3.org/2000/svg"
   xml:space="preserve"
   style="enable-background:new 0 0 1000 1000;"
   viewBox="0 0 1000 1000"
   y="0px"
   x="0px"
   id="icons"
   version="1.1"><metadata
     id="metadata15"><rdf:RDF><cc:Work
         rdf:about=""><dc:format>image/svg+xml</dc:format><dc:type
           rdf:resource="http://purl.org/dc/dcmitype/StillImage" /><dc:title>Icons</dc:title></cc:Work></rdf:RDF></metadata><defs
     id="defs13" /><title
     id="title3">Icons</title><g
     id="g5"><circle
       id="circle7"
       r="46.1"
       cy="831.8"
       cx="510.4" /><path
       id="path9"
       d="M817.4,0H182.6C162.4-0.1,146,16.3,146,36.5v926.9c0,20.2,16.4,36.6,36.6,36.6h634.8c20.3,0,36.7-16.4,36.7-36.6V36.6   C854,16.4,837.6,0,817.4,0z M803.2,917c0,17.7-14.4,32.1-32.1,32.1H402.6v-0.2h-120v0.3h-53.7c-17.7,0-32.1-14.4-32.1-32.2V82.9   c0-17.7,14.4-32.1,32.1-32.1h53.7v0.3h120v-0.4h368.5c17.7,0,32.1,14.4,32.1,32.2V917z" /></g></svg>