<?xml version="1.0" encoding="UTF-8" standalone="no"?>
<svg
   xmlns:dc="http://purl.org/dc/elements/1.1/"
   xmlns:cc="http://creativecommons.org/ns#"
   xmlns:rdf="http://www.w3.org/1999/02/22-rdf-syntax-ns#"
   xmlns:svg="http://www.w3.org/2000/svg"
   xmlns="http://www.w3.org/2000/svg"
   id="svg2"
   viewBox="0 -143 1000 1000"
   version="1.1">
  <metadata
     id="metadata12">
    <rdf:RDF>
      <cc:Work
         rdf:about="">
        <dc:format>image/svg+xml</dc:format>
        <dc:type
           rdf:resource="http://purl.org/dc/dcmitype/StillImage" />
        <dc:title></dc:title>
      </cc:Work>
    </rdf:RDF>
  </metadata>
  <defs
     id="defs10" />
  <g
     transform="matrix(1.213365,0,0,1.213365,-125.31946,-85.168456)"
     id="g3336">
    <path
       style="fill:#000000;fill-rule:evenodd;stroke:none;stroke-width:0.99871868px;stroke-linecap:butt;stroke-linejoin:miter;stroke-opacity:1"
       d="m 146.18628,-47.662109 0,824.154299 542.03515,0 0,-218.39844 a 207.62712,207.62712 0 0 1 -29.32227,2.29687 207.62712,207.62712 0 0 1 -4.53515,-0.22656 l 0,182.38282 -474.32031,0 0,-756.26368 474.32031,0 0,159.01172 a 207.62712,207.62712 0 0 1 4.53515,-0.16015 207.62712,207.62712 0 0 1 29.32227,2.33593 l 0,-195.132809 -542.03515,0 z"
       id="rect3341" />
    <circle
       style="fill:#000000;fill-rule:evenodd;stroke:none;stroke-width:1px;stroke-linecap:butt;stroke-linejoin:miter;stroke-opacity:1"
       id="path3349"
       cx="408.89832"
       cy="651.49152"
       r="40.254238" />
    <path
       style="stroke:none"
       d="M 658.89741,127.12693 A 225.63557,225.63557 0 0 0 433.26342,352.7627 225.63557,225.63557 0 0 0 658.89741,578.39849 225.63557,225.63557 0 0 0 884.53319,352.7627 225.63557,225.63557 0 0 0 658.89741,127.12693 Z m 0,33.89367 A 191.74182,191.74182 0 0 1 850.63953,352.7627 191.74182,191.74182 0 0 1 658.8992,544.50303 191.74182,191.74182 0 0 1 467.15708,352.7627 191.74182,191.74182 0 0 1 658.89741,161.0206 Z"
       id="path4145" />
    <path
       style="fill:#000000;fill-opacity:1;stroke:none"
       d="m 689.21153,486.99241 0,-162.39708 75.74909,0 -106.06232,-106.06232 -106.06231,106.06232 75.74711,0 0,162.39708 60.62843,0 z"
       id="rect4198" />
  </g>
</svg>
