<?xml version="1.0" encoding="UTF-8" standalone="no"?>
<svg
   xmlns:dc="http://purl.org/dc/elements/1.1/"
   xmlns:cc="http://creativecommons.org/ns#"
   xmlns:rdf="http://www.w3.org/1999/02/22-rdf-syntax-ns#"
   xmlns:svg="http://www.w3.org/2000/svg"
   xmlns="http://www.w3.org/2000/svg"
   xml:space="preserve"
   style="enable-background:new 0 0 1000 1000;"
   viewBox="0 0 1000 1000"
   y="0px"
   x="0px"
   id="svg2"
   version="1.1"><metadata
     id="metadata23"><rdf:RDF><cc:Work
         rdf:about=""><dc:format>image/svg+xml</dc:format><dc:type
           rdf:resource="http://purl.org/dc/dcmitype/StillImage" /><dc:title></dc:title></cc:Work></rdf:RDF></metadata><defs
     id="defs21" /><g
     id="g3"><path
       id="path5"
       d="M0,111.5v777h1000v-777H0z M945.6,834.1H54.4V165.9h891.1V834.1z" /><rect
       id="rect7"
       height="50.5"
       width="142.4"
       y="234.3"
       x="116.1" /><rect
       id="rect9"
       height="50.5"
       width="142.4"
       y="234.3"
       x="744.6" /><rect
       id="rect11"
       height="50.5"
       width="142.4"
       y="718.7"
       x="116.1" /><rect
       id="rect13"
       height="50.5"
       width="142.4"
       y="718.7"
       x="744.6" /><path
       id="path15"
       d="M500,722.2c105.7,0,191.4-99.5,191.4-222.2S605.7,277.8,500,277.8S308.6,377.3,308.6,500S394.3,722.2,500,722.2z M500,325   c83.2,0,150.7,78.3,150.7,175S583.2,675,500,675s-150.7-78.3-150.7-175S416.8,325,500,325z" /><path
       id="path17"
       d="M547.8,572.5h-33.9V394.4h-22.6l-39.1,44.3l24.3,7.8c4.3-3.9,7.5-8.3,9.6-13h0.9v139h-34.7v33h95.6V572.5z" /></g></svg>