<?xml version="1.0" encoding="UTF-8" standalone="no"?>
<svg
   xmlns:dc="http://purl.org/dc/elements/1.1/"
   xmlns:cc="http://creativecommons.org/ns#"
   xmlns:rdf="http://www.w3.org/1999/02/22-rdf-syntax-ns#"
   xmlns:svg="http://www.w3.org/2000/svg"
   xmlns="http://www.w3.org/2000/svg"
   id="svg2"
   viewBox="0 -143 1000 1000"
   version="1.1">
  <metadata
     id="metadata12">
    <rdf:RDF>
      <cc:Work
         rdf:about="">
        <dc:format>image/svg+xml</dc:format>
        <dc:type
           rdf:resource="http://purl.org/dc/dcmitype/StillImage" />
        <dc:title></dc:title>
      </cc:Work>
    </rdf:RDF>
  </metadata>
  <defs
     id="defs10" />
  <g
     id="g4"
     transform="matrix(1.1668611,0,0,-1.1668611,-82.847119,942.18084)">
    <path
       style="fill:currentColor"
       id="path6"
       d="M 303,854 Q 261,770 261,675 261,507 381,387 500,268 668,268 768,268 855,314 803,220 709.5,164.5 616,109 506,109 340,109 222.5,226 105,343 105,509 q 0,229 198,345 l 0,0 z m 93,75 Q 254,892 163,775 71,658 71,509 71,438 93,371.5 115,305 155,252 195,199 249,159 302,119 368,96 434,74 506,74 658,74 776,169 894,263 928,408 820,302 668,302 514,302 404,412 295,521 296,675 q 0,146 100,254 l 0,0 z" />
  </g>
</svg>
