<?xml version="1.0" encoding="UTF-8" standalone="no"?>
<svg
   xmlns:dc="http://purl.org/dc/elements/1.1/"
   xmlns:cc="http://creativecommons.org/ns#"
   xmlns:rdf="http://www.w3.org/1999/02/22-rdf-syntax-ns#"
   xmlns:svg="http://www.w3.org/2000/svg"
   xmlns="http://www.w3.org/2000/svg"
   xml:space="preserve"
   style="enable-background:new 0 0 1026.2 1026.2;"
   viewBox="0 0 1026.2 1026.2"
   y="0px"
   x="0px"
   id="svg2"
   version="1.1"><metadata
     id="metadata9"><rdf:RDF><cc:Work
         rdf:about=""><dc:format>image/svg+xml</dc:format><dc:type
           rdf:resource="http://purl.org/dc/dcmitype/StillImage" /><dc:title></dc:title></cc:Work></rdf:RDF></metadata><defs
     id="defs7" /><polygon
     id="polygon3"
     points="840.1,323.2 804.2,359.1 928,482.9 538.5,482.9 538.5,114.2 663.3,238.1 699.2,202.3 513.1,16.2 326.9,202.4   364,238 487.7,114.3 487.7,482.9 98.2,482.9 222,359.1 186.1,323.2 0,508.3 186.1,694.4 222,658.6 98.1,533.8 487.7,533.8   487.7,912.7 363.9,788 327,824.9 513.1,1010 699.1,825 663.4,787.9 538.5,912.8 538.5,533.8 928.1,533.8 804.2,658.6 840.1,694.4   1026.2,508.3 " /></svg>