<?xml version="1.0" encoding="utf-8"?>
<!-- Generator: Adobe Illustrator 21.1.0, SVG Export Plug-In . SVG Version: 6.00 Build 0)  -->
<svg version="1.1"
	 id="svg2" xmlns:cc="http://creativecommons.org/ns#" xmlns:dc="http://purl.org/dc/elements/1.1/" xmlns:rdf="http://www.w3.org/1999/02/22-rdf-syntax-ns#" xmlns:svg="http://www.w3.org/2000/svg"
	 xmlns="http://www.w3.org/2000/svg" xmlns:xlink="http://www.w3.org/1999/xlink" x="0px" y="0px" viewBox="0 0 1017.9 1017.9"
	 style="enable-background:new 0 0 1017.9 1017.9;" xml:space="preserve">
<path d="M333.7,232.1v507.3C304,710.6,267.6,696,225.4,696l-1.2,0l-1.3,0c-44.3,0-82,16-112.3,47.4c-31.1,30.6-47,68.8-47.4,113.5
	v0.1c0.3,44.5,16.3,82.7,47.4,113.5c30.5,30.8,68.7,46.8,113.5,47.4l0.6,0c43.5,0,81.1-15.6,112-46.3c31.4-31.5,47.4-69,47.4-111.4
	V267.6l508.4-180v454.3c-30.3-28.9-67.4-43.6-110.6-43.7c-44.5,0.1-82.7,16.1-113.5,47.4c-30.7,31.1-46.3,69.1-46.3,113
	c0,44.6,16,83,47.4,114.1c30.9,30.5,68.7,46.1,112.5,46.3c44.8-0.2,83.2-16,114-46.9c31.1-31.1,46.9-69.1,46.9-113v-9.4L954.7,0
	L333.7,232.1z M782.5,768.6h-0.2c-30.2,0-55.5-10.5-77.4-32.1c-22.1-21.7-32.8-47-32.5-77.3v-0.1c-0.2-30.4,10.4-55.9,32.6-77.9
	c21.8-21.9,47-32.6,77.1-32.6h0.7c29.7,0,55.3,10.7,78.2,32.6c21.8,22,32.3,47.5,32,77.8c-0.4,30.4-10.9,55.6-32,77
	C838.3,757.7,811.9,768.6,782.5,768.6z M301.6,934.9L301.6,934.9c-21.3,22-46.1,32.6-76,32.6c-0.4,0-1.4,0-1.4,0s-1,0-1.4,0
	c-29.6,0-54.6-10.7-76.6-32.6c-21.8-21.8-32.5-47.3-32.6-77.9c0.1-30.8,10.6-56.2,32-77.4c21.9-21.4,47.6-31.9,78.6-32.1
	c30.6,0.2,55.9,10.7,77.5,32.1c21.7,21.2,32.2,46.5,32,77.4C333.9,887.7,323.4,913.1,301.6,934.9z"/>
</svg>
