<?xml version="1.0" encoding="UTF-8" standalone="no"?>
<svg
   xmlns:dc="http://purl.org/dc/elements/1.1/"
   xmlns:cc="http://creativecommons.org/ns#"
   xmlns:rdf="http://www.w3.org/1999/02/22-rdf-syntax-ns#"
   xmlns:svg="http://www.w3.org/2000/svg"
   xmlns="http://www.w3.org/2000/svg"
   xml:space="preserve"
   style="enable-background:new 0 0 1000 1000;"
   viewBox="0 0 1000 1000"
   y="0px"
   x="0px"
   id="svg2"
   version="1.1"><metadata
     id="metadata11"><rdf:RDF><cc:Work
         rdf:about=""><dc:format>image/svg+xml</dc:format><dc:type
           rdf:resource="http://purl.org/dc/dcmitype/StillImage" /><dc:title></dc:title></cc:Work></rdf:RDF></metadata><defs
     id="defs9" /><style
     id="style3"
     type="text/css">
	.st0{fill:#1A1A1A;}
</style><path
     id="path5"
     d="M1000,366l-122-87.4L866,134l-149.4-14.7L634,0L497.3,61.9L366,0l-87.4,122L134,134l-14.7,149.3L0,366  l61.9,136.7L0,634l122,87.4L134,866l149.4,14.7L366,1000l136.7-61.9L634,1000l87.4-122L866,866l14.7-149.3L1000,634l-61.9-136.7  L1000,366z M936.2,616.9l-104,72.2l-12.8,130.3l-126.2,10.5l-76.3,106.4l-114.5-54l-119.3,54l-72.2-104l-130.3-12.8l-10.5-126.2  L63.8,616.9l54-114.5l-54-119.3l104-72.2l12.8-130.3l126.2-10.5l76.3-106.4l114.5,54l119.3-54l72.2,104l130.3,12.8l10.5,126.2  l106.4,76.3l-54,114.5L936.2,616.9z"
     class="st0" /></svg>