<?xml version="1.0" encoding="utf-8"?>
<!-- Generator: Adobe Illustrator 21.1.0, SVG Export Plug-In . SVG Version: 6.00 Build 0)  -->
<svg version="1.1"
	 id="svg2" xmlns:cc="http://creativecommons.org/ns#" xmlns:dc="http://purl.org/dc/elements/1.1/" xmlns:rdf="http://www.w3.org/1999/02/22-rdf-syntax-ns#" xmlns:svg="http://www.w3.org/2000/svg"
	 xmlns="http://www.w3.org/2000/svg" xmlns:xlink="http://www.w3.org/1999/xlink" x="0px" y="0px" viewBox="0 0 1011.2 1011.2"
	 style="enable-background:new 0 0 1011.2 1011.2;" xml:space="preserve">
<g>
	<path d="M403.5,909.1c0,28.4,10,52.6,29.7,71.9c19.7,19.3,44,29.4,72.2,30.2l0.2,0c28.4,0,52.4-10.4,71.4-30.9
		c19.6-19.6,30-43.6,30.7-71.1l0.2-5.8H403.5V909.1z"/>
	<path d="M837.8,696.5V389.4c0-81-26.1-153.1-77.6-214.1c-50.5-59.8-115-97.3-191.7-111.6v-20c0-12-4.3-22.4-12.9-30.9
		C547,4.3,536.6,0,524.7,0h-38.2c-11.9,0-22.6,4.3-31.8,12.7l-0.2,0.2c-8.6,8.6-12.5,19.1-11.7,31.1v19.9
		c-76,15-140.3,52.9-191.1,112.7c-51.9,61-78.2,132.6-78.2,212.9v307.1L38.7,805.4v71.1h933.8v-71.1L837.8,696.5z M919.8,826H91.4
		l131.4-106.2V389.4c0-77.4,28.1-144.4,83.7-199.2c54.8-54.8,122-82.7,199.8-83.1l1.5,0c77.1,0,143.8,27.8,198.2,82.5
		c54.8,55.1,82.5,122.3,82.5,199.8v330.4L919.8,826z"/>
</g>
</svg>
