<?xml version="1.0" encoding="utf-8"?>
<!-- Generator: Adobe Illustrator 21.1.0, SVG Export Plug-In . SVG Version: 6.00 Build 0)  -->
<svg version="1.1"
	 id="svg2" xmlns:cc="http://creativecommons.org/ns#" xmlns:dc="http://purl.org/dc/elements/1.1/" xmlns:rdf="http://www.w3.org/1999/02/22-rdf-syntax-ns#" xmlns:svg="http://www.w3.org/2000/svg"
	 xmlns="http://www.w3.org/2000/svg" xmlns:xlink="http://www.w3.org/1999/xlink" x="0px" y="0px" viewBox="0 0 1004.9 1004.9"
	 style="enable-background:new 0 0 1004.9 1004.9;" xml:space="preserve">
<g>
	<path d="M908,251.2c-53.2-80-128.1-142-216.6-179.2l-6.7-2.8v66.5l2.7,1.3c146.3,70.5,241,220.9,241.2,383.3
		c0,234.9-191.2,426-426.1,426c-234.9,0-426-191.1-426-426c0.2-162.4,94.8-312.9,241.1-383.4l2.7-1.3V68.6l-6.7,2.8
		c-88.6,37.3-163.6,99.3-216.8,179.4C43.6,331,15.4,424.1,15.4,520.3c0,65.7,12.9,129.5,38.3,189.6c24.5,58,59.6,110.1,104.4,154.8
		c44.7,44.7,96.8,79.8,154.8,104.4c60,25.4,123.8,38.3,189.6,38.3S631.9,994.4,692,969c58-24.5,110.1-59.6,154.8-104.4
		s79.8-96.8,104.4-154.8c25.4-60,38.3-123.8,38.3-189.6C989.3,424.2,961.1,331.2,908,251.2z"/>
	<rect x="472.3" y="2.4" width="60.2" height="551.2"/>
</g>
</svg>
