<?xml version="1.0" encoding="UTF-8" standalone="no"?>
<svg
   xmlns:dc="http://purl.org/dc/elements/1.1/"
   xmlns:cc="http://creativecommons.org/ns#"
   xmlns:rdf="http://www.w3.org/1999/02/22-rdf-syntax-ns#"
   xmlns:svg="http://www.w3.org/2000/svg"
   xmlns="http://www.w3.org/2000/svg"
   xml:space="preserve"
   style="enable-background:new 0 0 101.6 101.6;"
   viewBox="0 0 101.6 101.6"
   y="0px"
   x="0px"
   id="svg2"
   version="1.1"><metadata
     id="metadata14"><rdf:RDF><cc:Work
         rdf:about=""><dc:format>image/svg+xml</dc:format><dc:type
           rdf:resource="http://purl.org/dc/dcmitype/StillImage" /><dc:title></dc:title></cc:Work></rdf:RDF></metadata><defs
     id="defs12" /><g
     id="g3"><path
       id="path5"
       d="M86.6,14.9C76.8,5,64.9,0,51.4,0c-1.5,0-3.1,0.1-4.7,0.2c-12.4,1.1-23,6-31.8,14.7C5,24.7,0,36.8,0,50.8s5,26.1,14.9,36   c9.8,9.8,21.9,14.8,35.8,14.8c13.9,0,26-5,35.9-14.8c9.8-9.8,14.9-21.9,14.9-35.9C101.6,36.9,96.6,24.8,86.6,14.9z M83.2,83.2   c-8.9,8.9-19.8,13.4-32.4,13.4h-0.2c-12.6,0-23.4-4.5-32.3-13.4C9.5,74.3,5,63.4,5,50.8s4.5-23.5,13.4-32.4C27.2,9.5,38.1,5,50.7,5   c12.7,0,23.6,4.5,32.5,13.4c8.9,8.8,13.4,19.7,13.4,32.4C96.6,63.4,92.1,74.3,83.2,83.2z" /><path
       id="path7"
       d="M76.6,33.1c-0.4,0-0.9,0.2-2.3,1.5L39.9,67.7L25,52.9c-0.6-0.6-1.2-0.9-1.9-0.9c-0.6,0-1.3,0.3-1.9,0.9   c-0.6,0.6-0.9,1.3-0.9,2c0,0.9,0.6,1.8,1.6,2.8l15.4,14.9c0.7,0.7,1.6,1.1,2.5,1.1c1,0,1.9-0.4,2.6-1.1l34.9-34.2   c0.9-0.9,1.3-1.7,1.3-2.6c0-0.8-0.4-1.6-1.2-2.3C77.1,33.2,76.9,33.1,76.6,33.1z" /></g><path
     d="M989.9,125.2L989.9,125.2c-10.4-9.3-26.4-8.4-35.8,2.1L335.6,819.5l-290.8-290c-10-9.9-26-9.8-35.8,0.1l0,0  c-9.8,9.9-9.7,25.9,0.2,35.8l309.3,308.4c7.9,7.9,19.7,9.4,29.1,4.7c3.2-1.4,6.2-3.5,8.7-6.3L991.9,161  C1001.2,150.5,1000.3,134.5,989.9,125.2z"
     id="path3" /></svg>