<?xml version="1.0" encoding="UTF-8" standalone="no"?>
<svg
   xmlns:dc="http://purl.org/dc/elements/1.1/"
   xmlns:cc="http://creativecommons.org/ns#"
   xmlns:rdf="http://www.w3.org/1999/02/22-rdf-syntax-ns#"
   xmlns:svg="http://www.w3.org/2000/svg"
   xmlns="http://www.w3.org/2000/svg"
   id="svg2"
   viewBox="0 -143 1000 1000"
   version="1.1">
  <metadata
     id="metadata12">
    <rdf:RDF>
      <cc:Work
         rdf:about="">
        <dc:format>image/svg+xml</dc:format>
        <dc:type
           rdf:resource="http://purl.org/dc/dcmitype/StillImage" />
        <dc:title></dc:title>
      </cc:Work>
    </rdf:RDF>
  </metadata>
  <defs
     id="defs10" />
  <g
     id="g4"
     transform="matrix(1.1673501,0,0,-1.1673501,-92.139492,939.88185)">
    <path
       style="fill:currentColor"
       id="path6"
       d="m 205,802 0,0 Q 316,912 473,926 670,942 810,802 935,677 935.5,499.5 936,322 810,196 685,71 507,71 330,71 204.5,196.5 79,322 79,499 80,677 205,802 Z M 702,657 416,379 288,505 261,479 247,464 397,319 l 19,-18 18,18 305,299 -33,34 z" />
  </g>
</svg>
