<?xml version="1.0" encoding="utf-8"?>
<!-- Generator: Adobe Illustrator 21.1.0, SVG Export Plug-In . SVG Version: 6.00 Build 0)  -->
<svg version="1.1"
	 id="svg2" xmlns:cc="http://creativecommons.org/ns#" xmlns:dc="http://purl.org/dc/elements/1.1/" xmlns:rdf="http://www.w3.org/1999/02/22-rdf-syntax-ns#" xmlns:svg="http://www.w3.org/2000/svg"
	 xmlns="http://www.w3.org/2000/svg" xmlns:xlink="http://www.w3.org/1999/xlink" x="0px" y="0px" viewBox="0 0 1012 1012"
	 style="enable-background:new 0 0 1012 1012;" xml:space="preserve">
<path d="M958.9,646.3L444.7,132C394,81.3,332.3,55.6,261.3,55.6l-1.6,0C188,56,126.2,81.7,75.9,132C25.5,182.4,0,244.2,0,315.9
	s25.5,133.5,75.9,183.8l455.8,454.6l35.9-35.9L111.8,463.9c-40.5-41.2-61-91.2-61-148.6c0-58.1,20.5-108.1,60.9-148.5
	c41.2-40.5,91.2-61,148.6-61c58.1,0,108.1,20.5,148.5,61l514.3,515.4c25.3,25.3,38.2,56.5,38.2,92.7s-12.8,67.4-38.1,92.6
	c-26.1,25.4-57.5,38.2-93.3,38.2c-35.8,0-66.8-12.8-92.1-38.1L239.4,368.1l-0.1-0.1c-11-10.3-16.3-22.2-16.3-36.5
	c0.7-15.3,6.1-27.7,16.5-38.1c9.6-9.6,21.7-14.4,36.9-14.8c0.5,0,1,0,1.5,0c14.5,0,26.4,4.8,36.3,14.8l438.7,439.8l35.9-35.9
	L348.9,257.5c-20.1-20.1-44.5-30.3-72.7-30.3c-28.1,0-52.5,10.2-72.6,30.2c-20.9,20.1-31.4,44.9-31.4,73.8l0,0.2
	c0.8,28.1,11.4,52.5,31.4,72.5L475,676.4l226.9,226.9c35.2,35.2,78.5,53.1,128.5,53.1s93.3-17.9,128.5-53.1
	c35.2-35.2,53.1-78.5,53.1-128.5S994.1,681.5,958.9,646.3z"/>
</svg>
