<?xml version="1.0" encoding="utf-8"?>
<!-- Generator: Adobe Illustrator 21.1.0, SVG Export Plug-In . SVG Version: 6.00 Build 0)  -->
<svg version="1.1"
	 id="svg2" xmlns:cc="http://creativecommons.org/ns#" xmlns:dc="http://purl.org/dc/elements/1.1/" xmlns:rdf="http://www.w3.org/1999/02/22-rdf-syntax-ns#" xmlns:svg="http://www.w3.org/2000/svg"
	 xmlns="http://www.w3.org/2000/svg" xmlns:xlink="http://www.w3.org/1999/xlink" x="0px" y="0px" viewBox="0 0 1011.9 1011.9"
	 style="enable-background:new 0 0 1011.9 1011.9;" xml:space="preserve">
<g>
	<path d="M958.4,624.3L757.1,398.4H476.5v613.5h482.9L958.4,624.3z M760.4,602.1V472.4l113.9,129.7H760.4z M912.5,652.1v309.8H523.4
		V447.3h191.1v204.8H912.5z"/>
	<path d="M97.4,872.5V139.4h167.1v17.9c-58.9,36.2-92.8,83.5-100.9,140.9l-1,6.8h418.8l-1.1-6.9c-8.8-56.5-42.7-103.9-100.9-140.7
		v-18h190.1l-1,140l45.9,4.4V91.5H477.3c-5.4-25.2-17.5-46.6-35.8-63.8C421.8,9.3,398.6,0,372.4,0c-26.1,0-49.3,9.3-69,27.7
		c-19,17.2-31.1,38.6-36,63.8H52.5v828.9h352.1l-1.3-49L97.4,872.5z M329.4,67.7c11.9-13.3,26-19.8,43.1-19.8
		c16.4,0,30.3,6.5,42.6,19.8c12.4,14.2,18.5,30.1,18.5,48.3v68.6l19.8,12.7c33.7,21.4,56,41.5,66.7,59.8H224.1
		c11.1-18.9,33.7-38.9,67.5-59.8l0.1-0.1l18.7-12.7v-68.4C311,97,317.2,81.2,329.4,67.7z"/>
</g>
</svg>
