<?xml version="1.0" encoding="utf-8"?>
<!-- Generator: Adobe Illustrator 21.1.0, SVG Export Plug-In . SVG Version: 6.00 Build 0)  -->
<svg version="1.1"
	 id="svg2" xmlns:cc="http://creativecommons.org/ns#" xmlns:dc="http://purl.org/dc/elements/1.1/" xmlns:rdf="http://www.w3.org/1999/02/22-rdf-syntax-ns#" xmlns:svg="http://www.w3.org/2000/svg"
	 xmlns="http://www.w3.org/2000/svg" xmlns:xlink="http://www.w3.org/1999/xlink" x="0px" y="0px" viewBox="0 0 1000 1000"
	 style="enable-background:new 0 0 1000 1000;" xml:space="preserve">
<g id="g3">
	<path id="path5" d="M230.9,607.9l1,157.1h216.9V235H230.9V607.9z M399.5,626.2c-0.6,11.8-0.9,29-0.9,51.1v37.4H281.2V371.4v-0.3
		c-0.6-8-0.9-37.7-0.9-88.2c10-0.2,33.9-0.5,89.2-0.5v-0.5l29.1-0.3c0.1,13.3,0.4,43.1,0.9,90.1V626.2z"/>
	<path id="path7" d="M551.2,235v372.9l1,157.1h216.9V235H551.2z M600.6,283c10-0.2,33.9-0.5,89.2-0.5V282l28.7-0.3
		c-0.2,11.7-0.2,36.3,0.4,90.1v343H601.4v-343C601.4,364.1,601.2,334.2,600.6,283z"/>
</g>
</svg>
