<?xml version="1.0" encoding="utf-8"?>
<!-- Generator: Adobe Illustrator 21.1.0, SVG Export Plug-In . SVG Version: 6.00 Build 0)  -->
<svg version="1.1"
	 id="icons" xmlns:cc="http://creativecommons.org/ns#" xmlns:dc="http://purl.org/dc/elements/1.1/" xmlns:rdf="http://www.w3.org/1999/02/22-rdf-syntax-ns#" xmlns:svg="http://www.w3.org/2000/svg"
	 xmlns="http://www.w3.org/2000/svg" xmlns:xlink="http://www.w3.org/1999/xlink" x="0px" y="0px" viewBox="0 0 1000 1000"
	 style="enable-background:new 0 0 1000 1000;" xml:space="preserve">
<title  id="title5">Icons</title>
<path d="M840.2,873.9v75.6H159.5v-899h400v250.2V328v23.3h280.7v533.5h50.6V351.3h0.2V324v-43L611.9,1.9L610,3.8V0h-50.5h-400H109
	v50.5v898.9V998v2h731.2H890h0.8V873.9H840.2z M610,71.5l229.2,229.2H610V71.5z"/>
<path id="path6" d="M353.7,611.3c-6.7-4.8-14.4-8.3-23.1-10.5c-8.7-2.3-19.3-3.5-31.8-3.5h-56.6v223.5H270v-83.3h27.7
	c14.9,0,27.3-1.9,37.1-5.7c9.8-3.9,18.3-9.7,25.5-17.4c5.8-6.2,10.3-13.5,13.4-21.9c3.3-8.5,4.9-17.7,4.9-27.6
	c0-13-2.2-23.8-6.6-32.3C367.8,624.1,361.7,617,353.7,611.3z M347,683.5c-1.8,5.3-4.9,10.4-9.2,15.2c-4.4,4.7-10.1,8.2-17.1,10.4
	c-7,2.1-16.1,3.2-27.3,3.2H270V623h27.4c8.8,0,16,0.7,21.7,2.1c5.8,1.3,10.9,3.5,15.4,6.6c5.1,3.6,9,8.3,11.5,14s3.8,12.4,3.8,20.1
	C349.8,672.3,348.9,678.2,347,683.5z"/>
<path id="path8" d="M546.4,615.1c-8.3-5.5-18.5-9.8-30.5-12.9c-12-3.2-28.1-4.8-48.5-4.8h-52.1v223.5H468c19.1,0,34.5-1.4,46.2-4.2
	c11.8-2.8,22.4-7.4,31.9-13.7c13.7-9.1,24.7-21.9,32.9-38.4c8.3-16.5,12.5-34.9,12.5-55.2c0-21.7-4-40.5-11.9-56.3
	S560.6,624.6,546.4,615.1z M554.7,752.4c-5.1,11.6-12.9,21-23.2,28.1c-8.3,5.7-17.5,9.6-27.4,11.7c-9.9,2.1-21.5,3.2-34.9,3.2h-26
	V622.9h26c12.9,0,23.9,1,33.2,3c9.2,1.9,18,5.4,26.2,10.4c11.3,6.9,19.8,16.4,25.5,28.4s8.5,26.8,8.5,44.3
	C562.5,726.3,559.9,740.8,554.7,752.4z"/>
<polygon id="polygon10" points="664.4,713.3 755,713.3 755,686.8 664.4,686.8 664.4,623.8 769.8,623.8 769.8,597.4 636.6,597.4 
	636.6,820.9 664.4,820.9 "/>
</svg>
