<?xml version="1.0" encoding="UTF-8" standalone="no"?>
<svg
   xmlns:dc="http://purl.org/dc/elements/1.1/"
   xmlns:cc="http://creativecommons.org/ns#"
   xmlns:rdf="http://www.w3.org/1999/02/22-rdf-syntax-ns#"
   xmlns:svg="http://www.w3.org/2000/svg"
   xmlns="http://www.w3.org/2000/svg"
   id="svg2"
   viewBox="0 -143 1000 1000"
   version="1.1">
  <metadata
     id="metadata12">
    <rdf:RDF>
      <cc:Work
         rdf:about="">
        <dc:format>image/svg+xml</dc:format>
        <dc:type
           rdf:resource="http://purl.org/dc/dcmitype/StillImage" />
        <dc:title></dc:title>
      </cc:Work>
    </rdf:RDF>
  </metadata>
  <defs
     id="defs10" />
  <g
     id="g4"
     transform="matrix(1.2787724,0,0,-1.2787724,-107.41689,995.10743)">
    <path
       style="fill:currentColor"
       id="path6"
       d="M 634,783 756,668 813,726 688,841 Z M 585,781 689,890 865,728 757,619 Z M 299,500 506,705 q 15,15 37,15 26,0 90,-64 l 0,0 q 61,-60 61,-80 0,-22 -15,-37 L 473,335 267,129 85,108 89,290 Z m 349,67 q 9,10 6,15 -14,18 -76,74 l -26,26 q -5,5 -13,-3 L 127,280 124,155 255,168 Z" />
  </g>
</svg>
