<?xml version="1.0" encoding="utf-8"?>
<!-- Generator: Adobe Illustrator 21.1.0, SVG Export Plug-In . SVG Version: 6.00 Build 0)  -->
<svg version="1.1"
	 id="svg2" xmlns:cc="http://creativecommons.org/ns#" xmlns:dc="http://purl.org/dc/elements/1.1/" xmlns:rdf="http://www.w3.org/1999/02/22-rdf-syntax-ns#" xmlns:svg="http://www.w3.org/2000/svg"
	 xmlns="http://www.w3.org/2000/svg" xmlns:xlink="http://www.w3.org/1999/xlink" x="0px" y="0px" viewBox="0 0 1013.4 1013.4"
	 style="enable-background:new 0 0 1013.4 1013.4;" xml:space="preserve">
<path d="M955.7,806.3c-3.2-15.1-10.1-27.2-20.6-36l-0.6-0.5l-2.5-1.2L776.6,662.7c-19.8-12.9-39.5-19.5-58.8-19.5
	c-19.6,0-35.6,5.3-47.6,15.7l-1,0.9l-1.2,2.4c-4.5,4.4-14,12.8-28.1,24.9c-8.5,7.4-16.9,11-25.8,11c-11,0-23-5.8-35.5-17.3
	C565.1,668,529,625.3,471.1,553.9c-58-71.7-100.9-126.1-127.3-161.9c-8.3-11.5-11.9-22.3-10.7-31.9c1.3-9.5,10.1-25.7,44.5-49.3
	l5.5-3.3l0.3-0.2c32.1-24.2,40.8-56.3,26-95.3c-14.4-38.2-40.7-95.2-78.1-169.3C317.2,14.4,295.2,0.1,266,0c-1.3,0-2.7,0-4,0
	c-40.7,0-76.6,11-107,32.6l-7.5,5.4C86.8,80.2,56,130.8,56,188.4c0,52.7,20.4,120.1,60.7,200.3c40,79.6,100.8,174.3,180.6,281.5
	c78.7,106.8,164.3,191.4,254.6,251.3c45.2,30.4,85.9,53.5,121.1,68.7c35.6,15.4,66.7,23.3,92.4,23.3c35.5,0,70.8-16.6,105.1-49.4
	c35-32.1,60.9-64.3,77.1-95.9l0.2-0.4l0.1-0.4C957,842.1,959.6,822.2,955.7,806.3z M840.7,924.6c-26.7,25.6-52,38.6-75.3,38.7
	c-41-0.7-104.2-29.3-187.7-84.8c-84-55.9-164.9-135.9-240.5-237.9C183.9,435.1,106.1,283,106.1,188.4c0-40,23.4-76.3,69.5-108
	l0.1-0.1l8.7-6.5c22.4-15.6,49.8-23.6,81.2-23.6c7.8,0.6,14.9,5.6,21.5,15.1c35.7,73.5,61,129.2,75.2,165.5
	c6.1,15.8,3.5,27-8.2,35.2l-5.3,3.2l-0.1,0.1c-38.9,26.2-61,53.9-65.6,82.3c-3.9,24.1,2.7,48,19.6,71
	c25.9,34.5,69.2,89.1,128.8,162.4C492,659.3,529,702.4,544.6,716.5c18.3,17.5,39.8,27.6,63.9,29.9c3.2,0.3,6.3,0.5,9.4,0.5
	c20.6,0,39-6.9,54.6-20.5c12.8-11.4,23.3-21.1,31.2-29c3.8-2.6,8.4-3.9,14.1-3.9c9.3,0,19.7,4,30.7,11.7l0.1,0.1
	c19.3,12.9,71.1,47.7,154,103.4c3.5,3.6,11.7,13.3-0.5,36l-0.1,0.2C888.8,871.4,868.1,898.2,840.7,924.6z"/>
</svg>
