<?xml version="1.0" encoding="UTF-8" standalone="no"?>
<svg
   xmlns:dc="http://purl.org/dc/elements/1.1/"
   xmlns:cc="http://creativecommons.org/ns#"
   xmlns:rdf="http://www.w3.org/1999/02/22-rdf-syntax-ns#"
   xmlns:svg="http://www.w3.org/2000/svg"
   xmlns="http://www.w3.org/2000/svg"
   id="svg2"
   viewBox="0 -143 1000 1000"
   version="1.1">
  <metadata
     id="metadata12">
    <rdf:RDF>
      <cc:Work
         rdf:about="">
        <dc:format>image/svg+xml</dc:format>
        <dc:type
           rdf:resource="http://purl.org/dc/dcmitype/StillImage" />
        <dc:title></dc:title>
      </cc:Work>
    </rdf:RDF>
  </metadata>
  <defs
     id="defs10" />
  <g
     id="g4"
     transform="matrix(1.1668611,0,0,-1.1668611,-81.680258,949.18201)">
    <path
       style="fill:currentColor"
       id="path6"
       d="m 651,374 13,2 11,-5 73,-48 7,-11 -4,-17 -13,-16 -13,-13 -27,-12 -22,-7 -17,0 -15,2 q -9,1 -10,2 -5,0 -9,2 -3,1 -11,3 -8,2 -8,4 l -8,3 q -5,2 -8,3 -4,1 -10,4 -5,3 -5,4 -1,0 -6,2 -5,3 -10,5 -3,1 -7,2.5 -4,1.5 -5,1.5 -1,0 -3,2 -4,2 -22,13 -18,11 -26,17 -9,5 -26,17 -18,12 -29.5,20.5 Q 429,363 414,376 q -15,12 -28,25 -86,88 -106,157 -1,3 -5.5,15 l -6,16 q 0,0 -4.5,15 -1,3 -6,12 -4,9 -4,11 l -5,25 -2,8 -1,9 -1,13 0,11 q 5,17 13,31 7,13 17,20.5 10,7.5 15,10.5 5,3 14,7 l 8,0 26,-45 20,-32 9,-17 -3,-8 -11,-10 -14,-16 0,0 q -1,0 -6,-5 l -6,-8 q -2,-3 -5,-6 -8,-8 -8,-18 0,-3 2,-8 0,-1 1,-3 1,-2 1,-3 l 1,-4 q 1,-3 2,-5 3,-6 4,-7 15,-29 41,-69 23,-37 46,-59 38,-37 63,-54 33,-22 66,-45 1,-1 7,-3 5,-3 8,-5 3,-2 8,-3 6,-2 20,-3 6,0 19,10 14,10 21,17 9,9 27,21 z m 150,-42 q 0,7 -1,9 -2,6 -22,17 -32,18 -53,30 l -31,17 q -1,1 -12,8 -8,6 -14,8 -6,3 -13,3 -12,0 -30,-18 -5,-5 -17,-22 -14,-20 -26,-19 -4,0 -10,2 -6,2 -9.5,4 -3.5,2 -9.5,5 -7,4 -8,5 -87,60 -99,74 -31,38 -74,101 -1,1 -5.5,9.5 -4.5,8.5 -5.5,8.5 -1,1 -2,5 -2,6 -3,10 0,5 12,20 8,10 9,10 15,10 26,23 12,13 13,22 0,6 -3,12 -3,7 -9,15 -6,8 -8,11.5 -2,3.5 -9,16.5 -7,13 -14,27 l -16,28 q -8,15 -15,24 -7,9 -10,10.5 -3,1.5 -9,1.5 -31,0 -60,-13 -27,-13 -47,-56 -20,-42 -21,-77 0,-9 2,-20 2,-11 3.5,-18.5 1.5,-7.5 4.5,-19.5 4,-12 7,-17 2,-5 7,-19.5 5,-14.5 6,-18.5 36,-97 128,-189 95,-95 190,-128 3,-1 17.5,-6.5 14.5,-5.5 20,-7.5 5.5,-2 17.5,-6 12,-4 19.5,-5.5 7.5,-1.5 18,-3 10.5,-1.5 19.5,-1.5 34,0 78,20 44,21 55,48 12,29 13,60 l 0,0 z m 126,443 0,-536 0,-160 -161,0 -535,0 -161,0 0,160 0,536 0,159 q 0,2 161,2 l 535,0 q 161,0 161,-2 l 0,-159 z" />
  </g>
</svg>
