<?xml version="1.0" encoding="UTF-8" standalone="no"?>
<svg
   xmlns:dc="http://purl.org/dc/elements/1.1/"
   xmlns:cc="http://creativecommons.org/ns#"
   xmlns:rdf="http://www.w3.org/1999/02/22-rdf-syntax-ns#"
   xmlns:svg="http://www.w3.org/2000/svg"
   xmlns="http://www.w3.org/2000/svg"
   xml:space="preserve"
   style="enable-background:new 0 0 1009 1009;"
   viewBox="0 0 1009 1009"
   y="0px"
   x="0px"
   id="svg2"
   version="1.1"><metadata
     id="metadata13"><rdf:RDF><cc:Work
         rdf:about=""><dc:format>image/svg+xml</dc:format><dc:type
           rdf:resource="http://purl.org/dc/dcmitype/StillImage" /><dc:title></dc:title></cc:Work></rdf:RDF></metadata><defs
     id="defs11" /><g
     id="g3"><path
       id="path5"
       d="M0,0v1009h1009V0H0z M324.9,260.4L49.8,561.6v-510h909.4v606.1l-212-229.3L607.3,553.5L324.9,260.4z M602.2,623.1L742,498   l198.5,210.4H49.8v-72.7l275.3-301.4L602.2,623.1z M49.8,958.7V759.9h909.4v198.8H49.8z" /><path
       id="path7"
       d="M849.3,234.1c0-30.2-10.2-56.2-30.4-77.2c-20.2-21.1-45.2-31.8-74.3-31.8c-29.1,0-54.1,10.7-74.3,31.8   c-20.2,21-30.4,47-30.4,77.2s10.2,56.2,30.5,77.3c20.2,20.2,45.2,30.5,74.3,30.5s54.1-10.3,74.3-30.5   C839.1,290.4,849.3,264.4,849.3,234.1z M704.7,193c10.9-11,23.9-16.3,39.9-16.3c16,0,28.8,5.3,39.3,16.2   c10.5,11,15.6,24.5,15.6,41.2c0,16.8-5.1,30.3-15.6,41.2c-10.5,10.9-23.3,16.2-39.3,16.2c-16,0-29.1-5.3-39.9-16.3   c-10.9-11-16.2-24.4-16.2-41.2C688.5,217.4,693.8,203.9,704.7,193z" /></g></svg>