<?xml version="1.0" encoding="UTF-8" standalone="no"?>
<svg
   xmlns:dc="http://purl.org/dc/elements/1.1/"
   xmlns:cc="http://creativecommons.org/ns#"
   xmlns:rdf="http://www.w3.org/1999/02/22-rdf-syntax-ns#"
   xmlns:svg="http://www.w3.org/2000/svg"
   xmlns="http://www.w3.org/2000/svg"
   xml:space="preserve"
   style="enable-background:new 0 0 101.6 101.6;"
   viewBox="0 0 101.6 101.6"
   y="0px"
   x="0px"
   id="icons"
   version="1.1"><metadata
     id="metadata15"><rdf:RDF><cc:Work
         rdf:about=""><dc:format>image/svg+xml</dc:format><dc:type
           rdf:resource="http://purl.org/dc/dcmitype/StillImage" /><dc:title>Icons</dc:title></cc:Work></rdf:RDF></metadata><defs
     id="defs13" /><title
     id="title3">Icons</title><g
     id="g5"><path
       id="path7"
       d="M83.3,83.2c-8.9,8.9-19.8,13.4-32.5,13.4h-0.2c-12.6,0-23.5-4.5-32.4-13.4C9.5,74.3,4.9,63.4,4.9,50.8   c0-12.6,4.5-23.5,13.4-32.4c7.9-8,17.5-12.4,28.4-13.3v-5c0,0,0,0-0.1,0c-12.4,1.1-23.1,6-31.9,14.7C4.9,24.7-0.1,36.8-0.1,50.8   s5,26.1,14.9,36c9.8,9.8,22,14.8,35.9,14.8c13.9,0,26.1-5,36-14.8c8.8-8.8,13.8-19.5,14.8-31.7h-4.9C95.6,65.9,91.2,75.4,83.3,83.2   z" /><path
       id="path9"
       d="M59.9,46.5h41.6l0-0.1h0c-0.9-12.1-5.8-22.8-14.8-31.6c-9-9.1-19.8-14-31.9-14.8v0.1l0,0v46.4L59.9,46.5L59.9,46.5z    M59.9,5.8c8.9,1.7,16.7,5.9,23.4,12.6c6.6,6.5,10.8,14.3,12.5,23H59.9V5.8z" /></g></svg>