<?xml version="1.0" encoding="UTF-8" standalone="no"?>
<svg
   xmlns:dc="http://purl.org/dc/elements/1.1/"
   xmlns:cc="http://creativecommons.org/ns#"
   xmlns:rdf="http://www.w3.org/1999/02/22-rdf-syntax-ns#"
   xmlns:svg="http://www.w3.org/2000/svg"
   xmlns="http://www.w3.org/2000/svg"
   id="svg2"
   viewBox="0 -143 1000 1000"
   version="1.1">
  <metadata
     id="metadata12">
    <rdf:RDF>
      <cc:Work
         rdf:about="">
        <dc:format>image/svg+xml</dc:format>
        <dc:type
           rdf:resource="http://purl.org/dc/dcmitype/StillImage" />
        <dc:title></dc:title>
      </cc:Work>
    </rdf:RDF>
  </metadata>
  <defs
     id="defs10" />
  <g
     id="g4"
     transform="matrix(1.4084507,0,0,-1.4084507,-222.87967,1065.4507)">
    <path
       style="fill:currentColor"
       id="path6"
       d="m 430,635 q -15,-21 -15,-69 l 0,-9 q 0,0 2,-10 l 2,-8 q 1,-3 4,-8 2,-5 3,-8 1,-2 4,-7 l 4,-7 q -15,-47 -23,-79 -15,-59 -22,-91 l -8,-39 q -1,-2 -7,-23 -5,-19 -7,-33 -3,-19 -2,-31 l 1,-9 5,-10 1,0 6,6 q 9,15 15,30 7,16 9,22.5 2,6.5 7,25.5 0,2 6.5,24 6.5,22 15.5,52 8,30 14,56 5,-10 25,-29 20,-19 32,-25 31,-17 57,-17 56,0 109,38 42,30 72,99 26,60 26,135 0,56 -30,108 -28,48 -85,79 -58,32 -128,32 -54,0 -97,-14 -45,-15 -79,-40 -32,-24 -53,-52 -23,-31 -33,-66 -13,-41 -13,-67 0,-49 20,-92 l 6,-13 6,-11 4,-6 4,-6 7,-5 8,-5 3,4 3,9 2,10 -2,6 -8,8 q -22,25 -22,92 0,36 16.5,76 16.5,40 42.5,71 29,36 78.5,54 49.5,18 96.5,19 75,0 125,-34 36,-25 58,-69 22,-45 22,-81 0,-42 -10.5,-87.5 Q 697,485 680,454 659,415 628.5,392.5 598,370 570,368 q -58,-5 -84,24 -11,13 -18,33 -8,20 -6,35 0,4 4,19 4,16 8,31 5,21 6,25 6,17 16,51 6,21 6,37 l 0,16 -3,9 -2,4 -8,7 -14,2 -11,1 -10,-1 -11,-8 z m -39,-480 -10,-7 -17,0 -14,8 -15,16 q -2,74 3,101 l 50,233 q -16,31 -16,70 0,48 23,85 25,39 75,38 37,0 53,-19 16,-19 17,-53 0,-17 -3,-45 -2,-17 -15,-58 -4,-12 -13,-48 -7,-26 8,-50 15,-24 40,-24 52,0 88,64 36,63 37,147 0,65 -44,107 -48,46 -128,46 -86,0 -143.5,-54 Q 309,658 310,573 q 0,-49 24,-77 10,-12 6,-24 -1,-3 -6,-20 -5,-17 -6,-21 -5,-18 -21,-11 -43,18 -65.5,62 -22.5,44 -22,102 0.5,58 5.5,75 12,38 36,75 24,38 64,65 40,27 90,43 51,16 110,16 83,0 145,-33 66,-35 101,-94 36,-60 36,-124 0,-83 -32,-154 Q 743,383 688,344.5 633,306 565,306 q -34,0 -64,13 -30,13 -41,35 -11,-42 -26,-120 -2,-14 -43,-79 z" />
  </g>
</svg>
