<?xml version="1.0" encoding="UTF-8" standalone="no"?>
<svg
   xmlns:dc="http://purl.org/dc/elements/1.1/"
   xmlns:cc="http://creativecommons.org/ns#"
   xmlns:rdf="http://www.w3.org/1999/02/22-rdf-syntax-ns#"
   xmlns:svg="http://www.w3.org/2000/svg"
   xmlns="http://www.w3.org/2000/svg"
   id="svg2"
   viewBox="0 -143 1000 1000"
   version="1.1">
  <metadata
     id="metadata12">
    <rdf:RDF>
      <cc:Work
         rdf:about="">
        <dc:format>image/svg+xml</dc:format>
        <dc:type
           rdf:resource="http://purl.org/dc/dcmitype/StillImage" />
        <dc:title></dc:title>
      </cc:Work>
    </rdf:RDF>
  </metadata>
  <defs
     id="defs10" />
  <g
     id="g4"
     transform="matrix(1.1627907,0,0,-1.1627907,-91.279071,934.90698)">
    <path
       style="fill:currentColor"
       id="path6"
       d="m 430,621 q -15,-21 -15,-69 l 0,-10 q 0,-4 2,-9 l 2,-8 q 1,-3 4,-9 2,-5 3,-7 1,-2 4,-7 l 4,-7 q -15,-47 -23,-79 -15,-59 -22,-91 l -8,-39 q -1,-2 -7,-23 -5,-19 -7,-33 -3,-19 -2,-30 l 1,-10 5,-10 1,0 6,6 q 9,15 15,30 7,16 9,22.5 2,6.5 7,25.5 0,2 7,24 6,22 14.5,51.5 8.5,29.5 14.5,56.5 5,-10 25,-29 20,-19 32,-26 31,-17 57,-16 56,0 109,37 42,30 72,99 26,60 26,136 0,56 -30,107 -28,48 -85,80 -58,32 -128,32 -54,0 -97,-14 -45,-15 -79,-40 -32,-24 -53,-53 -23,-31 -33,-65 -13,-41 -13,-67 0,-49 20,-92 l 6,-13 6,-12 4,-5 4,-6 7,-5 8,-5 3,3 3,10 2,9 -2,7 -8,8 q -22,25 -22,91 0,36 17,77 17,40 42,71 29,36 79,53 49,19 96,19 75,0 125,-33 36,-25 58,-69 22,-45 22,-81 0,-42 -10.5,-87.5 Q 697,471 680,440 q -21,-39 -51,-61 -31,-23 -59,-26 -58,-5 -84,25 -11,13 -18.5,33 -7.5,20 -5.5,35 0,4 4,19 4,16 8,31 5,21 6,24 6,17 16,52 6,21 6,36 l 0,16 -3,9 -2,5 -8,6 -14,3 -11,1 -10,-1 -11,-8 z M 391,138 q 43,70 45,82 5,28 24,115 14,-25 41,-34 30,-11 64,-12 71,0 123,38 60,43 90,110 31,70 31,156 0,71 -33,128 -33,57 -104,93 -62,33 -147,34 -69,0 -110,-14 -66,-23 -92,-43 -43,-32 -67,-69 -22,-36 -35,-78 -10,-30 -9,-74 1,-63 25,-105 29,-51 67,-64 21,-7 26,10 1,4 7,23 l 8,23 q 4,15 -8,28 -22,27 -23,74 0,78 56,132 59,57 140,57 76,0 126,-48 40,-39 39,-103 0,-87 -32,-143 -36,-63 -86,-63 -22,0 -38,23 -13,20 -8,49 3,19 13,49 12,40 14,56 4,32 4,46 0,40 -15,58 -16,18 -57,18 -48,0 -75,-40 -25,-40 -25,-88 0,-39 17,-73 L 335,259 q -5,-24 -4,-100 l 19,-19 14,-9 17,0 z m 546,627 0,-536 0,-157 q 0,-3 -161,-3 L 241,69 Q 80,69 80,67 l 0,162 0,536 0,160 q 0,1 161,1 l 535,0 q 161,0 161,1 l 0,-162 z" />
  </g>
</svg>
