<?xml version="1.0" encoding="UTF-8" standalone="no"?>
<svg
   xmlns:dc="http://purl.org/dc/elements/1.1/"
   xmlns:cc="http://creativecommons.org/ns#"
   xmlns:rdf="http://www.w3.org/1999/02/22-rdf-syntax-ns#"
   xmlns:svg="http://www.w3.org/2000/svg"
   xmlns="http://www.w3.org/2000/svg"
   xml:space="preserve"
   style="enable-background:new 0 0 1018.7 1018.7;"
   viewBox="0 0 1018.7 1018.7"
   y="0px"
   x="0px"
   id="svg2"
   version="1.1"><metadata
     id="metadata9"><rdf:RDF><cc:Work
         rdf:about=""><dc:format>image/svg+xml</dc:format><dc:type
           rdf:resource="http://purl.org/dc/dcmitype/StillImage" /><dc:title></dc:title></cc:Work></rdf:RDF></metadata><defs
     id="defs7" /><path
     id="path3"
     d="M1009,26.6l0-0.1l-4.6-13.9l-14.8-3c-14.8-3.7-31.5-5.5-49.8-5.5c-41.8,0-74.2,11.2-96.3,33.2L677,203.7l-480.7-83.5  L90.9,225.7l377.9,185.2L295.3,585.3c-10.7,10-25.7,27.7-45.8,53.8L49.7,650.9l-51.6,97l222.2,49.3l47.1,221.4l97-52.8l14-187.4  c32.3-29.6,55.4-51.3,68.7-64.6L608.9,552l185.2,375.8l105.4-105.4L816,344.9l167.4-167.4c16.1-15.4,26.6-37.7,31.1-66.3  C1018.9,83.1,1017.1,54.7,1009,26.6z M808,840.4L623.8,464.5l-213,213c-18.4,18.4-43.2,41.7-73.6,69.3l-0.1,0.1l-7.4,7.4L314.8,934  l-11.2,6.1l-39.6-186.5L75.3,711.9l6.1-11.1l195.5-10.7l6.2-9.3c24.6-31.6,40.9-51.5,48.4-59L557.4,397L178.5,210.8l35.7-34.9  l479.7,83.5L879.7,73.6c12-12,32.2-18.1,60-18.1c7.9,0,15.8,0.5,23.7,1.4c7.2,38.1,1.7,66.4-16.1,84.3L760.3,328l83.5,477.4  L808,840.4z" /></svg>