<?xml version="1.0" encoding="utf-8"?>
<!-- Generator: Adobe Illustrator 21.1.0, SVG Export Plug-In . SVG Version: 6.00 Build 0)  -->
<svg version="1.1"
	 id="svg2" xmlns:cc="http://creativecommons.org/ns#" xmlns:dc="http://purl.org/dc/elements/1.1/" xmlns:rdf="http://www.w3.org/1999/02/22-rdf-syntax-ns#" xmlns:svg="http://www.w3.org/2000/svg"
	 xmlns="http://www.w3.org/2000/svg" xmlns:xlink="http://www.w3.org/1999/xlink" x="0px" y="0px" viewBox="0 0 1000 1003.8"
	 style="enable-background:new 0 0 1000 1003.8;" xml:space="preserve">
<g>
	<path d="M855.7,147.4C757.9,49.6,638.6,0,501,0c-1.4,0-2.7,0-4.1,0C360.4,0,242.1,49.6,145.3,147.4C47.7,244.1-1.9,361.3-1.9,495.5
		c0,14.8,1,30.9,2,46.5c5.4,61,20.3,118.4,44.5,170.6c24.1,52.2,58,100.6,100.8,143.8c96.7,97.8,216,147.4,354.7,147.4
		c138.3,0,257.9-49.6,355.6-147.3c48.2-48.2,85-102.6,109.4-161.8s36.8-123.8,36.8-192.2C1001.9,364.9,952.7,245.4,855.7,147.4z
		 M950.9,503.4C950.9,627,906.5,734,819,821.7c-87.8,86.9-195.1,131-318.9,131c-124.2,0-231.5-44.4-318.9-132.1
		C93.5,734,49.1,627,49.1,502.4c0-124.9,44.4-232.6,132-320.2c86.5-87.6,193.8-132,318.9-132c124.2,0,231.5,44.4,318.9,132.1
		c87.6,87.7,132,195.1,132,319.1V503.4z"/>
	<path d="M697.3,492l-10.3-9.6L668.5,463L410,222.5v-1h-50.5v561H410v-1l0.4,0.4l293.1-282.4l-6.7-6.9L697.3,492z M410,712.1V291.7
		l221.1,207.3L410,712.1z"/>
</g>
</svg>
