<?xml version="1.0" encoding="UTF-8" standalone="no"?>
<svg
   xmlns:dc="http://purl.org/dc/elements/1.1/"
   xmlns:cc="http://creativecommons.org/ns#"
   xmlns:rdf="http://www.w3.org/1999/02/22-rdf-syntax-ns#"
   xmlns:svg="http://www.w3.org/2000/svg"
   xmlns="http://www.w3.org/2000/svg"
   id="svg2"
   viewBox="0 -143 1000 1000"
   version="1.1">
  <metadata
     id="metadata12">
    <rdf:RDF>
      <cc:Work
         rdf:about="">
        <dc:format>image/svg+xml</dc:format>
        <dc:type
           rdf:resource="http://purl.org/dc/dcmitype/StillImage" />
        <dc:title></dc:title>
      </cc:Work>
    </rdf:RDF>
  </metadata>
  <defs
     id="defs10" />
  <g
     id="g4"
     transform="matrix(1.1540628,0,0,-1.1540628,-75.261185,934.89464)">
    <path
       style="fill:currentColor"
       id="path6"
       d="m 670,422 -266,-266 -1,-2 q -1,-1 -2,-1 -52,-52 -125,-52 -73,0 -125,52 -50,50 -52,121 -1,71 46,123 l 35,-36 57,57 q 56,-27 120,-17 64,10 109,56 l 96,95 24,-24 24,24 -96,96 143,143 -24,24 -143,-143 -95,95 143,143 -24,24 -143,-143 -95,95 -24,-24 24,-24 -96,-95 Q 134,697 124,633 114,569 141,513 L 85,457 121,421 Q 64,359 66,274 67,189 127,129 189,67 276,67.5 363,68 425,129 l 269,269 q 44,44 106,44 62,0 107,-44 l 24,24 Q 877,476 800.5,476 724,476 670,422 l 0,0 z m -466,297 96,96 238,-239 -95,-95 q -49,-49 -120,-50 -70,0 -119,49.5 -49,49.5 -49,119.5 0,70 49,119 z M 159,483 q 11,-15 21,-26 11,-11 27,-22 l -27,-26 -47,48 z" />
  </g>
</svg>
