<?xml version="1.0" encoding="UTF-8" standalone="no"?>
<svg
   xmlns:dc="http://purl.org/dc/elements/1.1/"
   xmlns:cc="http://creativecommons.org/ns#"
   xmlns:rdf="http://www.w3.org/1999/02/22-rdf-syntax-ns#"
   xmlns:svg="http://www.w3.org/2000/svg"
   xmlns="http://www.w3.org/2000/svg"
   xml:space="preserve"
   style="enable-background:new 0 0 1017.9 1017.9;"
   viewBox="0 0 1017.9 1017.9"
   y="0px"
   x="0px"
   id="svg2"
   version="1.1"><metadata
     id="metadata13"><rdf:RDF><cc:Work
         rdf:about=""><dc:format>image/svg+xml</dc:format><dc:type
           rdf:resource="http://purl.org/dc/dcmitype/StillImage" /><dc:title></dc:title></cc:Work></rdf:RDF></metadata><defs
     id="defs11" /><g
     id="g3"><polygon
       id="polygon5"
       points="558.9,217.9 499.2,217.9 499.2,486.4 227.2,486.4 227.2,545 499.2,545 499.2,807.7 558.9,807.7 558.9,545 817,545    817,486.4 558.9,486.4  " /><path
       id="path7"
       d="M980.3,314.1c-24.9-59.8-62.6-115.2-112.2-164.9C818.6,99.8,763.8,62.2,705.2,37.4C646.5,12.6,582.5,0,514.8,0   c-15.4,0-31.3,0.7-47.3,2c-61.8,5.5-120,20.7-172.8,45.1C241.9,71.5,193,105.9,149.2,149.3C100,198.5,62.4,253.8,37.7,313.4   C12.9,373.1,0.3,438.8,0.1,508.7c-0.2,69.9,12.3,135.7,37,195.6c24.8,59.9,62.5,115.4,112.1,165c49.2,49.2,104.4,86.7,164,111.4   c59.6,24.7,125.1,37.2,194.9,37.2c69.7,0,135.4-12.5,195.1-37.2c59.8-24.7,115.2-62.1,164.9-111.4   c49.2-49.2,86.8-104.5,111.7-164.3c24.8-59.8,37.6-125.6,38-195.8C1017.8,439.6,1005.2,373.9,980.3,314.1z M959.2,508.7   c0,124.2-44.3,231.5-131.7,318.9C740.2,915,632.9,959.5,508.6,959.9l-1.6,0c-123.5,0-230.2-44.5-317.3-132.3   C102.4,740.2,58.1,633,58.1,508.7c0-124.2,44.3-231.5,131.7-318.9S384.2,58.1,508.1,58.1c124.6,0,232.1,44.3,319.5,131.7   C914.9,277.2,959.2,384.5,959.2,508.7z" /></g></svg>