<?xml version="1.0" encoding="UTF-8" standalone="no"?>
<svg
   xmlns:dc="http://purl.org/dc/elements/1.1/"
   xmlns:cc="http://creativecommons.org/ns#"
   xmlns:rdf="http://www.w3.org/1999/02/22-rdf-syntax-ns#"
   xmlns:svg="http://www.w3.org/2000/svg"
   xmlns="http://www.w3.org/2000/svg"
   xml:space="preserve"
   style="enable-background:new 0 0 100.9 100.9;"
   viewBox="0 0 100.9 100.9"
   y="0px"
   x="0px"
   id="svg2"
   version="1.1"><metadata
     id="metadata13"><rdf:RDF><cc:Work
         rdf:about=""><dc:format>image/svg+xml</dc:format><dc:type
           rdf:resource="http://purl.org/dc/dcmitype/StillImage" /><dc:title></dc:title></cc:Work></rdf:RDF></metadata><defs
     id="defs11" /><g
     id="g3"><path
       id="path5"
       d="M86.2,14.7C76.4,5,64.5,0,50.8,0l-0.3,0C36.6,0,24.6,5,14.9,14.7C5,24.6,0,36.6,0,50.5c0,9.1,2.3,17.6,6.8,25.3   c4.5,7.7,10.7,13.9,18.4,18.3c7.7,4.5,16.2,6.8,25.3,6.8c13.8,0,25.9-5,35.7-14.8c9.9-9.8,14.8-21.8,14.7-35.7   C100.9,36.6,95.9,24.6,86.2,14.7z M50.5,95.9c-12.4,0-23.2-4.5-32.1-13.4C9.5,73.6,5,62.8,5,50.5c0-12.5,4.5-23.2,13.4-32   C27.3,9.5,38.1,5,50.5,5c12.4,0,23.2,4.5,32.1,13.4c8.9,8.9,13.3,19.7,13.3,32c0,12.5-4.5,23.2-13.3,32   C73.7,91.4,62.9,95.9,50.5,95.9z" /><path
       id="path7"
       d="M65.4,68.9c-0.1,0-0.2,0-0.4,0c-0.8,0-1.5,0.3-2.3,1c-1.4,1.3-2.4,1.8-3.7,1.8c-1.3,0-2.8-0.5-5.4-1.7   c-3.6-1.7-4-1.8-7.6-1.8H43l0.4-1c0.6-1.8,1.3-8,1.2-10.8l0-1.2l6.9-0.1c7.5-0.1,8-0.5,8.2-0.7c0.4-0.3,0.6-0.8,0.7-1.3   c0-0.6-0.2-1.2-0.8-1.8c-0.8-0.8-1.7-0.9-8.5-0.9c-5.1,0-7.1,0-7.2-0.4c-1.4-4.8-1.3-11.6,0.1-14.7c1.9-4.2,4.5-5.8,9.5-5.8l0.2,0   c3.7,0,4.7,0.4,7.7,3.2c1.3,1.2,2.1,1.8,3.1,1.8c0.1,0,0.2,0,0.3,0c1.2-0.1,1.5-0.5,1.7-1.8c0.1-1.3-0.3-1.9-2.2-3.6   c-3.1-2.8-7-4.4-10.9-4.4c-5.8,0-10.8,3.2-13.5,8.7c-1.2,2.4-1.4,3.2-1.5,7.2c-0.1,2.8,0.1,5.5,0.4,7.4l0.5,2.4h-1.3   c-1.9,0-3.3,0.5-3.8,1.4c-0.3,0.4-0.5,1.1,0.1,2.1c0.5,0.9,1.4,1,3.4,1h2.2l0.2,1.8c0.3,2.6-0.3,7.1-1.4,10.1   c-0.4,1.2-1.6,3.1-2.6,4.1c-1.5,1.6-2.7,3.3-1.3,4.7c0.4,0.4,1,0.6,1.7,0.6c0.7,0,1.4-0.3,1.7-0.7c0.2-0.2,1.4-0.9,2.9-1.6   c1.8-0.8,3.4-1.2,5.1-1.2c1.9,0,3.9,0.5,6.2,1.6c2.7,1.3,5.1,1.9,7.2,1.9c2.4,0,4.4-0.8,6.1-2.4c1.4-1.2,1.8-1.8,1.7-3.1   C67,69.4,66.6,69,65.4,68.9z" /></g></svg>