<?xml version="1.0" encoding="UTF-8" standalone="no"?>
<svg
   xmlns:dc="http://purl.org/dc/elements/1.1/"
   xmlns:cc="http://creativecommons.org/ns#"
   xmlns:rdf="http://www.w3.org/1999/02/22-rdf-syntax-ns#"
   xmlns:svg="http://www.w3.org/2000/svg"
   xmlns="http://www.w3.org/2000/svg"
   xml:space="preserve"
   style="enable-background:new 0 0 100.9 100.9;"
   viewBox="0 0 100.9 100.9"
   y="0px"
   x="0px"
   id="svg2"
   version="1.1"><metadata
     id="metadata13"><rdf:RDF><cc:Work
         rdf:about=""><dc:format>image/svg+xml</dc:format><dc:type
           rdf:resource="http://purl.org/dc/dcmitype/StillImage" /><dc:title></dc:title></cc:Work></rdf:RDF></metadata><defs
     id="defs11" /><g
     id="g3"><rect
       id="rect5"
       height="55.2"
       width="6.1"
       x="47.4" /><path
       id="path7"
       d="M68.5,8.6l-0.3-0.1v6.3l0.1,0.1C83,21.7,92.5,36.7,92.5,53c0,23.3-18.9,42.2-42.1,42.2c-23.2,0-42-18.9-42-42.2   c0-16.3,9.5-31.2,24.2-38.2l0.1-0.1V8.5l-0.3,0.1C14.3,16,2.7,33.4,2.7,53c0,26.4,21.4,47.9,47.8,47.9c26.3,0,47.8-21.5,47.8-47.9   C98.2,33.4,86.6,16,68.5,8.6z" /></g></svg>