<?xml version="1.0" encoding="utf-8"?>
<!-- Generator: Adobe Illustrator 21.1.0, SVG Export Plug-In . SVG Version: 6.00 Build 0)  -->
<svg version="1.1" id="Layer_1" xmlns="http://www.w3.org/2000/svg" xmlns:xlink="http://www.w3.org/1999/xlink" x="0px" y="0px"
	 viewBox="0 0 1000 1000" style="enable-background:new 0 0 1000 1000;" xml:space="preserve">
<g>
	<path d="M565.4,144.4V0L0,102.7v794.6L565.4,1000V855.6H1000V144.4H565.4z M515,944.4L44.3,864.2V136.8L515,55.6V944.4z
		 M949.7,803.3H566.9V196.7h382.8V803.3z"/>
	<rect x="613" y="611.5" width="283.4" height="47.9"/>
	<rect x="613" y="712.1" width="283.4" height="47.9"/>
	<path d="M250.9,565.2h5.1h41.2C400.2,560.1,395,452,395,452c5.1-108.1-92.6-102.9-92.6-102.9l-113.2,5.1v324.3l61.8,5.1V565.2z
		 M250.9,405.7h41.2c36,10.3,30.9,51.5,30.9,51.5c0,51.5-36,51.5-36,51.5h-36V405.7z"/>
	<path d="M770.8,247v116.9h125.5C886.3,301.3,834.7,252.6,770.8,247z"/>
	<path d="M752.5,511.8c66.3,0,120-53.7,120-120c0-0.7,0-1.4-0.1-2.1H746.2V271.9c-63.3,3.3-113.7,55.7-113.7,119.9
		C632.5,458.1,686.2,511.8,752.5,511.8z"/>
</g>
</svg>
