<?xml version="1.0" encoding="UTF-8" standalone="no"?>
<svg
   xmlns:dc="http://purl.org/dc/elements/1.1/"
   xmlns:cc="http://creativecommons.org/ns#"
   xmlns:rdf="http://www.w3.org/1999/02/22-rdf-syntax-ns#"
   xmlns:svg="http://www.w3.org/2000/svg"
   xmlns="http://www.w3.org/2000/svg"
   id="svg2"
   viewBox="0 -143 1000 1000"
   version="1.1">
  <metadata
     id="metadata12">
    <rdf:RDF>
      <cc:Work
         rdf:about="">
        <dc:format>image/svg+xml</dc:format>
        <dc:type
           rdf:resource="http://purl.org/dc/dcmitype/StillImage" />
        <dc:title></dc:title>
      </cc:Work>
    </rdf:RDF>
  </metadata>
  <defs
     id="defs10" />
  <g
     transform="matrix(1.5331269,0,0,1.5331269,-269.81221,-190.3257)"
     id="g4217">
    <path
       style="fill:#157efb;fill-opacity:1"
       d="m 484.19889,206.4313 0,216.04231 35.8403,0 0,-216.04231 z m 0,260.22991 0,40.90671 35.8403,0 0,-40.90671 z"
       id="rect4173" />
    <path
       style="fill:#157efb;fill-opacity:1"
       d="m 450.46475,30.868745 -71.91993,92.892585 -109.91015,-0.2461 -3.58399,117.42578 -89.0625,64.4043 66.11914,97.10547 -34.19531,104.45508 110.57031,39.69531 33.73047,104.60547 112.78516,-32.87695 88.77539,64.80078 71.91992,-92.89063 109.91016,0.24414 L 739.1874,473.06015 828.2499,408.6539 762.12881,311.54844 796.32607,207.09336 685.75576,167.39804 652.02529,62.792575 539.24014,95.669525 450.46475,30.868745 Z m 5.70507,36.01758 78.97071,57.644535 100.32812,-29.246105 30.00586,93.052745 98.35938,35.3125 -30.41993,92.91797 58.81836,86.38086 -79.22656,57.29297 -3.1875,104.45703 -97.77148,-0.2168 -63.97852,82.63281 -78.9707,-57.64453 -100.33008,29.24609 -30.00586,-93.05468 -98.35937,-35.31055 30.41992,-92.91992 -58.81836,-86.38086 79.22656,-57.29297 3.18945,-104.45703 97.77149,0.21875 63.97851,-82.632815 z"
       id="path4199" />
  </g>
</svg>
