<?xml version="1.0" encoding="UTF-8" standalone="no"?>
<svg
   xmlns:dc="http://purl.org/dc/elements/1.1/"
   xmlns:cc="http://creativecommons.org/ns#"
   xmlns:rdf="http://www.w3.org/1999/02/22-rdf-syntax-ns#"
   xmlns:svg="http://www.w3.org/2000/svg"
   xmlns="http://www.w3.org/2000/svg"
   xml:space="preserve"
   style="enable-background:new 0 0 1020.3 1020.3;"
   viewBox="0 0 1020.3 1020.3"
   y="0px"
   x="0px"
   id="svg2"
   version="1.1"><metadata
     id="metadata9"><rdf:RDF><cc:Work
         rdf:about=""><dc:format>image/svg+xml</dc:format><dc:type
           rdf:resource="http://purl.org/dc/dcmitype/StillImage" /><dc:title></dc:title></cc:Work></rdf:RDF></metadata><defs
     id="defs7" /><path
     id="path3"
     d="M715.8,680.2L997,397.9l-40.5-10.9c-45.7-14-91.6-21.2-136.3-21.2c-60.9,0-121.7,13.2-180.8,39.1  c-35.2-28.2-134.5-113-295.4-252.2c7.6-49-0.2-91.3-23.1-125.7L304-0.6L1.1,302.3l24.4,18.3c22.2,15.9,55.6,23.9,99.1,23.9  c9,0,18.3-0.6,27.9-1.8C291.9,504.4,376.3,604,403.8,639.2C381.5,690,368.6,742,365.4,794.1c-3.2,53.3,3.6,108,20.4,162.5l12.3,41.4  l281-281l304,302.8l35.3-36.9L715.8,680.2z M457.2,648l0.1-0.3l4.5-12.1l-4.7-9.4l-0.1-0.2c-8.6-15.7-98.6-122.9-275.2-327.7  l-0.2-0.2l-9.3-9.3l-13.4,1.5c-12.5,1.5-24.1,2.2-34.4,2.2c-13.2,0-25.9-1.3-37.9-3.8L290.4,85.2c6.3,24.4,6.4,48.4,0.2,71.5  l-4.7,14.2l12.5,10.9c278,239.3,320.9,272.4,329,276.4l0.4,0.2l9.9,3.3l9.2-4.6c55.7-26.6,113.9-40.1,172.9-40.1  c25.6,0,51.9,2.5,78.2,7.6L424.7,899.1C408.1,812.3,419.1,727.9,457.2,648z" /></svg>