<?xml version="1.0" encoding="UTF-8" standalone="no"?>
<svg
   xmlns:dc="http://purl.org/dc/elements/1.1/"
   xmlns:cc="http://creativecommons.org/ns#"
   xmlns:rdf="http://www.w3.org/1999/02/22-rdf-syntax-ns#"
   xmlns:svg="http://www.w3.org/2000/svg"
   xmlns="http://www.w3.org/2000/svg"
   xml:space="preserve"
   style="enable-background:new 0 0 1009.4 1009.4;"
   viewBox="0 0 1009.4 1009.4"
   y="0px"
   x="0px"
   id="svg2"
   version="1.1"><metadata
     id="metadata27"><rdf:RDF><cc:Work
         rdf:about=""><dc:format>image/svg+xml</dc:format><dc:type
           rdf:resource="http://purl.org/dc/dcmitype/StillImage" /><dc:title></dc:title></cc:Work></rdf:RDF></metadata><defs
     id="defs25" /><g
     id="g3"><rect
       id="rect5"
       height="50.1"
       width="99.7"
       y="203.6"
       x="181.9" /><path
       id="path7"
       d="M0,463.6h463.6V0H0V463.6z M407.1,55.2v358.3H53.9V55.2H407.1z" /><path
       id="path9"
       d="M0,1009.4h463.6V545.8H0V1009.4z M407.1,601v350.7H53.9V601H407.1z" /><rect
       id="rect11"
       height="50.1"
       width="99.7"
       y="755.7"
       x="181.9" /><rect
       id="rect13"
       height="51.4"
       width="101"
       y="209.9"
       x="726.5" /><rect
       id="rect15"
       height="228.2"
       width="56.5"
       y="781.2"
       x="771" /><path
       id="path17"
       d="M545.8,0v463.6h463.6V0H545.8z M603.5,405.9V56.5h346.8v349.4H603.5z" /><rect
       id="rect19"
       height="228.2"
       width="53.9"
       y="781.2"
       x="955.5" /><polygon
       id="polygon21"
       points="950.4,637.4 784.2,637.4 784.2,545.8 545.8,545.8 545.8,1009.4 602.3,1009.4 602.3,606.1 729,606.1 729,695.2    1009.4,695.2 1009.4,545.8 950.4,545.8  " /></g></svg>