<?xml version="1.0" encoding="UTF-8" standalone="no"?>
<svg
   xmlns:dc="http://purl.org/dc/elements/1.1/"
   xmlns:cc="http://creativecommons.org/ns#"
   xmlns:rdf="http://www.w3.org/1999/02/22-rdf-syntax-ns#"
   xmlns:svg="http://www.w3.org/2000/svg"
   xmlns="http://www.w3.org/2000/svg"
   xml:space="preserve"
   style="enable-background:new 0 0 1011.7 1011.7;"
   viewBox="0 0 1011.7 1011.7"
   y="0px"
   x="0px"
   id="svg2"
   version="1.1"><metadata
     id="metadata15"><rdf:RDF><cc:Work
         rdf:about=""><dc:format>image/svg+xml</dc:format><dc:type
           rdf:resource="http://purl.org/dc/dcmitype/StillImage" /><dc:title></dc:title></cc:Work></rdf:RDF></metadata><defs
     id="defs13" /><g
     id="g3"><polygon
       id="polygon5"
       points="695.6,271.8 917.1,271.8 791.5,396.3 827.5,432.3 1012.7,245.9 826.4,60.8 791.5,95.6 917.2,221.3 673.9,221.3    475.7,435 511.9,468.4  " /><polygon
       id="polygon7"
       points="791.6,614.2 917.3,741.1 695.6,741.1 208.4,221.3 1,221.3 1,271.8 186.7,271.8 673.9,790.4 917.2,790.4    791.5,916.2 827.6,950.9 1012.7,765.8 826.4,579.4  " /><polygon
       id="polygon9"
       points="186.7,741.1 1,741.1 1,790.4 208.4,790.4 406.7,579 369.2,545.7  " /></g></svg>