<?xml version="1.0" encoding="UTF-8" standalone="no"?>
<svg
   xmlns:dc="http://purl.org/dc/elements/1.1/"
   xmlns:cc="http://creativecommons.org/ns#"
   xmlns:rdf="http://www.w3.org/1999/02/22-rdf-syntax-ns#"
   xmlns:svg="http://www.w3.org/2000/svg"
   xmlns="http://www.w3.org/2000/svg"
   id="svg2"
   viewBox="0 -143 1000 1000"
   version="1.1">
  <metadata
     id="metadata12">
    <rdf:RDF>
      <cc:Work
         rdf:about="">
        <dc:format>image/svg+xml</dc:format>
        <dc:type
           rdf:resource="http://purl.org/dc/dcmitype/StillImage" />
        <dc:title></dc:title>
      </cc:Work>
    </rdf:RDF>
  </metadata>
  <defs
     id="defs10" />
  <path
     id="path6"
     d="m 506.44358,-142.99237 c -2.14458,-0.011 -4.2943,-0.01 -6.44858,0.002 -137.87372,0 -255.4719,48.661311 -352.79453,145.9839418 C 49.066811,101.12761 -1.2024709e-5,219.1313 -1.2024709e-5,357.00502 c 0,90.83446 22.303103024709,174.57247 66.909313024709,251.21404 44.606209,76.64157 105.432849,137.26545 182.479929,181.87166 77.04708,44.60621 160.58234,66.90931 250.60577,66.90931 137.87372,0 255.87741,-48.86407 354.01107,-146.59221 98.13367,-97.72814 146.79493,-215.52908 145.98397,-353.4028 0,-137.87372 -48.6613,-255.87741 -145.98397,-354.0110682 C 757.40574,-93.606419 641.55178,-142.26887 506.44358,-142.99237 Z m -5.84031,41.36449 c 126.11391,0 234.18258,45.011721 324.20601,135.035153 90.02346,90.023437 134.62966,197.889347 133.81866,323.597747 0,126.51942 -44.6063,234.38534 -133.81866,323.59774 -90.02343,90.02344 -198.0921,135.03515 -324.20601,135.03515 -126.11391,0 -234.18258,-45.01171 -324.20601,-135.03515 C 86.373821,590.57933 41.362111,482.71341 41.362111,357.00502 c 0,-126.51942 45.01171,-234.38534 135.035149,-323.597747 90.02343,-90.023432 198.0921,-135.035153 324.20601,-135.035153 z m -178.45968,180.595733 0,556.062447 55.56847,0 0,-258.56313 31.75341,0 199.59218,258.56313 68.79826,0 -199.96997,-258.56313 c 46.62208,-0.25202 83.16459,-6.17315 109.62577,-17.76566 26.46118,-11.84453 46.74728,-29.23296 60.8599,-52.16598 14.36465,-22.93302 21.54594,-49.51997 21.54594,-79.76131 0,-36.28961 -10.33053,-66.78284 -30.99544,-91.47995 -20.66493,-24.9491 -47.5058,-41.205522 -80.51927,-48.765848 -21.92498,-5.040229 -63.75736,-7.560569 -125.5001,-7.560569 l -110.75915,0 z m 55.56847,54.435097 97.90476,0 c 38.05369,0 65.27191,3.27739 81.65264,9.82968 16.38073,6.55229 29.61132,17.51409 39.69177,32.88678 10.08044,15.12067 15.12112,32.00599 15.12112,50.65481 0,19.15285 -5.04068,36.54128 -15.12112,52.16598 -9.82845,15.37268 -23.68792,26.58605 -41.58072,33.64237 -17.64079,7.0563 -44.98478,10.58525 -82.03044,10.58525 l -95.63801,-0.75558 0,-189.00929 z"
     style="fill:currentColor" />
</svg>
