<?xml version="1.0" encoding="UTF-8" standalone="no"?>
<svg
   xmlns:dc="http://purl.org/dc/elements/1.1/"
   xmlns:cc="http://creativecommons.org/ns#"
   xmlns:rdf="http://www.w3.org/1999/02/22-rdf-syntax-ns#"
   xmlns:svg="http://www.w3.org/2000/svg"
   xmlns="http://www.w3.org/2000/svg"
   id="svg2"
   viewBox="0 -143 1000 1000"
   version="1.1">
  <metadata
     id="metadata12">
    <rdf:RDF>
      <cc:Work
         rdf:about="">
        <dc:format>image/svg+xml</dc:format>
        <dc:type
           rdf:resource="http://purl.org/dc/dcmitype/StillImage" />
        <dc:title></dc:title>
      </cc:Work>
    </rdf:RDF>
  </metadata>
  <defs
     id="defs10" />
  <path
     id="path6"
     d="m 506.44358,-142.99242 c -2.14458,-0.0109 -4.2943,-0.01 -6.44858,0.002 -137.87372,0 -255.4719,48.661311 -352.79453,145.983942 C 49.066811,101.12762 -1.2024709e-5,219.13131 -1.2024709e-5,357.00503 -1.2024709e-5,447.83949 22.303091,531.5775 66.909301,608.21907 111.51551,684.86064 172.34215,745.48452 249.38923,790.09073 c 77.04708,44.60621 160.58234,66.90931 250.60577,66.90931 137.87372,0 255.87741,-48.86407 354.01107,-146.59221 98.13367,-97.72814 146.79493,-215.52908 145.98397,-353.4028 0,-137.87372 -48.6613,-255.87741 -145.98397,-354.011068 C 757.40574,-93.606409 641.55178,-142.26892 506.44358,-142.99242 Z m -5.84031,41.36449 c 126.11391,0 234.18258,45.011721 324.20601,135.035153 90.02346,90.023437 134.62966,197.889347 133.81866,323.597747 0,126.51942 -44.6063,234.38534 -133.81866,323.59774 -90.02343,90.02343 -198.0921,135.03515 -324.20601,135.03515 -126.11391,0 -234.18258,-45.01172 -324.20601,-135.03515 C 86.373821,590.57928 41.362111,482.71336 41.362111,357.00497 c 0,-126.51942 45.01171,-234.38534 135.035149,-323.597747 90.02343,-90.023432 198.0921,-135.035153 324.20601,-135.035153 z"
     style="fill:currentColor" />
  <circle
     r="141.757"
     cy="357"
     cx="500"
     id="path3334"
     style="fill:#000000;fill-rule:evenodd;stroke:none;stroke-width:1px;stroke-linecap:butt;stroke-linejoin:miter;stroke-opacity:1" />
</svg>
