<?xml version="1.0" encoding="UTF-8" standalone="no"?>
<svg
   xmlns:dc="http://purl.org/dc/elements/1.1/"
   xmlns:cc="http://creativecommons.org/ns#"
   xmlns:rdf="http://www.w3.org/1999/02/22-rdf-syntax-ns#"
   xmlns:svg="http://www.w3.org/2000/svg"
   xmlns="http://www.w3.org/2000/svg"
   xml:space="preserve"
   style="enable-background:new 0 0 1000 1000;"
   viewBox="0 0 1000 1000"
   y="0px"
   x="0px"
   id="svg2"
   version="1.1"><metadata
     id="metadata13"><rdf:RDF><cc:Work
         rdf:about=""><dc:format>image/svg+xml</dc:format><dc:type
           rdf:resource="http://purl.org/dc/dcmitype/StillImage" /><dc:title></dc:title></cc:Work></rdf:RDF></metadata><defs
     id="defs11" /><g
     id="g3"><path
       id="path5"
       d="M897.6,762.7c44.4-66.8,69.4-142.2,74.8-225.2c1-14.6,0.9-30.3,0.9-46c-3.2-121.6-46-228.3-128.2-319.8   C758.9,75.7,649.6,19.9,520.7,5.3l-3.2,48.9c114.8,13.6,212.3,63.7,290,149.4c84.3,91.6,122.8,200.9,114.8,323.8   c-4.7,72.5-24.6,137.9-59.4,195.9l-93.7-106.8L756,680l0.3,0.4L720,855.3l-0.5,0L709,906.6l254.6-23.8l36.4-3.4L897.6,762.7z    M772.4,849.9l26.7-120.7l94.9,108.2L772.4,849.9z" /><path
       id="path7"
       d="M51,465.2c6.8-103.5,43.5-192.9,109.6-267.1l113.5,129.3l13.3-63.5l-0.3-0.4l36.3-174.9l0.5,0l10.5-51.3L79.8,61l-36.4,3.4   l84.4,96.2C50.9,243.1,8.3,342.2,1,455c-1,14.8-1,30.8-1,46.7c3,123.5,45.7,231.7,127.9,324.5c86.2,97.3,195.4,153.9,324.3,168.6   l3.2-49.6c-114.8-13.7-212.2-64.5-289.9-151.4C81.3,700.8,42.9,589.9,51,465.2z M270.9,94l-26.7,120.7l-94.9-108.2L270.9,94z" /></g></svg>