<?xml version="1.0" encoding="UTF-8" standalone="no"?>
<svg
   xmlns:dc="http://purl.org/dc/elements/1.1/"
   xmlns:cc="http://creativecommons.org/ns#"
   xmlns:rdf="http://www.w3.org/1999/02/22-rdf-syntax-ns#"
   xmlns:svg="http://www.w3.org/2000/svg"
   xmlns="http://www.w3.org/2000/svg"
   id="svg2"
   viewBox="0 -143 1000 1000"
   version="1.1">
  <metadata
     id="metadata12">
    <rdf:RDF>
      <cc:Work
         rdf:about="">
        <dc:format>image/svg+xml</dc:format>
        <dc:type
           rdf:resource="http://purl.org/dc/dcmitype/StillImage" />
        <dc:title></dc:title>
      </cc:Work>
    </rdf:RDF>
  </metadata>
  <defs
     id="defs10" />
  <g
     id="g4"
     transform="matrix(1.1668611,0,0,-1.1668611,-81.680258,937.50342)">
    <path
       style="fill:currentColor"
       id="path6"
       d="m 686,331 -26,29 -132,132 141,140 26,25 1,3 -18,15 -22,23 -25,-26 -141,-141 -132,129 -26,24 q -3,0 -22,-19 l -2,-1 -18,-18 26,-25 133,-130 -132,-133 -25,-26 12,-14 0,0 26,-25 25,25 132,134 133,-136 25,-25 20,20 1,1 z M 927,497 Q 927,380 870,282 812,183 713.5,125.5 615,68 499,69 382,69 283,126 184,184 128,282 70,381 70,497 70,614 127.5,712.5 185,811 283,868 q 99,58 215.5,58 116.5,0 215.5,-58 99,-58 156,-156 57,-98 57,-215 z" />
  </g>
</svg>
