<?xml version="1.0" encoding="UTF-8" standalone="no"?>
<svg
   xmlns:dc="http://purl.org/dc/elements/1.1/"
   xmlns:cc="http://creativecommons.org/ns#"
   xmlns:rdf="http://www.w3.org/1999/02/22-rdf-syntax-ns#"
   xmlns:svg="http://www.w3.org/2000/svg"
   xmlns="http://www.w3.org/2000/svg"
   xml:space="preserve"
   style="enable-background:new 0 0 1000 1000;"
   viewBox="0 0 1000 1000"
   y="0px"
   x="0px"
   id="svg2"
   version="1.1"><metadata
     id="metadata10"><rdf:RDF><cc:Work
         rdf:about=""><dc:format>image/svg+xml</dc:format><dc:type
           rdf:resource="http://purl.org/dc/dcmitype/StillImage" /><dc:title></dc:title></cc:Work></rdf:RDF></metadata><defs
     id="defs8" /><polygon
     id="polygon3"
     points="725.7,688.2 542,503.7 737,311 700.5,274.5 505.1,468.4 314.4,275.6 277.5,312.5 468.2,505.3 287.4,685.4   324,721.9 505.1,542.2 688.4,725.5 " /><path
     d="M853.2,146.3C756.6,48.8,639.4-0.5,506.4-0.5c-14.8,0-30.5,1-46.3,2C337.9,12.3,233.5,60.6,146.8,146.3  C49.3,242.9,0,362.1,0,500s49.3,257.1,146.8,354.7c96.6,96.6,215.8,145.8,352.7,145.8s256.2-49.3,353.7-145.8  C949.7,758.1,1000,638.9,1000,501C1001,363.1,951.7,243.8,853.2,146.3z M951.7,500c0,124.1-44.3,231.5-132,319.2  s-195.1,132-319.2,132h-2c-124.1,0-230.5-44.3-318.2-132c-86.7-87.7-131-195.1-131-319.2s44.3-231.5,132-319.2  c86.7-87.7,194.1-132,318.2-132c125.1,0,232.5,44.3,320.2,132C907.4,267.5,951.7,374.9,951.7,500z"
     id="path5" /></svg>