<?xml version="1.0" encoding="utf-8"?>
<!-- Generator: Adobe Illustrator 21.1.0, SVG Export Plug-In . SVG Version: 6.00 Build 0)  -->
<svg version="1.1"
	 id="svg2" xmlns:cc="http://creativecommons.org/ns#" xmlns:dc="http://purl.org/dc/elements/1.1/" xmlns:rdf="http://www.w3.org/1999/02/22-rdf-syntax-ns#" xmlns:svg="http://www.w3.org/2000/svg"
	 xmlns="http://www.w3.org/2000/svg" xmlns:xlink="http://www.w3.org/1999/xlink" x="0px" y="0px" viewBox="0 0 1012.4 1012.4"
	 style="enable-background:new 0 0 1012.4 1012.4;" xml:space="preserve">
<path d="M65.1,759.1c29.3,49.5,69.5,93.6,119.4,131.1s103.5,63.7,159.3,78c55.8,14.4,115.3,17.2,176.9,8.5
	c43-6.1,83.6-17.3,120.8-33.4c69.4-30,129.3-78.1,178.1-142.8l3.6-4.8L784.7,765l-3.8,5c-43.3,57.8-96.8,100.6-159,127.6
	c-33.1,14.3-69.5,24.4-108,30.1c-110.3,15.2-210.9-10.9-298.7-77.6C126.7,783.7,73.4,694.4,56.9,584.4
	C41.7,474,67.6,373.2,134,284.8c43.3-57.8,96.6-100.5,158.4-127.3c32.9-14.3,69.1-24.2,107.2-29.7c107.8-15.5,206.9,8.8,294.8,72.2
	L579.6,352.9l427.5,50.8L839.3,7.1L724.3,160.2c-48.2-35.3-99.9-60.1-153.8-73.8c-55.7-14.2-115.3-16.9-177.1-8.1
	c-43,6.1-83.7,17.4-120.9,33.5c-69.4,30-129,78.1-177.5,142.6C57.6,304,31.3,357.6,16.8,413.5s-17.6,115.8-9,177.9
	C16.5,653.1,35.9,709.5,65.1,759.1z M670.2,313.8l156.6-208.1l101.3,239L670.2,313.8z"/>
</svg>
