<?xml version="1.0" encoding="UTF-8" standalone="no"?>
<svg
   xmlns:dc="http://purl.org/dc/elements/1.1/"
   xmlns:cc="http://creativecommons.org/ns#"
   xmlns:rdf="http://www.w3.org/1999/02/22-rdf-syntax-ns#"
   xmlns:svg="http://www.w3.org/2000/svg"
   xmlns="http://www.w3.org/2000/svg"
   id="svg2"
   viewBox="0 -143 1000 1000"
   version="1.1">
  <metadata
     id="metadata12">
    <rdf:RDF>
      <cc:Work
         rdf:about="">
        <dc:format>image/svg+xml</dc:format>
        <dc:type
           rdf:resource="http://purl.org/dc/dcmitype/StillImage" />
        <dc:title></dc:title>
      </cc:Work>
    </rdf:RDF>
  </metadata>
  <defs
     id="defs10" />
  <g
     id="g4"
     transform="matrix(1.1668611,0,0,-1.1668611,-65.344203,970.18551)">
    <path
       style="fill:currentColor"
       id="path6"
       d="m 433,784 0,-141 33,0 q 352,-3 404,-319 -46,53 -98,86 -51,33 -110,45.5 -59,12.5 -95.5,15 Q 530,473 467,473 l -34,0 0,-139 -318,225 z m 34,66 -411,-291 411,-291 0,171 q 61,0 98,-3 38,-2 91,-15 54,-13 93,-37 39,-24 82,-70 44,-46 82,-113 0,473 -446,477 l 0,172 0,0 0,0 z" />
  </g>
</svg>
