<?xml version="1.0" encoding="utf-8"?>
<!-- Generator: Adobe Illustrator 21.1.0, SVG Export Plug-In . SVG Version: 6.00 Build 0)  -->
<svg version="1.1"
	 id="svg2" xmlns:cc="http://creativecommons.org/ns#" xmlns:dc="http://purl.org/dc/elements/1.1/" xmlns:rdf="http://www.w3.org/1999/02/22-rdf-syntax-ns#" xmlns:svg="http://www.w3.org/2000/svg"
	 xmlns="http://www.w3.org/2000/svg" xmlns:xlink="http://www.w3.org/1999/xlink" x="0px" y="0px" viewBox="0 0 1004 1000"
	 style="enable-background:new 0 0 1004 1000;" xml:space="preserve">
<g>
	<path d="M606.3,350H436.6l-32.4,232.8h235.6L606.3,350z M479.3,398.8h84.3l17,132.3H463.2L479.3,398.8z"/>
	<path d="M783.6,76.2l-533.6-3l-260,853.5h1024.2L783.6,76.2z M544.6,123.2l8.5,79.6H490l10-79.7L544.6,123.2z M452.2,122.9
		l-22,126.8h178l-16-126.3l154.5,0.7l197.4,752.9H665.9l-23.7-216.8h-249l-32.4,216.8H60.6l221.8-754.8L452.2,122.9z M438.8,711.9
		h158.1l12.2,165H418L438.8,711.9z"/>
</g>
</svg>
