<?xml version="1.0" encoding="UTF-8" standalone="no"?>
<svg
   xmlns:dc="http://purl.org/dc/elements/1.1/"
   xmlns:cc="http://creativecommons.org/ns#"
   xmlns:rdf="http://www.w3.org/1999/02/22-rdf-syntax-ns#"
   xmlns:svg="http://www.w3.org/2000/svg"
   xmlns="http://www.w3.org/2000/svg"
   id="svg2"
   viewBox="0 -143 1000 1000"
   version="1.1">
  <metadata
     id="metadata12">
    <rdf:RDF>
      <cc:Work
         rdf:about="">
        <dc:format>image/svg+xml</dc:format>
        <dc:type
           rdf:resource="http://purl.org/dc/dcmitype/StillImage" />
        <dc:title></dc:title>
      </cc:Work>
    </rdf:RDF>
  </metadata>
  <defs
     id="defs10" />
  <g
     id="g4"
     transform="matrix(1.0463556,0,0,-1.0463556,1.9344205,880.1778)">
    <path
       style="fill:currentColor"
       id="path6"
       d="m 476,749.85 q -34.2002,0 -57,-23.75 -23.75,-23.75 -23.75,-58.4248 0,-34.6748 23.75,-57.4746 23.75,-23.75 57,-23.75 34.2002,0 57.9502,23.75 23.75,23.75 23.75,57.9502 0,34.1992 -23.75,57.9492 -23.75,23.75 -57.9502,23.75 z m 0,-131.1 q -20.9004,0 -34.6748,14.25 -13.7754,14.25 -13.7754,35.1504 0,20.8994 14.25,35.1494 14.25,14.25 34.6748,13.7754 20.4258,-0.47559 34.6758,-14.25 14.25,-13.7754 14.25,-34.6748 0,-20.9004 -14.25,-35.1504 Q 496.9004,618.75 476,618.75 Z m 163.4,-197.6 0,277.399 q 0,72.2002 -44.6504,152.95 -44.6504,80.7498 -118.75,126.35 -74.0996,-45.5996 -118.275,-126.35 -44.1748,-80.75 -44.1748,-153.9 l 0,-277.399 -163.399,-202.351 651.699,0 z M 313.55,251.1 l -95,0 95,118.75 0,-118.75 z m 292.6,0 -260.301,0 0,446.5 q 0,58.9004 35.1504,128.25 35.1504,69.3506 95,112.101 59.8496,-43.7002 95.9502,-112.101 35.1494,-68.3994 34.2002,-128.25 l 0,-446.5 z m 33.25,118.75 94.0498,-118.75 -94.0498,0 0,118.75 z m -179.55,-184.3 32.3008,0 0,-163.399 -32.3008,0 0,163.399 z m 81.7,0 32.2998,0 0,-97.8496 -32.2998,0 0,97.8496 z m -163.4,0 33.25,0 0,-97.8496 -33.25,0 0,97.8496 z" />
  </g>
</svg>
