<?xml version="1.0" encoding="UTF-8" standalone="no"?>
<svg
   xmlns:dc="http://purl.org/dc/elements/1.1/"
   xmlns:cc="http://creativecommons.org/ns#"
   xmlns:rdf="http://www.w3.org/1999/02/22-rdf-syntax-ns#"
   xmlns:svg="http://www.w3.org/2000/svg"
   xmlns="http://www.w3.org/2000/svg"
   id="svg2"
   viewBox="0 -143 1000 1000"
   version="1.1">
  <metadata
     id="metadata12">
    <rdf:RDF>
      <cc:Work
         rdf:about="">
        <dc:format>image/svg+xml</dc:format>
        <dc:type
           rdf:resource="http://purl.org/dc/dcmitype/StillImage" />
        <dc:title></dc:title>
      </cc:Work>
    </rdf:RDF>
  </metadata>
  <defs
     id="defs10" />
  <g
     id="g4"
     transform="matrix(1.083278,0,0,-1.083278,-35.362603,915.36263)">
    <path
       style="fill:currentColor"
       id="path6"
       d="M 793,284 Q 718,148 567.5,104.5 417,61 281,136 145,211 101.5,361.5 58,512 133,649 208,785 358,828 508,871 644,797 L 561,647 938,654 744,977 661,827 Q 512,909 349,861.5 186,814 103,665 20,516 68,352 115,188 264,106 413,24 576.5,71 740,118 823,267 Z M 745,908 878,687 620,682 Z" />
  </g>
</svg>
