<?xml version="1.0" encoding="UTF-8" standalone="no"?>
<svg
   xmlns:dc="http://purl.org/dc/elements/1.1/"
   xmlns:cc="http://creativecommons.org/ns#"
   xmlns:rdf="http://www.w3.org/1999/02/22-rdf-syntax-ns#"
   xmlns:svg="http://www.w3.org/2000/svg"
   xmlns="http://www.w3.org/2000/svg"
   id="svg2"
   viewBox="0 -143 1000 1000"
   version="1.1">
  <metadata
     id="metadata12">
    <rdf:RDF>
      <cc:Work
         rdf:about="">
        <dc:format>image/svg+xml</dc:format>
        <dc:type
           rdf:resource="http://purl.org/dc/dcmitype/StillImage" />
        <dc:title></dc:title>
      </cc:Work>
    </rdf:RDF>
  </metadata>
  <defs
     id="defs10" />
  <g
     id="g4"
     transform="matrix(1.8179457,0,0,-1.8179457,-418.12751,1268.2373)">
    <path
       style="fill:currentColor"
       id="path6"
       d="m 403,423 q -27,26 -66.5,24.5 -39.5,-1.5 -67,-30 Q 242,389 241.5,350 241,311 269,284 q 27,-26 66,-24.5 39,1.5 66,30.5 28,29 29,67 0,40 -27,66 z M 291,308 q -18,18 -18,43 0,26 19,44.5 19,18.5 44,20.5 26,1 44,-17 18,-18 17,-43 0,-26 -18,-45 -19,-19 -44,-20 -26,0 -44,17 z m 229,230 q -57,56 -136,69 -78,14 -153,-16 l -1,-34 q 68,30 141,19 73,-11 125,-62 53,-51 66,-124 14,-72 -14,-140 l 35,1 q 27,76 10,153 -16,78 -73,134 l 0,0 z m 131,103 q -91,88 -196,113 -145,35 -224,13 l -1,-37 q 74,21 211,-10 99,-22 185,-105 80,-77 106,-180 28,-105 1,-207 l 35,-1 q 26,113 -4,223 -30,110 -113,191 l 0,0 0,0 z" />
  </g>
</svg>
