<?xml version="1.0" encoding="utf-8"?>
<!-- Generator: Adobe Illustrator 21.1.0, SVG Export Plug-In . SVG Version: 6.00 Build 0)  -->
<svg version="1.1"
	 id="svg2" xmlns:cc="http://creativecommons.org/ns#" xmlns:dc="http://purl.org/dc/elements/1.1/" xmlns:rdf="http://www.w3.org/1999/02/22-rdf-syntax-ns#" xmlns:svg="http://www.w3.org/2000/svg"
	 xmlns="http://www.w3.org/2000/svg" xmlns:xlink="http://www.w3.org/1999/xlink" x="0px" y="0px" viewBox="0 0 1012 1012"
	 style="enable-background:new 0 0 1012 1012;" xml:space="preserve">
<path d="M867.3,482.2c-2.8-43.4-12.7-84.4-29.5-122c-17.5-39.2-43.1-75.7-75.9-108.5c-32.8-32.8-69.2-58.2-108.2-75.6
	c-37.4-16.7-78.1-26.3-121.1-28.8V0h-49.8v147.3c-43.9,2.5-85.3,12.3-123.2,29.1c-39.6,17.5-76.4,43-109.5,75.9
	c-32.7,32.5-58.1,68.7-75.7,107.6c-16.8,37.3-26.8,78-29.7,121.2H0.6v49.8h144c2.4,44.1,12.2,85.7,29.1,123.7
	c17.6,39.7,43.3,76.5,76.5,109.6c32.9,32.7,69.4,58.1,108.6,75.6c37.6,16.7,78.5,26.6,121.9,29.3v143h49.8V869.1
	c43.6-2.6,84.7-12.3,122.5-29c39.4-17.4,76.1-42.7,109.1-75.4c32.9-32.9,58.5-69.6,76.1-109c16.8-37.7,26.7-79,29.4-122.6h144.1
	v-50.9H867.3z M530.3,820.3V664.4h-49.8v155.7c-75-5.6-140.7-36-195.3-90.6c-55.4-55.4-85.9-122.2-90.9-198.6h153.7v-49.8H194.7
	c5.8-74.6,36.2-139.9,90.5-194.2c55.1-55.1,121.6-85.6,197.5-90.8v152.5h49.8V196.3c75,5.6,140.3,36,194.2,90.6
	c54.6,54.6,85.1,120.3,90.6,195.3H663.9v50.9h153.6c-5.4,75.5-35.9,141.6-90.7,196.4C671.7,784.6,605.6,815.1,530.3,820.3z"/>
</svg>
