<?xml version="1.0" encoding="utf-8"?>
<!-- Generator: Adobe Illustrator 21.1.0, SVG Export Plug-In . SVG Version: 6.00 Build 0)  -->
<svg version="1.1"
	 id="svg2" xmlns:cc="http://creativecommons.org/ns#" xmlns:dc="http://purl.org/dc/elements/1.1/" xmlns:rdf="http://www.w3.org/1999/02/22-rdf-syntax-ns#" xmlns:svg="http://www.w3.org/2000/svg"
	 xmlns="http://www.w3.org/2000/svg" xmlns:xlink="http://www.w3.org/1999/xlink" x="0px" y="0px" viewBox="0 0 1156.2 1156.2"
	 style="enable-background:new 0 0 1156.2 1156.2;" xml:space="preserve">
<path d="M829.9,758c68.1-84.9,103.5-190.5,99.9-300.4c-3.9-118.8-52.9-230.3-138.2-313.9c-43.5-42.7-94-75.7-150.3-98.2
	C587,23.9,529.7,12.8,470.9,12.8c-60.4,0-119.2,11.6-174.8,34.4c-57.6,23.7-109.2,58.4-153.2,103.3c-43.5,44.3-76.9,95.8-99.5,153
	C21.7,358.8,11,417.1,11.7,476.7c0.7,59.6,12.6,117.5,35.6,172.2c23.7,56.6,58.2,107.2,102.5,150.4c43.6,42.8,94.3,75.9,150.5,98.4
	c54.4,21.7,111.7,32.8,170.5,32.8c102.6,0,201.9-34.3,282.2-97l316.5,310l75.1-77.2L829.9,758z M721.3,717.3
	c-66.5,68.5-155.6,106.2-251,106.2c-92.2,0-179.4-35.6-245.4-100.2C86.9,587.2,84.7,364,220,225.7
	c66.4-67.9,155.4-105.3,250.5-105.3c92.5,0,179.8,35.6,245.9,100.3c67,65.5,104.4,153.3,105.3,247.1
	C822.6,561.6,787,650.2,721.3,717.3z"/>
</svg>
