<?xml version="1.0" encoding="UTF-8" standalone="no"?>
<svg
   xmlns:dc="http://purl.org/dc/elements/1.1/"
   xmlns:cc="http://creativecommons.org/ns#"
   xmlns:rdf="http://www.w3.org/1999/02/22-rdf-syntax-ns#"
   xmlns:svg="http://www.w3.org/2000/svg"
   xmlns="http://www.w3.org/2000/svg"
   xml:space="preserve"
   style="enable-background:new 0 0 1006 1006;"
   viewBox="0 0 1006 1006"
   y="0px"
   x="0px"
   id="svg2"
   version="1.1"><metadata
     id="metadata13"><rdf:RDF><cc:Work
         rdf:about=""><dc:format>image/svg+xml</dc:format><dc:type
           rdf:resource="http://purl.org/dc/dcmitype/StillImage" /><dc:title></dc:title></cc:Work></rdf:RDF></metadata><defs
     id="defs11" /><g
     id="g3"><path
       id="path5"
       d="M474.5,690v102.8h58V689.9c25.6-11.4,42.1-36.7,42.1-64.9c0-19-7.4-36.9-20.8-50.3c-13.4-13.4-31.3-20.8-50.3-20.8   c-19,0-36.9,7.4-50.3,20.8c-13.4,13.4-20.8,31.3-20.8,50.3C432.4,653.3,448.9,678.5,474.5,690z" /><path
       id="path7"
       d="M843,606.5l-0.2-1.3l-1.4-0.9c-6.1-39-18.7-76.2-37.5-110.7c-18.2-33.5-41.7-63.6-69.9-89.4v-68.4h0.1V0H273v401.8   c-72.8,65.1-114.6,158.3-114.7,256c0,35,5.4,69.8,15.9,103.1c10.8,35.8,27.2,69.3,48.7,99.7c21,29.7,46.4,55.7,75.6,77.4   c29.2,21.7,61.4,38.6,95.8,50.1c35.2,11.8,72,17.8,109.2,17.9h0c0,0,0,0,0,0c92,0,178.4-35.9,243.4-101.2   c65-65.2,100.8-152,100.8-244.3C847.6,642.5,846,624.3,843,606.5z M679.8,329.2L679.8,329.2l-0.1,34.4   c-53.5-32.4-114.8-49.6-177.6-49.7h0c-60.9,0.1-120.5,16.4-173,47.2V50.5h350.8V329.2z M502.1,378.6L502.1,378.6   c153.9,0,279.1,125.2,279.1,279.1c0,74.6-29,144.7-81.8,197.4c-52.7,52.7-122.8,81.8-197.4,81.8c-74.6,0-144.7-29-197.4-81.8   C252,802.4,223,732.3,223,657.8C223,503.8,348.2,378.6,502.1,378.6z" /></g></svg>