<?xml version="1.0" encoding="UTF-8" standalone="no"?>
<svg
   xmlns:dc="http://purl.org/dc/elements/1.1/"
   xmlns:cc="http://creativecommons.org/ns#"
   xmlns:rdf="http://www.w3.org/1999/02/22-rdf-syntax-ns#"
   xmlns:svg="http://www.w3.org/2000/svg"
   xmlns="http://www.w3.org/2000/svg"
   id="svg2"
   viewBox="0 -143 1000 1000"
   version="1.1">
  <metadata
     id="metadata12">
    <rdf:RDF>
      <cc:Work
         rdf:about="">
        <dc:format>image/svg+xml</dc:format>
        <dc:type
           rdf:resource="http://purl.org/dc/dcmitype/StillImage" />
        <dc:title></dc:title>
      </cc:Work>
    </rdf:RDF>
  </metadata>
  <defs
     id="defs10" />
  <g
     id="g4"
     transform="matrix(1.1668611,0,0,-1.1668611,-68.844786,943.3477)">
    <path
       style="fill:currentColor"
       id="path6"
       d="m 539,896 0,-83 26,-6 q 44,-11 82,-35 l 23,-14 60,59 73,-72 -61,-61 13,-23 q 22,-38 32,-81 l 6,-26 89,0 0,-103 -91,0 -6,-25 q -11,-41 -34,-78 l -14,-22 66,-66 -73,-73 -66,67 -23,-13 q -36,-21 -76,-31 l -26,-7 0,-95 -103,0 0,95 -25,7 q -41,10 -77,31 l -22,13 -67,-67 -73,73 66,66 -14,22 q -22,37 -34,78 l -6,25 -91,0 0,103 89,0 6,26 q 10,43 32,81 l 13,23 -61,61 73,72 60,-59 23,14 q 39,23 83,35 l 25,6 0,83 103,0 0,0 0,0 z M 488,348 q 64,0 109,45 45,45 45,109 0,64 -45.5,109.5 Q 551,657 488,657 q -64,0 -110,-45 -45,-45 -45,-110 0,-64 45,-109 46,-45 110,-45 z m 85,583 -171,0 0,-91 q -49,-13 -92,-39 l -65,65 -121,-121 66,-66 q -24,-42 -35,-91 l -96,0 0,-171 99,0 q 13,-45 37,-86 l -71,-71 121,-121 72,72 q 40,-23 85,-34 l 0,-103 171,0 0,103 q 45,12 85,34 l 72,-72 121,121 -71,71 q 24,41 38,86 l 98,0 0,171 -95,0 q -12,48 -36,91 l 66,66 -121,121 -65,-65 q -43,26 -92,39 l 0,91 z M 488,383 q -50,0 -85,34 -35,35 -35,85 0,50 35,85 35,35 85,35 50,0 84,-35 35,-35 35,-85 0,-50 -35,-85 -34,-34 -84,-34 z" />
  </g>
</svg>
