<?xml version="1.0" encoding="UTF-8" standalone="no"?>
<svg
   xmlns:dc="http://purl.org/dc/elements/1.1/"
   xmlns:cc="http://creativecommons.org/ns#"
   xmlns:rdf="http://www.w3.org/1999/02/22-rdf-syntax-ns#"
   xmlns:svg="http://www.w3.org/2000/svg"
   xmlns="http://www.w3.org/2000/svg"
   xml:space="preserve"
   style="enable-background:new 0 0 102 102;"
   viewBox="0 0 102 102"
   y="0px"
   x="0px"
   id="svg2"
   version="1.1"><metadata
     id="metadata13"><rdf:RDF><cc:Work
         rdf:about=""><dc:format>image/svg+xml</dc:format><dc:type
           rdf:resource="http://purl.org/dc/dcmitype/StillImage" /><dc:title></dc:title></cc:Work></rdf:RDF></metadata><defs
     id="defs11" /><g
     transform="matrix(1.0000005,0,0,1.0313852,-0.198051,-1.13852)"
     id="g3"><path
       id="path5"
       d="m 27.3,73.7 c 2.1,-4.7 4.5,-8.7 7,-12 2.5,-3.3 4.8,-5.9 7,-7.6 2.2,-1.7 4.8,-3 7.8,-3.9 3,-0.9 5.6,-1.5 7.7,-1.6 2,-0.1 4.6,-0.2 7.7,-0.2 l 0,19.5 L 102.2,34.6 64.5,1.1 64.5,21 C 38.8,21.6 25.8,39.2 25.8,73.4 l 1.5,0.3 z M 69,26 69,11.9 94.6,34.5 69,57.2 69,43 l -0.8,0 -2.9,0 c -0.9,0 -1.8,0 -2.6,0 -2.5,0 -4.6,0.1 -6.2,0.2 -2.2,0.2 -5,0.8 -8.4,1.7 -3.5,0.9 -6.8,2.6 -9.8,5.1 -2.3,1.9 -4.5,4.3 -6.7,7 C 35.2,36.4 46.3,26.3 65.4,26.1 L 69,26 Z" /><path
       id="path7"
       d="m 85.1,67.1 0,0 L 85,67 c -0.6,-0.1 -0.7,-0.1 -0.8,-0.1 l -0.2,0 -1.4,0.8 -0.3,1 c -0.2,0.8 -0.2,2.3 -0.2,4.7 l 0,10 c 0,2.4 -1.3,5 -4,7.7 -2.6,2.8 -5.6,4.2 -9.2,4.2 l -51.3,0 C 14.7,95.2 11.9,93.6 9.2,90.5 6.6,87.4 5.3,84.4 5.3,81.7 l 0,-50.4 c -0.1,-3.7 1,-6.6 3.2,-8.9 2.9,-2.9 5.8,-4.3 8.7,-4.3 l 19.6,0 -0.8,-4.9 -17.5,0 C 13.5,13.2 9.1,15 5.6,18.5 2,22.1 0.2,26.4 0.2,31.4 l 0,50.3 c -0.1,5 1.7,9.3 5.3,12.9 3.6,3.6 8,5.4 12.9,5.4 l 50.3,0 c 5,0 9.3,-1.8 12.8,-5.3 3.6,-3.6 5.4,-8 5.4,-12.9 L 86.8,69.6 c 0,-1.3 -0.6,-2.1 -1.7,-2.5 z" /></g></svg>