<?xml version="1.0" encoding="utf-8"?>
<!-- Generator: Adobe Illustrator 21.1.0, SVG Export Plug-In . SVG Version: 6.00 Build 0)  -->
<svg version="1.1"
	 id="svg2" xmlns:cc="http://creativecommons.org/ns#" xmlns:dc="http://purl.org/dc/elements/1.1/" xmlns:rdf="http://www.w3.org/1999/02/22-rdf-syntax-ns#" xmlns:svg="http://www.w3.org/2000/svg"
	 xmlns="http://www.w3.org/2000/svg" xmlns:xlink="http://www.w3.org/1999/xlink" x="0px" y="0px" viewBox="0 0 1023.4 1023.4"
	 style="enable-background:new 0 0 1023.4 1023.4;" xml:space="preserve">
<path d="M1025.6,470.9L631.1,101.7v220.5c-101.4,1.7-191.7,14.4-268.4,38c-79.6,24.5-146.9,61.2-200.1,109.3
	c-53.3,48.2-93.8,108.9-120.4,180.5C15.6,721.4,2.2,805.4,2.2,899.8V936L20,904.4c29.3-52.1,61.7-97,96.2-133.5
	c38.4-41,70.9-69.9,96.7-86c28.3-18,62.2-32.7,101-43.6c30-8.5,68.4-16.1,114.1-22.6c16.4-2.3,37.3-3.4,62.3-3.4
	c37.3,0,84.7,2.6,140.9,7.6v218.3L1025.6,470.9z M680.9,370.6V223l267.1,247L681.9,717.7V572.6l-119.6-9.7l-138,2l-0.2,0
	c-12.5,0.7-52.4,8.2-121.8,23.1c-32.7,6.8-75.8,25.2-128.2,54.8c-24.5,14.1-63.9,56.7-120,129.7c56.1-260.2,255.2-394.9,592.5-400.5
	L680.9,370.6z"/>
</svg>
