<?xml version="1.0" encoding="UTF-8" standalone="no"?>
<svg
   xmlns:dc="http://purl.org/dc/elements/1.1/"
   xmlns:cc="http://creativecommons.org/ns#"
   xmlns:rdf="http://www.w3.org/1999/02/22-rdf-syntax-ns#"
   xmlns:svg="http://www.w3.org/2000/svg"
   xmlns="http://www.w3.org/2000/svg"
   xml:space="preserve"
   style="enable-background:new 0 0 1017 1017;"
   viewBox="0 0 1017 1017"
   y="0px"
   x="0px"
   id="svg2"
   version="1.1"><metadata
     id="metadata9"><rdf:RDF><cc:Work
         rdf:about=""><dc:format>image/svg+xml</dc:format><dc:type
           rdf:resource="http://purl.org/dc/dcmitype/StillImage" /><dc:title></dc:title></cc:Work></rdf:RDF></metadata><defs
     id="defs7" /><path
     id="path3"
     d="M1017,282.8H245.7L184,27.5H0v50.4h144.1l174.8,721.2c-17.7,6.5-32.4,17.7-44,33.3c-13.7,16.8-20.3,36.6-19.6,58.7  c0,13.7,2.7,26.6,8.1,38.4c5.3,11.6,12.1,22.1,20.4,31.1l0.2,0.2c8.4,8.4,18.8,15.3,30.9,20.6c12.2,5.3,25,8,38,8  c27.4,0,50.9-9.6,69.9-28.7c19-19,28.7-42.5,28.7-69.9c0-16.8-4.1-32.6-12.2-47.2h228.9c-8.4,14.5-12.4,30.4-11.8,47.3  c0,27.3,9.7,50.8,28.7,69.8c19,19,42.4,28.7,69.4,28.7c27,0,50.4-9.6,69.4-28.7c19-19,28.7-42.5,28.7-69.9  c0-27.4-9.7-50.6-28.7-68.9c-19-19-42.5-28.6-69.9-28.6H370.1l-14.6-59.2h507.7L1017,282.8z M706.8,891c0-13.1,4.5-23.9,13.9-33.3  c9.3-9.3,20.2-13.9,33.3-13.9c32.2,0,47.6,15,48.2,47.2c0,13.1-4.6,24.3-14,34.3c-9.3,9.3-20.4,13.8-33.7,13.8  c-13.4,0-24.5-4.5-33.8-13.9C711.3,916,706.8,904.7,706.8,891z M387.1,925.4c-9.3,9.3-20.4,13.8-33.7,13.8  c-13.4,0-24.5-4.5-33.8-13.9c-9.3-9.3-13.9-20.6-13.9-34.3c0-13.1,4.5-23.9,13.9-33.3c9.3-9.3,20.2-13.9,33.3-13.9  c32.9,0,48.2,15,48.2,47.2C401.1,904.1,396.5,915.3,387.1,925.4z M343.5,683.9l-84.9-350.7h687.5L827.5,683.9H343.5z" /></svg>