<?xml version="1.0" encoding="utf-8"?>
<!-- Generator: Adobe Illustrator 21.1.0, SVG Export Plug-In . SVG Version: 6.00 Build 0)  -->
<svg version="1.1"
	 id="svg2" xmlns:cc="http://creativecommons.org/ns#" xmlns:dc="http://purl.org/dc/elements/1.1/" xmlns:rdf="http://www.w3.org/1999/02/22-rdf-syntax-ns#" xmlns:svg="http://www.w3.org/2000/svg"
	 xmlns="http://www.w3.org/2000/svg" xmlns:xlink="http://www.w3.org/1999/xlink" x="0px" y="0px" viewBox="0 0 1005 1005"
	 style="enable-background:new 0 0 1005 1005;" xml:space="preserve">
<g>
	<path d="M908,248.8c-53.2-80-128.1-142-216.6-179.2l-6.7-2.8v66.5l2.7,1.3c146.3,70.5,241,220.9,241.2,383.3
		c0,234.9-191.2,426-426.1,426s-426-191.1-426-426c0.2-162.4,94.8-312.9,241.1-383.4l2.7-1.3v-67l-6.7,2.8
		c-88.6,37.3-163.6,99.3-216.8,179.4c-53.2,80.2-81.4,173.3-81.4,269.5c0,65.7,12.9,129.5,38.3,189.6
		c24.5,58,59.6,110.1,104.4,154.8C202.9,907,255,942.1,313,966.7c60,25.4,123.8,38.3,189.6,38.3S632,992,692,966.6
		c58-24.5,110.1-59.6,154.8-104.4s79.8-96.8,104.4-154.8c25.4-60,38.3-123.8,38.3-189.6C989.3,421.8,961.1,328.8,908,248.8z"/>
	<rect x="472.3" y="0" width="60.2" height="551.2"/>
</g>
</svg>
