<?xml version="1.0" encoding="UTF-8" standalone="no"?>
<svg
   xmlns:dc="http://purl.org/dc/elements/1.1/"
   xmlns:cc="http://creativecommons.org/ns#"
   xmlns:rdf="http://www.w3.org/1999/02/22-rdf-syntax-ns#"
   xmlns:svg="http://www.w3.org/2000/svg"
   xmlns="http://www.w3.org/2000/svg"
   id="svg2"
   viewBox="0 -143 1000 1000"
   version="1.1">
  <metadata
     id="metadata12">
    <rdf:RDF>
      <cc:Work
         rdf:about="">
        <dc:format>image/svg+xml</dc:format>
        <dc:type
           rdf:resource="http://purl.org/dc/dcmitype/StillImage" />
        <dc:title></dc:title>
      </cc:Work>
    </rdf:RDF>
  </metadata>
  <defs
     id="defs10" />
  <g
     id="g4"
     transform="matrix(1.4880952,0,0,-1.2106538,-247.02379,976.85475)">
    <path
       style="fill:currentColor"
       id="path6"
       d="m 838,99 0,0 0,826 -34,0 0,-826 34,0 z m -159,0 0,0 0,571 -35,0 0,-571 35,0 z m -161,0 0,0 0,357 -34,0 0,-357 34,0 z m -162,0 0,0 0,212 -34,0 0,-212 34,0 z m -156,0 0,0 0,142 -34,0 0,-142 34,0 z" />
  </g>
</svg>
