<?xml version="1.0" encoding="utf-8"?>
<!-- Generator: Adobe Illustrator 21.1.0, SVG Export Plug-In . SVG Version: 6.00 Build 0)  -->
<svg version="1.1"
	 id="svg2" xmlns:cc="http://creativecommons.org/ns#" xmlns:dc="http://purl.org/dc/elements/1.1/" xmlns:rdf="http://www.w3.org/1999/02/22-rdf-syntax-ns#" xmlns:svg="http://www.w3.org/2000/svg"
	 xmlns="http://www.w3.org/2000/svg" xmlns:xlink="http://www.w3.org/1999/xlink" x="0px" y="0px" viewBox="0 0 1006.2 1006.2"
	 style="enable-background:new 0 0 1006.2 1006.2;" xml:space="preserve">
<g>
	<path d="M944.1,131.1c-41.2-40.8-91.2-61.5-148.4-61.5H593.2l-7.4,46.1l224.1,0c0.8,0,1.7,0,2.5,0c35,0,70.3,17.5,104.8,52
		c27.6,27.6,41.6,65,41.6,111.2V726c0,35.1-16.6,71.7-49.5,108.8c-33.6,38.6-68.8,58.2-104.6,58.2H560.2l4.5,43.6h230.9
		c58.1,0,108.3-20.7,149.1-61.5c40.8-41.6,61.5-91.8,61.5-149.1V278.9C1006.2,221.6,985.3,171.8,944.1,131.1z"/>
	<path d="M836.4,504.4L404.6,122.5v226.7l-18.8,0c-126.5,0.9-255.3,1.3-382.7,1.3H0v311.6h404.6v224.1L836.4,504.4z M385.8,399.2
		h61.1V221.3l319.5,283.1L446.9,787.4V612.1H47.4l-2.5-211.6C158.5,399.7,273.1,399.2,385.8,399.2z"/>
</g>
</svg>
