<?xml version="1.0" encoding="UTF-8" standalone="no"?>
<svg
   xmlns:dc="http://purl.org/dc/elements/1.1/"
   xmlns:cc="http://creativecommons.org/ns#"
   xmlns:rdf="http://www.w3.org/1999/02/22-rdf-syntax-ns#"
   xmlns:svg="http://www.w3.org/2000/svg"
   xmlns="http://www.w3.org/2000/svg"
   id="svg2"
   viewBox="0 -143 1000 1000"
   version="1.1">
  <metadata
     id="metadata12">
    <rdf:RDF>
      <cc:Work
         rdf:about="">
        <dc:format>image/svg+xml</dc:format>
        <dc:type
           rdf:resource="http://purl.org/dc/dcmitype/StillImage" />
        <dc:title></dc:title>
      </cc:Work>
    </rdf:RDF>
  </metadata>
  <defs
     id="defs10" />
  <g
     transform="translate(-75.999994,90.999977)"
     id="g3340">
    <g
       transform="matrix(1.216545,0,0,-1.2150668,-16.457421,876.57109)"
       id="g4">
      <path
         d="M 487,914 Q 316,914 196,794 76,674 76,503 76,332 196,212 316,92 487,91 658,91 778,212 898,332 898,503 898,674 778,794 658,914 487,914 l 0,0 z m 0,-788 q -102,0 -189,50 -87,51 -137,138 -51,87 -51,189 0,156 110.5,266.5 Q 331,880 487,880 643,880 753,769 864,658 864,502.5 864,347 753,237 642,126 487,126 l 0,0 z m 214,279 q -17,7 -22,-7 Q 651,343 599,311.5 547,280 487,280 425,280 374.5,311.5 324,343 295,398 q -6,16 -23,7 -15,-6 -8,-22 32,-63 92,-100 60,-37 131,-38 71,0 131,38 60,37 90,100 9,16 -7,22 l 0,0 z M 401,588.5 Q 401,567 386,552 371,537 349.5,537 328,537 313,552 q -15,15 -15,36.5 0,21.5 15,36.5 15,15 37,15 21,0 36,-15 15,-15 15,-36.5 z m 274,0 q 0,-21.5 -14,-36.5 -15,-15 -37,-15 -22,0 -36,15 -15,15 -15,36.5 0,21.5 15,36.5 15,15 36,15 21,0 37,-15 14,-15 14,-36.5 z"
         id="path6"
         style="fill:currentColor" />
    </g>
  </g>
</svg>
