<?xml version="1.0" encoding="UTF-8" standalone="no"?>
<svg
   xmlns:dc="http://purl.org/dc/elements/1.1/"
   xmlns:cc="http://creativecommons.org/ns#"
   xmlns:rdf="http://www.w3.org/1999/02/22-rdf-syntax-ns#"
   xmlns:svg="http://www.w3.org/2000/svg"
   xmlns="http://www.w3.org/2000/svg"
   id="svg2"
   viewBox="0 -143 1000 1000"
   version="1.1">
  <metadata
     id="metadata12">
    <rdf:RDF>
      <cc:Work
         rdf:about="">
        <dc:format>image/svg+xml</dc:format>
        <dc:type
           rdf:resource="http://purl.org/dc/dcmitype/StillImage" />
        <dc:title></dc:title>
      </cc:Work>
    </rdf:RDF>
  </metadata>
  <defs
     id="defs10" />
  <g
     id="g4"
     transform="matrix(1.209466,0,0,-1.209466,-85.985567,969.52765)">
    <path
       style="fill:currentColor"
       id="path6"
       d="m 897.905,595.055 q 0,-10.6797 -13.3506,-24.0293 l -180.67,-175.33 42.7207,-248.311 q 0,-3.55957 0.88965,-10.6797 0,-10.6797 -5.33984,-16.9102 -5.33984,-7.12012 -15.1299,-7.12012 -9.79006,0 -19.5801,5.33984 l -223.391,117.48 -222.5,-117.48 q -10.6797,-6.22949 -20.4697,-5.33984 -10.6797,0 -15.5752,7.12012 -4.89453,7.12012 -4.89453,16.9102 0,2.66992 0.88965,10.6797 l 42.7197,248.311 -180.670004,175.33 q -12.46,13.3496 -12.46,24.0293 0,18.6904 27.5898,23.1406 l 250.091004,35.5996 111.25,226.061 q 9.79004,20.4697 24.4746,20.4697 14.68456,0 24.4746,-20.4697 l 111.25,-226.061 249.2,-35.5996 q 28.4805,-4.4502 28.4805,-23.1406 z" />
  </g>
</svg>
