<?xml version="1.0" encoding="UTF-8" standalone="no"?>
<svg
   xmlns:dc="http://purl.org/dc/elements/1.1/"
   xmlns:cc="http://creativecommons.org/ns#"
   xmlns:rdf="http://www.w3.org/1999/02/22-rdf-syntax-ns#"
   xmlns:svg="http://www.w3.org/2000/svg"
   xmlns="http://www.w3.org/2000/svg"
   id="svg2"
   viewBox="0 -143 1000 1000"
   version="1.1">
  <metadata
     id="metadata12">
    <rdf:RDF>
      <cc:Work
         rdf:about="">
        <dc:format>image/svg+xml</dc:format>
        <dc:type
           rdf:resource="http://purl.org/dc/dcmitype/StillImage" />
        <dc:title></dc:title>
      </cc:Work>
    </rdf:RDF>
  </metadata>
  <defs
     id="defs10" />
  <g
     id="g4"
     transform="matrix(1.2094661,0,0,-1.2094661,-122.26963,957.43386)">
    <path
       style="fill:currentColor"
       id="path6"
       d="m 705.405,398.155 194.02,186.899 -268.78,33.8203 -117.479,242.08 -115.7,-239.41 -267.89,-40.0498 193.13,-183.34 -47.1699,-269.67 240.3,129.05 236.74,-127.271 z m 222.5,186.9 q 0,-11.5693 -13.3506,-24.0293 l -180.67,-175.33 42.7207,-249.2 q 0,-2.66992 0.88965,-9.79004 0,-24.9199 -20.4697,-24.0303 -8.90039,0 -19.5801,5.33984 l -223.391,117.48 -222.5,-117.48 q -11.5693,-6.22949 -20.4697,-5.33984 -10.6797,0 -15.5752,7.12012 -4.89453,7.12012 -4.89453,16.9102 0,4.4502 0.88965,10.6797 l 42.7197,248.311 -180.67,175.33 q -12.46,11.5693 -12.46,24.0293 0,18.6904 27.5898,23.1406 l 250.091,35.5996 111.25,226.061 q 9.79004,20.4697 24.0293,20.4697 14.2402,0 24.9199,-20.4697 l 111.25,-226.061 249.2,-35.5996 q 28.4805,-4.4502 28.4805,-23.1406 z" />
  </g>
</svg>
