<?xml version="1.0" encoding="utf-8"?>
<!-- Generator: Adobe Illustrator 21.1.0, SVG Export Plug-In . SVG Version: 6.00 Build 0)  -->
<svg version="1.1"
	 id="svg2" xmlns:cc="http://creativecommons.org/ns#" xmlns:dc="http://purl.org/dc/elements/1.1/" xmlns:rdf="http://www.w3.org/1999/02/22-rdf-syntax-ns#" xmlns:svg="http://www.w3.org/2000/svg"
	 xmlns="http://www.w3.org/2000/svg" xmlns:xlink="http://www.w3.org/1999/xlink" x="0px" y="0px" viewBox="0 0 1017.9 1017.9"
	 style="enable-background:new 0 0 1017.9 1017.9;" xml:space="preserve">
<path d="M1015.7,391.7c-4.8-14-18-22.8-39.3-26.2l-297-43.5L546.8,52.5c-10.2-19.6-23-29.6-38-29.6c-15.1,0-27.6,10-37.1,29.8
	L339.1,322L41,365.5C19.6,369,6.4,377.8,1.7,392c-4.7,14.2,0.7,29.2,16.2,44.6l215.4,210.1l-50.9,295.9c-2.5,14.9-1,27.2,4.3,36.6
	c5.9,10.3,15.7,15.8,28.2,15.8c8.8,0,18.2-2.8,28.9-8.6l265.1-140l266.1,139.9c10.7,5.8,19.9,8.6,27.9,8.6h0.3l0.3,0
	c12.1-0.9,21.5-6.5,27.3-16c5.5-8.5,7-20.3,4.5-36.3l-50.9-296l215.2-209.9C1015.9,421.2,1021.4,406.1,1015.7,391.7z M729.7,627.4
	l8.3,50l46.3,256.7l-235.8-125l-30.8-15.9V113.5L627,331.4l24,37.2l42.8,5.9l259.9,36.3L763.2,596.2L729.7,627.4z"/>
</svg>
