<?xml version="1.0" encoding="utf-8"?>
<!-- Generator: Adobe Illustrator 21.1.0, SVG Export Plug-In . SVG Version: 6.00 Build 0)  -->
<svg version="1.1" id="Layer_1" xmlns="http://www.w3.org/2000/svg" xmlns:xlink="http://www.w3.org/1999/xlink" x="0px" y="0px"
	 viewBox="0 0 1012.5 1012.5" style="enable-background:new 0 0 1012.5 1012.5;" xml:space="preserve">
<g>
	<path d="M271.6,480.9l1.9,2.1h66.7l-44.4-64.3L284,390.3l-8.8-21.4l-9.7-51.5l3.8-37.2l12.6-30l22.4-44.9l28-27l20.4-15.6
		l31.9-19.3l46.8-11.7l58.1-9.8l45.3,2l40.5,2l39.1,7.8l55.3,18.7l9.2,41.3l9.7,70.9l27.8,1.3l12-1.7l0.9-4.3
		c2.1-10.4,3.1-19.2,3.1-26.2c0-7.1-2.7-24.8-8.1-54.2c-5.3-26.5-9.3-48.6-12-65.7l-0.6-3.9l-3.7-1.2
		c-40.7-12.7-73.9-21.5-98.7-26.2c-39.5-7.4-71.5-11.1-95.1-11.1c-48.8,0-92.2,6.1-129.2,18.1c-37.2,12.1-68.9,30.5-94.2,54.7
		c-51,49-76.9,108.7-76.9,177.5c0,35.5,9.3,71.5,27.7,106.8C256,457.3,265.8,474.4,271.6,480.9z"/>
	<path d="M1000,522.7c0-3.3,2.5-5.4,4.2-5.7c-0.4,0.1-3,0.5-15.9,0.5H0V568h1012.5v-45.3H1000z"/>
	<path d="M777.5,610.5h-54.6l21.1,50.4l-0.9,37l-8.7,37.8L709,793.1l-35.7,35.7l-36.2,22.5L610.8,865l-44,15.6l-48.1,6.9l-50.3,2
		l-46.4-4l-61.2-8.9L313.7,859l-31.1-14.6l-1-4.2l4.4-68.8l-53.9,1.3v30l-1,21v4.1l0,0.2c0.7,17.8,1,30.2,1,36.8v7
		c0,7,2.3,12.9,6.8,17.4l0.2,0.2l0.2,0.2c3.5,3,11.6,7.9,42.4,16.3l77.9,23c27.7,8.2,61.9,12.3,101.6,12.3c3,0,6.2,0,9.2-0.1
		c44.3,0,82.8-3.8,114.4-11.2l0.1,0c29.1-7.4,58.6-20.1,87.7-37.7c28.3-17.5,48.9-33,61.2-46c18.5-18.5,32.4-39,41.3-61
		c24.2-59.4,31.7-99.5,23.1-122.6L777.5,610.5z"/>
</g>
</svg>
