<?xml version="1.0" encoding="UTF-8" standalone="no"?>
<svg
   xmlns:dc="http://purl.org/dc/elements/1.1/"
   xmlns:cc="http://creativecommons.org/ns#"
   xmlns:rdf="http://www.w3.org/1999/02/22-rdf-syntax-ns#"
   xmlns:svg="http://www.w3.org/2000/svg"
   xmlns="http://www.w3.org/2000/svg"
   id="svg2"
   viewBox="0 -143 1000 1000"
   version="1.1">
  <metadata
     id="metadata12">
    <rdf:RDF>
      <cc:Work
         rdf:about="">
        <dc:format>image/svg+xml</dc:format>
        <dc:type
           rdf:resource="http://purl.org/dc/dcmitype/StillImage" />
        <dc:title></dc:title>
      </cc:Work>
    </rdf:RDF>
  </metadata>
  <defs
     id="defs10" />
  <g
     id="g4"
     transform="matrix(1.2019231,0,0,-1.2019231,-85.937511,941.13463)">
    <path
       style="fill:currentColor"
       id="path6"
       d="M 488,694 Q 403,694 342.5,633 282,572 282,486 q 0,-86 60,-147 60,-61 145.5,-61 85.5,0 145.5,61 60,61 61,147 0,86 -61,147 -60,61 -145,61 l 0,0 z M 487.5,306 Q 414,306 362,358.5 310,411 310,486 q 0,75 52,127.5 52,52.5 125.5,52.5 73.5,0 126,-52.5 Q 666,561 666,486 666,411 614,359 561,306 487.5,306 Z m -13.5,596 28,0 0,-167 -28,0 0,167 z m 0,-666 28,0 0,-166 -28,0 0,166 z m -398,264 165,0 0,-28 -165,0 0,28 z m 659,0 164,0 0,-28 -164,0 0,28 z m 34,291 20,-19 -115,-117 -19,20 z M 206,183 187,203 302,319 321,299 Z M 206,791 321,675 302,655 187,772 Z M 769,183 655,299 674,319 789,203 Z" />
  </g>
</svg>
