<?xml version="1.0" encoding="utf-8"?>
<!-- Generator: Adobe Illustrator 21.1.0, SVG Export Plug-In . SVG Version: 6.00 Build 0)  -->
<svg version="1.1"
	 id="svg2" xmlns:cc="http://creativecommons.org/ns#" xmlns:dc="http://purl.org/dc/elements/1.1/" xmlns:rdf="http://www.w3.org/1999/02/22-rdf-syntax-ns#" xmlns:svg="http://www.w3.org/2000/svg"
	 xmlns="http://www.w3.org/2000/svg" xmlns:xlink="http://www.w3.org/1999/xlink" x="0px" y="0px" viewBox="0 0 1013.4 1013.4"
	 style="enable-background:new 0 0 1013.4 1013.4;" xml:space="preserve">
<path d="M0,77v859.5h1013.4V77H0z M705.5,627V435.9h256.8V627H705.5z M705.5,384.8V153.9h256.8v230.9H705.5z M705.5,679.2h256.8v203
	H705.5V679.2z M656.6,679.2v203H361.1v-203H656.6z M361.1,627V435.9h295.5V627H361.1z M361.1,384.8V153.9h295.5v230.9H361.1z
	 M51.1,627V435.9H310V627H51.1z M51.1,384.8V153.9H310v230.9H51.1z M51.1,679.2H310v203H51.1V679.2z"/>
</svg>
