<?xml version="1.0" encoding="UTF-8" standalone="no"?>
<svg
   xmlns:dc="http://purl.org/dc/elements/1.1/"
   xmlns:cc="http://creativecommons.org/ns#"
   xmlns:rdf="http://www.w3.org/1999/02/22-rdf-syntax-ns#"
   xmlns:svg="http://www.w3.org/2000/svg"
   xmlns="http://www.w3.org/2000/svg"
   xml:space="preserve"
   style="enable-background:new 0 0 1019.9 1019.9;"
   viewBox="0 0 1019.9 1019.9"
   y="0px"
   x="0px"
   id="svg2"
   version="1.1"><metadata
     id="metadata13"><rdf:RDF><cc:Work
         rdf:about=""><dc:format>image/svg+xml</dc:format><dc:type
           rdf:resource="http://purl.org/dc/dcmitype/StillImage" /><dc:title></dc:title></cc:Work></rdf:RDF></metadata><defs
     id="defs11" /><g
     id="g3"><path
       id="path5"
       d="M454,1.7H201.6L1.7,201.6v250.1l567.6,570l452.3-451.1L454,1.7z M433.1,54.6l513.5,515.8l-377.3,375L55.8,430.8V223.7   L223.7,54.6H433.1z" /><path
       id="path7"
       d="M195.7,308.9c16.4,15.5,35.9,23.4,58,23.4s41.6-7.9,58-23.4l0.2-0.2c16.5-16.5,24.4-36.3,23.6-58.9c0-22.5-8.2-42-24.2-58   c-16-16-35.4-24.2-57.5-24.2c-22.1,0-41.6,8.1-58,24.1c-16.5,16-24.8,35.6-24.8,58.2c0,22.5,8.3,42.3,24.7,58.7L195.7,308.9z    M232.7,230.4l0.3-0.3l0.3-0.3c5.5-6.1,12.1-9,20.3-9c8.1,0,14.1,2.8,18.8,8.7l0.3,0.4l0.3,0.3c5.6,5.6,8.6,12.2,9.3,20.3   c-0.1,7.7-2.9,14.1-8.6,19.5c-5.9,5.6-12.7,8.3-20.8,8.3c-8,0-14.5-2.7-20-8.2c-5.5-5.5-8.2-12.2-8.2-20.6   C224.9,241.3,227.4,235,232.7,230.4z" /></g></svg>