<?xml version="1.0" encoding="UTF-8" standalone="no"?>
<svg
   xmlns:dc="http://purl.org/dc/elements/1.1/"
   xmlns:cc="http://creativecommons.org/ns#"
   xmlns:rdf="http://www.w3.org/1999/02/22-rdf-syntax-ns#"
   xmlns:svg="http://www.w3.org/2000/svg"
   xmlns="http://www.w3.org/2000/svg"
   xml:space="preserve"
   style="enable-background:new 0 0 1019.9 1019.9;"
   viewBox="0 0 1019.9 1019.9"
   y="0px"
   x="0px"
   id="svg2"
   version="1.1"><metadata
     id="metadata15"><rdf:RDF><cc:Work
         rdf:about=""><dc:format>image/svg+xml</dc:format><dc:type
           rdf:resource="http://purl.org/dc/dcmitype/StillImage" /><dc:title></dc:title></cc:Work></rdf:RDF></metadata><defs
     id="defs13" /><g
     id="g3"><path
       id="path5"
       d="M153.5,347.8l0.2,0.2c13.4,12.7,29.6,19.2,48,19.2c18.5,0,34.4-6.5,47.2-19.3c13.5-13.5,20.3-29.6,20.3-48.1   c0-18.5-6.7-34.5-19.8-47.7c-13.1-13.1-29.2-19.8-47.7-19.8c-18.5,0-34.5,6.7-47.7,19.8c-13.1,13.1-19.8,29.2-19.8,47.7   c0,18.4,6.5,34.5,19.2,48L153.5,347.8z M222.5,299.7c0,5.9-2,10.8-6,14.8c-4.1,4.1-8.9,6-14.8,6s-10.8-2-14.8-6   c-4.1-4.1-6-9.1-6-15.3c0-6.1,1.8-10.6,5.7-14l0.3-0.3l0.3-0.3c4.1-4.5,8.7-6.7,14.5-6.7s10.5,2.1,14.5,6.7l0.1,0.2l0.2,0.2   C220.5,288.9,222.5,293.8,222.5,299.7z" /><path
       id="path7"
       d="M365.8,101.8H161.6L1.7,262.7V464l455.6,457.5l364.1-363.2L365.8,101.8z M346.8,147.4l410,410.9L458.3,855.9l-410.9-410   V281.7l134.3-134.3H346.8z" /><polygon
       id="polygon9"
       points="566,101.8 474.1,101.8 493.2,147.4 546.9,147.4 956,558.3 657.5,855.9 622.3,820.7 587.1,850.1 657.5,921.6    1021.6,558.4  " /></g></svg>