<?xml version="1.0" encoding="utf-8"?>
<!-- Generator: Adobe Illustrator 21.1.0, SVG Export Plug-In . SVG Version: 6.00 Build 0)  -->
<svg version="1.1"
	 id="svg2" xmlns:cc="http://creativecommons.org/ns#" xmlns:dc="http://purl.org/dc/elements/1.1/" xmlns:rdf="http://www.w3.org/1999/02/22-rdf-syntax-ns#" xmlns:svg="http://www.w3.org/2000/svg"
	 xmlns="http://www.w3.org/2000/svg" xmlns:xlink="http://www.w3.org/1999/xlink" x="0px" y="0px" viewBox="0 0 1000 1000"
	 style="enable-background:new 0 0 1000 1000;" xml:space="preserve">
<g>
	<polygon points="824,754.9 900.4,834.1 101.9,834.1 184.6,755.1 149.8,720.4 6.2,859.6 136.6,987.8 171.3,953.1 101.5,884.2 
		899.8,884.2 822.7,960.4 858.7,994.9 993.8,859.8 858.7,720.2 	"/>
	<path d="M464.6,7.1l-127.7-1c-20.9,0-96.4-0.3-143.5-1l-30.6,0l-54,1.2v114h46.2l-1-64.3l51.7-1.8h126.2c73.2,0,119.5,1,137.4,3
		l0.4,0h0.4c0.5,0,1.5,0.5,2.8,1.8c0.2,0.3,0.7,1.4,1.2,4.3c0.4,2.5,0.9,10,0.9,31.3l0,125.1l3,280.4l1,161.6H311.5V712h387.2v-51.2
		H530.2V506.5l-1-64.2l0-225.7l-1-86.3c0-1.2,0.4-14.9,1.9-70.9c10.7-1.4,21.9-2.1,33.5-2.1l48.9,0l134.6-1l98.3-1.9v64.9h46.1V6
		l-85.4,1.1l-19.3-1"/>
</g>
</svg>
