<?xml version="1.0" encoding="utf-8"?>
<!-- Generator: Adobe Illustrator 21.1.0, SVG Export Plug-In . SVG Version: 6.00 Build 0)  -->
<svg version="1.1"
	 id="svg2" xmlns:cc="http://creativecommons.org/ns#" xmlns:dc="http://purl.org/dc/elements/1.1/" xmlns:rdf="http://www.w3.org/1999/02/22-rdf-syntax-ns#" xmlns:svg="http://www.w3.org/2000/svg"
	 xmlns="http://www.w3.org/2000/svg" xmlns:xlink="http://www.w3.org/1999/xlink" x="0px" y="0px" viewBox="0 0 1034 1000"
	 style="enable-background:new 0 0 1034 1000;" xml:space="preserve">
<g>
	<polygon points="991.1,778 912,854.4 912,147.9 990.9,230.6 1025.7,195.8 886.4,52.2 758.2,182.6 792.9,217.3 861.8,147.5 
		861.8,853.8 785.7,776.7 751.2,812.7 886.3,947.8 1025.9,812.7 	"/>
	<path d="M323,73.6l-127.7-1c-20.9,0-55.4-0.3-102.5-1l-30.6,0l-54,1.2v114h46.2l-1-64.3l51.7-1.8h85.2c73.2,0,119.5,1,137.4,3
		l0.4,0h0.4c0.5,0,1.5,0.5,2.8,1.8c0.2,0.3,0.7,1.4,1.2,4.3c0.4,2.5,0.9,10,0.9,31.3l0,125.1l3,280.4l1,301.6H179.9v50.2h367.2
		v-51.2H388.6V713l-1-204.2l0-225.7l-1-86.3c0-1.2,0.4-14.9,1.9-70.9c10.7-1.4,21.9-2.1,33.5-2.1l48.9,0l94.6-1l98.3-1.9v64.9h46.1
		V72.5l-85.4,1.1l-19.3-1"/>
</g>
</svg>
