<?xml version="1.0" encoding="utf-8"?>
<!-- Generator: Adobe Illustrator 21.1.0, SVG Export Plug-In . SVG Version: 6.00 Build 0)  -->
<svg version="1.1"
	 id="svg2" xmlns:cc="http://creativecommons.org/ns#" xmlns:dc="http://purl.org/dc/elements/1.1/" xmlns:rdf="http://www.w3.org/1999/02/22-rdf-syntax-ns#" xmlns:svg="http://www.w3.org/2000/svg"
	 xmlns="http://www.w3.org/2000/svg" xmlns:xlink="http://www.w3.org/1999/xlink" x="0px" y="0px" viewBox="0 0 1038 1038"
	 style="enable-background:new 0 0 1038 1038;" xml:space="preserve">
<g>
	<path d="M0,918.1h304.7V689.3H0V918.1z M50,868.1V740.3h204.8v127.9H50z"/>
	<path d="M0,633.4h304.7V404.6H0V633.4z M50,583.4V454.6h204.8v128.9H50z"/>
	<path d="M380.6,918.1H1038V689.3H380.6V918.1z M430.6,868.1V740.3H988v127.9H430.6z"/>
	<path d="M0,348.7h304.7V119.9H0V348.7z M50,297.7V169.9h204.8v127.9H50z"/>
	<path d="M380.6,119.9v228.8H1038V119.9H380.6z M988,169.9v127.9H430.6V169.9H988z"/>
	<path d="M380.6,633.4H1038V404.6H380.6V633.4z M430.6,583.4V454.6H988v128.9H430.6z"/>
</g>
</svg>
