<?xml version="1.0" encoding="utf-8"?>
<!-- Generator: Adobe Illustrator 21.1.0, SVG Export Plug-In . SVG Version: 6.00 Build 0)  -->
<svg version="1.1"
	 id="svg2" xmlns:cc="http://creativecommons.org/ns#" xmlns:dc="http://purl.org/dc/elements/1.1/" xmlns:rdf="http://www.w3.org/1999/02/22-rdf-syntax-ns#" xmlns:svg="http://www.w3.org/2000/svg"
	 xmlns="http://www.w3.org/2000/svg" xmlns:xlink="http://www.w3.org/1999/xlink" x="0px" y="0px" viewBox="0 0 1036 1036"
	 style="enable-background:new 0 0 1036 1036;" xml:space="preserve">
<g>
	<path d="M0,336.7h304.7V107.9H0V336.7z M50,285.7V157.9h204.8v127.9H50z"/>
	<path d="M0,928.1h304.7V699.3H0V928.1z M50,877.1V749.3h204.8v127.9H50z"/>
	<path d="M0,632.4h304.7V402.6H0V632.4z M50,581.4V453.6h204.8v127.9H50z"/>
	<path d="M731.3,928.1H1036V699.3H731.3V928.1z M781.3,877.1V749.3H986v127.9H781.3z"/>
	<path d="M731.3,107.9v228.8H1036V107.9H731.3z M986,157.9v127.9H781.3V157.9H986z"/>
	<path d="M731.3,632.4H1036V402.6H731.3V632.4z M781.3,581.4V453.6H986v127.9H781.3z"/>
	<path d="M364.6,336.7h304.7V107.9H364.6V336.7z M414.6,285.7V157.9h204.8v127.9H414.6z"/>
	<path d="M364.6,928.1h304.7V699.3H364.6V928.1z M414.6,877.1V749.3h204.8v127.9H414.6z"/>
	<path d="M364.6,632.4h304.7V402.6H364.6V632.4z M414.6,581.4V453.6h204.8v127.9H414.6z"/>
</g>
</svg>
