<?xml version="1.0" encoding="UTF-8" standalone="no"?>
<svg
   xmlns:dc="http://purl.org/dc/elements/1.1/"
   xmlns:cc="http://creativecommons.org/ns#"
   xmlns:rdf="http://www.w3.org/1999/02/22-rdf-syntax-ns#"
   xmlns:svg="http://www.w3.org/2000/svg"
   xmlns="http://www.w3.org/2000/svg"
   xml:space="preserve"
   style="enable-background:new 0 0 1011 1011;"
   viewBox="0 0 1011 1011"
   y="0px"
   x="0px"
   id="svg2"
   version="1.1"><metadata
     id="metadata9"><rdf:RDF><cc:Work
         rdf:about=""><dc:format>image/svg+xml</dc:format><dc:type
           rdf:resource="http://purl.org/dc/dcmitype/StillImage" /><dc:title></dc:title></cc:Work></rdf:RDF></metadata><defs
     id="defs7" /><path
     id="path3"
     d="M984.8,429.1c-17.4-17.4-39.6-26.2-66.1-26.2H614.3c35.3-84.2,53.1-164.5,53.1-238.8c0-96.1-37.6-144.8-111.7-144.8  c-17.9,0-35.5,6.5-52.4,19.4C486,52,477.2,69.2,477.2,90c0,15.7-1.1,34.3-3.4,55.4c-2.2,20.7-11.3,52.4-27.1,94  c-15.6,41.1-37.3,73.6-64.6,96.5c-52.8,44.5-90.6,73.5-112.3,86.3c-20.3,12.3-43.2,18.6-67.9,18.6c-42.4,0-102.3,0.4-178.1,1.1H0  v458.5h214.4c4.7,0,22.5,4.4,89.1,33.8c85.9,37.9,143,56.8,174.5,57.5l302.6,0c25.7,0,48.1-9,66.6-26.6c18.5-17.7,28-39.8,28-65.6  c0-17.7-5-34-14.9-48.6c16.1-6.1,29.7-16.3,40.5-30.3c12.5-16.1,18.8-34.9,18.8-55.9c0-17.7-5-34.1-15-48.8  c16.1-6.7,29.6-17.2,40.2-31.3c12.1-16.1,18.2-34.7,18.2-55.2c0-17.9-5-34.7-14.8-49.9c16.8-5.5,31.3-15.3,43.2-29.3l0.1-0.1  l0.1-0.1c12.9-16.9,19.4-36.1,19.4-57C1011,468,1002.2,446.5,984.8,429.1z M918.9,535.4h-73v49.8h23.8c12.3,0,22.4,4.1,30.9,12.7  c8.5,8.5,12.7,18.6,12.7,30.9c0,12.3-4.2,22.7-12.7,31.6c-8.5,8.9-18.6,13.2-30.9,13.2h-61.4v48.7h19.2c12.2,0,22.1,4.3,30.2,13.1  l0.2,0.2c8.1,8.1,12.1,17.7,12.1,29.2c0,12.3-4,22.2-12.1,30.4c-8.1,8.1-18.1,12.1-30.4,12.1h-58v49.8h11.2c13.1,0,23.4,4,31.5,12.1  l0.2,0.2c8.8,8.1,13.1,18,13.1,30.2s-4.3,22.1-13.1,30.2c-8.9,8.2-19.3,12.2-31.7,12.2H478.1c-24.2,0-76.5-17.5-155.3-52  c-57.5-25.6-92.8-38.5-108.1-39.3l-0.1,0H48.7V490.4c67-0.7,118.5-1.1,153.2-1.1c33.6,0,63.7-7.7,89.6-23  c25.2-14.9,66.6-46,122.9-92.4c32.5-27.1,58-64,75.8-109.5c18.4-45.1,29.2-80.8,32.3-105.9c3.1-24.8,4.6-47.9,4.6-68.6  c0-4.9,2.9-9.4,8.8-13.6c7.5-4,14.3-6.5,20.2-7.2c6.9,0,12.8,0.7,17.6,2.1c4.8,1.4,11.7,4.6,20.3,9.7c7.1,4.6,12.9,13.9,17,27.7  c4.4,14.6,6.6,33.3,6.6,55.5c0,82.5-21.7,167.7-64.5,253.2l-17.7,35.4h383.3c13.1,0,23.4,3.8,31.6,11.6c8.1,7.7,12,17.1,12,28.6  c0,12.3-4.3,22.3-13.2,30.9c-8.2,7.9-17.2,11.7-27.6,11.7c-0.8,0-1.7,0-2.5-0.1L918.9,535.4z" /></svg>