<?xml version="1.0" encoding="UTF-8" standalone="no"?>
<svg
   xmlns:dc="http://purl.org/dc/elements/1.1/"
   xmlns:cc="http://creativecommons.org/ns#"
   xmlns:rdf="http://www.w3.org/1999/02/22-rdf-syntax-ns#"
   xmlns:svg="http://www.w3.org/2000/svg"
   xmlns="http://www.w3.org/2000/svg"
   xml:space="preserve"
   style="enable-background:new 0 0 1010.9 1011;"
   viewBox="0 0 1010.9 1011"
   y="0px"
   x="0px"
   id="svg2"
   version="1.1"><metadata
     id="metadata8"><rdf:RDF><cc:Work
         rdf:about=""><dc:format>image/svg+xml</dc:format><dc:type
           rdf:resource="http://purl.org/dc/dcmitype/StillImage" /><dc:title></dc:title></cc:Work></rdf:RDF></metadata><defs
     id="defs6" /><path
     d="M984.7,582c-17.4,17.4-39.6,26.2-66.1,26.2H614.2c35.3,84.3,53.1,164.7,53.1,239.1c0,96.2-37.6,145-111.7,145  c-17.9,0-35.5-6.5-52.4-19.4c-17.3-13.3-26.1-30.5-26.1-51.4c0-15.7-1.1-34.3-3.4-55.5c-2.2-20.7-11.3-52.5-27.1-94.1  c-15.6-41.2-37.3-73.7-64.6-96.6c-52.8-44.6-90.6-73.6-112.3-86.4c-20.3-12.3-43.2-18.6-67.9-18.6c-42.4,0-102.3-0.4-178.1-1.1H0  V110h214.4c4.7,0,22.5-4.4,89.1-33.8c85.9-38,143-56.9,174.5-57.6h302.6c25.7,0,48.1,9,66.6,26.6c18.5,17.7,28,39.9,28,65.7  c0,17.7-5,34-14.9,48.7c16.1,6.1,29.7,16.3,40.5,30.3c12.5,16.1,18.8,34.9,18.8,56c0,17.7-5,34.1-15,48.9  c16.1,6.7,29.6,17.2,40.2,31.3c12.1,16.1,18.2,34.7,18.2,55.3c0,17.9-5,34.7-14.8,50c16.8,5.5,31.3,15.3,43.2,29.3l0.1,0.1l0.1,0.1  c12.9,16.9,19.4,36.2,19.4,57.1C1010.9,543.1,1002.1,564.6,984.7,582z M918.8,475.6h-73v-49.9h23.8c12.3,0,22.4-4.1,30.9-12.7  c8.5-8.5,12.7-18.6,12.7-30.9c0-12.3-4.2-22.7-12.7-31.6c-8.5-8.9-18.6-13.2-30.9-13.2h-61.4v-48.8h19.2c12.2,0,22.1-4.3,30.2-13.1  l0.2-0.2c8.1-8.1,12.1-17.7,12.1-29.2c0-12.3-4-22.2-12.1-30.4c-8.1-8.1-18.1-12.1-30.4-12.1h-58v-49.9h11.2  c13.1,0,23.4-4,31.5-12.1l0.2-0.2c8.8-8.1,13.1-18,13.1-30.2s-4.3-22.1-13.1-30.2c-8.9-8.2-19.3-12.2-31.7-12.2H478  c-24.2,0-76.5,17.5-155.3,52.1c-57.5,25.6-92.8,38.6-108.1,39.4h-0.1H48.7v360.8c67,0.7,118.5,1.1,153.2,1.1  c33.6,0,63.7,7.7,89.6,23c25.2,14.9,66.6,46.1,122.9,92.5c32.5,27.1,58,64.1,75.8,109.7c18.4,45.2,29.2,80.9,32.3,106  c3.1,24.8,4.6,48,4.6,68.7c0,4.9,2.9,9.4,8.8,13.6c7.5,4,14.3,6.5,20.2,7.2c6.9,0,12.8-0.7,17.6-2.1c4.8-1.4,11.7-4.6,20.3-9.7  c7.1-4.6,12.9-13.9,17-27.7c4.4-14.6,6.6-33.3,6.6-55.6c0-82.6-21.7-167.9-64.5-253.6l-17.7-35.4h383.3c13.1,0,23.4-3.8,31.6-11.6  c8.1-7.7,12-17.1,12-28.6c0-12.3-4.3-22.3-13.2-30.9c-8.2-7.9-17.2-11.7-27.6-11.7C920.6,475.5,919.7,475.5,918.8,475.6L918.8,475.6  z"
     id="path3" /></svg>