<?xml version="1.0" encoding="UTF-8" standalone="no"?>
<svg
   xmlns:dc="http://purl.org/dc/elements/1.1/"
   xmlns:cc="http://creativecommons.org/ns#"
   xmlns:rdf="http://www.w3.org/1999/02/22-rdf-syntax-ns#"
   xmlns:svg="http://www.w3.org/2000/svg"
   xmlns="http://www.w3.org/2000/svg"
   id="svg2"
   viewBox="0 -143 1000 1000"
   version="1.1">
  <metadata
     id="metadata12">
    <rdf:RDF>
      <cc:Work
         rdf:about="">
        <dc:format>image/svg+xml</dc:format>
        <dc:type
           rdf:resource="http://purl.org/dc/dcmitype/StillImage" />
        <dc:title></dc:title>
      </cc:Work>
    </rdf:RDF>
  </metadata>
  <defs
     id="defs10" />
  <g
     id="g4"
     transform="matrix(1.0834236,0,0,-1.0834236,-40.086665,893.83639)">
    <path
       style="fill:currentColor"
       id="path6"
       d="m 222,133 z m -117,134 1,-135 116,1 0,134 -117,0 z m -1,294 0,-266 119,0 0,266 -119,0 z m 792,-23 q 0,28 -25,54 -37,40 -57,40 l -194,0 q -9,19 18,73 30,60 30,103 0,43 -32,87 -20,28 -80,29 -22,-21 -30,-52 -11,-39 -23,-74 -13,-39 -36,-66 -21,-24 -43,-49 -3,-3 -14.5,-18.5 Q 398,649 390,640 q -8,-9 -21,-26 -21,-24 -26,-27 -15,-7 -18,-13 -1,-1 -27,-16 -9,-5 -22,-5 l -20,0 1,-404 19,0 q 3,0 20,-2 12,-1 20,-4 9,-2 24,-6 15,-3 22,-6 7,-2 22,-8 l 18,-6 Q 532,74 616,74 l 76,0 q 119,0 119,102 0,16 -3,34 19,10 30,32 11,22 11,44 0,22 -11,41 33,30 33,72 0,15 -7,34 -6,19 -15,28 19,0 33,28 14,28 14,49 z m 31,-9 q 0,-50 -27,-91 5,-19 5,-38 0,-43 -22,-81 l 2,-24 Q 885,239 852,196 852,118 804,76 756,34 678,34 l -21,0 -51,0 q -51,0 -106,14 -101,26 -121,32 -74,24 -77,24 l -161,-4 q -70,-1 -71,0 l 0,71 0,358 0,71 q 0,1 71,0 l 155,-1 q 56,55 84,87 44,50 58,72 13,22 27,44 6,9 20,70 11,47 28,64 22,21 39,21 47,0 82,-18 35,-18 54.5,-56.5 Q 708,844 708,779 q 0,-9 -47,-108 l 121,0 q 58,0 101,-42 44,-42 44,-100 z" />
  </g>
</svg>
