<?xml version="1.0" encoding="UTF-8" standalone="no"?>
<svg
   xmlns:dc="http://purl.org/dc/elements/1.1/"
   xmlns:cc="http://creativecommons.org/ns#"
   xmlns:rdf="http://www.w3.org/1999/02/22-rdf-syntax-ns#"
   xmlns:svg="http://www.w3.org/2000/svg"
   xmlns="http://www.w3.org/2000/svg"
   xml:space="preserve"
   style="enable-background:new 0 0 101 101;"
   viewBox="0 0 101 101"
   y="0px"
   x="0px"
   id="svg2"
   version="1.1"><metadata
     id="metadata13"><rdf:RDF><cc:Work
         rdf:about=""><dc:format>image/svg+xml</dc:format><dc:type
           rdf:resource="http://purl.org/dc/dcmitype/StillImage" /><dc:title></dc:title></cc:Work></rdf:RDF></metadata><defs
     id="defs11" /><g
     id="g3"><polygon
       id="polygon5"
       points="50,54.1 25.1,54.1 25.1,59.4 55.1,59.4 55.1,16.8 50,16.8  " /><path
       id="path7"
       d="M86.3,14.7C76.5,5,64.6,0,50.8,0l-0.3,0C36.6,0,24.7,5,14.9,14.7C5,24.6,0,36.6,0,50.5c0,9.1,2.3,17.7,6.8,25.4   c4.5,7.7,10.7,13.9,18.4,18.4c7.7,4.5,16.3,6.8,25.3,6.8c13.9,0,25.9-5,35.8-14.8c9.9-9.8,14.8-21.8,14.7-35.7   C101,36.6,96,24.6,86.3,14.7z M50.6,95.9c-12.4,0-23.2-4.5-32.1-13.4c-8.9-8.9-13.4-19.6-13.4-32c0-12.5,4.5-23.2,13.4-32   C27.4,9.6,38.1,5.1,50.6,5.1s23.2,4.5,32.1,13.4c8.9,8.9,13.3,19.6,13.2,32c0,12.5-4.5,23.2-13.2,32C73.8,91.4,63,95.9,50.6,95.9z" /></g></svg>