<?xml version="1.0" encoding="utf-8"?>
<!-- Generator: Adobe Illustrator 21.1.0, SVG Export Plug-In . SVG Version: 6.00 Build 0)  -->
<svg version="1.1"
	 id="svg2" xmlns:cc="http://creativecommons.org/ns#" xmlns:dc="http://purl.org/dc/elements/1.1/" xmlns:rdf="http://www.w3.org/1999/02/22-rdf-syntax-ns#" xmlns:svg="http://www.w3.org/2000/svg"
	 xmlns="http://www.w3.org/2000/svg" xmlns:xlink="http://www.w3.org/1999/xlink" x="0px" y="0px" viewBox="0 0 1021.7 1021.7"
	 style="enable-background:new 0 0 1021.7 1021.7;" xml:space="preserve">
<path d="M813.8,506.8c-1-3.3-2.7-6.4-5.1-9L510.8,0l-48,80.4l-252,419.7c-1,1.2-1.9,2.9-2.2,5.2c-29.2,52.6-44.3,109.4-45,169.1
	c0,46.7,9.3,92.2,27.7,135.4c18.4,42.4,43.5,79.3,74.5,109.7c30.4,30.4,67.6,55.5,110.7,74.5c42.4,18.4,87.6,27.7,134.3,27.7
	c47.7,0,92.6-8.6,133.4-25.6c40.9-17,78.8-42.8,112.6-76.7c33.9-33.9,59.6-71.7,76.4-112.4c16.8-40.7,25.2-85.3,24.8-132.7
	C857.4,614.5,842.5,558.2,813.8,506.8z M510.8,970.5c-81.7,0-151.8-29.1-208.6-86.5c-57.4-57.4-86.8-127.9-87.5-209.6
	c0-52.5,13.3-102.3,39.4-148.1l1.2-0.6L510.8,98.5l254.8,424.2c0.3,1.2,1,2.5,2,3.7c26.1,45.8,39.7,95.6,40.4,147.9
	c0,81.7-29.4,152.2-87.5,209.6C663.1,941.4,592.5,970.5,510.8,970.5z"/>
</svg>
