<?xml version="1.0" encoding="utf-8"?>
<!-- Generator: Adobe Illustrator 21.1.0, SVG Export Plug-In . SVG Version: 6.00 Build 0)  -->
<svg version="1.1"
	 id="svg2" xmlns:cc="http://creativecommons.org/ns#" xmlns:dc="http://purl.org/dc/elements/1.1/" xmlns:rdf="http://www.w3.org/1999/02/22-rdf-syntax-ns#" xmlns:svg="http://www.w3.org/2000/svg"
	 xmlns="http://www.w3.org/2000/svg" xmlns:xlink="http://www.w3.org/1999/xlink" x="0px" y="0px" viewBox="0 0 1011.4 1011.4"
	 style="enable-background:new 0 0 1011.4 1011.4;" xml:space="preserve">
<g>
	<polygon points="307.7,272.7 353.2,862 406.8,859.1 362.6,269.8 	"/>
	<path d="M703.3,120.5V85.2c0-23.9-9-44.1-26.7-60.1C659.1,8.5,637.7,0,613.2,0H399.5c-24.6,0-46.1,8.5-64.1,25.1
		c-18.1,16.8-27.3,37-27.3,60.1v35.3H94.4v51.2h45l41.9,754.7c0,23.8,9,44,26.7,59.9c17.6,16.7,39.4,25.1,64.7,25.1h469.6
		c24.6,0,46-8.5,63.6-25.2c17.6-16.7,27-36.8,27.9-59.7l41.9-754.9H917v-51.2H703.3z M649.7,85.2v35.3H363V85.2
		c0-9.3,3.1-17.3,9.5-24.5c7.2-6.4,16.1-9.5,27-9.5h213.7c10.2,0,18.6,3.3,25.9,10.2C646.2,68.2,649.7,76,649.7,85.2z M778.9,923.6
		v1.4c0,10.1-3.1,18.1-9.4,24.4c-7.3,6.5-16.3,10.1-27.3,10.9H272.8c-10.2,0-19.1-3.6-27.2-11c-7-6.3-10-13.7-9.3-22.7l0-0.2v-2.9
		l-43.1-751.9h627.7L778.9,923.6z"/>
	<polygon points="607.1,859.1 660.7,862 704.9,271.5 650.1,268.7 	"/>
	<rect x="479.5" y="270.1" width="53.6" height="590.4"/>
</g>
</svg>
