<?xml version="1.0" encoding="utf-8"?>
<!-- Generator: Adobe Illustrator 21.1.0, SVG Export Plug-In . SVG Version: 6.00 Build 0)  -->
<svg version="1.1"
	 id="svg2" xmlns:cc="http://creativecommons.org/ns#" xmlns:dc="http://purl.org/dc/elements/1.1/" xmlns:rdf="http://www.w3.org/1999/02/22-rdf-syntax-ns#" xmlns:svg="http://www.w3.org/2000/svg"
	 xmlns="http://www.w3.org/2000/svg" xmlns:xlink="http://www.w3.org/1999/xlink" x="0px" y="0px" viewBox="0 0 1018.5 1018.5"
	 style="enable-background:new 0 0 1018.5 1018.5;" xml:space="preserve">
<path d="M333,92.8v148.3h-83.1c-12.8,0-22.7,0.1-29.3,0.3c-9.4,0.2-12.9,0.4-15.7,2.6c-14.3,9.4-23,18.3-26.4,27.3L35.2,413.6
	l1.1,75.4v197c-8.4,1.8-16,6-22.7,12.7c-9,9-13.6,20.1-13.6,33c0,7.3,0.8,13.3,2.5,18.5c2,6,5.7,11,11.1,14.9
	c4,2.9,7.5,5.3,10.4,7.1c4,2.5,9.7,4.1,17.4,5l0.5,0.1h0.5c7.6,0,10.5,0.3,11.7,0.4c1.8,0.3,5.5,0.6,16.3,0.6h42.9
	c2,39.2,17.1,73.5,44.9,102l0.1,0.1c30,30,67.1,45.2,110.2,45.2c1,0,1.9,0,2.9,0c41.9,0,78.4-15.2,108.5-45.3
	c28.5-28.5,44-62.8,46-102.1h204c2.1,39.3,17.5,73.6,46,102.1l0.1,0.1c30.7,29.9,68.1,45.1,111.2,45.2c1,0,1.9,0,2.9,0c0,0,0,0,0,0
	c41.9,0,78.4-15.2,108.5-45.3c28.5-28.5,44-62.8,46-102.1h3.4l70.5,1.2V92.8H333z M718.1,699.9c19.8-19.8,42.4-29.4,69.2-29.4
	c26.8,0,50.1,10,71.3,30.5c19.1,19.1,28.4,41.4,28.4,68.1c0,26.7-10,49.7-30.5,70.2c-19.8,19.8-42.4,29.4-69.2,29.4
	c-26.7,0-49.7-9.6-70.2-29.4c-19.2-20.5-28.5-43.5-28.5-70.3C688.6,742.4,698.3,719.7,718.1,699.9z M903.1,664.2l-30.2-23.5
	l-55.5-22.9l-39.1-2.2l-55,12.1L694,649l-38,39.1l-13.8,32.3H420.7L407.4,692l-18.1-28.8l-1.5-2V466.1l-2-322.5
	c0.8-0.1,1.9-0.1,3.2-0.1h575.8v580h-26.6L923.9,696L903.1,664.2z M50.7,729.7l11-4.6l14.3-2.6l10-15l-1.1-42.2l0-38.4l-2-190.1
	l145-147h3.3l103.9,1.9v335.7l0,0.4l-19.8-10.6l-33.5-6.7l-39.9,1.1l-26.7,10l-32.7,15.2l-20.4,18.1l-19.9,26.5l-14.2,31.7
	l-4.6,17.7h-0.7l-21.1-2.1l-46.6,4l-6-2.1L50.7,729.7z M199.4,697.9c21.2-20.5,45.6-30.5,74.4-30.5c26.7,0,49,9.3,68.1,28.4
	c21.9,21.9,32.6,45.2,32.6,71.3c0,28.1-9.9,51.4-30.4,71.2l-0.2,0.2c-19.8,20.4-43.4,30.4-72.2,30.4c-26.8,0-49.4-9.3-69.2-28.4
	c-21.2-21.9-31.5-45.5-31.5-72.3C171,739.9,180.3,717,199.4,697.9z"/>
</svg>
