<?xml version="1.0" encoding="UTF-8" standalone="no"?>
<svg
   xmlns:dc="http://purl.org/dc/elements/1.1/"
   xmlns:cc="http://creativecommons.org/ns#"
   xmlns:rdf="http://www.w3.org/1999/02/22-rdf-syntax-ns#"
   xmlns:svg="http://www.w3.org/2000/svg"
   xmlns="http://www.w3.org/2000/svg"
   xml:space="preserve"
   style="enable-background:new 0 0 101.6 101.6;"
   viewBox="0 0 101.6 101.6"
   y="0px"
   x="0px"
   id="svg2"
   version="1.1"><metadata
     id="metadata9"><rdf:RDF><cc:Work
         rdf:about=""><dc:format>image/svg+xml</dc:format><dc:type
           rdf:resource="http://purl.org/dc/dcmitype/StillImage" /><dc:title></dc:title></cc:Work></rdf:RDF></metadata><defs
     id="defs7" /><path
     id="path3"
     d="M100.6,19.4c-3.2,1.4-6.5,2.3-9.8,2.8c3.7-2.6,6.2-6.1,7.7-10.4l0.4-1.1l-1,0.6c-4,2.3-8.2,4-12.7,4.9  c-4.1-4.3-9.1-6.4-15.1-6.4c-5.8,0-10.8,2.1-14.8,6.1c-4.1,4.1-6.1,9-6.1,14.8c0,1.4,0.1,2.8,0.4,4.2c-8.1-0.5-15.8-2.6-22.9-6.2  c-7.3-3.7-13.5-8.7-18.5-15l-0.4-0.5l-0.3,0.6c-1.9,3.2-2.8,6.8-2.8,10.6c0,3.5,0.8,6.9,2.5,10c1.4,2.6,3.2,4.8,5.4,6.5  c-2.6-0.3-5.1-1.1-7.4-2.4L4.4,38v1c0,5,1.6,9.5,4.8,13.3c2.7,3.3,6.1,5.6,10.1,6.8c-1.1,0.2-2.2,0.3-3.4,0.3  c-1.1,0-2.4-0.1-3.8-0.3l-0.7-0.1l0.2,0.7c1.3,4.2,3.8,7.6,7.3,10.3c3.2,2.4,6.9,3.8,11,4.1C22.7,79.3,14.6,82,5.7,82  c-1.7,0-3.3-0.1-4.8-0.2l-0.3,0.8c9.6,6.2,20.3,9.3,31.8,9.3c7.3,0,14.2-1.2,20.6-3.5c6.4-2.3,12-5.5,16.5-9.4  c4.6-3.9,8.6-8.4,11.9-13.5c3.3-5.1,5.8-10.4,7.4-15.9C90.2,44.2,91,38.6,91,33v-2.4c3.9-2.9,7.3-6.4,10.2-10.6l0.9-1.3L100.6,19.4z   M85.2,32.2c0.1,0.6,0.2,1,0.2,1.4c0.1,2.5-0.1,5.4-0.5,8.6c-0.4,3.1-0.9,5.8-1.6,8c-1,3.4-3.3,7.8-6.7,13c-2.7,4.3-6,8.1-9.8,11.3  c-4.6,4-9.1,6.8-13.6,8.3c-2.6,1-4.6,1.7-5.8,2c-1.2,0.4-2.9,0.9-5.2,1.3c-2.3,0.4-4.4,0.7-6.3,0.7c-8,0-14.3-0.6-18.8-1.7L16.7,85  l0.7-0.1l4.9-1l3.5-1.6l3-1.8l2.2-1.5l2.4-2.1l1.6-1.5l1.3-2.2l0.4-3.5l-0.6,0.1c-1.7,0.3-2.9,0.5-3.6,0.6c-0.3,0-0.7,0.1-1.1,0.1  c-0.5,0-1,0-1.7-0.1c-1.1,0-2.2-0.3-3.2-0.7c-0.6-0.3-1.1-0.6-1.6-0.9c-3.4-2-5.8-3.9-7-5.6l1,0l2.1-0.4l3-1l1.8-0.8L28,60l-1.1-1.6  l-2.3-1.1l-1-0.4l-2.1-1L19.2,55l-2.3-1.4l-1.5-1l-1.6-1.8l-0.9-0.9l-1.3-1.4l-1.4-2.5l-0.8-1.6L9.2,44l0.8,0.3l0.6,0.1l1.5,0.2  l1.8,0.4l2.5-0.2l2.2-0.8l2.2-1.6l-0.5-0.4l-1.1-0.8l-1.1-1.3l-1.4-1.3l-1.5-1.4L14.2,36l-1.3-1.2L12,33.7l-0.9-1.3l-0.7-1.2  c-1.3-3.8-1.9-6.3-1.9-7.4c0-1,0.2-1.8,0.6-2.4c5.6,5.7,11.4,9.9,17.3,12.5c1.8,0.9,3,1.3,3.5,1.4l2,0.4l1.9,0.6l2.3,0.7l2.9,0.7  l1.8,0.5L46,39l4.5,0l1.9-0.3l2.2-0.3l0-1.4l-0.4-2.2l0-0.8l0.1-1.7v-1.4c0-4.3,1.7-8.2,5-11.5c3.2-3.2,7.3-4.8,12-5  c0.5,0.1,1.1,0.2,1.7,0.2c0.6,0.1,1.1,0.2,1.4,0.3c0.3,0.1,0.8,0.3,1.3,0.6l0.7,0.4v-0.2c0.1,0.1,0.2,0.2,0.4,0.3l1.1,1l1,1l0.1,0.1  l0,0c0,0,0.2,0.2,1.1,1.2c0.6,0.7,1,1.1,1.2,1.3l0.2,0.2l0.2,0c3.4-0.6,6.4-1.5,8.8-2.7c-0.9,1.1-1.8,1.9-2.7,2.6  c-1.3,1-3.1,2.3-5.4,3.7l0.3,0.8C83,25,83.4,25,83.9,25c0.6,0,1.4,0.1,2.2,0.2c1.5,0.2,2.8,0.3,3.8,0.4c0.2,0,0.4,0,0.5,0  c0.2,0,0.5,0,0.7,0c-0.7,0.5-1.3,1.1-2,1.9c-2.2,2.4-3.3,3.1-3.9,3.2l-0.4,0.1V31C84.9,31.1,84.9,31.2,85.2,32.2z" /></svg>