<?xml version="1.0" encoding="UTF-8" standalone="no"?>
<svg
   xmlns:dc="http://purl.org/dc/elements/1.1/"
   xmlns:cc="http://creativecommons.org/ns#"
   xmlns:rdf="http://www.w3.org/1999/02/22-rdf-syntax-ns#"
   xmlns:svg="http://www.w3.org/2000/svg"
   xmlns="http://www.w3.org/2000/svg"
   id="svg2"
   viewBox="0 -143 1000 1000"
   version="1.1">
  <metadata
     id="metadata12">
    <rdf:RDF>
      <cc:Work
         rdf:about="">
        <dc:format>image/svg+xml</dc:format>
        <dc:type
           rdf:resource="http://purl.org/dc/dcmitype/StillImage" />
        <dc:title></dc:title>
      </cc:Work>
    </rdf:RDF>
  </metadata>
  <defs
     id="defs10" />
  <g
     id="g4"
     transform="matrix(1.1641444,0,0,-1.1641444,-80.325983,934.99769)">
    <path
       style="fill:currentColor"
       id="path6"
       d="m 280,530 -5,2 -4,2 2,-8 4,-8 10,-12 8,-9 5,-5 11,-11 9,-7 15,-7 15,-5 12,-6 7,-3 13,-8 4,-6 -8,-7 -11,-5 -18,-6 -12,-3 -11,-1 q 6,-8 15,-14 14,-10 27,-17 5,-2 9,-5 10,-4 21,-6 6,0 20,2 6,1 23,4 l -1,-16 -4,-10 -9,-14 -13,-15 -13,-11 -19,-11 -22,-12 -18,-5 -14,-2 -20,-1 17,-3 11,-1 q 15,-2 30,-2 32,0 34,-1 19,-1 37,-1 9,0 33,5 30,7 33,8 15,5 30,11 42,15 80,48 45,39 66,70 30,46 39,78 9,32 11,50 1,27 3,53 0,4 -2,10 0,2 -1,4 -1,2 -1,4 l 0,1 q 11,1 27,18 13,12 19,15 -4,0 -7,-1 -3,-1 -4,-1 l -2,0 -3,0 q 0,0 -6,1 -3,0 -9,1 -5,1 -8,1 -18,2 -28,1 32,20 34,22 1,1 7,5 5,3 8.5,6.5 3.5,3.5 7.5,8.5 -33,-20 -52,-19 l -2,1 q -1,1 -2.5,3 -1.5,2 -2.5,4 -6,7 -8,8 l -6,6 q 0,0 -7,6 l -8,4 q -4,3 -8,4 -4,1 -9,2 -5,1 -11,1 -23,0 -39,-8 -16,-6 -31,-22 -25,-26 -28,-69 l 0,-8 0,-10 0,-5 4,-27 -9,-2 -13,-1 -12,-2 -11,0 -10,1 -31,4 -11,1 -21,5 -14,4 -13,3 -12,3 q -4,1 -22,8 -56,24 -109,80 -1,-5 0,-17 1,-11 13,-41 l 5,-8 6,-6 7,-8 7,-8 8,-6 8,-9 9,-8 3,-2 9,-11 -10,-10 -13,-5 -14,-3 -11,0 -9,2 -4,0 z m 56,-249 z m 505,411 q -61,-24 -83,-26 46,25 60,77 -31,-21 -94,-27 -30,32 -83,32 -55,0 -92,-37 -41,-41 -40,-89 0,-14 3,-29 -66,4 -142,42 -62,32 -112,96 -21,-37 -21,-74 0,-40 12,-60 15,-23 41,-42 -32,1 -55,14 l 0,-1 q 0,-47 28.5,-81.5 Q 292,452 329,443 q -3,-1 -30,-1 -11,0 -23,2 18,-44 45,-66 35,-27 69,-28 -62,-48 -153,-51 -15,0 -31,-1 100,-63 202,-62 67,0 126,22 67,25 106,58 51,45 77,89 28,44 43,97 17,59 16,96 l 0,17 q 28,16 65,77 l 0,0 z m 86,73 0,-536 0,-160 -161,0 -535,0 -161,-2 0,162 0,536 q 0,159 1,161 l 160,0 696,0 0,-2 0,-159 z" />
  </g>
</svg>
