<?xml version="1.0" encoding="utf-8"?>
<!-- Generator: Adobe Illustrator 21.1.0, SVG Export Plug-In . SVG Version: 6.00 Build 0)  -->
<svg version="1.1" id="Layer_1" xmlns="http://www.w3.org/2000/svg" xmlns:xlink="http://www.w3.org/1999/xlink" x="0px" y="0px"
	 viewBox="0 0 1000 1000" style="enable-background:new 0 0 1000 1000;" xml:space="preserve">
<g>
	<path d="M781.8,478V351.3h0.2V324v-43L502.9,1.9L501,3.8V0h-50.5h-400H0v50.5v898.9V998v2h731.2H781h0.8V846H999V478H781.8z
		 M501,71.5l229.2,229.2H501V71.5z M731.2,949.5H50.5v-899h400v250.2V328v23.3h280.7V478H307v368h424.2V949.5z M948.5,794L948.5,794
		H357.6V530h590.9V794z"/>
	<polygon points="438.7,755.5 475.3,755.5 475.3,601.5 526.9,601.5 526.9,573.3 387.4,573.3 387.4,601.5 438.7,601.5 	"/>
	<polygon points="610.5,755.5 645.8,689.9 680.9,755.5 725.1,755.5 667.9,663.7 722,573.3 679.4,573.3 645.2,637.9 611.6,573.3 
		569.3,573.3 623.3,663.7 567.9,755.5 	"/>
	<polygon points="815.7,755.5 852.3,755.5 852.3,601.5 903.9,601.5 903.9,573.3 764.5,573.3 764.5,601.5 815.7,601.5 	"/>
</g>
</svg>
