<?xml version="1.0" encoding="utf-8"?>
<!-- Generator: Adobe Illustrator 21.1.0, SVG Export Plug-In . SVG Version: 6.00 Build 0)  -->
<svg version="1.1"
	 id="svg2" xmlns:cc="http://creativecommons.org/ns#" xmlns:dc="http://purl.org/dc/elements/1.1/" xmlns:rdf="http://www.w3.org/1999/02/22-rdf-syntax-ns#" xmlns:svg="http://www.w3.org/2000/svg"
	 xmlns="http://www.w3.org/2000/svg" xmlns:xlink="http://www.w3.org/1999/xlink" x="0px" y="0px" viewBox="0 0 1009.1 1009.1"
	 style="enable-background:new 0 0 1009.1 1009.1;" xml:space="preserve">
<path d="M985.9,464.7l-5-32.8l-6.3-25.3L961.9,365l-20.2-42.9l-30.2-50.4l-27.8-35.4L842,197.2L793,160.7l-39.2-24l-70.5-29
	l-70.4-18.9L553.6,80h-21.2l-3.2-0.5l2.4-55.6l-4.5-13.4l-10.7-7.6l-13.4-3L486.2,6l-7.3,17.6v58.9h-10.6l-31.6,1.3l-39.1,6.3
	l-41.6,7.6l-38,13.9l-45,20L234,147.9l-45.7,30.5l-24,25.3l-30,30l-29,30.2l-27.8,40.4l-26.6,48.2l-11.4,48L25.8,452l-5.1,54.4
	l1.3,25.6l13.8,15.3l17-1.5l13.9-8.4l10.4-11.7l10.9-12.1l17.1-12.2l14.6-11l20.6-8.5l25.7-8.6l28-3.7h30.4l20.6,4.8l26.8,8.5
	l26.5,15.7l15.8,15.8l27.7,30.2l6.5,4.9h10l11.6-5.8l9.5-9.5l16.1-22.3l19.1-15.6l26.7-13.3l38.8-11.9V847l-2.5,24.8l-1.2,14.3
	l-9.6,23.9l-9.4,14L437,941.1l-15.5,10.7l-16.6,4.7l-23.8,4.8l-21.1-5.9l-25.7-12.2l-17.6-10.5l-13.2-22.9l-10.8-15.6l-3.5-21.1
	v-12.8l-6.1-18.4l-14.9-1.7l-20.6,5.9l-8.6,27.1l9.2,47.1l18.2,23.4l24.2,26.8l25.6,16.7l21.8,11.6l23.2,6.5l28.5,3.9l38.6-7.7
	l27.3-10.4l24.5-20.7l23.1-25.6l19.3-38.6l7.7-44.7V472l16.8,3.7l20.7,7.3l22,11l22.8,15.6l20.1,27.6l13.9,8.3l13.3,3l11-4.7
	l6.9-8.3l8.7-9.9l16-17.3l18.3-15.8l18.1-10.9l16.8-7.2l26.6-6h26.7l26.7,3.6l30.6,11l30.6,14.7l30.6,23.3l16.1,16.1l12.2,10.9
	l8.5,1.7l10.7-3.1l8.9-7.4l4.6-9.3v-41.2L985.9,464.7z M353.9,481.8l-22.6-21.3L307,445.1l-17.8-8.9l-26.8-11.5l-20.7-3.9l-34.2-2.5
	l-33.2,1.3l-35.6,8.9l-27.8,10.1l-25.6,11.5L75,458.4l4.5-29.6l11-36.8l18.5-38.3l16.1-28.4l27.2-39.6l30.8-34.5l34.5-29.6
	l28.5-18.6l17.3-12.3l34.5-17.3l26-11.1l30.9-11.1l61.8-17.3l28.5-1.2l22.3-3.7l29.7,1.2l33.7-1.2l18.4,1.2l42.1,5l28.4,6.2
	l45.8,12.4l39.6,16.1l30.9,13.6l29.6,18.5l37.1,27.2l30.8,28.3l24.7,29.7l19.8,25.9l17.2,29.6l13.6,28.5l13.6,32.2l6,19.4l3.7,33.4
	l1.5,8.3l-8.2-7.6l-38.2-19.1l-24.2-8.9l-29.2-6.4l-21.7-2.6h-24.2l-22.9,2.5l-24.3,5.1l-28,11.5l-21.8,11.5l-16.9,13l-18.4,20.5
	l-10.6-10.6l-22.9-17.8l-24.1-14l-24.2-11.5l-26.9-7.7l-20.6-2.6h-38.2l-19.3,3.9l-34.1,7.6l-23.1,10.3l-31.9,19.1L362.9,477
	l-7.2,6.3L353.9,481.8z"/>
</svg>
