<?xml version="1.0" encoding="utf-8"?>
<!-- Generator: Adobe Illustrator 21.1.0, SVG Export Plug-In . SVG Version: 6.00 Build 0)  -->
<svg version="1.1"
	 id="svg2" xmlns:cc="http://creativecommons.org/ns#" xmlns:dc="http://purl.org/dc/elements/1.1/" xmlns:rdf="http://www.w3.org/1999/02/22-rdf-syntax-ns#" xmlns:svg="http://www.w3.org/2000/svg"
	 xmlns="http://www.w3.org/2000/svg" xmlns:xlink="http://www.w3.org/1999/xlink" x="0px" y="0px" viewBox="0 0 1008.5 1008.5"
	 style="enable-background:new 0 0 1008.5 1008.5;" xml:space="preserve">
<g>
	<path d="M176.2,252.2v215.9c0,99.1,2.3,159.2,7.1,183.9l9.4,63.2l0.1,0.3c12.7,44.5,49.5,83.8,109.4,116.9
		c37,20.5,99.7,30.9,186.4,30.9c3.2,0,6.4,0.1,9.6,0.1c60,0,113.3-7.2,158.6-21.2c46.2-14.1,86.3-33.9,119.1-59
		c18.3-13.5,37.5-37.9,57.2-72.6c11-20.5,19.8-47.6,26.1-80.5c10.9-54.5,14.5-121.6,10.6-199.4c-6.2-121.6-10.9-208.4-14-257.9
		l-1.2-18.5v-15.1l-3.3-62.4l81.2-4.6l2.8-45.6l-214.1-2.4v49.3l78.3,1.2l1,26.3l2.3,95.8c2.3,45.1,5.5,80.2,9.4,104.3
		c2.3,14.5,4.2,41.5,5.8,80c1.5,38.7,2.3,66.5,2.3,82.7c0,73.9-3.5,123.8-10.3,148.2c-20.9,75-34.8,97.9-42.9,104
		c-22.3,17.5-36.4,31.6-43,43c-2.9,4-15.5,12.7-66.4,27.4c-65.4,18.5-107.5,27.8-124.9,27.8c-99.2,0-163.3-7.3-190.6-21.7
		c-49.9-26.1-79.8-43.9-88.8-52.9c-10.6-10.6-23.5-50.1-24.4-177.9l-2.3-181.9l1.2-149.5l-1.2-16.4v-20.8l1.1-121.8H321l2.8-49.3
		l-227-1.2v49.3l81.6,1.2L176.2,252.2z"/>
	<rect y="938.7" width="1008.5" height="49.3"/>
</g>
</svg>
