<?xml version="1.0" encoding="UTF-8" standalone="no"?>
<svg
   xmlns:dc="http://purl.org/dc/elements/1.1/"
   xmlns:cc="http://creativecommons.org/ns#"
   xmlns:rdf="http://www.w3.org/1999/02/22-rdf-syntax-ns#"
   xmlns:svg="http://www.w3.org/2000/svg"
   xmlns="http://www.w3.org/2000/svg"
   id="svg2"
   viewBox="0 -143 1000 1000"
   version="1.1">
  <metadata
     id="metadata12">
    <rdf:RDF>
      <cc:Work
         rdf:about="">
        <dc:format>image/svg+xml</dc:format>
        <dc:type
           rdf:resource="http://purl.org/dc/dcmitype/StillImage" />
        <dc:title></dc:title>
      </cc:Work>
    </rdf:RDF>
  </metadata>
  <defs
     id="defs10" />
  <g
     id="g4"
     transform="matrix(1.0526316,0,0,-1.0526316,-42.105274,880.68422)">
    <path
       style="fill:currentColor"
       id="path6"
       d="m 956,826 q 0,27 -20,46 -20,19 -46,19 l -750,0 Q 113,891 94,872 75,852 75,826 l 0,-658 q 0,-27 19,-46 21,-20 46,-20 l 750,0 q 27,0 46,20 20,21 20,46 l 0,658 z M 530,522 q 0,7 -5,12 -4,4 -11,4 -33,0 -56,-23 -24,-24 -22,-56 0,-7 4,-11 4,-5 11,-4 7,0 11,4 4,4 5,11 0,20 13,34 14,14 34,14 7,0 11,4 5,4 5,11 z M 673,458.5 Q 673,393 627,347 581,301 515,301 449,301 402.5,347 356,393 356,458.5 q 0,65.5 47,112.5 46,46 112,47 66,0 112,-47 46,-47 46,-112.5 z M 142,173 l 741,0 0,33 -741,0 0,-33 z m 561,285 q 0,78 -56,134 -56,55 -133,55 -78,0 -133,-55 -56,-55 -55,-134 0,-78 55,-133 55,-55 133,-55 78,0 133.5,55 55.5,55 55.5,133 z m -526,333 186,0 0,32 -186,0 0,-32 z m -38,-74 341,0 43,75 367,-1 0,-4 0,34 -390,0 -35,-72 -326,0 0,-32 z m 851,137 0,-714 Q 990,110 969,90 948,69 919,69 L 111,69 Q 81,69 61,90 40,111 40,140 l 0,714 q 0,30 21,51 21,21 50,21 l 808,0 q 30,0 50,-21 21,-21 21,-51 z" />
  </g>
</svg>
