<?xml version="1.0" encoding="UTF-8" standalone="no"?>
<svg
   xmlns:dc="http://purl.org/dc/elements/1.1/"
   xmlns:cc="http://creativecommons.org/ns#"
   xmlns:rdf="http://www.w3.org/1999/02/22-rdf-syntax-ns#"
   xmlns:svg="http://www.w3.org/2000/svg"
   xmlns="http://www.w3.org/2000/svg"
   xml:space="preserve"
   style="enable-background:new 0 0 1012 1012;"
   viewBox="0 0 1012 1012"
   y="0px"
   x="0px"
   id="svg2"
   version="1.1"><metadata
     id="metadata8"><rdf:RDF><cc:Work
         rdf:about=""><dc:format>image/svg+xml</dc:format><dc:type
           rdf:resource="http://purl.org/dc/dcmitype/StillImage" /><dc:title></dc:title></cc:Work></rdf:RDF></metadata><defs
     id="defs6" /><path
     d="M936.7,88.8c-49.9-50-110.4-75.3-179.8-75.3c-70.2,0-131.3,25.1-181.6,74.7c-49.6,49.6-75.1,110.6-75.8,181.6  v211.7H184.8V481h-51.2v0.5H0V1012h780.8V481.5H550.7V269.8c0-56.4,20.2-105.2,60-145s88.8-60,145.6-60c56.8,0,105.8,20.2,145.6,60  s60,88.6,60,145V493h50.1V269.8C1012,199.6,986.7,138.7,936.7,88.8z M730.7,961.8H50.2V531.6h680.5V961.8z"
     id="path3" /></svg>