<?xml version="1.0" encoding="utf-8"?>
<!-- Generator: Adobe Illustrator 21.1.0, SVG Export Plug-In . SVG Version: 6.00 Build 0)  -->
<svg version="1.1"
	 id="svg2" xmlns:cc="http://creativecommons.org/ns#" xmlns:dc="http://purl.org/dc/elements/1.1/" xmlns:rdf="http://www.w3.org/1999/02/22-rdf-syntax-ns#" xmlns:svg="http://www.w3.org/2000/svg"
	 xmlns="http://www.w3.org/2000/svg" xmlns:xlink="http://www.w3.org/1999/xlink" x="0px" y="0px" viewBox="0 0 101.6 101.6"
	 style="enable-background:new 0 0 101.6 101.6;" xml:space="preserve">
<g id="g3">
	<path id="path5" d="M86.6,14.9C76.8,5,64.9,0,51.4,0c-1.5,0-3.1,0.1-4.7,0.2c-12.4,1.1-23,6-31.8,14.7C5,24.7,0,36.8,0,50.8
		s5,26.1,14.9,36c9.8,9.8,21.9,14.8,35.8,14.8s26-5,35.9-14.8c9.8-9.8,14.9-21.9,14.9-35.9C101.6,36.9,96.6,24.8,86.6,14.9z
		 M96.6,50.8c0,12.6-4.5,23.5-13.4,32.4S63.4,96.6,50.8,96.6h-0.2c-12.6,0-23.4-4.5-32.3-13.4C9.5,74.3,5,63.4,5,50.8
		s4.5-23.5,13.4-32.4C27.2,9.5,38.1,5,50.7,5c12.7,0,23.6,4.5,32.5,13.4C92.1,27.2,96.6,38.1,96.6,50.8z"/>
	<polygon id="polygon7" points="30.1,44 33.5,47.5 48.7,32.4 48.7,73.4 53.6,73.4 53.6,32.4 68.8,47.5 72.3,44 51.2,22.9 	"/>
</g>
</svg>
