<?xml version="1.0" encoding="utf-8"?>
<!-- Generator: Adobe Illustrator 21.1.0, SVG Export Plug-In . SVG Version: 6.00 Build 0)  -->
<svg version="1.1"
	 id="svg2" xmlns:cc="http://creativecommons.org/ns#" xmlns:dc="http://purl.org/dc/elements/1.1/" xmlns:rdf="http://www.w3.org/1999/02/22-rdf-syntax-ns#" xmlns:svg="http://www.w3.org/2000/svg"
	 xmlns="http://www.w3.org/2000/svg" xmlns:xlink="http://www.w3.org/1999/xlink" x="0px" y="0px" viewBox="0 0 1012.4 1012.4"
	 style="enable-background:new 0 0 1012.4 1012.4;" xml:space="preserve">
<g>
	<path d="M753.9,761.8l-0.5-0.1h-7c-0.9-0.1-1.8-0.1-2.6-0.1c-10.5,0-20.2,4.4-28.9,13.1c-8.6,8.6-13,19-13,31.1
		c-0.8,12.3,3.4,22.9,12.6,31.6c9,8.6,19.7,12.9,31.7,12.9c12.1,0,22.6-4.4,31.3-13c8.6-8.6,13-19.2,13-31.3
		C790.4,781.4,777.8,766.1,753.9,761.8z"/>
	<polygon points="456.3,142.2 456.3,584.1 506.8,584.1 506.8,142.2 649.6,283.9 685.5,249.6 481.5,44.5 276.4,249.7 313.5,283.8 	
		"/>
	<path d="M861.6,761.7c-12.9,0-23.4,4.4-31.3,13c-9.4,8.6-14.1,19.1-14.1,31.3v0.2v0.2c0.8,11.9,5.6,22.2,14,30.7
		c7.9,8.7,18.5,13.1,31.4,13.1c12.1,0,22.6-4.4,31.3-13c8.6-8.6,13-19.2,13-31.3s-4.4-22.6-13-31.3
		C884.2,766.1,873.7,761.7,861.6,761.7z"/>
	<path d="M762.4,581.2l-135.7,78.5H353.4l-114.3-78.5H26.6L0,579.8v388.1h1012.4V581.2H762.4z M50.5,628.3l163.5-1.1l121.1,79.6
		l301.6-1.1l141.2-76.2h184l1.1,287.9H50.5V628.3z"/>
</g>
</svg>
