<?xml version="1.0" encoding="UTF-8" standalone="no"?>
<svg
   xmlns:dc="http://purl.org/dc/elements/1.1/"
   xmlns:cc="http://creativecommons.org/ns#"
   xmlns:rdf="http://www.w3.org/1999/02/22-rdf-syntax-ns#"
   xmlns:svg="http://www.w3.org/2000/svg"
   xmlns="http://www.w3.org/2000/svg"
   version="1.1"
   id="svg2"
   x="0px"
   y="0px"
   viewBox="0 0 100 100"
   style="enable-background:new 0 0 100 100;"
   xml:space="preserve"><metadata
     id="metadata11"><rdf:RDF><cc:Work
         rdf:about=""><dc:format>image/svg+xml</dc:format><dc:type
           rdf:resource="http://purl.org/dc/dcmitype/StillImage" /><dc:title></dc:title></cc:Work></rdf:RDF></metadata><defs
     id="defs9" /><g
     id="g4"
     transform="matrix(1.214326,0,0,-1.214326,-104.73932,962.03668)"><path
       d="M127.3,709.4c-11.4,0-21.2,4.1-29.3,12.2c-8,8.1-12.1,18-12.1,29.4c0,11.4,4.1,21.3,12.2,29.4c8.1,8.1,18,12.2,29.4,12.2   c11.4,0,21.3-4.1,29.4-12.2c8.1-8.1,12.2-18,12.2-29.4c0.1-11.4-4-21.3-12.1-29.4c-8-8-17.9-12.1-29.4-12.2H127.3z M101.7,723.9   c7.2-6.8,15.8-10.2,25.7-10.2c10,0,18.7,3.5,25.9,10.4c-5.1,2-10.5,3.8-16.2,5.5c-2.1,0.7-3.2,2.7-3.2,5.8c0,1.8,0.6,3.9,1.6,6.3   c0.9,1.8,1.4,3.7,1.6,5.6c0.1,0.6,0.3,1.1,0.7,1.5c0.8,0.6,1.5,2.2,2,4.8c0.3,1.6,0.4,2.7,0.1,3.4c-0.1,0.2-0.2,0.5-0.3,0.7   c-0.4,1.8-0.2,4.8,0.6,9.4c0.4,2.3-0.4,4.7-2.2,7.1c-1.9,2.4-4.9,3.8-8.7,4.1l-3.2,0c-3.8-0.2-6.7-1.6-8.6-4.1   c-1.9-2.4-2.7-4.8-2.2-7.1c0.9-4.6,1.1-7.6,0.6-9.4l0-0.1l0,0c-0.1-0.2-0.2-0.4-0.2-0.6c-0.3-0.7-0.2-1.8,0.1-3.4   c0.5-2.5,1.2-4.1,2-4.8c0.4-0.4,0.6-0.9,0.6-1.5c0.3-1.8,0.8-3.7,1.7-5.6c0.7-1.5,1-3.6,1-6.3c0-3.2-1.1-5.2-3.2-5.9   C112.4,727.8,107,726,101.7,723.9z M127.4,788.4c-10.3,0-19.1-3.7-26.4-10.9c-7.3-7.3-11-16.2-11-26.5c0-9,2.9-17,8.7-23.9   c5,2.2,11,4.3,17.9,6.3c0,0,0,0,0,0c0,0,0.2,0.2,0.2,1.8c-0.1,1.9-0.3,3.4-0.8,4.5c-0.9,2-1.5,4.1-1.8,6.3   c-1.2,1.4-2.1,3.7-2.7,6.6c-0.5,2.4-0.4,4.3,0.1,5.7c0.1,0.1,0.1,0.2,0.1,0.2c0.3,1.3,0.1,3.9-0.6,7.6c-0.6,3.5,0.4,7,3.1,10.4   c2.7,3.5,6.7,5.4,11.8,5.8l3.4,0c5.2-0.3,9.2-2.3,11.9-5.8c2.7-3.3,3.7-6.8,3.1-10.4c-0.7-3.6-0.9-6.1-0.7-7.4   c0.1-0.1,0.2-0.3,0.2-0.4c0.5-1.4,0.5-3.3,0-5.7c-0.6-2.9-1.5-5.1-2.7-6.6c-0.3-2.2-0.9-4.3-1.8-6.3c-0.8-1.8-1.3-3.3-1.3-4.5   c0.1-1.5,0.3-1.7,0.3-1.8c6.9-2.1,13-4.2,17.9-6.2c5.6,6.9,8.5,14.8,8.5,23.7c0,10.3-3.7,19.2-11,26.4   C146.6,784.7,137.7,788.4,127.4,788.4z"
       id="path4" /><path
       id="path6"
       d="M127.4,792.3c-11.4,0-21.1-4-29.1-12.1c-8-8.1-12.1-17.8-12.1-29.2s4-21.1,12-29.2c8.1-8.1,17.8-12.1,29.2-12.1   s21.1,4.1,29.1,12.1c8.1,8.1,12.1,17.8,12,29.2c0,11.4-4,21.1-12.1,29.2C148.5,788.3,138.8,792.3,127.4,792.3L127.4,792.3z    M127.4,788.8c10.4,0,19.3-3.7,26.7-11.1s11.1-16.3,11.1-26.7c0-9.1-2.9-17.1-8.7-24.1c-5,2.1-11.1,4.2-18.1,6.3   c-0.3,0.1-0.5,0.8-0.6,2.1c0,1.2,0.4,2.7,1.3,4.6c0.9,2,1.5,4.1,1.8,6.3c1.2,1.4,2.1,3.6,2.7,6.5c0.5,2.3,0.5,4.2,0,5.5   c-0.1,0.2-0.1,0.3-0.2,0.3c-0.3,1.3,0,3.9,0.7,7.7c0.6,3.5-0.4,6.8-3,10.1c-2.7,3.4-6.5,5.3-11.6,5.6H126c-5-0.3-8.8-2.2-11.5-5.6   c-2.6-3.3-3.6-6.7-3-10.1c0.7-3.8,0.9-6.4,0.6-7.7c0-0.1,0-0.2-0.1-0.3c-0.5-1.3-0.6-3.2-0.1-5.5c0.6-2.9,1.5-5.1,2.7-6.5   c0.3-2.2,0.9-4.3,1.8-6.3c0.5-1.1,0.7-2.6,0.8-4.6c0-1.3-0.2-2.1-0.5-2.2c-7-2.1-13.1-4.2-18.1-6.4c-5.9,7-8.9,15.1-8.9,24.3   c0,10.4,3.7,19.3,11.1,26.7C108.1,785.1,117,788.8,127.4,788.8L127.4,788.8L127.4,788.8z M101.1,724c5.4,2.2,11,4.1,16.6,5.8   c1.9,0.6,2.9,2.4,2.9,5.5c0,2.6-0.3,4.6-1,6.1c-0.9,1.9-1.4,3.8-1.7,5.7c0,0.5-0.2,0.9-0.5,1.2c-0.9,0.7-1.6,2.4-2.1,5   c-0.3,1.7-0.4,2.9-0.1,3.6c0.1,0.3,0.2,0.5,0.3,0.7c0.5,1.7,0.3,4.7-0.6,9.2c-0.5,2.5,0.3,4.9,2.3,7.4c2,2.6,5,4,8.9,4.2h3.2   c4-0.3,7-1.7,9-4.2c1.9-2.5,2.7-5,2.3-7.4c-0.8-4.5-1-7.5-0.6-9.2c0.1-0.2,0.2-0.4,0.3-0.7c0.3-0.7,0.2-1.9-0.1-3.6   c-0.5-2.7-1.2-4.3-2.1-5c-0.3-0.3-0.5-0.7-0.6-1.2c-0.1-1.9-0.7-3.8-1.6-5.7c-1.1-2.3-1.6-4.4-1.6-6.1c0-2.9,1-4.7,2.9-5.4   c5.9-1.7,11.5-3.6,16.7-5.7c-7.3-7.3-16.2-10.9-26.5-10.9C117.2,713.3,108.4,716.8,101.1,724L101.1,724L101.1,724z" /></g></svg>