<?xml version="1.0" encoding="UTF-8" standalone="no"?>
<svg
   xmlns:dc="http://purl.org/dc/elements/1.1/"
   xmlns:cc="http://creativecommons.org/ns#"
   xmlns:rdf="http://www.w3.org/1999/02/22-rdf-syntax-ns#"
   xmlns:svg="http://www.w3.org/2000/svg"
   xmlns="http://www.w3.org/2000/svg"
   height="1000"
   width="1000"
   xml:space="preserve"
   viewBox="0 0 1000 1000"
   y="0px"
   x="0px"
   id="icons"
   version="1.1"><metadata
     id="metadata11"><rdf:RDF><cc:Work
         rdf:about=""><dc:format>image/svg+xml</dc:format><dc:type
           rdf:resource="http://purl.org/dc/dcmitype/StillImage" /><dc:title>Icons</dc:title></cc:Work></rdf:RDF></metadata><defs
     id="defs9" /><title
     id="title3">Icons</title><path
     id="path5"
     d="M 500,5 C 225.46218,5 5,225.46218 5,500 5,774.53782 225.46218,995 500,995 774.53782,995 995,774.53782 995,500 995,225.46218 770.37815,5 500,5 Z m 0,54.07563 c 245.42017,0 440.92437,195.5042 440.92437,440.92437 0,49.91597 -8.31933,95.67227 -20.79832,137.26891 -24.95798,-95.67227 -70.71429,-158.06723 -141.42857,-191.34454 0,-4.15966 4.15966,-8.31933 4.15966,-12.47899 8.31933,-24.95799 12.47899,-54.07563 16.63866,-79.03362 0,-120.63025 -99.83193,-220.46218 -220.46219,-220.46218 -79.03361,0 -145.58823,41.59664 -183.02521,103.9916 0,0 0,0 0,0 -128.94958,0 -232.94117,103.99159 -232.94117,232.94117 0,29.11765 4.15966,58.2353 16.63865,87.35294 0,4.15967 4.15967,8.31933 4.15967,12.479 -37.43698,16.63865 -66.55463,41.59663 -91.512609,74.87395 C 75.714286,599.83193 63.235294,545.7563 63.235294,495.84034 59.07563,254.57983 254.57983,59.07563 500,59.07563 Z m -49.91597,191.34454 c 29.11765,-41.59664 74.87395,-66.55462 128.94958,-66.55462 95.67227,0 170.54622,91.5126 166.38656,195.5042 -4.15967,83.19328 -58.2353,153.90756 -128.94958,170.54622 8.31933,-24.95799 12.47899,-45.75631 12.47899,-70.71429 C 624.78992,366.89076 549.91597,275.37815 450.08403,250.42017 Z m -58.23529,41.59664 c 103.9916,0 183.02521,95.67227 178.86555,207.98319 C 566.55462,603.9916 487.52101,687.18487 396.0084,687.18487 304.4958,687.18487 221.30252,608.15126 212.98319,500 208.82353,387.68908 287.85714,292.01681 391.84874,292.01681 Z M 108.9916,707.98319 c 37.43697,-74.87395 83.19327,-95.67227 83.19327,-95.67227 l 16.63866,20.79832 c 37.43697,62.39496 108.15126,103.9916 183.02521,108.15126 74.87395,-4.15966 141.42857,-41.59663 183.02521,-108.15126 0,-4.15966 4.15966,-8.31932 4.15966,-12.47899 l 8.31933,-12.47899 c 91.51261,29.11765 124.78992,149.7479 137.26891,270.37815 C 658.06723,915.96639 583.19328,940.92437 500,940.92437 c -170.54622,0 -316.13445,-95.67227 -391.0084,-232.94118 z M 770.37815,845.2521 C 753.7395,724.62185 707.98319,637.26891 641.42857,591.51261 c 41.59664,-16.63866 83.19328,-45.75631 103.9916,-87.35295 0,-4.15966 4.15966,-8.31932 4.15966,-12.47899 l 8.31933,-12.47899 c 79.03361,24.95798 112.31092,128.94958 124.78992,232.94118 -29.11765,49.91596 -66.55463,95.67227 -112.31093,133.10924 z" /></svg>