<?xml version="1.0" encoding="UTF-8" standalone="no"?>
<svg
   xmlns:dc="http://purl.org/dc/elements/1.1/"
   xmlns:cc="http://creativecommons.org/ns#"
   xmlns:rdf="http://www.w3.org/1999/02/22-rdf-syntax-ns#"
   xmlns:svg="http://www.w3.org/2000/svg"
   xmlns="http://www.w3.org/2000/svg"
   xml:space="preserve"
   style="enable-background:new 0 0 943.2 943.2;"
   viewBox="0 0 943.2 943.2"
   y="0px"
   x="0px"
   id="icons"
   version="1.1"><metadata
     id="metadata9"><rdf:RDF><cc:Work
         rdf:about=""><dc:format>image/svg+xml</dc:format><dc:type
           rdf:resource="http://purl.org/dc/dcmitype/StillImage" /><dc:title>Icons</dc:title></cc:Work></rdf:RDF></metadata><defs
     id="defs7" /><title
     id="title3">Icons</title><path
     d="M687.8,334c0-3.9,3.9-7.9,3.9-11.8c7.9-27.5,15.7-59,15.7-86.5C707.4,106.1,601.3,0,471.6,0  S235.8,106.1,235.8,235.8c0,31.4,3.9,58.9,15.7,86.5c0,3.9,3.9,7.9,3.9,11.8C133.6,385.1,78.6,530.5,78.6,770.3v94.3  c0,43.2,35.4,78.6,78.6,78.6H786c43.2,0,78.6-35.4,78.6-78.6v-94.3C864.6,530.5,809.6,385.1,687.8,334L687.8,334z M471.6,51.1  c106.1,0,184.7,98.2,180.8,208.3C648.5,365.5,569.8,448,475.5,448s-176.9-78.6-180.8-188.6C286.9,149.3,365.5,51.1,471.6,51.1z   M809.6,868.5c0,7.9-3.9,11.8-7.9,15.7l0,0l0,0c-3.9,3.9-11.8,7.9-19.6,7.9h-617c-15.7,0-27.5-11.8-27.5-27.5v-31.4  C102.2,448,275.1,373.3,275.1,373.3l15.7,19.7c39.3,62.9,106.1,106.1,180.8,110c74.7-3.9,141.5-43.2,180.8-106.1  c3.2-3.9,5.7-10,8.9-15.3l6.8-12.2c149.3,47.2,145.4,365.5,141.5,467.7V868.5z"
     id="path5" /></svg>