<?xml version="1.0" encoding="utf-8"?>
<!-- Generator: Adobe Illustrator 21.1.0, SVG Export Plug-In . SVG Version: 6.00 Build 0)  -->
<svg version="1.1"
	 id="svg2" xmlns:cc="http://creativecommons.org/ns#" xmlns:dc="http://purl.org/dc/elements/1.1/" xmlns:rdf="http://www.w3.org/1999/02/22-rdf-syntax-ns#" xmlns:svg="http://www.w3.org/2000/svg"
	 xmlns="http://www.w3.org/2000/svg" xmlns:xlink="http://www.w3.org/1999/xlink" x="0px" y="0px" viewBox="0 0 1013.7 1013.7"
	 style="enable-background:new 0 0 1013.7 1013.7;" xml:space="preserve">
<g>
	<path d="M506.9,514.3c70,0,130.9-25.6,181.1-76.1c50.1-50.5,75.5-111.6,75.5-181.6c0-70.8-25.4-131.7-75.5-181
		C638.6,25.4,577.7,0,506.9,0c-70.8,0-132.1,25.4-182.2,75.5c-50.1,49.3-75.6,110.3-75.6,181.1c0,70.8,25.4,132.1,75.5,182.2
		S436.1,514.3,506.9,514.3z M295.5,256.6c0.8-57.8,21.7-107.6,62.2-148.1c40.5-40.5,90.3-61,148-61c57.7,0,107.8,20.5,148.6,61
		c40.9,40.5,61.6,90.3,61.6,148c0,57-20.9,106.8-62.2,148c-40.5,40.5-90.3,61-148,61c-57.7,0-107.5-20.5-148-61
		C316.4,363.3,295.5,313.5,295.5,256.6z"/>
	<path d="M969.9,770.1c-1.6-22.3-4.7-46.3-9.4-71.4c-4.7-25.1-10.7-48.9-17.7-70.8c-7.1-22.9-16.7-45-28.6-65.5
		c-11.9-21.5-26.1-39.7-42.1-54.1c-15.4-15.3-34.8-27.6-57.7-36.4c-22.9-8.8-48.2-13.3-75.4-13.3c-4.1,0-10.7,1.8-31.7,15.1
		l-0.1,0.1c-13.9,9.3-29.6,19.9-46.6,31.5c-16.5,10.5-39.5,20.4-68.3,29.5l-0.2,0.1c-27.9,9.8-56.5,14.8-85.1,14.8
		c-27.2-0.8-56.5-5.8-86.9-14.9c-26.4-7.5-48.8-17.4-66.8-29.4c-17.1-12.5-33.4-23.1-48.2-31.7c-20.9-13.2-27.5-15-31.6-15
		c-27.2,0-52.4,4.5-74.9,13.3c-22.5,8.8-42,21.1-58.2,36.4c-16,14.4-30.2,32.7-42.2,54.2c-11.8,21.3-21.3,43.2-28,64.9
		c-6.7,21.6-12.4,45.6-17.1,71.4c-4.7,25-7.9,49.3-9.4,72c-1.6,21.8-2.3,44.7-2.4,68.1C40.6,891,57,933.9,90.2,966.2
		c32.3,31.5,76.7,47.5,132,47.5h569.4c54.5,0,98.5-16,130.7-47.4c33.2-31.5,50-74.4,50-127.5C972.3,815.4,971.5,792.3,969.9,770.1z
		 M92.5,771.6c1.5-20.7,4.2-42.4,8.1-64.6c4.6-23,10-44.7,16.1-64.5c6-18.9,14.5-37.7,25.1-55.8l0.1-0.2l0.1-0.2
		c8.2-16.3,19.9-31.8,34.7-45.9c13.2-12.5,29.6-22.5,48.8-30c8.6-2.3,16.1-3.4,22.5-3.4c1.5,0,3.1,0.1,4.5,0.2
		c7.4,0.7,19.1,4.4,34.6,11.1c11.3,5.3,20.1,9.8,26,13.6c12.3,7.7,26.8,17.1,43.1,27.9c18.3,12,40.5,22,65.9,30l0.1,0
		c30,8.7,58.2,13.1,83.6,13.1c27.8,0,55.6-4.4,82.6-13.2c26.9-8.7,49.1-18.8,65.9-30l0.2-0.1l0.2-0.1c5.9-4.4,13.9-9.4,23.6-14.6
		c10.1-5.4,16.3-8.9,19-10.7c5.1-2.9,10.5-5.4,16.3-7.6l0.5-0.2l8.8-5l0.2-0.1c14.5-9.4,26.4-14.6,35.3-15.2
		c1.4-0.1,2.8-0.1,4.1-0.1c7.8,0,15,1.7,21.3,5.2l0.4,0.2l0.4,0.2c18.6,7.4,34.7,17.6,48,30.1l0.1,0.1
		c15.7,14.2,27.7,29.2,35.9,44.8l0.1,0.2l0.1,0.2c10.5,17.3,18.9,36,25,55.6l0.1,0.2c6.8,19.8,12.2,41.4,16.1,64.2
		c3.8,23,6.6,44.8,8.1,64.7c1.5,20,2.3,40.6,2.3,61.3c0,21.3-2.9,38.3-8.6,50.5c-6.7,11.7-18,25.3-33.6,40.2l-0.1,0.1
		c-26.5,26.5-63.8,40-110.7,40H243.2c-46.9,0-84.6-13.5-111.8-40c-15-15-25.8-28.7-32-40.9c-6.1-11.8-9.2-28.6-9.2-50
		C90.1,812.3,90.9,791.6,92.5,771.6z"/>
	<polygon points="688.5,842.8 738.4,842.8 738.4,770.5 816.6,770.5 816.6,720.6 738.4,720.6 738.4,641.3 688.5,641.3 688.5,720.6 
		610.4,720.6 610.4,770.5 688.5,770.5 	"/>
</g>
</svg>
