<?xml version="1.0" encoding="UTF-8" standalone="no"?>
<svg
   xmlns:dc="http://purl.org/dc/elements/1.1/"
   xmlns:cc="http://creativecommons.org/ns#"
   xmlns:rdf="http://www.w3.org/1999/02/22-rdf-syntax-ns#"
   xmlns:svg="http://www.w3.org/2000/svg"
   xmlns="http://www.w3.org/2000/svg"
   xml:space="preserve"
   style="enable-background:new 0 0 32 32;"
   viewBox="0 0 32 32"
   y="0px"
   x="0px"
   id="icons"
   version="1.1"><metadata
     id="metadata16"><rdf:RDF><cc:Work
         rdf:about=""><dc:format>image/svg+xml</dc:format><dc:type
           rdf:resource="http://purl.org/dc/dcmitype/StillImage" /><dc:title>Icons</dc:title></cc:Work></rdf:RDF></metadata><defs
     id="defs14" /><title
     id="title3">Icons</title><g
     id="g4"><path
       id="path6"
       d="M11.3,6.5l-5.6,4.3H4.4c-2.4,0-4.4,1.9-4.4,4v2.4c0,2.3,2,4,4.4,4h1.1l7.3,5.6V5.3l-1.4,1.1L11.3,6.5z M11.3,15.9v0.3v7.3   L7,20.1v-8.3l4.3-3.3V15.9z" /><path
       id="path8"
       d="M25.1,16.4c0-0.1,0-0.2,0-0.4c0-4.5-3.5-8.1-7.8-8.5v1.8c3.4,0.4,6.1,3.3,6.1,6.7s-2.7,6.3-6.1,6.7v1.7   C21.4,24.1,24.8,20.7,25.1,16.4z" /><path
       id="path10"
       d="M17.7,1.7c-0.1,0-0.2,0-0.4,0v1.5c0.1,0,0.2,0,0.4,0c7,0,12.7,5.7,12.7,12.7s-5.7,12.9-12.7,12.9c-0.1,0-0.2,0-0.4,0v1.5   c0.1,0,0.2,0,0.4,0c7.9,0,14.3-6.4,14.3-14.3S25.6,1.7,17.7,1.7z" /></g></svg>