<?xml version="1.0" encoding="utf-8"?>
<!-- Generator: Adobe Illustrator 21.1.0, SVG Export Plug-In . SVG Version: 6.00 Build 0)  -->
<svg version="1.1"
	 id="svg2" xmlns:cc="http://creativecommons.org/ns#" xmlns:dc="http://purl.org/dc/elements/1.1/" xmlns:rdf="http://www.w3.org/1999/02/22-rdf-syntax-ns#" xmlns:svg="http://www.w3.org/2000/svg"
	 xmlns="http://www.w3.org/2000/svg" xmlns:xlink="http://www.w3.org/1999/xlink" x="0px" y="0px" viewBox="0 0 1012.9 1012.9"
	 style="enable-background:new 0 0 1012.9 1012.9;" xml:space="preserve">
<g>
	<path d="M0,337v346.6h216.1l278.7,218.7V114.9L215,337H0z M444.6,217.5l0,582.5L233.7,633.4H50.2V387.2h182.4L444.6,217.5z"/>
	<path d="M970.5,269.5C942.4,195.1,899.6,125,843.3,61.5l-4.3-4.8L802,89.3l4.3,4.8C910,212.4,962.7,352.4,962.7,510.3
		c0,154.3-50.8,291.7-151,408.5l-4.2,4.9l38.4,32.5l4.2-4.9c54-63.2,95.1-132.4,122.2-205.6c27-73.2,40.7-152.4,40.7-235.5
		C1012.9,425,998.6,344,970.5,269.5z"/>
	<path d="M604.7,288.1l-38.6,31.2l3.7,5c39.9,53.5,60.2,114.2,60.2,180.6c0,68.5-21,130.3-62.3,183.8l-3.9,5l38.6,31.2l4-5.2
		c48.2-62.3,72.7-134.6,72.7-214.7c0-77.9-23.7-149-70.4-211.3L604.7,288.1z"/>
	<path d="M846.1,510.3c0-61.6-9.9-120.5-29.5-175.1c-19.6-54.6-49.3-106.4-88.4-154l-4.2-5.1l-38.4,32.5l4,4.9
		c70.4,85.5,106.5,185.3,107.2,296.7c0,107.8-34.2,205.4-101.8,290.2l-4,5l38.6,31.1l4-5.1c37.2-46.5,65.6-97.1,84.2-150.4
		C836.6,627.9,846.1,570.4,846.1,510.3z"/>
</g>
</svg>
