<?xml version="1.0" encoding="UTF-8" standalone="no"?>
<svg
   xmlns:dc="http://purl.org/dc/elements/1.1/"
   xmlns:cc="http://creativecommons.org/ns#"
   xmlns:rdf="http://www.w3.org/1999/02/22-rdf-syntax-ns#"
   xmlns:svg="http://www.w3.org/2000/svg"
   xmlns="http://www.w3.org/2000/svg"
   id="svg2"
   viewBox="0 -143 1000 1000"
   version="1.1">
  <metadata
     id="metadata12">
    <rdf:RDF>
      <cc:Work
         rdf:about="">
        <dc:format>image/svg+xml</dc:format>
        <dc:type
           rdf:resource="http://purl.org/dc/dcmitype/StillImage" />
        <dc:title></dc:title>
      </cc:Work>
    </rdf:RDF>
  </metadata>
  <defs
     id="defs10" />
  <g
     id="g4"
     transform="matrix(1.0873342,0,0,-1.0873342,-47.925676,889.84103)">
    <path
       style="fill:currentColor"
       id="path6"
       d="M 568,902 955,146 Q 973,110 954,76 945,60 928,50 911,41 892,41 L 116,41 Q 97,41 80.5,50 69,57 55,76 33.6646,106.4792 54,146 l 389,756 q 9,18 25.5,27.5 16.5,10.5 36.5,9.5 17,0 36,-10 18,-9 27,-27 z m -94,-285 0,-285 63,0 0,285 -63,0 z m 33,-344 q -20,0 -33,-13 -13,-12 -13,-31 -1,-18 13,-32 14,-13 33,-12 19,0 32.5,12.5 13.5,12.5 13.5,31.5 0,19 -14,31 -13,13 -32,13 z" />
  </g>
</svg>
