<?xml version="1.0" encoding="UTF-8" standalone="no"?>
<svg
   xmlns:dc="http://purl.org/dc/elements/1.1/"
   xmlns:cc="http://creativecommons.org/ns#"
   xmlns:rdf="http://www.w3.org/1999/02/22-rdf-syntax-ns#"
   xmlns:svg="http://www.w3.org/2000/svg"
   xmlns="http://www.w3.org/2000/svg"
   id="svg2"
   viewBox="0 -143 1000 1000"
   version="1.1">
  <metadata
     id="metadata12">
    <rdf:RDF>
      <cc:Work
         rdf:about="">
        <dc:format>image/svg+xml</dc:format>
        <dc:type
           rdf:resource="http://purl.org/dc/dcmitype/StillImage" />
        <dc:title></dc:title>
      </cc:Work>
    </rdf:RDF>
  </metadata>
  <defs
     id="defs10" />
  <g
     id="g4"
     transform="matrix(1.1337868,0,0,-1.1337868,-64.625826,944.30156)">
    <path
       style="fill:currentColor"
       id="path6"
       d="m 479,684 -34,0 0,-192 106,-106 24,24 -96,96 0,178 z M 939,720 701,959 521,779 q -29,6 -59,6 -119,0 -202,-84 -84,-84 -85,-203 0,-29 7,-58 L 57,315 106,122 295,77 432,214 q 16,-1 30,-2 119,0 202.5,84 83.5,84 83.5,202 0,15 -1,31 z M 701,911 891,720 740,569 Q 722,638 673.5,691 625,744 558,768 Z M 285,114 134,150 94,305 192,403 Q 216,336 269.5,287.5 323,239 392,221 Z M 461.5,246 Q 357,246 283,320 q -74,74 -74,178.5 0,104.5 74,179.5 74,74 179,73 104,0 179,-73 74,-74 74,-180 0,-104 -74,-178 -75,-74 -179.5,-74 z" />
  </g>
</svg>
