<?xml version="1.0" encoding="UTF-8" standalone="no"?>
<svg
   xmlns:dc="http://purl.org/dc/elements/1.1/"
   xmlns:cc="http://creativecommons.org/ns#"
   xmlns:rdf="http://www.w3.org/1999/02/22-rdf-syntax-ns#"
   xmlns:svg="http://www.w3.org/2000/svg"
   xmlns="http://www.w3.org/2000/svg"
   xml:space="preserve"
   style="enable-background:new 0 0 1017.4 1017.4;"
   viewBox="0 0 1017.4 1017.4"
   y="0px"
   x="0px"
   id="svg2"
   version="1.1"><metadata
     id="metadata13"><rdf:RDF><cc:Work
         rdf:about=""><dc:format>image/svg+xml</dc:format><dc:type
           rdf:resource="http://purl.org/dc/dcmitype/StillImage" /><dc:title></dc:title></cc:Work></rdf:RDF></metadata><defs
     id="defs11" /><g
     id="g3"><path
       id="path5"
       d="M254.8,789.3c-9.4-7.5-20.3-11.3-32.5-11.3c-0.9,0-1.9,0-2.8,0.1l-0.2,0l-0.2,0c-13.4,1.5-24.8,7.9-33.7,19   c-9,11.2-12.4,23.3-10.2,36c1.5,13.3,7.5,24.3,17.7,32.5c9.5,7.6,20.1,11.5,31.4,11.5c0,0,0,0,0,0c1.8,0,3.7-0.1,5.6-0.3   c14.2-1.6,25.2-7.9,32.7-19c8.9-10.3,12.7-22.4,11.2-35.8C272.3,808.5,265.9,797.5,254.8,789.3z" /><path
       id="path7"
       d="M943.7,146.8L918.3,103L798.3,245l-92.4,11.2l-8.3-83.8L820,28.7l-50.3-15.3c-28.8-7.9-58.2-11.9-87.2-11.9   c-11.8,0-23.9,0.7-35.8,2c-82.8,9.9-151.5,46.1-204.2,107.6c-36.9,43.5-59.3,93.9-66.5,149.9c-6.4,53.6,2.5,105.4,26.5,154.3   L190.6,663.9L31.2,843.8L227.6,1019l83.3-96.2l88.6-99.5l211.1-250.1c21.8,4.8,44.1,7.3,66.3,7.3c11.3,0,22.9-0.6,34.3-1.9   c81.5-9,149.8-45.1,203.2-107.5c39.5-46.8,62.3-100.2,67.7-158.9C987.7,254.9,974.7,199.2,943.7,146.8z M618,522.4l-22.5-7   L223.7,945.1l-117-106.4l360.4-419.1l-12.1-21c-19.7-32.7-27.6-76-23.5-128.7c3.5-44.6,20.4-85.3,50.2-120.9   C528,94.5,585.4,63.4,652.4,56.7l0.3,0c8.9-1.3,18.9-1.9,29.8-1.9c12.8,0,27.2,0.9,42.8,2.6l-78.6,92.5l21.2,160.2L832,288.5   l80.1-97.7c29.9,101.6,19.9,182.8-29.6,241.6c-44.3,52.9-104,84.2-177.3,93c-14.2,1.6-27.6,2.4-39.7,2.4   C647.4,527.8,631.4,526,618,522.4z" /></g></svg>