<?xml version="1.0" encoding="utf-8"?>
<!-- Generator: Adobe Illustrator 21.1.0, SVG Export Plug-In . SVG Version: 6.00 Build 0)  -->
<svg version="1.1" id="Layer_1" xmlns="http://www.w3.org/2000/svg" xmlns:xlink="http://www.w3.org/1999/xlink" x="0px" y="0px"
	 viewBox="0 0 1000 1000" style="enable-background:new 0 0 1000 1000;" xml:space="preserve">
<g>
	<path d="M1000,144.4H565.4V0L0,102.7v794.6L565.4,1000V855.6H1000V144.4z M515,944.4L44.3,864.2V136.8L515,55.6V944.4z
		 M949.7,803.3H566.9V196.7h382.8V803.3z"/>
	<polygon points="224.5,671.1 278.8,541.7 333.2,679.8 410.5,682.6 318.9,498.6 407.6,317.4 336.1,320.2 281.7,458.3 230.2,328.9 
		161.5,331.7 238.8,498.6 152.9,665.4 	"/>
	<rect x="602.6" y="263.4" width="118" height="47.9"/>
	<rect x="778.4" y="263.4" width="118" height="47.9"/>
	<rect x="602.6" y="365.7" width="118" height="47.9"/>
	<rect x="778.4" y="365.7" width="118" height="47.9"/>
	<rect x="602.6" y="469.8" width="118" height="47.9"/>
	<rect x="778.4" y="469.8" width="118" height="47.9"/>
	<rect x="602.6" y="572.1" width="118" height="47.9"/>
	<rect x="778.4" y="572.1" width="118" height="47.9"/>
	<rect x="602.6" y="685.7" width="118" height="47.9"/>
	<rect x="778.4" y="685.7" width="118" height="47.9"/>
</g>
</svg>
