<?xml version="1.0" encoding="UTF-8" standalone="no"?>
<svg
   xmlns:dc="http://purl.org/dc/elements/1.1/"
   xmlns:cc="http://creativecommons.org/ns#"
   xmlns:rdf="http://www.w3.org/1999/02/22-rdf-syntax-ns#"
   xmlns:svg="http://www.w3.org/2000/svg"
   xmlns="http://www.w3.org/2000/svg"
   id="svg2"
   viewBox="0 -143 1000 1000"
   version="1.1">
  <metadata
     id="metadata12">
    <rdf:RDF>
      <cc:Work
         rdf:about="">
        <dc:format>image/svg+xml</dc:format>
        <dc:type
           rdf:resource="http://purl.org/dc/dcmitype/StillImage" />
        <dc:title></dc:title>
      </cc:Work>
    </rdf:RDF>
  </metadata>
  <defs
     id="defs10" />
  <g
     transform="matrix(1.2165329,0,0,1.2165329,-117.01289,-94.328798)"
     id="g3334">
    <path
       style="fill:currentColor"
       d="m 512.48633,102.99805 c -1.76286,-0.009 -3.52995,-0.008 -5.30078,0.002 -113.33333,0 -210,40 -290,120 -80.66667,80.66667 -121.000003,177.66667 -121.000003,291 0,74.66667 18.333333,143.5 55.000003,206.5 36.66667,63 86.66667,112.83333 150,149.5 63.33333,36.66667 132,55 206,55 113.33333,0 210.33333,-40.16667 291,-120.5 80.66667,-80.33333 120.66667,-177.16667 120,-290.5 0,-113.33333 -40,-210.33333 -120,-291 -79.40626,-79.4063 -174.63917,-119.40728 -285.69922,-120.002 z M 507.68555,137 c 103.66667,0 192.5,37 266.5,111 74,74 110.66667,162.66667 110,266 0,104 -36.66667,192.66667 -110,266 -74,74 -162.83333,111 -266.5,111 -103.66667,0 -192.5,-37 -266.5,-111 -74,-74 -111,-162.66667 -111,-266 0,-104 37,-192.66667 111,-266 74,-74 162.83333,-111 266.5,-111 z"
       id="path6"
       transform="translate(0,-143)" />
    <path
       style="fill:#000000"
       d="m 493.52368,527.02566 0,-81.34713 -67.97082,0 -67.97081,0 0,-14.60076 0,-14.60076 67.97081,0 67.97082,0 0,-12.89131 c 0,-7.34978 -4.59142,-19.86426 -10.6811,-29.11247 l -10.6811,-16.22115 -57.28971,-0.0891 -57.28972,-0.0891 0,-14.47236 0,-14.47238 46.83903,-1.1713 46.83919,-1.17132 -58.8769,-89.52518 -58.87706,-89.52517 8.74186,-7.60276 c 4.80789,-4.18151 10.16603,-7.07173 11.90709,-6.4227 1.7409,0.64902 35.99584,51.09856 76.12198,112.1101 40.12614,61.01151 74.19995,111.69702 75.71942,112.63448 1.51947,0.93742 36.09781,-48.98109 76.84066,-110.93005 40.74286,-61.94897 75.50233,-113.16551 77.24324,-113.81453 1.74105,-0.64903 7.13157,2.26929 11.97899,6.48514 l 8.81344,7.66519 -58.9708,89.46274 -58.97081,89.46274 46.86119,1.17132 46.86134,1.1713 0,14.47238 0,14.47236 -57.28972,0.0889 -57.28986,0.0888 -10.6811,16.22116 c -6.08968,9.2482 -10.6811,21.76269 -10.6811,29.11247 l 0,12.89129 67.97082,0 67.97096,0 0,14.60078 0,14.60076 -67.97096,0 -67.97082,0 0,81.34712 0,81.34713 -13.59422,0 -13.59423,0 0,-81.34713 z"
       id="path3344" />
  </g>
</svg>
