<?xml version="1.0" encoding="UTF-8" standalone="no"?>
<svg
   xmlns:dc="http://purl.org/dc/elements/1.1/"
   xmlns:cc="http://creativecommons.org/ns#"
   xmlns:rdf="http://www.w3.org/1999/02/22-rdf-syntax-ns#"
   xmlns:svg="http://www.w3.org/2000/svg"
   xmlns="http://www.w3.org/2000/svg"
   xml:space="preserve"
   style="enable-background:new 0 0 1000 1000;"
   viewBox="0 0 1000 1000"
   y="0px"
   x="0px"
   id="svg2"
   version="1.1"><metadata
     id="metadata12"><rdf:RDF><cc:Work
         rdf:about=""><dc:format>image/svg+xml</dc:format><dc:type
           rdf:resource="http://purl.org/dc/dcmitype/StillImage" /><dc:title></dc:title></cc:Work></rdf:RDF></metadata><defs
     id="defs10" /><g
     id="g3"><path
       id="path5"
       d="M710.4,677.3c143.5-159.6,136.5-405.5-19.1-558c-158.6-155.6-414.5-153.6-571.1,6s-153.6,415.5,6,571.1   c151.5,148.5,390.4,153.6,548,16.1l294.1,288l35.1-36.1L710.4,677.3z M661.2,655.2c-136.5,140.5-360.3,142.5-499.8,6   c-139.5-137.5-141.5-361.3-5-500.8s360.3-141.5,499.8-5S797.7,515.7,661.2,655.2z" /><path
       d="M216.4,374.8v50.5h384.2v-50.5H216.4z"
       id="rect4159" /></g></svg>