<svg width="329" height="329" viewBox="0 0 329 329" fill="none" xmlns="http://www.w3.org/2000/svg">
<rect x="0.5" y="0.5" width="328" height="328" rx="9.5" fill="#F9FCFF" stroke="#E3F2FD"/>
<mask id="mask0_332_5485" style="mask-type:alpha" maskUnits="userSpaceOnUse" x="0" y="0" width="329" height="329">
<rect width="329" height="329" rx="10" fill="#FFF5E5"/>
</mask>
<g mask="url(#mask0_332_5485)">
<path d="M67.8824 213.547H140.721V239.498H67.8824V213.547Z" fill="#38B450"/>
<path d="M140.725 213.547H213.564V239.498H140.725V213.547Z" fill="#005376"/>
<path d="M67.8824 187.595H140.721V213.546H67.8824V187.595Z" fill="white"/>
<path d="M140.725 187.595H213.564V213.546H140.725V187.595Z" fill="#00B1FB"/>
<path d="M67.8824 161.64H140.721V187.592H67.8824V161.64Z" fill="#38B450"/>
<path d="M140.725 161.64H213.564V187.592H140.725V161.64Z" fill="#005376"/>
<path d="M62 239.311H270.717V240.379H62V239.311ZM79.6839 242.187H174.86V243.255H79.6839V242.187ZM210.601 254.932H338.697V256H210.601V254.932ZM153.975 245.062H189.756V246.13H153.975V245.062ZM352.244 254.932H388.025V256H352.244V254.932Z" fill="#005278"/>
<path d="M146.681 142.262C146.685 143.555 146.424 144.834 145.917 146.023C144.933 148.347 143.083 150.198 140.759 151.181C139.57 151.688 138.29 151.95 136.998 151.949H126.755V149.169H136.998C138.803 149.127 140.519 148.381 141.781 147.09C143.043 145.799 143.749 144.066 143.749 142.26C143.749 140.455 143.043 138.722 141.781 137.43C140.519 136.139 138.803 135.393 136.998 135.352H135.235V133.969C135.237 132.889 134.965 131.827 134.443 130.881C133.921 129.936 133.167 129.139 132.252 128.566C131.337 127.993 130.291 127.662 129.213 127.605C128.134 127.548 127.059 127.767 126.089 128.24L123.916 129.297L124.103 126.89C124.103 126.663 124.128 126.44 124.128 126.221C124.082 123.958 123.15 121.803 121.533 120.218C119.916 118.634 117.742 117.747 115.478 117.747C113.215 117.747 111.041 118.634 109.424 120.218C107.807 121.803 106.875 123.958 106.829 126.221L106.854 128.105L105.157 127.739C104.721 127.648 104.277 127.6 103.832 127.596C102.146 127.599 100.529 128.271 99.3373 129.464C98.1453 130.658 97.4754 132.275 97.4744 133.962V135.246L96.2453 135.388C94.4958 135.595 92.8912 136.461 91.7593 137.811C90.6275 139.161 90.0538 140.892 90.1557 142.651C90.2575 144.409 91.0271 146.063 92.3072 147.273C93.5873 148.483 95.2812 149.159 97.0427 149.162H107.344V151.942H97.0684C95.7762 151.942 94.4972 151.682 93.3077 151.177C90.9855 150.19 89.1374 148.339 88.1533 146.015C87.6465 144.829 87.3864 143.552 87.3887 142.262C87.3942 140.092 88.1263 137.985 89.4682 136.279C90.8102 134.573 92.6847 133.366 94.7929 132.85C95.072 130.585 96.1873 128.507 97.92 127.022C99.6527 125.538 101.878 124.755 104.158 124.827C104.501 122.041 105.858 119.478 107.97 117.629C110.081 115.779 112.8 114.772 115.607 114.799C118.415 114.826 121.114 115.886 123.189 117.776C125.265 119.666 126.572 122.254 126.861 125.047C128.727 124.63 130.677 124.805 132.44 125.548C133.526 126.004 134.511 126.669 135.341 127.505C136.182 128.332 136.85 129.318 137.305 130.406C137.602 131.109 137.808 131.846 137.92 132.601C138.9 132.695 139.859 132.941 140.762 133.332C143.081 134.319 144.929 136.165 145.917 138.483C146.426 139.678 146.686 140.964 146.681 142.262Z" fill="#009AC2"/>
<path d="M117.028 138.428L124.655 146.055L121.187 146.447L117.028 142.287L113.04 146.286L109.568 145.894L117.028 138.439V138.428Z" fill="#38B450"/>
<path d="M115.67 146.286H118.406V156.587H115.677L115.67 146.286Z" fill="#38B450"/>
<path d="M305.737 101.465C305.74 102.759 305.481 104.039 304.976 105.23C303.99 107.552 302.14 109.402 299.818 110.388C298.627 110.898 297.345 111.163 296.05 111.167H285.807V108.387H296.05C297.854 108.345 299.571 107.599 300.833 106.308C302.095 105.017 302.801 103.283 302.801 101.478C302.801 99.673 302.095 97.9395 300.833 96.6484C299.571 95.3573 297.854 94.6112 296.05 94.5697H294.29V93.1869C294.292 92.1093 294.02 91.0489 293.499 90.1054C292.979 89.1619 292.227 88.3663 291.314 87.7934C290.401 87.2206 289.358 86.8892 288.282 86.8306C287.206 86.7719 286.132 86.9879 285.163 87.4581L282.968 88.5153L283.154 86.1082C283.154 85.8814 283.184 85.6583 283.184 85.4388C283.137 83.1755 282.205 81.0206 280.588 79.4364C278.971 77.8522 276.798 76.965 274.534 76.965C272.27 76.965 270.097 77.8522 268.479 79.4364C266.862 81.0206 265.931 83.1755 265.884 85.4388L265.91 87.3228L264.209 86.9569C263.773 86.8649 263.329 86.8183 262.884 86.8179C261.198 86.8199 259.581 87.4908 258.389 88.6836C257.197 89.8763 256.527 91.4933 256.526 93.1796V94.4673L255.301 94.6099C253.546 94.8087 251.934 95.6722 250.796 97.0229C249.658 98.3736 249.081 100.109 249.183 101.872C249.285 103.635 250.059 105.292 251.345 106.503C252.631 107.713 254.332 108.385 256.098 108.38H266.396V111.167H256.124C254.83 111.169 253.55 110.909 252.36 110.403C250.038 109.414 248.19 107.564 247.205 105.241C246.699 104.049 246.44 102.767 246.444 101.473C246.451 99.3026 247.184 97.197 248.525 95.4913C249.867 93.7856 251.741 92.5778 253.848 92.0602C253.954 91.2235 254.173 90.4051 254.5 89.6274C255.217 87.9238 256.435 86.4777 257.991 85.4798C259.547 84.4819 261.369 83.9791 263.217 84.0377C263.345 82.9848 263.617 81.9545 264.026 80.9757C265.014 78.6392 266.752 76.698 268.965 75.458C271.178 74.2181 273.742 73.7498 276.25 74.1271C278.759 74.5043 281.071 75.7057 282.822 77.5417C284.572 79.3778 285.663 81.7443 285.92 84.2681C287.787 83.8513 289.737 84.0265 291.499 84.7693C292.584 85.2276 293.569 85.8923 294.4 86.7265C295.239 87.5541 295.906 88.5401 296.361 89.6274C296.657 90.3308 296.864 91.068 296.979 91.8224C297.959 91.9162 298.918 92.1631 299.821 92.554C302.139 93.5394 303.986 95.3823 304.976 97.6975C305.481 98.8892 305.74 100.171 305.737 101.465Z" fill="#009AC2"/>
<path d="M276.076 97.6313L283.707 105.262L280.235 105.65L276.076 101.502L272.089 105.486L268.621 105.098L276.076 97.6313Z" fill="#38B450"/>
<path d="M274.722 105.501H277.455V115.802H274.722V105.501ZM266.707 226.522H339.546V252.474H266.707V226.522Z" fill="#38B450"/>
<path d="M266.707 200.571H339.546V226.522H266.707V200.571ZM270.084 122.713H328.637V148.664H270.084V122.713Z" fill="#005376"/>
<path d="M270.084 148.664H332.629V174.616H270.084V148.664ZM339.546 226.522H402.091V252.474H339.546V226.522Z" fill="white"/>
<path d="M266.707 174.619H339.546V200.571H266.707V174.619Z" fill="#00B1FB"/>
<g opacity="0.1">
<path d="M81.8721 166.904L78.1371 169.142V183.245L81.8721 181.002V166.904ZM97.7854 166.904L94.0503 169.142V183.245L97.7854 181.002V166.904ZM113.699 166.904L109.964 169.142V183.245L113.699 181.002V166.904ZM129.612 166.904L125.877 169.142V183.245L129.612 181.002V166.904Z" fill="black"/>
</g>
<g opacity="0.1">
<path d="M81.8721 192.397L78.1371 194.64V208.739L81.8721 206.496V192.397ZM97.7854 192.397L94.0503 194.64V208.739L97.7854 206.496V192.397ZM113.699 192.397L109.964 194.64V208.739L113.699 206.496V192.397ZM129.612 192.397L125.877 194.64V208.739L129.612 206.496V192.397Z" fill="black"/>
</g>
<g opacity="0.1">
<path d="M81.8721 217.896L78.1371 220.135V234.238L81.8721 231.995V217.896ZM97.7854 217.896L94.0503 220.135V234.238L97.7854 231.995V217.896ZM113.699 217.896L109.964 220.135V234.238L113.699 231.995V217.896ZM129.612 217.896L125.877 220.135V234.238L129.612 231.995V217.896Z" fill="black"/>
</g>
<g opacity="0.1">
<path d="M155.142 166.904L151.407 169.142V183.245L155.142 181.002V166.904ZM171.056 166.904L167.321 169.142V183.245L171.056 181.002V166.904ZM186.969 166.904L183.234 169.142V183.245L186.969 181.002V166.904ZM202.882 166.904L199.147 169.142V183.245L202.882 181.002V166.904Z" fill="black"/>
</g>
<g opacity="0.1">
<path d="M282.551 154.539L278.816 156.778V170.88L282.551 168.638V154.539ZM296.024 154.539L292.289 156.778V170.88L296.024 168.638V154.539ZM309.498 154.539L305.762 156.778V170.88L309.498 168.638V154.539ZM322.974 154.539L319.239 156.778V170.88L322.974 168.638V154.539Z" fill="black"/>
</g>
<g opacity="0.1">
<path d="M281.088 127.908L277.353 130.147V144.249L281.088 142.007V127.908ZM294.561 127.908L290.826 130.147V144.249L294.561 142.007V127.908ZM308.034 127.908L304.299 130.147V144.249L308.034 142.007V127.908ZM321.511 127.908L317.776 130.147V144.249L321.511 142.007V127.908Z" fill="black"/>
</g>
<g opacity="0.1">
<path d="M155.142 192.397L151.407 194.64V208.739L155.142 206.496V192.397ZM171.056 192.397L167.321 194.64V208.739L171.056 206.496V192.397ZM186.969 192.397L183.234 194.64V208.739L186.969 206.496V192.397ZM202.882 192.397L199.147 194.64V208.739L202.882 206.496V192.397Z" fill="black"/>
</g>
<g opacity="0.1">
<path d="M155.142 217.896L151.407 220.135V234.238L155.142 231.995V217.896ZM171.056 217.896L167.321 220.135V234.238L171.056 231.995V217.896ZM186.969 217.896L183.234 220.135V234.238L186.969 231.995V217.896ZM202.882 217.896L199.147 220.135V234.238L202.882 231.995V217.896Z" fill="black"/>
</g>
<path d="M193.869 226.522H266.708V252.474H193.869V226.522Z" fill="white"/>
<path d="M193.869 200.571H266.708V226.522H193.869V200.571Z" fill="#0081B3"/>
<path d="M193.869 174.619H266.708V200.571H193.869V174.619Z" fill="white"/>
<path d="M198.558 148.664H270.084V174.616H198.558V148.664Z" fill="#38B450"/>
<path d="M202.55 122.713H270.084V148.664H202.55V122.713Z" fill="#0081B3"/>
<path d="M190.448 252.122H405.559V253.19H190.448V252.122Z" fill="#005278"/>
<g opacity="0.1">
<path d="M208.285 180.424L204.55 182.666V196.765L208.285 194.523V180.424ZM224.198 180.424L220.463 182.666V196.765L224.198 194.523V180.424ZM240.112 180.424L236.377 182.666V196.765L240.112 194.523V180.424ZM256.025 180.424L252.29 182.666V196.765L256.025 194.523V180.424Z" fill="black"/>
</g>
<g opacity="0.1">
<path d="M208.285 205.923L204.55 208.162V222.264L208.285 220.022V205.923ZM224.198 205.923L220.463 208.162V222.264L224.198 220.022V205.923ZM240.112 205.923L236.377 208.162V222.264L240.112 220.022V205.923ZM256.025 205.923L252.29 208.162V222.264L256.025 220.022V205.923Z" fill="black"/>
</g>
<g opacity="0.1">
<path d="M208.285 231.417L204.55 233.659V247.758L208.285 245.515V231.417ZM224.198 231.417L220.463 233.659V247.758L224.198 245.515V231.417ZM240.112 231.417L236.377 233.659V247.758L240.112 245.515V231.417ZM256.025 231.417L252.29 233.659V247.758L256.025 245.515V231.417Z" fill="black"/>
</g>
<g opacity="0.1">
<path d="M281.124 180.424L277.389 182.666V196.765L281.124 194.523V180.424ZM297.038 180.424L293.303 182.666V196.765L297.038 194.523V180.424ZM312.951 180.424L309.216 182.666V196.765L312.951 194.523V180.424ZM328.864 180.424L325.129 182.666V196.765L328.864 194.523V180.424Z" fill="black"/>
</g>
<g opacity="0.1">
<path d="M281.124 205.923L277.389 208.162V222.264L281.124 220.022V205.923ZM297.038 205.923L293.303 208.162V222.264L297.038 220.022V205.923ZM312.951 205.923L309.216 208.162V222.264L312.951 220.022V205.923ZM328.864 205.923L325.129 208.162V222.264L328.864 220.022V205.923Z" fill="black"/>
</g>
<g opacity="0.1">
<path d="M281.124 231.417L277.389 233.659V247.758L281.124 245.515V231.417ZM297.038 231.417L293.303 233.659V247.758L297.038 245.515V231.417ZM312.951 231.417L309.216 233.659V247.758L312.951 245.515V231.417ZM328.864 231.417L325.129 233.659V247.758L328.864 245.515V231.417Z" fill="black"/>
</g>
<g opacity="0.1">
<path d="M212.576 154.539L208.841 156.778V170.88L212.576 168.638V154.539ZM228.49 154.539L224.755 156.778V170.88L228.49 168.638V154.539ZM244.403 154.539L240.668 156.778V170.88L244.403 168.638V154.539ZM260.316 154.539L256.581 156.778V170.88L260.316 168.638V154.539Z" fill="black"/>
</g>
<g opacity="0.1">
<path d="M214.314 127.908L210.579 130.147V144.249L214.314 142.007V127.908ZM230.228 127.908L226.493 130.147V144.249L230.228 142.007V127.908ZM246.141 127.908L242.406 130.147V144.249L246.141 142.007V127.908ZM262.054 127.908L258.319 130.147V144.249L262.054 142.007V127.908Z" fill="black"/>
</g>
</g>
</svg>
