<svg width="56" height="48" viewBox="0 0 56 48" fill="none" xmlns="http://www.w3.org/2000/svg">
<path d="M55.5329 40.2907H2.01944L0.150391 37.6973H53.6639L55.5329 40.2907ZM27.7033 48C25.2868 48 18.8783 48 18.8783 41.6415H21.6757C21.6757 44.2661 23.2533 45.1964 27.7033 45.1964C32.1532 45.1964 33.7288 44.2661 33.7288 41.6415H36.5282C36.5282 48 30.1176 48 27.7033 48ZM5.6722 36.7253V25.5568C5.6722 18.5718 8.92118 14.4508 14.8301 11.8158C16.9281 10.8792 19.33 10.2714 22.1752 9.93843C22.9203 9.84685 23.5822 9.41809 23.9693 8.77287C24.3419 8.15471 24.4064 7.39502 24.14 6.72275C24.0068 6.35018 23.9423 5.95473 23.9527 5.55719C23.9527 3.49874 24.8622 2.80565 27.6033 2.80565C29.7721 2.80565 31.7265 3.50082 31.7265 5.55719C31.7369 5.95473 31.6724 6.3481 31.5392 6.72275C31.4089 7.05512 31.3572 7.41314 31.3883 7.7688C31.4193 8.12445 31.5322 8.4681 31.7182 8.77287C32.1074 9.41601 32.7734 9.84476 33.5206 9.9301C36.3721 10.259 38.7698 10.8709 40.8678 11.8075C46.7705 14.4425 50.0257 18.5635 50.0257 25.5485V36.7253H52.8189V25.5485C52.8189 17.3896 48.9767 12.3549 41.9959 9.24326C39.7584 8.24629 37.2462 7.57402 34.324 7.20146C34.4635 6.66447 34.5322 6.11083 34.528 5.55719C34.528 -7.93971e-07 29.693 0 27.6075 0C25.522 0 21.1553 -7.93971e-07 21.1553 5.55719C21.1512 6.11291 21.2199 6.66447 21.3593 7.20146C18.4392 7.57818 15.9249 8.24421 13.6875 9.24326C6.70871 12.3611 2.86447 17.3896 2.86447 25.5485V36.7253H5.67428H5.6722Z" fill="#0B78D0"/>
</svg>
