<svg width="329" height="329" viewBox="0 0 329 329" fill="none" xmlns="http://www.w3.org/2000/svg">
<rect x="0.5" y="0.5" width="328" height="328" rx="9.5" fill="#F9FCFF" stroke="#E3F2FD"/>
<path d="M128.738 85.1815C128.274 82.4988 128.365 79.7493 129.007 77.1034C129.648 74.4575 130.826 71.9714 132.468 69.7992C134.343 67.2031 136.819 64.9303 139.853 63.9108C141.338 63.4063 142.92 63.2564 144.473 63.4731C146.413 63.7616 147.537 65.2138 149.635 64.6767C151.943 64.0948 153.917 62.7619 156.379 62.3541C159.468 61.8568 162.755 61.7275 165.61 63.0156C169.877 64.9452 171.254 69.834 170.543 74.1607C170.155 76.5031 169.151 78.3582 167.887 80.3226C166.51 82.4562 164.162 84.3311 163.227 86.6486C161.77 90.2692 160.243 93.6461 157.896 96.9185C154.828 101.215 150.754 104.995 145.751 106.676C145.098 106.943 144.387 107.037 143.687 106.95C142.558 106.731 141.773 105.731 141.096 104.801C138.744 101.559 136.561 97.9927 133.975 94.959C131.388 91.9253 129.359 89.2895 128.738 85.1815Z" fill="#025273"/>
<path d="M165.992 84.6097C164.391 91.5723 166.848 98.7835 161.019 104.428C159.492 105.859 157.691 106.967 155.726 107.686C153.761 108.406 151.671 108.722 149.58 108.616C144.368 108.377 142.165 103.115 142.732 98.3807C143.205 94.4369 145.94 91.0799 149.198 88.7872C152.455 86.4945 156.195 85.0771 159.806 83.431C161.554 82.6602 163.246 81.7661 164.868 80.7554C166.142 79.9348 167.902 77.8112 169.235 77.662C168.131 79.9895 166.589 82.0186 165.992 84.6097ZM124.804 81.1681L124.49 81.4367C123.397 82.3106 122.411 83.3124 121.556 84.4207C119.263 87.6483 119.452 92.1392 121.059 95.7548C122.944 99.9572 128.678 104.707 133.402 101.912C138.127 99.1167 141.33 91.6668 142.658 86.6437C143.284 84.2566 143.603 81.566 142.334 79.4474C141.713 78.4179 140.773 77.6272 139.947 76.7469C138.251 74.9366 137.57 72.9423 136.541 70.7789C135.451 68.4664 134.74 69.287 133.557 71.2763C131.174 75.414 128.354 78.1096 124.804 81.1681ZM120.845 211.707H125.729V264.593H120.845V211.707Z" fill="#025273"/>
<path d="M151.625 109.202C161.537 118.378 166.361 132.174 176.705 140.857C180.007 143.632 183.971 145.86 188.278 146.159C183.16 147.501 177.978 148.73 172.692 149.023C167.405 149.317 161.984 148.625 157.235 146.288C155.549 145.452 153.912 144.373 152.893 142.807C152.171 141.543 151.658 140.171 151.376 138.743C149.287 130.504 147.197 122.265 145.105 114.026C144.523 111.733 143.339 108.953 145.155 106.974C147.144 104.791 149.79 107.506 151.625 109.202Z" fill="#01B0F5"/>
<path d="M79.3479 138.286C73.2656 142.573 70.9579 148.536 72.43 155.738C74.867 167.674 79.3678 178.316 85.4551 188.825C87.2803 191.983 89.4984 195.186 92.8553 196.618C95.9388 197.931 99.4549 197.518 102.802 197.081C105.686 196.703 108.68 196.285 111.142 194.728C113.604 193.172 115.26 190.65 116.747 188.149C119.064 184.267 121.161 180.259 123.028 176.143C123.945 174.305 124.613 172.353 125.018 170.339C125.515 167.256 124.883 164.098 124.023 161.099C123.125 158.051 121.986 155.079 120.616 152.212C118.791 148.347 116.533 144.632 115.459 140.494C114.464 136.655 114.002 134.949 110.182 133.96C106.602 133.035 103.22 132.189 99.5046 132.154C92.3126 132.06 85.269 134.203 79.3479 138.286Z" fill="#025273"/>
<path d="M140.788 83.5797C140.15 83.5357 139.539 83.3012 139.036 82.9067C138.532 82.5122 138.159 81.9757 137.963 81.3666C137.784 80.7523 137.739 80.1068 137.831 79.4737C137.923 78.8406 138.149 78.2345 138.495 77.6963C138.809 77.1274 139.261 76.6468 139.809 76.2991C140.358 75.9514 140.985 75.7477 141.633 75.707C142.921 75.707 144.205 76.8508 144.07 78.1339C145.31 76.2384 146.953 74.6394 148.881 73.4506C150.809 72.2619 152.975 71.5125 155.225 71.2559C156.436 71.0778 157.672 71.1973 158.826 71.604C161.621 72.718 162.805 76.08 162.76 79.1087C162.71 81.5953 162.054 83.9676 161.765 86.4095C161.636 87.9973 161.725 89.5952 162.029 91.159C162.203 92.2332 162.964 93.8545 161.208 93.5213C159.557 93.208 159.065 92.7852 158.01 94.1529C157.16 95.257 156.374 96.4058 155.22 97.2264C153.694 98.3106 151.585 98.788 149.924 97.9226C148.671 97.2711 147.86 95.9831 146.646 95.2619C145.641 96.4995 145.002 97.9942 144.802 99.5765C144.603 101.159 144.85 102.765 145.517 104.214C145.727 104.545 145.829 104.932 145.811 105.323C145.716 105.82 145.224 106.109 144.767 106.318C141.534 107.74 130.284 106.611 131.965 101.091C132.781 98.405 136.043 95.6449 137.396 93.0438C138.961 90.0619 140.102 86.8766 140.788 83.5797ZM219.48 239.96C220.904 241.372 222.63 242.442 224.528 243.088C228.298 244.217 232.301 242.725 235.967 241.258C236.384 243.337 235.047 245.465 233.231 246.559C231.416 247.653 229.223 247.912 227.104 247.982C225.115 248.046 222.971 248.016 221.375 249.195C220.753 249.658 220.261 250.274 219.649 250.742C219.039 251.202 218.328 251.511 217.575 251.642C216.821 251.773 216.048 251.724 215.318 251.498C214.938 251.391 214.587 251.199 214.293 250.936C213.686 250.364 213.547 249.469 213.408 248.648C212.816 245.62 211.901 242.663 210.677 239.83C210.468 239.275 210.227 238.732 209.956 238.204C209.688 237.707 209.195 237.05 209.265 236.459C209.383 236.004 209.624 235.592 209.961 235.265C210.679 234.551 211.522 233.976 212.448 233.569C212.846 233.337 213.295 233.207 213.756 233.191C214.447 233.191 214.686 233.688 214.964 234.221C215.366 234.964 215.82 235.679 216.322 236.359C217.249 237.664 218.307 238.871 219.48 239.96ZM185.99 255.292C187.482 257.779 190.108 259.425 192.878 260.266C195.648 261.106 198.582 261.26 201.482 261.424C199.99 263.553 197.155 264.364 194.554 264.244C191.953 264.125 189.461 263.25 186.925 262.668C184.389 262.086 181.638 261.822 179.261 262.877C178.791 263.132 178.289 263.326 177.769 263.454C175.924 263.762 174.497 261.623 174.561 259.753C174.701 255.815 177.252 252.572 177.327 248.618C177.366 246.336 177.759 246.36 179.54 246.345C180.5 246.345 183.658 246.132 184.289 247.082C184.757 247.783 184.433 250.23 184.583 251.13C184.787 252.593 185.264 254.005 185.99 255.292Z" fill="#BFBFBF"/>
<path d="M118.115 109.173C117.617 109.496 117.16 109.825 116.692 110.168C114.623 111.66 112.614 113.331 111.366 115.549C109.745 118.424 109.615 121.815 109.814 125.033C110.023 128.37 110.277 131.672 110.605 135.009C111.243 141.426 112.3 147.793 113.768 154.072C114.287 156.487 114.992 158.858 115.877 161.164C116.063 161.763 116.419 162.295 116.901 162.696C117.429 162.992 118.027 163.141 118.632 163.128C128.797 163.792 138.968 164.327 149.143 164.735C149.512 159.007 149.585 153.263 149.362 147.527C149.247 144.464 148.596 141.515 150.918 139.112C152.037 137.954 153.405 137.019 154.34 135.706C156.538 132.632 155.832 128.34 154.34 124.869C152.888 121.507 151.107 118.458 150.118 114.922C149.849 113.972 147.089 105.403 146.099 105.657C143.81 106.331 141.416 106.577 139.037 106.383C137.287 106.174 135.884 105.249 134.382 104.394C133.803 104.056 133.274 103.64 132.811 103.156C132.313 102.658 131.896 102.315 131.14 102.315C130.302 102.386 129.492 102.653 128.777 103.096C125.109 104.914 121.549 106.944 118.115 109.173Z" fill="white"/>
<path d="M157.538 187.448C163.033 185.294 168.977 182.947 174.999 182.375L163.536 179.674C159.89 178.819 156.076 177.884 153.236 175.462C150.963 173.537 150.048 170.857 149.178 168.151C148.78 166.918 148.387 165.664 147.885 164.501C146.99 162.432 146.487 162.571 144.299 162.681C139.515 162.924 128.807 159.388 126.609 165.137C124.272 171.235 124.257 177.988 125.798 184.28C127.29 190.422 130.816 195.266 133.159 200.955C140.475 194.982 148.651 190.934 157.538 187.448Z" fill="#01B0F5"/>
<path d="M107.74 184.12C106.82 190.819 107.74 198.209 112.216 203.237C116.255 207.713 122.66 209.623 128.693 209.235C134.725 208.847 140.465 206.435 145.736 203.471C151.008 200.507 155.946 196.966 161.238 194.022C165.33 191.804 169.565 189.861 173.915 188.203C177.834 186.676 182.529 185.373 186.015 187.706C188.327 189.267 189.461 192.107 189.854 194.867C190.247 197.628 190.023 200.447 190.287 203.227C190.938 210.135 194.519 216.397 198.284 222.22C202.049 228.044 206.082 233.659 210.374 239.13L215.75 235.877C210.715 217.437 204.329 199.393 196.643 181.892C195.28 178.799 193.823 175.636 191.361 173.318C188.298 170.439 184.031 169.205 179.858 168.643C165.217 166.654 150.65 171.707 135.974 173.442C134.482 173.617 129.14 174.154 128.016 172.975C127.574 172.512 127.633 171.781 127.743 171.15C128.24 168.25 131.314 164.66 131.786 161.85C128.728 161.914 126.977 162.049 125.435 161.974C123.703 161.89 121.966 161.924 120.238 162.074C117.065 162.352 116.299 163.461 114.579 166.052C110.971 171.485 108.634 177.66 107.74 184.12Z" fill="#01B0F5"/>
<path d="M189.899 194.524C189.491 191.639 188.308 188.685 185.92 187.064C182.29 184.607 177.391 185.965 173.303 187.561C168.769 189.288 164.354 191.315 160.089 193.629C154.544 196.672 149.387 200.362 143.916 203.436C141.242 204.969 138.447 206.283 135.561 207.365C137.122 208.001 138.933 208.011 140.649 207.982C145.493 207.907 150.322 207.335 155.171 207.206L167.002 206.887C169.986 206.808 173.298 205.664 172.875 209.702C172.617 212.189 171.995 214.576 171.831 217.058C171.293 225.08 171.925 233.139 173.706 240.979C174.154 242.969 174.701 244.928 175.278 246.873C175.606 247.942 176.063 248.971 176.387 250.041C176.605 250.772 176.511 252.105 177.476 252.134C177.978 252.081 178.476 251.997 178.968 251.881C179.556 251.826 180.147 251.806 180.738 251.821C181.897 251.821 183.056 251.921 184.22 251.821C184.305 251.822 184.388 251.802 184.463 251.761C184.542 251.694 184.598 251.603 184.622 251.503C185.151 250.143 185.557 248.738 185.836 247.305C188.681 232.172 188.178 216.58 190.282 201.347C190.168 199.079 190.222 196.787 189.899 194.524Z" fill="#01B0F5"/>
<path d="M186.234 146.845C186.453 146.835 186.672 146.87 186.876 146.949C187.081 147.028 187.267 147.148 187.422 147.303C187.623 147.636 187.7 148.028 187.641 148.412C187.639 149.238 187.54 150.061 187.348 150.864C187.144 151.669 186.659 152.374 185.98 152.853C185.502 153.125 184.983 153.32 184.443 153.43C183.882 153.64 183.264 153.64 182.703 153.43C182.066 153.092 181.862 152.286 181.773 151.57C181.648 150.575 181.236 148.253 182.016 147.482C182.797 146.711 185.219 146.786 186.234 146.845Z" fill="#BFBFBF"/>
<path d="M82.9634 196.026C84.5548 200.621 86.8177 204.978 90.8808 207.464C94.019 209.379 97.7937 209.861 101.449 210.279C110.401 211.294 119.378 212.149 128.379 212.845C131.105 213.054 133.85 213.253 136.575 213.218C142.285 213.154 149.352 213.164 153.907 209.16C154.405 208.713 157.036 206.867 154.763 207.056C145.296 207.841 135.767 207.393 126.415 205.724C121.283 204.808 116.642 203.391 113.733 198.801C111.545 195.349 110.456 191.341 109.048 187.496C107.924 184.428 106.527 181.345 104.279 178.923C102.031 176.501 98.8083 174.8 95.8641 173.452C93.2879 172.273 76.8214 166.32 75.7173 169.414C75.3294 170.503 77.0054 173.855 77.3286 175.014C77.826 176.834 78.3233 178.659 78.7659 180.484C79.7606 184.309 80.6607 188.143 81.725 191.948C82.0881 193.305 82.4959 194.673 82.9634 196.026Z" fill="#0C758F"/>
<path d="M122.864 267C133.439 267 142.011 265.775 142.011 264.265C142.011 262.754 133.439 261.529 122.864 261.529C112.289 261.529 103.717 262.754 103.717 264.265C103.717 265.775 112.289 267 122.864 267Z" fill="#025273"/>
<path d="M147.159 158.299H253.776C254.484 158.299 255.164 158.58 255.665 159.081C256.165 159.582 256.447 160.261 256.447 160.97C256.448 161.321 256.38 161.67 256.246 161.995C256.113 162.32 255.916 162.615 255.668 162.865C255.42 163.114 255.125 163.311 254.8 163.446C254.476 163.581 254.128 163.65 253.776 163.65H147.159V158.299Z" fill="#025273"/>
<path d="M184.021 156.215L197.946 123.391C198.112 123.002 198.389 122.669 198.743 122.437C199.097 122.204 199.512 122.081 199.935 122.083H240.219C240.574 122.082 240.925 122.168 241.238 122.335C241.552 122.502 241.819 122.744 242.016 123.04C242.214 123.336 242.334 123.676 242.368 124.03C242.401 124.383 242.346 124.74 242.208 125.067L229.243 156.23L184.021 156.215Z" fill="#005376"/>
<path d="M163.267 155.563H229.049V158.169H163.267V155.563Z" fill="#005376"/>
<path d="M238.861 162.656H245.893V263.325C245.893 264.258 245.523 265.152 244.864 265.811C244.204 266.471 243.31 266.841 242.377 266.841C241.445 266.841 240.55 266.471 239.891 265.811C239.232 265.152 238.861 264.258 238.861 263.325V162.656ZM160.706 162.273H166.371V263.808C166.371 264.559 166.072 265.28 165.54 265.812C165.009 266.344 164.288 266.642 163.536 266.642C162.784 266.642 162.063 266.344 161.531 265.812C161 265.28 160.701 264.559 160.701 263.808V162.273H160.706Z" fill="#025273"/>
<path d="M146.428 160.806H116.439C116.032 160.806 115.703 161.135 115.703 161.542V163.392C115.703 163.798 116.032 164.128 116.439 164.128H146.428C146.834 164.128 147.164 163.798 147.164 163.392V161.542C147.164 161.135 146.834 160.806 146.428 160.806Z" fill="#0C758F"/>
<path d="M139.345 160.806H133C132.593 160.806 132.264 161.135 132.264 161.542V163.392C132.264 163.798 132.593 164.128 133 164.128H139.345C139.752 164.128 140.082 163.798 140.082 163.392V161.542C140.082 161.135 139.752 160.806 139.345 160.806Z" fill="#025273"/>
<path d="M139.962 162.223H136.665C136.591 162.223 136.531 162.283 136.531 162.357V162.69C136.531 162.764 136.591 162.824 136.665 162.824H139.962C140.036 162.824 140.097 162.764 140.097 162.69V162.357C140.097 162.283 140.036 162.223 139.962 162.223Z" fill="#025273"/>
<path d="M126.132 113.35C121.407 106.741 113.499 110.411 110.575 116.469C108.312 121.163 109.829 126.51 111.794 130.976C114.733 137.665 118.08 144.279 122.884 149.785C127.688 155.29 134.124 159.652 141.345 160.771C147.701 161.765 155.325 160.666 161.387 158.682C166.018 157.169 170.728 155.912 175.496 154.917C177.222 154.554 181.181 154.624 182.544 153.574C183.906 152.525 183.041 149.854 182.743 148.342C182.736 148.035 182.613 147.742 182.398 147.523C182.182 147.304 181.891 147.175 181.584 147.164C171.637 144.995 161.586 142.812 151.416 143.101C148.81 143.175 146.094 143.389 143.702 142.365C142.097 141.584 140.664 140.492 139.485 139.152C134.27 133.727 130.507 127.075 128.544 119.811C127.932 117.578 127.474 115.235 126.132 113.35Z" fill="#01B0F5"/>
</svg>
