<svg width="37" height="36" viewBox="0 0 37 36" fill="none" xmlns="http://www.w3.org/2000/svg">
<g clip-path="url(#clip0_332_5323)">
<path fill-rule="evenodd" clip-rule="evenodd" d="M34.283 18C34.283 22.1772 32.6236 26.1832 29.6699 29.1369C26.7162 32.0906 22.7101 33.75 18.533 33.75C14.3558 33.75 10.3497 32.0906 7.39603 29.1369C4.44233 26.1832 2.78296 22.1772 2.78296 18C2.78296 13.8228 4.44233 9.81677 7.39603 6.86307C10.3497 3.90937 14.3558 2.25 18.533 2.25C22.7101 2.25 26.7162 3.90937 29.6699 6.86307C32.6236 9.81677 34.283 13.8228 34.283 18ZM0.532959 18C0.532959 22.7739 2.42938 27.3523 5.80504 30.7279C9.18069 34.1036 13.7591 36 18.533 36C23.3069 36 27.8852 34.1036 31.2609 30.7279C34.6365 27.3523 36.533 22.7739 36.533 18C36.533 13.2261 34.6365 8.64773 31.2609 5.27208C27.8852 1.89642 23.3069 0 18.533 0C13.7591 0 9.18069 1.89642 5.80504 5.27208C2.42938 8.64773 0.532959 13.2261 0.532959 18ZM26.408 16.875C26.7063 16.875 26.9925 16.9935 27.2035 17.2045C27.4144 17.4155 27.533 17.7016 27.533 18C27.533 18.2984 27.4144 18.5845 27.2035 18.7955C26.9925 19.0065 26.7063 19.125 26.408 19.125H13.3737L18.2045 23.9535C18.3091 24.0581 18.392 24.1823 18.4486 24.3189C18.5052 24.4556 18.5344 24.6021 18.5344 24.75C18.5344 24.8979 18.5052 25.0444 18.4486 25.1811C18.392 25.3177 18.3091 25.4419 18.2045 25.5465C18.0999 25.6511 17.9757 25.7341 17.839 25.7907C17.7024 25.8473 17.5559 25.8764 17.408 25.8764C17.26 25.8764 17.1136 25.8473 16.9769 25.7907C16.8402 25.7341 16.7161 25.6511 16.6115 25.5465L9.86146 18.7965C9.75669 18.692 9.67357 18.5679 9.61686 18.4312C9.56014 18.2945 9.53095 18.148 9.53095 18C9.53095 17.852 9.56014 17.7055 9.61686 17.5688C9.67357 17.4321 9.75669 17.308 9.86146 17.2035L16.6115 10.4535C16.7161 10.3489 16.8402 10.2659 16.9769 10.2093C17.1136 10.1527 17.26 10.1236 17.408 10.1236C17.5559 10.1236 17.7024 10.1527 17.839 10.2093C17.9757 10.2659 18.0999 10.3489 18.2045 10.4535C18.3091 10.5581 18.392 10.6823 18.4486 10.8189C18.5052 10.9556 18.5344 11.1021 18.5344 11.25C18.5344 11.3979 18.5052 11.5444 18.4486 11.6811C18.392 11.8177 18.3091 11.9419 18.2045 12.0465L13.3737 16.875H26.408Z" fill="#0B78D0"/>
</g>
<defs>
<clipPath id="clip0_332_5323">
<rect width="36" height="36" fill="white" transform="matrix(-1 0 0 1 36.533 0)"/>
</clipPath>
</defs>
</svg>
