<svg width="65" height="45" viewBox="0 0 65 45" fill="none" xmlns="http://www.w3.org/2000/svg">
<path d="M5.03133 21.3616L2.89978 24.9126H31.1453L33.2744 21.3616H5.03133ZM31.8574 41.4491L29.7259 45.0001H57.1793L59.3084 41.4491H31.8574Z" fill="#0B78D0"/>
<path d="M33.2744 21.3616L29.7258 21.3834V45.0001L33.2744 44.9758V21.3616Z" fill="#0B78D0"/>
<path d="M7.11194 18.8909C6.95207 18.7213 3.16856 14.6544 1.36159 11.755C0.416413 10.2113 -0.0551993 8.4242 0.00514467 6.61509C0.0221002 3.93853 1.36159 1.81182 3.68692 0.775113C5.19596 0.101736 6.78736 0 8.30125 0C9.81514 0 11.4017 0.0920473 12.9107 0.775113C15.2361 1.81425 16.578 3.94096 16.5925 6.61509C16.6506 8.42449 16.1807 10.2097 15.2361 11.755C13.4291 14.6617 9.64316 18.7189 9.48571 18.8909L8.30125 20.1771L7.11436 18.8885L7.11194 18.8909ZM8.3061 3.26758C7.16281 3.26758 5.98076 3.32571 5.02156 3.75444C3.84194 4.28006 3.27756 5.232 3.27756 6.6708V6.77253C3.25576 7.91824 3.5537 9.047 4.13503 10.0328C5.18627 11.7163 7.12405 14.0004 8.31578 15.3496C9.50751 13.9932 11.4501 11.7042 12.4965 10.0353C13.0706 9.05911 13.3637 7.94246 13.3443 6.81129V6.68048C13.3443 5.24411 12.7727 4.29217 11.6003 3.77382C10.629 3.32329 9.43969 3.26758 8.30367 3.26758H8.30852H8.3061Z" fill="#0B78D0"/>
<path d="M8.30125 9.24799C7.44863 9.24799 6.80432 9.09055 6.33198 8.76839C5.94443 8.51164 5.4939 8.00297 5.4939 7.05346C5.4939 6.10395 5.94927 5.59528 6.33198 5.33368C6.80432 5.01153 7.44863 4.85651 8.29883 4.85651C9.14903 4.85651 9.78607 5.01153 10.2608 5.33368C10.6484 5.59286 11.1013 6.10879 11.1013 7.04862C11.1013 7.98844 10.646 8.50922 10.2632 8.76839C9.78849 9.09055 9.14418 9.24799 8.2964 9.24799H8.30125Z" fill="#0B78D0"/>
<path d="M54.6649 39.0728C54.5051 38.9033 50.7215 34.8339 48.9146 31.937C47.9697 30.3931 47.4981 28.6061 47.5581 26.797C47.5751 24.1205 48.9146 21.9937 51.2399 20.9595C52.7489 20.2861 54.35 20.1843 55.8542 20.1843C57.3584 20.1843 58.9547 20.2764 60.4637 20.9498C62.789 21.9889 64.131 24.1156 64.1455 26.7922C64.2036 28.6016 63.7337 30.3867 62.789 31.9321C60.9821 34.8291 57.1961 38.896 57.0387 39.068L55.8445 40.3493L54.6673 39.0752L54.6649 39.0728ZM55.8591 23.4471C54.7158 23.4471 53.5337 23.5076 52.5745 23.9339C51.3949 24.462 50.8305 25.4139 50.8305 26.8503V26.952C50.8087 28.0953 51.1067 29.2241 51.688 30.2099C52.7393 31.8934 54.677 34.1775 55.8688 35.5267C57.0605 34.1702 59.0031 31.8812 60.0495 30.2123C60.6309 29.2362 60.9288 28.1171 60.9094 26.9811V26.8503C60.9094 25.4115 60.3378 24.4596 59.1654 23.9339C58.1844 23.5028 56.9975 23.4446 55.8591 23.4446V23.4471ZM12.482 1.74882C11.1473 1.15537 9.68429 1.07544 8.3012 1.07544C6.91811 1.07544 5.45509 1.15537 4.12045 1.74882C2.15603 2.62324 1.0733 4.36482 1.06603 6.65139C1.01516 8.25006 1.43421 9.82934 2.26503 11.1955C4.00903 13.981 7.7344 18.0019 7.88458 18.1715L8.3012 18.6172L8.7154 18.1715C8.87284 18.0019 12.6055 13.9835 14.335 11.1955C15.1651 9.82879 15.5785 8.24955 15.5243 6.65139C15.5243 4.36482 14.4415 2.62566 12.4771 1.74882H12.482ZM13.3806 10.5972C12.0242 12.7554 9.33549 15.8025 8.3012 16.9434C7.26691 15.8025 4.57098 12.7554 3.2218 10.5948C2.5217 9.42556 2.16806 8.08157 2.20205 6.71921V6.67562C2.20205 4.82988 3.0256 3.48555 4.58067 2.79037C5.72153 2.28171 7.04165 2.20904 8.29878 2.20904C9.55591 2.20904 10.876 2.27928 12.0169 2.79037C13.5671 3.48555 14.3955 4.82988 14.3955 6.66593V6.70953C14.4369 8.07656 14.0828 9.42647 13.3758 10.5972H13.3806Z" fill="#0B78D0"/>
<path d="M63.0895 26.8285C63.0895 24.5419 61.9995 22.8027 60.0375 21.9259C58.7029 21.3445 57.2398 21.2525 55.8567 21.2525C54.4737 21.2525 53.0106 21.3324 51.676 21.9259C49.714 22.8027 48.6288 24.5419 48.624 26.8285C48.5698 28.4266 48.9831 30.0059 49.8133 31.3725C51.5573 34.1605 55.2827 38.179 55.4329 38.3485L55.8495 38.7942L56.2637 38.3485C56.4211 38.179 60.1538 34.1605 61.8832 31.3725C62.7186 30.0073 63.1377 28.4282 63.0895 26.8285ZM60.9361 30.7767C59.5797 32.9325 56.891 35.982 55.8567 37.1205C54.8225 35.982 52.1265 32.9349 50.7773 30.7718C50.0748 29.6037 49.7209 28.2589 49.7576 26.8963V26.8527C49.7576 25.0069 50.5787 23.6602 52.1362 22.9674C53.2746 22.4563 54.5972 22.3861 55.8543 22.3861C57.1114 22.3861 58.4316 22.4588 59.5724 22.9674C61.1226 23.6602 61.951 25.0045 61.951 26.8527V26.8963C61.9922 28.26 61.6386 29.6092 60.9313 30.7767H60.9361Z" fill="#0B78D0"/>
<path d="M55.8591 29.4252C55.0065 29.4252 54.3622 29.2677 53.8899 28.9456C53.5023 28.6888 53.0518 28.1801 53.0518 27.2282C53.0518 26.2763 53.5071 25.77 53.8899 25.5108C54.3646 25.1887 55.0089 25.0312 55.8591 25.0312C56.7093 25.0312 57.3464 25.1887 57.8211 25.5084C58.2087 25.7676 58.6616 26.2835 58.6616 27.2234C58.6616 28.1632 58.2087 28.684 57.8211 28.9431C57.3512 29.2653 56.7069 29.4227 55.8591 29.4227V29.4252Z" fill="#0B78D0"/>
</svg>
