<svg width="77" height="60" viewBox="0 0 77 60" fill="none" xmlns="http://www.w3.org/2000/svg">
<path d="M38.5 59.2889C31.0567 59.2889 23.1 58.7756 16.17 55.6956C5.64667 50.8189 0 41.8356 0 29.5156C0 17.1956 5.64667 8.21223 16.17 3.59223C23.1 0.512235 31.0567 -0.00109863 38.5 -0.00109863C45.9433 -0.00109863 53.9 0.512235 60.83 3.59223C71.0967 8.21223 77 17.4522 77 29.5156C77 41.5789 71.3533 50.8189 60.83 55.4389C53.9 58.7756 45.9433 59.2889 38.5 59.2889ZM38.5 4.36223C31.57 4.36223 24.1267 4.87557 17.9667 7.6989C9.24 11.5489 4.36333 19.5056 4.36333 29.7722C4.36333 40.0389 9.24 47.9956 17.9667 51.8456C24.3833 54.6689 31.57 55.1822 38.5 55.1822C45.43 55.1822 52.8733 54.6689 59.0333 51.8456C67.76 47.9956 72.6367 40.0389 72.6367 29.7722C72.6367 19.5056 67.76 11.5489 59.0333 7.44223C52.8733 4.6189 45.43 4.36223 38.5 4.36223Z" fill="#5FB25C"/>
<path d="M38.2453 38.7566L35.1653 41.8366L32.0853 38.7566L22.5886 29.2599L27.4653 27.9766L38.2453 38.7566Z" fill="#5FB25C"/>
<path d="M57.4934 19.2489L35.1634 41.5789L32.0834 38.4989L35.1634 35.4189L52.6167 17.9656L57.4934 19.2489Z" fill="#5FB25C"/>
</svg>
