<svg width="42" height="42" viewBox="0 0 42 42" fill="none" xmlns="http://www.w3.org/2000/svg">
<path opacity="0.5" d="M42 21C42 15.4305 39.7875 10.089 35.8492 6.15076C31.911 2.21249 26.5695 0 21 0C15.4305 0 10.089 2.21249 6.15076 6.15076C2.21249 10.089 0 15.4305 0 21C0 26.5695 2.21249 31.911 6.15076 35.8492C10.089 39.7875 15.4305 42 21 42C26.5695 42 31.911 39.7875 35.8492 35.8492C39.7875 31.911 42 26.5695 42 21ZM22.3125 30.1875C22.3125 30.5356 22.1742 30.8694 21.9281 31.1156C21.6819 31.3617 21.3481 31.5 21 31.5C20.6519 31.5 20.3181 31.3617 20.0719 31.1156C19.8258 30.8694 19.6875 30.5356 19.6875 30.1875V14.9809L14.0543 20.6168C13.8078 20.8632 13.4735 21.0017 13.125 21.0017C12.7765 21.0017 12.4422 20.8632 12.1957 20.6168C11.9493 20.3703 11.8108 20.036 11.8108 19.6875C11.8108 19.339 11.9493 19.0047 12.1957 18.7582L20.0707 10.8832C20.1927 10.761 20.3375 10.664 20.497 10.5979C20.6564 10.5317 20.8274 10.4977 21 10.4977C21.1726 10.4977 21.3436 10.5317 21.503 10.5979C21.6625 10.664 21.8073 10.761 21.9293 10.8832L29.8043 18.7582C30.0507 19.0047 30.1892 19.339 30.1892 19.6875C30.1892 20.036 30.0507 20.3703 29.8043 20.6168C29.5578 20.8632 29.2235 21.0017 28.875 21.0017C28.5265 21.0017 28.1922 20.8632 27.9457 20.6168L22.3125 14.9809V30.1875Z" fill="#076284"/>
</svg>
